<svg width="256" height="256" viewBox="0 0 48 48" fill="none" xmlns="http://www.w3.org/2000/svg">
<g clip-path="url(#clip0_347_6972)">
<path d="M12 30V40C12 42.761 19.387 45 28.5 45C37.613 45 45 42.761 45 40V30H12Z" fill="#881421"/>
<path d="M12 19V30C12 32.761 19.387 35 28.5 35C37.613 35 45 32.761 45 30V19H12Z" fill="#AF2031"/>
<path d="M12 8V19C12 21.761 19.387 24 28.5 24C37.613 24 45 21.761 45 19V8H12Z" fill="#C94F60"/>
<path d="M28.5 13C37.6127 13 45 10.7614 45 8C45 5.23858 37.6127 3 28.5 3C19.3873 3 12 5.23858 12 8C12 10.7614 19.3873 13 28.5 13Z" fill="#E08095"/>
<path opacity="0.1" d="M24.167 12H12V37H24.167C24.6527 36.9984 25.118 36.8048 25.4614 36.4614C25.8048 36.118 25.9984 35.6527 26 35.167V13.833C25.9984 13.3473 25.8048 12.882 25.4614 12.5386C25.118 12.1952 24.6527 12.0016 24.167 12Z" fill="black"/>
<path opacity="0.2" d="M23.167 13H12V38H23.167C23.6527 37.9984 24.118 37.8048 24.4614 37.4614C24.8048 37.118 24.9984 36.6527 25 36.167V14.833C24.9984 14.3473 24.8048 13.882 24.4614 13.5386C24.118 13.1952 23.6527 13.0016 23.167 13Z" fill="black"/>
<path opacity="0.2" d="M23.167 13H12V36H23.167C23.6527 35.9984 24.118 35.8048 24.4614 35.4614C24.8048 35.118 24.9984 34.6527 25 34.167V14.833C24.9984 14.3473 24.8048 13.882 24.4614 13.5386C24.118 13.1952 23.6527 13.0016 23.167 13Z" fill="black"/>
<path opacity="0.2" d="M22.167 13H12V36H22.167C22.6527 35.9984 23.118 35.8048 23.4614 35.4614C23.8048 35.118 23.9984 34.6527 24 34.167V14.833C23.9984 14.3473 23.8048 13.882 23.4614 13.5386C23.118 13.1952 22.6527 13.0016 22.167 13Z" fill="black"/>
<path d="M22.167 13H3.833C2.82066 13 2 13.8207 2 14.833V33.167C2 34.1793 2.82066 35 3.833 35H22.167C23.1793 35 24 34.1793 24 33.167V14.833C24 13.8207 23.1793 13 22.167 13Z" fill="url(#paint0_linear_347_6972)"/>
<path d="M11.683 18.041H14.383L18.721 29.958H16.171L15.215 27.116H10.752L9.81301 29.958H7.27901L11.683 18.041ZM14.641 25.28L13.254 20.967C13.1406 20.6509 13.0556 20.3252 13 19.994H12.95C12.8985 20.3344 12.8151 20.6692 12.701 20.994L11.301 25.282L14.641 25.28Z" fill="white"/>
</g>
<defs>
<linearGradient id="paint0_linear_347_6972" x1="5.822" y1="11.568" x2="20.178" y2="36.432" gradientUnits="userSpaceOnUse">
<stop stop-color="#B72C3F"/>
<stop offset="0.5" stop-color="#B12334"/>
<stop offset="1" stop-color="#9D1623"/>
</linearGradient>
<clipPath id="clip0_347_6972">
<rect width="48" height="48" fill="white"/>
</clipPath>
</defs>
</svg>
