<svg width="638" height="638" fill="none" xmlns="http://www.w3.org/2000/svg"><g clip-path="url(#clip0)"><path d="M306.011 173.837c4.281-.376 8.607-.587 12.989-.587 80.492 0 145.75 65.257 145.75 145.75 0 12.732-1.641 25.089-4.712 36.868l47.328 101.622 103.29-9.084C628.228 408.852 638 365.062 638 319 638 142.817 495.183 0 319 0c-4.162 0-8.296.083-12.412.238l60.555 86.387-61.132 87.212z" fill="#C51F4B"/><path d="M93.692 393.497l106.077 9.332C183.068 379.124 173.25 350.203 173.25 319c0-67.128 45.393-123.649 107.149-140.571l64.35-91.804-59.482-84.856C124.951 18.617 0 154.211 0 319c0 62.562 18.012 120.917 49.133 170.17l44.56-95.673z" fill="#FFC52F"/><path d="M496.174 476.877l-44.944-96.506c-23.165 49.82-73.655 84.379-132.23 84.379-39.911 0-76.065-16.042-102.382-42.029l-111.733-9.827-43.752 93.94C119.149 586.336 213.043 638 319 638c122.513 0 228.892-69.062 282.334-170.381l-105.16 9.258z" fill="#499F40"/><path d="M358.336 576.602H270.4c-2.42 0-4.4-1.971-4.4-4.4v-58.621c0-2.42 1.971-4.4 4.4-4.4h87.936c2.42 0 4.4 1.971 4.4 4.4v58.621c0 2.429-1.98 4.4-4.4 4.4zM270.4 512.114c-.807 0-1.467.66-1.467 1.467v58.621c0 .806.66 1.466 1.467 1.466h87.936a1.47 1.47 0 001.466-1.466v-58.621a1.47 1.47 0 00-1.466-1.467H270.4zM329.021 598.583h-29.315a1.47 1.47 0 01-1.467-1.466c0-.807.66-1.467 1.467-1.467h29.315c.807 0 1.467.66 1.467 1.467 0 .806-.651 1.466-1.467 1.466z" fill="#fff"/><path d="M303.208 598.473l-1.128-2.704c.248-.11 6.426-2.961 6.426-14.768h2.933c0 13.879-7.892 17.335-8.231 17.472zM325.529 598.473c-.34-.137-8.232-3.593-8.232-17.472h2.933c0 11.807 6.179 14.658 6.435 14.777l-1.136 2.695zM280.218 543.702a1.45 1.45 0 01-.999-.394 2.662 2.662 0 00-.165-.146c-2.741-2.668-4.263-6.243-4.263-10.075 0-7.745 6.307-14.052 14.053-14.052.806 0 1.503.66 1.503 1.467v13.071c0 .385-.156.761-.431 1.036l-8.672 8.672c-.275.275-.65.421-1.026.421zm7.205-21.642c-5.482.715-9.699 5.39-9.699 11.027 0 2.604.89 5.07 2.521 7.05l7.178-7.178V522.06z" fill="#fff"/><path d="M288.926 547.287c-1.623 0-3.218-.275-4.739-.816a1.464 1.464 0 01-.89-1.87 1.471 1.471 0 011.87-.889c1.201.43 2.466.641 3.759.641 6.178 0 11.201-5.023 11.201-11.201 0-4.336-2.539-8.324-6.471-10.157a1.453 1.453 0 01-.706-1.943 1.452 1.452 0 011.943-.706 14.19 14.19 0 018.168 12.815c-.009 7.791-6.344 14.126-14.135 14.126zM301.182 559.011h-23.449a1.47 1.47 0 01-1.466-1.467c0-.807.66-1.467 1.466-1.467h23.449c.806 0 1.466.66 1.466 1.467a1.47 1.47 0 01-1.466 1.467zM301.182 567.811h-23.449a1.47 1.47 0 01-1.466-1.467c0-.807.66-1.467 1.466-1.467h23.449c.806 0 1.466.66 1.466 1.467a1.47 1.47 0 01-1.466 1.467zM330.121 543.62h-.073a1.478 1.478 0 01-1.109-.587l-4.63-6.233-4.537 4.363a1.477 1.477 0 01-1.045.413 1.468 1.468 0 01-1.027-.459l-3.831-4.015-1.44 1.339a1.464 1.464 0 01-2.071-.074 1.463 1.463 0 01.073-2.071l2.493-2.338a1.47 1.47 0 012.063.055l3.813 4.006 4.675-4.501c.303-.293.715-.44 1.137-.403.422.036.807.247 1.054.586l4.556 6.133 10.065-11.128a1.476 1.476 0 011.091-.486 1.5 1.5 0 011.091.486l1.668 1.851 7.517-8.671a1.465 1.465 0 012.071-.147c.614.532.679 1.457.147 2.072l-8.608 9.918a1.443 1.443 0 01-1.09.504c-.431 0-.825-.174-1.1-.486l-1.687-1.879-10.175 11.248c-.284.33-.678.504-1.091.504z" fill="#fff"/><path d="M353.175 528.357a1.47 1.47 0 01-1.466-1.466v-3.053h-3.053c-.807 0-1.467-.66-1.467-1.467 0-.806.66-1.466 1.467-1.466h4.519c.807 0 1.467.66 1.467 1.466v4.52c0 .806-.651 1.466-1.467 1.466zM321.697 567.811h-8.791c-.807 0-1.467-.66-1.467-1.467v-14.658c0-.806.66-1.466 1.467-1.466h8.791c.807 0 1.467.66 1.467 1.466v14.658c0 .807-.66 1.467-1.467 1.467zm-7.333-2.934h5.866v-11.724h-5.866v11.724zM337.821 567.811h-8.791c-.807 0-1.467-.66-1.467-1.467v-7.324c0-.807.66-1.467 1.467-1.467h8.791c.807 0 1.467.66 1.467 1.467v7.324c0 .807-.66 1.467-1.467 1.467zm-7.333-2.934h5.866v-4.4h-5.866v4.4zM353.936 567.811h-8.791a1.47 1.47 0 01-1.466-1.467v-26.382c0-.806.66-1.466 1.466-1.466h8.791c.807 0 1.467.66 1.467 1.466v26.382c0 .807-.651 1.467-1.467 1.467zm-7.324-2.934h5.867v-23.448h-5.867v23.448zM489.017 278.3h-.119a1.466 1.466 0 01-1.347-1.577l2.97-37.757a1.474 1.474 0 011.576-1.348c.807.064 1.412.77 1.348 1.577l-2.97 37.757a1.454 1.454 0 01-1.458 1.348zM503.629 199.806c-.23 0-.459-.009-.688-.018-2.475-.165-4.583-1.174-6.087-2.915-1.75-2.017-2.585-4.895-2.346-8.095.449-6.105 4.528-10.11 9.955-9.744 2.475.165 4.583 1.174 6.086 2.915 1.751 2.017 2.585 4.895 2.347 8.094-.431 5.84-4.198 9.763-9.267 9.763zm.11-17.875c-4.263 0-6.069 3.74-6.316 7.049-.174 2.42.403 4.538 1.641 5.958.999 1.155 2.374 1.797 4.079 1.907 4.647.339 6.581-3.593 6.829-7.031.174-2.42-.403-4.537-1.641-5.958-.999-1.155-2.374-1.797-4.079-1.907a9.434 9.434 0 00-.513-.018zm7.7 8.002h.018-.018zM553.395 175.643c-3.786 0-7.242-2.503-9.03-6.866-1.219-2.97-1.32-5.968-.284-8.424.889-2.118 2.585-3.731 4.886-4.657 5.033-2.035 10.166.504 12.494 6.169 1.219 2.97 1.32 5.968.284 8.424-.889 2.118-2.585 3.731-4.885 4.666-1.165.458-2.329.688-3.465.688zm-6.316-7.975c1.311 3.19 4.372 6.297 8.681 4.565 1.585-.642 2.685-1.678 3.281-3.08.734-1.742.624-3.933-.293-6.179-1.311-3.19-4.373-6.297-8.681-4.565-1.586.642-2.686 1.678-3.282 3.08-.733 1.742-.623 3.933.294 6.179z" fill="#fff"/><path d="M525.867 263.212c-.073 0-.138 0-.211-.019a1.465 1.465 0 01-1.237-1.659l2.832-19.442c.33-1.577.055-3.08-.77-4.327a5.489 5.489 0 00-3.492-2.374l-13.622-2.805a1.468 1.468 0 01-1.164-1.595l2.282-20.708a3.675 3.675 0 00-.834-2.777 3.652 3.652 0 00-2.548-1.32l-13.054-.999c-3.547-.275-7.03 1.365-9.102 4.271l-9.332 13.649-2.649 12.44a1.46 1.46 0 00.321 1.274c.293.348.706.531 1.182.522a1.48 1.48 0 001.366-1.054l3.658-12.164c.064-.211.174-.403.321-.568l10.505-11.44a1.47 1.47 0 011.714-.33c.577.275.916.898.816 1.54l-1.935 12.989c-1.145 8.47-.009 12.265 10.01 13.731l18.966 2.87c.761.11 1.302.797 1.238 1.567l-1.43 17.38c-.064.807-.779 1.393-1.577 1.338a1.463 1.463 0 01-1.338-1.585l1.32-16.015-17.609-2.667c-12.128-1.778-13.76-7.599-12.485-17.041l1.237-8.287-7.049 7.673-3.566 11.834a4.415 4.415 0 01-4.061 3.144c-1.375.074-2.649-.522-3.529-1.567a4.422 4.422 0 01-.944-3.768l2.704-12.714c.037-.183.119-.367.22-.522l9.515-13.906c2.677-3.759 7.168-5.867 11.724-5.519l13.054 1a6.558 6.558 0 014.583 2.374 6.595 6.595 0 011.485 4.968l-2.136 19.378 12.32 2.53a8.347 8.347 0 015.353 3.64 8.495 8.495 0 011.201 6.453l-2.814 19.351a1.451 1.451 0 01-1.439 1.256z" fill="#fff"/><path d="M497.533 278.419c-.065 0-.138 0-.202-.018a1.472 1.472 0 01-1.256-1.65l4.098-29.874c.11-.798.843-1.375 1.65-1.256.797.11 1.365.852 1.255 1.65l-4.097 29.874a1.463 1.463 0 01-1.448 1.274zM551.351 248.664c-.046 0-.101 0-.147-.009a1.461 1.461 0 01-1.311-1.604l1.595-16.124a8.577 8.577 0 012.475-5.271l9.433-10.817-4.795-16.381a1.462 1.462 0 011-1.815 1.457 1.457 0 011.815 1l5.014 17.15c.137.477.027 1-.303 1.375l-10.028 11.495c-.999 1-1.577 2.237-1.696 3.548l-1.604 16.133a1.46 1.46 0 01-1.448 1.32z" fill="#fff"/><path d="M560.764 248.912c-.073 0-.146-.009-.229-.019a1.468 1.468 0 01-1.228-1.668l2.31-15.024c.055-.385.275-.733.596-.963l19.176-13.805c3.685-2.218 4.116-7.397 2.448-11.165l-12.705-24.539a6.575 6.575 0 00-8.333-3.089l-6.022 2.438a6.605 6.605 0 00-3.914 4.474l-2.503 14.868a1.486 1.486 0 01-.641.99l-13.622 8.855a1.465 1.465 0 11-1.595-2.457l13.081-8.506 2.42-14.355c.779-3.044 2.887-5.454 5.683-6.582l6.023-2.438a9.486 9.486 0 0112.035 4.455l12.742 24.621c2.182 4.941 1.678 11.78-3.483 14.878l-18.572 13.374-2.218 14.419a1.474 1.474 0 01-1.449 1.238z" fill="#fff"/><path d="M536.876 215.93a1.46 1.46 0 01-1.347-.898 1.478 1.478 0 01.779-1.925l15.702-6.619 8.14-12.026a1.47 1.47 0 012.035-.395c.67.45.844 1.366.395 2.035l-8.388 12.385a1.45 1.45 0 01-.642.531l-16.105 6.793a1.418 1.418 0 01-.569.119zM598.916 248.673c-.504 0-.999-.266-1.274-.733l-9.185-15.996a1.376 1.376 0 01-.174-.495l-3.337-20.286a1.476 1.476 0 011.21-1.686c.798-.147 1.549.403 1.687 1.21l3.291 20.02 9.056 15.766a1.458 1.458 0 01-.541 1.999 1.43 1.43 0 01-.733.201zM590.061 249.278c-.458 0-.908-.21-1.192-.614l-9.771-13.676a1.483 1.483 0 01-.23-.505l-2.814-11.605a1.465 1.465 0 112.851-.687l2.741 11.33 9.607 13.447c.467.66.32 1.577-.34 2.045a1.531 1.531 0 01-.852.265z" fill="#fff"/><path d="M524.593 223.346c-.165 0-.33-.028-.495-.083l-9.424-3.382a1.465 1.465 0 01-.88-1.879 1.465 1.465 0 011.879-.88l8.773 3.153 10.349-6.215c.046-.027.092-.055.138-.073a1.567 1.567 0 00.815-1.953l-.366-1.045-.853-1.366.679 1.302-9.882 5.161a1.46 1.46 0 01-1.448-.055l-14.447-8.947a1.468 1.468 0 01-.477-2.016 1.462 1.462 0 012.017-.477l13.741 8.507 9.139-4.776a3.05 3.05 0 014.29 1.686l.367 1.045a4.471 4.471 0 01-2.274 5.546l-10.881 6.536a1.505 1.505 0 01-.76.211zM509.578 278.584H479.5c-.807 0-1.467-.66-1.467-1.467 0-.806.66-1.466 1.467-1.466h28.611v-13.182c0-.807.66-1.467 1.467-1.467h27.848v-13.19c0-.807.66-1.467 1.467-1.467h65.954a1.46 1.46 0 011.467 1.467 1.47 1.47 0 01-1.467 1.466h-64.488v13.191a1.47 1.47 0 01-1.466 1.467h-27.849v13.191a1.469 1.469 0 01-1.466 1.457zM124.315 184.769a1.45 1.45 0 01-.861-.284 1.464 1.464 0 01-.321-2.044l18.031-24.814a1.456 1.456 0 012.044-.321c.651.476.797 1.393.321 2.044l-18.031 24.814a1.448 1.448 0 01-1.183.605zM118.229 185.631c-.239 0-.486-.055-.706-.184l-14.814-8.176a1.474 1.474 0 01-.577-1.989 1.463 1.463 0 011.989-.578l14.813 8.177a1.465 1.465 0 01-.705 2.75zM80.883 197.612c-.348 0-.696-.119-.971-.367a1.466 1.466 0 01-.12-2.072L96.1 176.849a1.466 1.466 0 112.19 1.953l-16.316 18.315a1.464 1.464 0 01-1.09.495z" fill="#fff"/><path d="M78.133 204.202A5.136 5.136 0 0173 199.069c0-2.832 2.3-5.133 5.133-5.133a5.137 5.137 0 015.134 5.133c0 2.833-2.301 5.133-5.134 5.133zm0-7.324c-1.21 0-2.2.99-2.2 2.2 0 1.21.99 2.2 2.2 2.2 1.21 0 2.2-.99 2.2-2.2a2.2 2.2 0 00-2.2-2.2zM145.004 160.597a5.137 5.137 0 01-5.133-5.134 5.137 5.137 0 015.133-5.133 5.137 5.137 0 015.134 5.133 5.143 5.143 0 01-5.134 5.134zm0-7.324c-1.21 0-2.2.99-2.2 2.2 0 1.21.99 2.2 2.2 2.2 1.21 0 2.2-.99 2.2-2.2 0-1.21-.99-2.2-2.2-2.2zM99.391 180.021a5.137 5.137 0 01-5.133-5.134c0-2.832 2.3-5.133 5.133-5.133a5.136 5.136 0 015.133 5.133 5.143 5.143 0 01-5.133 5.134zm0-7.324c-1.21 0-2.2.99-2.2 2.2 0 1.21.99 2.2 2.2 2.2 1.21 0 2.2-.99 2.2-2.2a2.206 2.206 0 00-2.2-2.2zM121.373 191.195a5.137 5.137 0 01-5.134-5.133 5.137 5.137 0 015.134-5.134 5.137 5.137 0 015.133 5.134 5.142 5.142 0 01-5.133 5.133zm0-7.324c-1.21 0-2.2.99-2.2 2.2 0 1.21.99 2.2 2.2 2.2 1.21 0 2.2-.99 2.2-2.2a2.2 2.2 0 00-2.2-2.2z" fill="#fff"/><path d="M112.582 205.66c-7.132 0-14.263-2.713-19.69-8.14-10.853-10.853-10.853-28.527 0-39.38 10.853-10.853 28.527-10.853 39.38 0 10.853 10.853 10.853 28.527 0 39.38-5.427 5.427-12.558 8.14-19.69 8.14zm-17.618-10.212c9.716 9.717 25.52 9.717 35.236 0 9.717-9.716 9.717-25.52 0-35.236-9.716-9.717-25.52-9.717-35.236 0-9.708 9.716-9.708 25.52 0 35.236zM156.719 229.292a7.294 7.294 0 01-5.179-2.145l-14.511-14.511a1.47 1.47 0 010-2.072l8.286-8.286a1.47 1.47 0 012.072 0l14.511 14.51a7.337 7.337 0 010 10.368 7.322 7.322 0 01-5.179 2.136zm-3.108-4.217c1.714 1.714 4.51 1.714 6.215 0a4.399 4.399 0 000-6.215l-13.475-13.475-6.215 6.215 13.475 13.475z" fill="#fff"/><path d="M140.136 211.6l-12.439-12.439 2.072-2.072 10.367 10.368 2.072-2.072-10.358-10.368 2.071-2.071 12.43 12.439-6.215 6.215z" fill="#fff"/><path d="M131.85 206.852a1.466 1.466 0 01-1.036-2.503l8.296-8.296a1.472 1.472 0 012.071 0 1.47 1.47 0 010 2.072l-8.286 8.287c-.303.293-.679.44-1.045.44z" fill="#fff"/></g><defs><clipPath id="clip0"><path fill="#fff" d="M0 0h638v638H0z"/></clipPath></defs></svg>
