<svg xmlns="http://www.w3.org/2000/svg" viewBox="0 0 124 46">
  <title>Logo amplify 25th anniversary</title>
  <g data-name="Layer 1">
    <path d="M0 30.268c0-.545.417-.96.96-.96h2.049l5.667-18.567H5.954c-.543 0-.96-.417-.96-.96s.417-.96.96-.96H12.9c.641 0 1.089.384 1.248.96l5.986 19.527h5.122V17.302h-1.537c-.543 0-.96-.415-.96-.96s.417-.96.96-.96h3.106c.543 0 .96.417.96.96v1.601c2.144-1.984 3.938-2.88 5.986-2.88 2.623 0 3.84 1.441 4.224 3.009 2.113-2.113 4.195-3.009 6.339-3.009 3.84 0 4.417 2.849 4.417 4.577v9.669h1.665c.545 0 .96.415.96.96s-.415.96-.96.96h-6.051c-.543 0-.96-.417-.96-.96s.417-.96.96-.96h1.793v-9.476c0-1.537-.8-2.53-2.497-2.53-1.729 0-3.554 1.024-5.379 2.722v9.283h1.665c.543 0 .96.415.96.96s-.417.96-.96.96h-6.051c-.543 0-.96-.417-.96-.96s.417-.96.96-.96h1.793v-9.476c0-1.537-.8-2.53-2.497-2.53-1.729 0-3.554 1.024-5.346 2.722v9.283h1.792c.545 0 .96.415.96.96s-.415.96-.96.96H15.073c-.543 0-.96-.417-.96-.96s.417-.96.96-.96h2.177l-2.017-6.946H7.648l-1.953 6.946h2.177c.543 0 .96.415.96.96s-.417.96-.96.96H.96a.944.944 0 0 1-.96-.96Zm14.598-9.989L11.94 10.74h-.927l-2.689 9.539zm38.732 16.07h1.792V17.301h-1.537c-.543 0-.96-.415-.96-.96s.417-.96.96-.96h3.106c.543 0 .96.417.96.96v1.601c1.089-1.76 2.978-2.88 5.41-2.88 4.162 0 7.011 3.137 7.011 8.162 0 4.898-2.689 8.323-7.106 8.323-2.146 0-4.066-.8-5.25-2.721v7.523h2.304c.545 0 .96.415.96.96s-.415.96-.96.96h-6.689c-.545 0-.96-.417-.96-.96s.415-.96.96-.96Zm9.25-6.915c2.722 0 4.898-1.951 4.898-6.113s-2.208-6.115-4.898-6.115-4.898 1.953-4.898 6.115 2.21 6.113 4.898 6.113m10.277-.126h2.113V10.1h-2.113c-.545 0-.96-.417-.96-.96s.415-.96.96-.96h3.745c.543 0 .96.415.96.96v20.167h2.113c.543 0 .96.415.96.96s-.417.96-.96.96h-6.818c-.545 0-.96-.417-.96-.96s.415-.96.96-.96Zm10.339 0h2.113V17.302h-2.113c-.543 0-.96-.415-.96-.96s.417-.96.96-.96h3.745c.545 0 .96.417.96.96v12.966h2.113c.545 0 .96.415.96.96s-.415.96-.96.96h-6.818c-.543 0-.96-.417-.96-.96s.417-.96.96-.96m3.233-20.809c1.217 0 2.177.96 2.177 2.177 0 1.184-.96 2.144-2.177 2.144a2.144 2.144 0 0 1-2.144-2.144c0-1.217.96-2.177 2.144-2.177m7.106 20.809h2.113V17.302h-2.113c-.543 0-.96-.415-.96-.96s.417-.96.96-.96h2.113v-2.24c0-3.49 2.273-5.507 5.57-5.507 1.377 0 2.625.288 3.425.576 1.472.512.865 2.689-.767 2.113-.672-.224-1.57-.479-2.497-.479-2.273 0-3.137 1.504-3.137 3.521v2.016h9.827c.543 0 .96.417.96.96s-.417.96-.96.96h-1.696l4.353 11.237 4.483-11.237h-1.825c-.545 0-.96-.415-.96-.96s.415-.96.96-.96h5.57c.543 0 .96.417.96.96s-.417.96-.96.96h-1.184l-5.827 13.893c-1.696 4.033-3.042 7.17-7.523 7.17-.865 0-1.696-.127-2.208-.288-1.441-.479-.865-2.399.352-2.175.576.095 1.215.255 1.76.255 1.377 0 2.337-.479 3.04-1.28.705-.8 1.248-1.922 1.601-2.754l.321-.767-5.603-14.054h-5.441v12.006h2.432c.543 0 .96.415.96.96s-.417.96-.96.96h-7.139c-.543 0-.96-.417-.96-.96s.417-.96.96-.96m27.862-2.69c1.377 0 2.465 1.089 2.465 2.464s-1.089 2.465-2.465 2.465-2.464-1.089-2.464-2.465 1.089-2.464 2.464-2.464" fill="#f37321" data-name="Amplify Wordmark (Screen)"/>
  </g>
</svg>
