<svg version="1" xmlns="http://www.w3.org/2000/svg" width="16" height="20" viewBox="-238.855 410.635 16 20">
  <path d="M-227.967 413.84c.679-.863 1.139-2.021 1.018-3.205-.993.05-2.204.666-2.906 1.529-.63.74-1.187 1.947-1.042 3.082 1.114.098 2.228-.568 2.93-1.406m1.005 1.627c-1.619-.098-2.995.934-3.768.934s-1.957-.885-3.238-.861c-1.666.025-3.212.984-4.058 2.508-1.739 3.049-.459 7.571 1.232 10.054.821 1.229 1.811 2.582 3.115 2.533 1.232-.05 1.715-.812 3.213-.812s1.932.812 3.237.787c1.352-.025 2.198-1.229 3.02-2.459.942-1.4 1.328-2.753 1.353-2.827-.024-.024-2.609-1.032-2.632-4.056-.025-2.533 2.029-3.736 2.125-3.811-1.16-1.744-2.971-1.941-3.599-1.99" fill="#fff"/>
</svg>
