<svg width="244" height="150" viewBox="0 0 244 150" fill="none" xmlns="http://www.w3.org/2000/svg">
  <path fill-rule="evenodd" clip-rule="evenodd" d="M16.063 119.762c3.442 0 6.119 1.317 8.086 4.061q2.95 4.034 2.95 11.03c0 4.83-.983 8.562-3.005 11.196-2.021 2.689-4.753 3.951-8.195 3.951s-6.065-1.207-8.032-3.732h-.546l-1.038 2.58a1.01 1.01 0 0 1-.929.603H.984a.98.98 0 0 1-.984-.988v-38.579c0-.549.437-.988.983-.988h5.901c.546 0 .983.439.983.988v8.451q0 1.81-.327 5.762h.327c1.803-2.854 4.59-4.335 8.196-4.335m-2.513 6.421c-1.913 0-3.388.603-4.317 1.811-.874 1.207-1.366 3.237-1.366 5.981v.878c0 3.129.438 5.379 1.366 6.696.93 1.317 2.404 2.03 4.426 2.03 1.584 0 2.95-.768 3.879-2.305.929-1.481 1.42-3.732 1.42-6.53 0-2.854-.491-4.994-1.42-6.421-.984-1.427-2.35-2.14-3.988-2.14m26.552 23.323h-5.9a.98.98 0 0 1-.984-.988v-27.165c0-.549.437-.988.983-.988h5.901c.547 0 .984.439.984.988v27.11c.054.494-.437 1.043-.984 1.043m21.58-5.872c1.148 0 2.514-.219 4.153-.658.437-.11.82.219.82.658v4.555a.68.68 0 0 1-.383.604c-1.857.768-4.207 1.152-6.83 1.152-3.168 0-5.463-.768-6.883-2.415-1.42-1.591-2.185-4.006-2.185-7.189v-13.994h-3.115a.63.63 0 0 1-.655-.658v-2.58c0-.055.054-.109.054-.164l4.316-2.58 2.131-5.707c.11-.274.328-.439.601-.439h3.934c.382 0 .656.274.656.659v5.542h7.812c.164 0 .328.165.328.33v4.939a.63.63 0 0 1-.655.658h-7.43v13.939c0 1.098.327 1.976.928 2.47.546.604 1.42.878 2.404.878m36.77 5.872c-.765 0-1.366-.494-1.693-1.207l-5.792-17.726c-.382-1.262-.874-3.183-1.53-5.653h-.163l-.547 1.976-1.147 3.732-5.955 17.726c-.219.713-.874 1.152-1.64 1.152-.764 0-1.42-.494-1.638-1.262l-7.267-25.519c-.218-.768.383-1.591 1.257-1.591h.164c.546 0 1.038.384 1.202.933l4.261 15.53c1.038 4.061 1.749 7.025 2.076 9.001h.164c.984-4.062 1.749-6.751 2.24-8.123l5.518-16.244c.219-.658.82-1.097 1.585-1.097.71 0 1.311.439 1.53 1.097l5.135 16.135c1.257 4.116 2.022 6.75 2.295 8.122h.164c.164-1.098.82-4.171 2.076-9.11l4.098-15.311c.164-.549.655-.933 1.202-.933.819 0 1.42.768 1.202 1.591l-6.884 25.519c-.219.768-.875 1.262-1.694 1.262zm32.454 0c-.492 0-.929-.384-.984-.878l-.492-3.622h-.273c-1.42 1.811-2.841 3.128-4.371 3.896-1.475.769-3.278 1.098-5.299 1.098-2.787 0-4.917-.713-6.447-2.14-1.366-1.262-2.131-2.964-2.24-5.104-.219-2.854.983-5.598 3.278-7.189 2.349-1.537 5.627-2.47 10.053-2.47l5.354-.164v-1.866c0-2.744-.546-4.72-1.694-6.092s-2.841-2.03-5.245-2.03c-2.294 0-4.589.549-6.993 1.701-.601.274-1.311 0-1.584-.604-.274-.603 0-1.317.601-1.536 2.731-1.098 5.409-1.702 8.14-1.702 3.114 0 5.409.824 6.994 2.47 1.529 1.591 2.294 4.171 2.294 7.518v17.836c-.054.329-.546.878-1.092.878m-11.31-1.866c3.06 0 5.409-.878 7.103-2.579 1.748-1.701 2.622-4.171 2.622-7.189v-2.744l-4.917.219c-3.988.165-6.775.824-8.523 1.866-1.694 1.043-2.568 2.744-2.568 4.939 0 1.756.546 3.183 1.584 4.171 1.202.823 2.732 1.317 4.699 1.317m32.344-27.055c.82 0 1.639.055 2.568.165.71.109 1.147.768 1.038 1.426-.109.659-.765 1.043-1.421.933-.819-.109-1.639-.219-2.458-.219-2.404 0-4.371 1.043-5.901 3.073s-2.294 4.665-2.294 7.738v14.378a1.24 1.24 0 0 1-1.257 1.262 1.24 1.24 0 0 1-1.257-1.262v-25.793c0-.603.492-1.097 1.093-1.097s1.093.439 1.093 1.042l.218 4.061h.164c1.148-2.085 2.404-3.567 3.715-4.39 1.257-.878 2.841-1.317 4.699-1.317m19.231 0c2.022 0 3.825.384 5.3 1.098 1.53.713 2.841 2.03 3.988 3.841h.164a131 131 0 0 1-.164-6.421v-8.945a1.24 1.24 0 0 1 1.257-1.262c.71 0 1.257.549 1.257 1.262v38.36a.865.865 0 0 1-.874.878c-.438 0-.82-.329-.875-.823l-.546-3.567h-.219c-2.13 3.238-5.244 4.829-9.233 4.829-3.934 0-6.829-1.207-8.96-3.677-2.021-2.469-3.114-5.981-3.114-10.646 0-4.884.983-8.616 3.059-11.25 2.076-2.36 5.027-3.677 8.96-3.677m0 2.36c-3.114 0-5.408 1.097-6.993 3.292-1.53 2.141-2.294 5.269-2.294 9.44q0 12.018 9.342 12.018c3.224 0 5.518-.933 6.993-2.799 1.53-1.866 2.24-4.939 2.24-9.219v-.439c0-4.391-.71-7.519-2.24-9.385-1.42-1.975-3.769-2.908-7.048-2.908M203.898 150c-4.098 0-7.267-1.262-9.616-3.842-2.295-2.524-3.442-6.091-3.442-10.646s1.093-8.177 3.333-10.866c2.24-2.744 5.19-4.116 8.96-4.116 3.278 0 5.955 1.153 7.813 3.457 1.967 2.305 2.895 5.488 2.895 9.494v2.086h-20.324c.055 3.896.929 6.86 2.732 8.945s4.316 3.018 7.649 3.018c1.584 0 3.059-.109 4.261-.329.875-.164 1.913-.439 3.169-.878.71-.274 1.475.275 1.475 1.043 0 .439-.273.878-.71 1.043a18.6 18.6 0 0 1-3.715 1.097c-1.366.384-2.841.494-4.48.494m-.765-27.11c-2.732 0-4.917.878-6.556 2.689-1.639 1.756-2.568 4.39-2.896 7.738h17.483c0-3.238-.71-5.872-2.13-7.683-1.421-1.811-3.388-2.744-5.901-2.744m39.556 26.616a1.24 1.24 0 0 1-1.257-1.262v-17.177c0-2.854-.601-4.939-1.748-6.202-1.257-1.262-3.06-1.975-5.573-1.975-3.387 0-5.846.823-7.376 2.579-1.529 1.701-2.404 4.5-2.404 8.287v14.378c0 .714-.546 1.262-1.256 1.262a1.24 1.24 0 0 1-1.257-1.262v-25.848c0-.658.492-1.152 1.148-1.152.601 0 1.038.439 1.147.988l.328 2.853h.164c1.857-2.963 5.081-4.445 9.779-4.445 6.393 0 9.616 3.457 9.616 10.372v17.232c-.055.768-.656 1.372-1.311 1.372M37.206 108.457c-2.567 0-4.644 1.975-4.644 4.445v.439c0 2.415 2.131 4.445 4.644 4.445s4.644-2.03 4.644-4.445v-.384c0-2.525-2.13-4.5-4.644-4.5" fill="#fff"/>
  <path d="M150.45 52.453V12.105h-28.218v71.681q7.495-3.972 13.416-8.637 14.802-11.6 14.802-22.696m12.093-48.418v48.418q0 5.421-2.11 10.75-2.11 5.326-5.228 9.456t-7.432 8.038q-4.315 3.909-7.968 6.493a100 100 0 0 1-7.621 4.886q-3.968 2.302-5.637 3.121a71 71 0 0 1-2.677 1.261 3.6 3.6 0 0 1-1.638.378 3.6 3.6 0 0 1-1.637-.378 71 71 0 0 1-2.677-1.26q-1.67-.82-5.637-3.122a100 100 0 0 1-7.621-4.885q-3.653-2.586-7.968-6.494t-7.432-8.038-5.228-9.457-2.11-10.749V4.035q0-1.64 1.197-2.837T85.953 0h72.559q1.637 0 2.834 1.198t1.197 2.837" fill="#fff"/>
</svg>
