  <svg id="Layer_2" data-name="Layer 2" xmlns="http://www.w3.org/2000/svg" viewBox="0 0 114 114">
  <defs>
    <style>
      .cls-1{fill:#00ad00}
    </style>
  </defs>
  <g id="Full_Color" data-name="Full Color">
    <path class="cls-1" d="M20 0C8.95 0 0 8.95 0 20v74c0 11.05 8.95 20 20 20h74c11.05 0 20-8.95 20-20V20c0-11.05-8.95-20-20-20z"/>
    <path d="M7.68 76.29c0 12.11 9.81 21.92 21.92 21.92h39.75c9.43 0 16.57-1.91 22.06-5.74 6.5-4.59 10.45-11.98 10.45-21.8 0-10.33-5.74-18.74-15.68-21.93v-.38c7.65-3.31 11.35-8.8 11.35-17.47 0-7.52-3.19-13.77-8.67-17.98-4.84-3.7-11.47-5.86-20.4-5.86H29.6c-12.11 0-21.92 9.81-21.92 21.92z" style="fill:#fff"/>
    <path class="cls-1" d="m68.83 14.84-3.28 10.08c-.23.7-.87 1.18-1.61 1.18l-10.39.07c-.31 0-.57.26-.57.57 0 .18.08.34.23.45l8.4 6.35c.57.43.82 1.18.6 1.87L59.05 45.6c-.09.3.07.62.38.71.17.05.36.02.5-.08l8.41-6.17c.6-.44 1.42-.44 2.02 0l8.41 6.17c.25.19.61.13.8-.12.11-.15.14-.33.08-.5L76.5 35.42c-.21-.69.03-1.43.6-1.87l8.4-6.35a.573.573 0 0 0-.34-1.03l-10.39-.08c-.73 0-1.38-.48-1.61-1.18l-3.28-10.08a.58.58 0 0 0-.72-.37c-.17.06-.31.19-.37.37"/>
    <path d="M34.16 49.25c4.55 0 8.24-3.62 8.24-8.09s-3.69-8.09-8.24-8.09-8.24 3.62-8.24 8.09 3.69 8.09 8.24 8.09m19.61-1.63a2.56 2.56 0 0 0-3.52-.64s-2.23 1.57-4.98 3.51c-3.58 2.38-6.38 1.96-9.88 1.96-4.84 0-10.5 1.1-11.38 4.61-1.27 5.04-4.02 15.07-4.02 15.07-.33 1.33.5 2.68 1.85 3 1.36.33 2.73-.49 3.06-1.82l3.3-12.18s.29 21.49 1.13 27.8c.11.84.78 1.5 1.64 1.6.81.1 1.91.21 3.26.24.27 0 .49-.21.49-.47V77.09c0-.37.3-.66.68-.66s.68.3.68.66V90.3c0 .26.22.48.49.47 1.35-.04 2.45-.15 3.26-.24.86-.1 1.53-.76 1.64-1.6.83-6.31 1.11-29.14 1.11-29.14l10.55-8.71c1.15-.78 1.44-2.32.65-3.45Z" style="fill:#0c406c"/>
  </g>
</svg>
