<svg height="800" width="800" xmlns="http://www.w3.org/2000/svg" viewBox="0 0 512.001 512.001" xml:space="preserve">
  <path style="fill:#e2d7d3" d="M503.636 412.151 451.713 92.419v340.106h37.343c16.343.001 15.165-16.155 14.58-20.374"/>
  <path style="fill:#efe7e4" d="M438.7 79.405H21.102c-7.188 0-13.013 5.826-13.013 13.014v370.955c0 7.188 5.825 13.013 13.013 13.013H438.7c7.187 0 13.013-5.824 13.013-13.013V92.42c.001-7.187-5.827-13.015-13.013-13.015M64.591 151.161c-11.543 0-20.903-9.358-20.903-20.902s9.36-20.904 20.903-20.904c11.544 0 20.904 9.36 20.904 20.904s-9.36 20.902-20.904 20.902m65.38 0c-11.543 0-20.903-9.358-20.903-20.902s9.36-20.904 20.903-20.904c11.545 0 20.904 9.36 20.904 20.904s-9.359 20.902-20.904 20.902m135.73-19.217c0 7.148-5.794 12.943-12.943 12.943h-56.98c-7.148 0-12.943-5.795-12.943-12.943v-3.373c0-7.148 5.795-12.943 12.943-12.943h56.98c7.149 0 12.943 5.795 12.943 12.943zm55.031 19.217c-11.544 0-20.904-9.358-20.904-20.902s9.36-20.904 20.904-20.904c11.543 0 20.904 9.36 20.904 20.904s-9.361 20.902-20.904 20.902m65.381 0c-11.544 0-20.903-9.358-20.903-20.902s9.359-20.904 20.903-20.904 20.904 9.36 20.904 20.904-9.36 20.902-20.904 20.902"/>
  <path style="fill:#bab0a8" d="M451.714 92.42v340.106h25.381V248.715zM33.985 463.375V92.42c0-7.188 5.825-13.014 13.013-13.014H21.102c-7.188 0-13.013 5.826-13.013 13.014v370.955c0 7.188 5.825 13.013 13.013 13.013h25.896c-7.188 0-13.013-5.826-13.013-13.013"/>
  <path style="fill:#f44321" d="M438.7 79.405H21.102c-7.188 0-13.013 5.826-13.013 13.014v87.837h443.625V92.42c0-7.187-5.828-13.015-13.014-13.015M64.591 151.161c-11.543 0-20.903-9.358-20.903-20.902s9.36-20.904 20.903-20.904c11.544 0 20.904 9.36 20.904 20.904s-9.36 20.902-20.904 20.902m65.38 0c-11.543 0-20.903-9.358-20.903-20.902s9.36-20.904 20.903-20.904c11.545 0 20.904 9.36 20.904 20.904s-9.359 20.902-20.904 20.902m135.73-19.217c0 7.148-5.794 12.943-12.943 12.943h-56.98c-7.148 0-12.943-5.795-12.943-12.943v-3.373c0-7.148 5.795-12.943 12.943-12.943h56.98c7.149 0 12.943 5.795 12.943 12.943zm55.031 19.217c-11.544 0-20.904-9.358-20.904-20.902s9.36-20.904 20.904-20.904c11.543 0 20.904 9.36 20.904 20.904s-9.361 20.902-20.904 20.902m65.381 0c-11.544 0-20.903-9.358-20.903-20.902s9.359-20.904 20.903-20.904 20.904 9.36 20.904 20.904-9.36 20.902-20.904 20.902"/>
  <path style="fill:#d32d20" d="M33.985 92.42c0-7.188 5.825-13.014 13.013-13.014H21.102c-7.188 0-13.013 5.826-13.013 13.014v87.837h25.896z"/>
  <path style="fill:#231f20" d="M438.7 484.477h-50.147a8.09 8.09 0 0 1 0-16.178H438.7a4.93 4.93 0 0 0 4.924-4.924V92.42a4.93 4.93 0 0 0-4.924-4.925H21.102a4.93 4.93 0 0 0-4.924 4.925v370.955a4.93 4.93 0 0 0 4.924 4.924h338.87a8.089 8.089 0 1 1 0 16.178H21.102C9.467 484.477 0 475.01 0 463.375V92.42c0-11.637 9.467-21.103 21.102-21.103H438.7c11.636 0 21.102 9.467 21.102 21.103v370.955c.001 11.635-9.466 21.102-21.102 21.102"/>
  <path style="fill:#231f20" d="M451.714 188.346h-63.162a8.089 8.089 0 1 1 0-16.178h55.072V92.42a4.93 4.93 0 0 0-4.924-4.925H21.102a4.93 4.93 0 0 0-4.924 4.925v79.748h343.794a8.089 8.089 0 1 1 0 16.178H8.089A8.09 8.09 0 0 1 0 180.257V92.42c0-11.637 9.467-21.103 21.102-21.103H438.7c11.636 0 21.102 9.467 21.102 21.103v87.837a8.087 8.087 0 0 1-8.088 8.089"/>
  <path style="fill:#231f20" d="M386.113 159.25c-15.986 0-28.992-13.005-28.992-28.991 0-15.987 13.007-28.993 28.992-28.993 15.987 0 28.993 13.007 28.993 28.993S402.1 159.25 386.113 159.25m0-41.806c-7.066 0-12.814 5.749-12.814 12.815s5.748 12.812 12.814 12.812c7.067 0 12.815-5.748 12.815-12.812-.001-7.066-5.748-12.815-12.815-12.815"/>
  <path style="fill:#231f20" d="M397.251 141.027a8 8 0 0 1-1.405-.122c-18.037-3.159-31.129-26.927-31.129-56.514 0-31.888 15.452-56.868 35.178-56.868 17.661 0 31.935 19.495 34.713 47.409a8.09 8.09 0 0 1-7.249 8.85c-4.45.454-8.408-2.803-8.85-7.249-2.018-20.279-11.233-32.831-18.614-32.831-8.968 0-18.999 17.401-18.999 40.689 0 22.414 9.174 39.078 17.742 40.578a8.09 8.09 0 0 1-1.387 16.058m-76.519 18.223c-15.987 0-28.993-13.005-28.993-28.991 0-15.987 13.007-28.993 28.993-28.993s28.993 13.007 28.993 28.993c.001 15.986-13.006 28.991-28.993 28.991m0-41.806c-7.067 0-12.815 5.749-12.815 12.815s5.748 12.812 12.815 12.812 12.815-5.748 12.815-12.812c0-7.066-5.748-12.815-12.815-12.815"/>
  <path style="fill:#231f20" d="M331.87 141.027q-.696 0-1.404-.122c-18.038-3.159-31.129-26.927-31.129-56.514 0-31.888 15.452-56.868 35.178-56.868 17.662 0 31.936 19.495 34.713 47.409a8.09 8.09 0 0 1-7.25 8.85c-4.45.454-8.409-2.804-8.851-7.249-2.016-20.279-11.23-32.831-18.612-32.831-8.968 0-18.999 17.401-18.999 40.689 0 22.415 9.173 39.078 17.739 40.578a8.09 8.09 0 0 1 6.574 9.364c-.687 3.927-4.103 6.694-7.959 6.694M129.971 159.25c-15.987 0-28.992-13.005-28.992-28.991 0-15.987 13.005-28.993 28.992-28.993s28.993 13.007 28.993 28.993-13.006 28.991-28.993 28.991m0-41.806c-7.066 0-12.814 5.749-12.814 12.815s5.748 12.812 12.814 12.812 12.815-5.748 12.815-12.812c-.001-7.066-5.749-12.815-12.815-12.815"/>
  <path style="fill:#231f20" d="M141.11 141.027a8 8 0 0 1-1.405-.122c-18.037-3.159-31.129-26.927-31.129-56.514 0-31.888 15.452-56.868 35.177-56.868 17.661 0 31.936 19.495 34.714 47.409a8.09 8.09 0 0 1-7.249 8.85c-4.455.454-8.408-2.803-8.85-7.249-2.018-20.279-11.234-32.831-18.615-32.831-8.968 0-18.998 17.401-18.998 40.689 0 22.415 9.174 39.078 17.742 40.578a8.09 8.09 0 0 1-1.387 16.058M64.591 159.25c-15.987 0-28.992-13.005-28.992-28.991 0-15.987 13.005-28.993 28.992-28.993s28.993 13.007 28.993 28.993-13.007 28.991-28.993 28.991m0-41.806c-7.066 0-12.814 5.749-12.814 12.815s5.748 12.812 12.814 12.812 12.815-5.748 12.815-12.812c-.001-7.066-5.75-12.815-12.815-12.815"/>
  <path style="fill:#231f20" d="M75.729 141.027q-.696 0-1.404-.122c-18.038-3.159-31.129-26.927-31.129-56.514 0-31.888 15.452-56.868 35.177-56.868 17.663 0 31.937 19.495 34.714 47.409a8.09 8.09 0 0 1-7.25 8.85c-4.456.454-8.409-2.804-8.851-7.249-2.016-20.281-11.231-32.832-18.613-32.832-8.968 0-18.998 17.401-18.998 40.689 0 22.415 9.173 39.078 17.739 40.578a8.091 8.091 0 0 1-1.385 16.059m413.327 299.589h-37.343a8.09 8.09 0 0 1-8.089-8.089V92.42a8.09 8.09 0 0 1 16.073-1.297l51.924 319.732q.015.092.027.184c.588 4.24 1.249 14.913-5.31 22.445-2.832 3.253-8.13 7.132-17.282 7.132m-29.253-16.179h29.253c3.709 0 4.741-1.186 5.081-1.577 1.665-1.912 1.952-6.139 1.497-9.513l-35.831-220.649zM252.758 152.976h-56.98c-11.598 0-21.032-9.435-21.032-21.032v-3.373c0-11.597 9.434-21.032 21.032-21.032h56.98c11.597 0 21.032 9.435 21.032 21.032v3.373c.001 11.597-9.435 21.032-21.032 21.032m-56.98-29.258a4.86 4.86 0 0 0-4.854 4.854v3.373a4.86 4.86 0 0 0 4.854 4.854h56.98a4.86 4.86 0 0 0 4.854-4.854v-3.373a4.86 4.86 0 0 0-4.854-4.854zm181.213 118.979H178.968a8.09 8.09 0 0 1-8.089-8.089 8.09 8.09 0 0 1 8.089-8.089h198.024a8.089 8.089 0 1 1-.001 16.178m-224.907 0H71.545a8.089 8.089 0 1 1 0-16.178h80.539a8.09 8.09 0 0 1 0 16.178m224.907 46.378H71.545a8.089 8.089 0 1 1 0-16.178h305.446a8.09 8.09 0 0 1 0 16.178m0 46.379H71.545a8.089 8.089 0 1 1 0-16.178h305.446a8.09 8.09 0 0 1 0 16.178m0 46.379H71.545a8.089 8.089 0 1 1 0-16.178h305.446a8.09 8.09 0 0 1 0 16.178m-107.422 46.379H71.545a8.089 8.089 0 1 1 0-16.178h198.024a8.089 8.089 0 1 1 0 16.178m107.422 0h-80.539a8.09 8.09 0 0 1-8.089-8.089 8.09 8.09 0 0 1 8.089-8.089h80.539a8.09 8.09 0 0 1 0 16.178"/>
</svg>
