<svg viewBox="0 0 100 100" xmlns="http://www.w3.org/2000/svg">
  <linearGradient id="a" gradientUnits="userSpaceOnUse" x1="-3.99" x2="88.027" y1="-1.257" y2="99.584">
    <stop offset="0" stop-color="#97e0ff"/>
    <stop offset="1" stop-color="#1075ff"/>
  </linearGradient>
  <path clip-rule="evenodd" d="M97.5 62.67c0 10.48-8.52 19-19 19h-57c-10.48 0-19-8.52-19-19 0-10.49 8.52-19 19-19h.13C22.86 36.42 29.8 31 37.33 31c1.73 0 3.39.28 4.95.79 3.39-7.91 11.24-13.46 20.39-13.46 12.23 0 22.16 9.94 22.16 22.17 0 1.41-.13 2.78-.38 4.12 7.57 2.5 13.05 9.64 13.05 18.05" fill="url(#a)" fill-rule="evenodd"/>
</svg>
