<svg xmlns="http://www.w3.org/2000/svg" viewBox="0 0 586.853 153.187" height="153.187" width="586.853" xml:space="preserve">
  <path style="fill:#393536;fill-opacity:1;fill-rule:nonzero;stroke:none" d="M4377.86 377.074c0-195.234-158.28-353.492-353.53-353.492H23.574V771.82c0 195.254 158.278 353.54 353.524 353.54H4377.86z" transform="matrix(.13333 0 0 -.13333 0 153.187)"/>
  <path style="fill:#bdbcbc;fill-opacity:1;fill-rule:nonzero;stroke:none" d="M47.11 771.82V47.11h3977.22c182.22.35 329.63 147.757 329.94 329.984v724.686H377.098c-182.246-.33-329.637-147.733-329.989-329.96M23.55 0C17.255 0 11.349 2.46 6.88 6.898 2.44 11.352 0 17.27 0 23.582V771.82c0 208.301 168.805 377.09 377.098 377.09H4377.86c6.29 0 12.25-2.44 16.64-6.87 4.47-4.46 6.92-10.4 6.92-16.66V377.094C4401.38 168.813 4232.59 0 4024.33 0z" transform="matrix(.13333 0 0 -.13333 0 153.187)"/>
  <path style="fill:#fff;fill-opacity:1;fill-rule:nonzero;stroke:none" d="M704.457 714.691c-30.195 40.957-78.344 61.817-127.234 61.817-113.586 0-194.121-99.922-194.121-211.367 0-117.871 79.796-211.328 194.121-211.328 61.824 0 111.425 25.175 147.375 71.191l45.293-38.125c-45.293-61.094-111.446-89.141-192.668-89.141-145.946 0-258.817 112.871-258.817 267.403 0 149.55 107.856 267.441 258.817 267.441 69.007 0 136.582-23.73 179.711-79.805zm587.303-149.55c0 117.187-81.96 211.367-201.31 211.367-119.329 0-201.266-94.18-201.266-211.367 0-117.149 81.937-211.328 201.266-211.328 119.35 0 201.31 94.179 201.31 211.328m-467.272 0c0 153.847 111.426 267.441 265.962 267.441 154.58 0 266.01-113.594 266.01-267.441 0-153.809-111.43-267.403-266.01-267.403-154.536 0-265.962 113.594-265.962 267.403M1504.5 366.762h115.04c116.46 0 204.88 58.945 204.88 198.379 0 139.472-88.42 198.437-204.88 198.437H1504.5Zm-60.37 452.871h195.52c99.93 0 249.48-66.856 249.48-254.492 0-187.618-149.55-254.453-249.48-254.453h-195.52zm541.98 0h319.92v-56.055H2046.5V603.969h242.3v-56.074h-242.3V366.762h272.49v-56.074h-332.88z" transform="matrix(.13333 0 0 -.13333 0 153.187)"/>
  <path style="fill:#3c95d8;fill-opacity:1;fill-rule:nonzero;stroke:none" d="M2753.9 763.578h-168.23v-452.89h-60.41v452.89h-168.2v56.055h396.84zm12.16 56.055h66.86l115.72-422.676h1.47l125.08 422.676h67.57l124.38-422.676h1.4l117.93 422.676h63.25l-149.51-508.945h-65.43l-125.79 431.308h-1.46l-126.52-431.308h-66.14zm1189.01-254.492c0 117.187-81.97 211.367-201.31 211.367s-201.31-94.18-201.31-211.367c0-117.149 81.97-211.328 201.31-211.328s201.31 94.179 201.31 211.328m-467.31 0c0 153.847 111.45 267.441 266 267.441 154.57 0 266-113.594 266-267.441 0-153.809-111.43-267.403-266-267.403-154.55 0-266 113.594-266 267.403" transform="matrix(.13333 0 0 -.13333 0 153.187)"/>
  <path style="fill:#7b7979;fill-opacity:1;fill-rule:nonzero;stroke:none" d="M4120.99 834.066c0-13.574-11.31-21.718-27.15-21.718h-32.4v42.812h32.55c17.04 0 27-7.832 27-20.801zm-26.08 32.09h-39.51c-3.16 0-5.88-2.695-5.88-6.015v-94.239c0-3.3 2.72-6.015 5.88-6.015 3.32 0 6.04 2.715 6.04 6.015v35.743h30.29l29.71-38.594c1.36-1.817 3.16-3.164 5.58-3.164 3.01 0 6.04 2.715 6.04 5.859 0 1.68-.77 3.027-1.98 4.395l-26.23 33.769c16.43 3.164 28.21 13.262 28.21 30.606v.293c0 8.281-3.03 15.683-8.15 20.8-6.64 6.641-17.03 10.547-30 10.547" transform="matrix(.13333 0 0 -.13333 0 153.187)"/>
  <path style="fill:#7b7979;fill-opacity:1;fill-rule:nonzero;stroke:none" d="M4088.37 724.398c-48.15 0-87.31 39.161-87.31 87.305 0 48.125 39.16 87.305 87.31 87.305 48.1 0 87.26-39.18 87.26-87.305 0-48.144-39.16-87.305-87.26-87.305m0 182.852c-52.7 0-95.57-42.871-95.57-95.547 0-52.695 42.87-95.547 95.57-95.547 52.67 0 95.53 42.852 95.53 95.547 0 52.676-42.86 95.547-95.53 95.547" transform="matrix(.13333 0 0 -.13333 0 153.187)"/>
</svg>
