<svg id="Layer_1" viewBox="0 0 142.9 69.075" version="1.1" width="142.9" height="69.075" xmlns="http://www.w3.org/2000/svg">
  <defs id="defs1">
    <style id="style1">
      .st1{fill:#fff}
    </style>
  </defs>
  <path id="path4" class="st1" d="m72.25 22.8-5.2 1.4 1.5-5.2c.3-1 1.1-1.8 2.1-2.1l5.2-1.5-1.4 5.2c-.3 1-1.1 1.8-2.1 2.1zm-5.1-18.6-.8-3.1c0-.2 0-.5.3-.5 3.1-.8 6.5-.8 9.6 0 .2 0 .4.3.3.5l-.8 3.1c0 .2-.3.3-.5.3-2.4-.6-5.1-.6-7.5 0-.2 0-.4 0-.5-.3zm4.3 1.7c-7.7 0-14 6.3-14 14s6.3 14 14 14 14-6.3 14-14-6.3-14-14-14m0 23.9c-5.5 0-9.9-4.5-9.9-9.9s4.5-9.9 9.9-9.9 9.9 4.5 9.9 9.9-4.5 9.9-9.9 9.9" style="fill:#1287fa"/>
  <path id="path11" class="st1" d="m138 51.675-2.1-.5c-1.3-.3-1.6-.7-1.6-1.3 0-.7.7-1.2 1.9-1.2 2 0 4.2.7 5.5 1.8l.5.4v-4.9h-.1c-1.4-1-3.6-1.6-5.7-1.6-4.3 0-6.8 2.1-6.8 5.7 0 2.7 1.7 4.5 5 5.2l2 .5c1.3.3 1.6.8 1.6 1.4 0 .8-.7 1.3-2 1.3-2.1 0-4.6-.9-6.3-2.4l-.5-.4v4.9c2 1.3 4.3 2.1 6.3 2.1 4.5 0 7.2-2 7.2-5.6 0-2.9-1.6-4.7-5-5.5zm-15.3 0-2.1-.5c-1.3-.3-1.6-.7-1.6-1.3 0-.7.7-1.2 1.9-1.2 2 0 4.2.7 5.5 1.8l.5.4v-4.9h-.1c-1.4-1-3.6-1.6-5.7-1.6-4.3 0-6.8 2.1-6.8 5.7 0 2.7 1.7 4.5 5 5.2l2 .5c1.3.3 1.6.8 1.6 1.4 0 .8-.7 1.3-2 1.3-2.1 0-4.6-.9-6.3-2.4l-.5-.4v4.9c2 1.3 4.3 2.1 6.3 2.1 4.5 0 7.2-2 7.2-5.6 0-2.9-1.6-4.7-5-5.5zm-16.3-4.8c-1.2-1.6-3.1-2.6-5.4-2.6s-4.4.9-6 2.6-2.4 4-2.4 6.6.9 4.9 2.4 6.6c1.6 1.7 3.7 2.6 6 2.6s4.2-.9 5.4-2.6v2.2h4.7v-17.6h-4.7zm0 6.7c0 2.7-1.9 4.8-4.5 4.8s-4.5-2.1-4.5-4.8 1.9-4.8 4.5-4.8 4.5 2.1 4.5 4.8m-24-9.3c-2.3 0-4.2.9-5.4 2.6v-2.1h-4.7v24.3H77v-8.8c1.2 1.6 3.1 2.6 5.4 2.6s4.5-.9 6-2.6c1.6-1.7 2.5-4 2.4-6.6 0-2.5-.9-4.9-2.5-6.6s-3.7-2.6-6-2.6zm3.7 9.3c0 2.7-1.9 4.8-4.5 4.8s-4.5-2.1-4.5-4.8 1.9-4.8 4.5-4.8 4.5 2.1 4.5 4.8m-23.1-9.3c-2.3 0-4.2 1-5.5 2.9-1-1.9-2.8-2.9-5.2-2.9-1.8 0-3.4.9-4.5 2.4v-2h-4.7v17.6h4.7v-9.5c0-2.6 1.2-4.2 3.2-4.2 1.7 0 2.8 1.4 2.8 3.7v9.9h4.7v-9.5c0-2.6 1.2-4.2 3.1-4.2 1.7 0 2.8 1.4 2.8 3.7v9.9h4.7v-10.3c0-4.9-2.3-7.8-6.2-7.8zm-31.6.1c-2.5 0-4.9.9-6.6 2.6s-2.7 4-2.7 6.6c0 2.5 1 4.9 2.7 6.6s4.1 2.7 6.6 2.7c5.2 0 9.3-4.1 9.3-9.2 0-2.5-1-4.9-2.7-6.6s-4.1-2.6-6.6-2.6zm0 14c-2.6 0-4.5-2.1-4.5-4.8s1.9-4.8 4.5-4.8 4.5 2.1 4.5 4.8-1.9 4.8-4.5 4.8M13 37.675c-7.4 0-13 5.4-13 12.6 0 7.1 5.6 12.5 13 12.5 2.5 0 5.2-.9 7.1-2.3h.1v-5.6l-.5.5c-1.7 1.8-4.2 2.8-6.7 2.8-2.3 0-4.4-.8-5.9-2.2s-2.3-3.4-2.3-5.7c0-4.6 3.4-8 8.1-8 2.5 0 5 1 6.7 2.8l.5.5v-5.6H20c-1.9-1.4-4.6-2.3-7.1-2.3z" style="fill:#1287fa"/>
</svg>
