<svg width="256" height="256" viewBox="0 0 24 24" fill="none" xmlns="http://www.w3.org/2000/svg">
<path d="M21.3747 19.4912C19.1781 22.2365 15.8007 23.996 12.0122 23.9998H4.49561C3.67076 23.9975 3.00252 23.3293 3 22.5045V20.9858C3.0076 16.0218 7.03406 12 11.9999 12V11.625H21.3747V19.4912Z" fill="url(#paint0_radial_3984_11038)"/>
<path d="M21.3747 19.4912C19.1781 22.2365 15.8007 23.996 12.0122 23.9998H4.49561C3.67076 23.9975 3.00252 23.3293 3 22.5045V20.9858C3.0076 16.0218 7.03406 12 11.9999 12V11.625H21.3747V19.4912Z" fill="url(#paint1_radial_3984_11038)" fill-opacity="0.5"/>
<path d="M11.9999 0.000183105C18.6272 0.000183105 23.9997 5.37268 23.9997 12C23.9997 14.9946 22.9028 17.733 21.0888 19.8353C21.2745 19.2568 21.3747 18.6401 21.3747 17.9999C21.3747 14.6863 18.6885 12 15.3748 12H11.9999C7.03321 12 3.00622 7.97683 3 3.01164V1.50016C3 0.671746 3.67156 0.000183105 4.49998 0.000183105H11.9999Z" fill="url(#paint2_radial_3984_11038)"/>
<path d="M11.9999 0.000183105C18.6272 0.000183105 23.9997 5.37268 23.9997 12C23.9997 14.9946 22.9028 17.733 21.0888 19.8353C21.2745 19.2568 21.3747 18.6401 21.3747 17.9999C21.3747 14.6863 18.6885 12 15.3748 12H11.9999C7.03321 12 3.00622 7.97683 3 3.01164V1.50016C3 0.671746 3.67156 0.000183105 4.49998 0.000183105H11.9999Z" fill="url(#paint3_radial_3984_11038)" fill-opacity="0.5"/>
<defs>
<radialGradient id="paint0_radial_3984_11038" cx="0" cy="0" r="1" gradientUnits="userSpaceOnUse" gradientTransform="translate(3 24.8752) rotate(-39.1737) scale(19.5905 24.0193)">
<stop offset="0.0450736" stop-color="#AD7DFF"/>
<stop offset="0.327929" stop-color="#6864F6"/>
<stop offset="0.570992" stop-color="#5750E2"/>
<stop offset="0.809105" stop-color="#3E36B1"/>
<stop offset="1" stop-color="#261D82"/>
</radialGradient>
<radialGradient id="paint1_radial_3984_11038" cx="0" cy="0" r="1" gradientUnits="userSpaceOnUse" gradientTransform="translate(23.0759 23.563) rotate(-160.304) scale(22.589)">
<stop offset="0.706304" stop-color="#AC80FF" stop-opacity="0"/>
<stop offset="0.921093" stop-color="#BD96FF"/>
</radialGradient>
<radialGradient id="paint2_radial_3984_11038" cx="0" cy="0" r="1" gradientUnits="userSpaceOnUse" gradientTransform="translate(3 0.723365) rotate(38.2023) scale(26.7229 22.0826)">
<stop stop-color="#FFC470"/>
<stop offset="0.251092" stop-color="#FF835C"/>
<stop offset="0.584326" stop-color="#F24A9D"/>
<stop offset="0.871234" stop-color="#B339F0"/>
<stop offset="1" stop-color="#C354FF"/>
</radialGradient>
<radialGradient id="paint3_radial_3984_11038" cx="0" cy="0" r="1" gradientUnits="userSpaceOnUse" gradientTransform="translate(11.6151 17.1874) rotate(-145.12) scale(20.8748 19.8233)">
<stop offset="0.708817" stop-color="#FFB357" stop-opacity="0"/>
<stop offset="0.941624" stop-color="#FFB357"/>
</radialGradient>
</defs>
</svg>