<svg xmlns="http://www.w3.org/2000/svg" id="Layer_2" viewBox="0 0 1834.45 405.18"><defs><style>.cls-1{fill:#0057b8;}</style></defs><g id="Layer_1-2"><g id="c"><g><path class="cls-1" d="M256.31,327.18c-48.17,1.41-96.38,.42-144.58,.31-20.04-.04-30.99-9.43-32.9-29.16-1.15-11.87-.73-23.89-.69-35.84,.08-26.22,11.11-37.25,37.21-37.29,32.37-.08,64.73-.15,97.1,0,10.88,.04,19.66-3.78,24.08-13.7,2.44-5.5,3.13-12.14,3.24-18.32,.34-24.05-8.13-32.48-31.72-32.52-31.68,0-63.32,.15-95-.08-21.72-.15-33.13-10.95-34.73-32.44-.5-6.64-.27-13.36-.19-20.04,.19-26.26,11.11-37.21,37.25-37.21,48.89-.04,97.79,0,146.68-.08,17.48,0,26.37-8.86,27.14-26.49,.19-4.2,.11-8.44,.04-12.67-.34-21.95-9.66-31.07-31.83-31.07H33.63C8.78,.57,.08,9.16,.04,34.16-.04,89.05,.04,143.94,.04,198.82s-.11,111.87,.04,167.83c.08,21.95,9.73,31.34,31.6,31.34h231.15c20.27,0,30.96-9.77,31.68-29.77,.92-24.77-3.02-42.1-38.25-41.03h.04Z"></path><path class="cls-1" d="M944.27,.57c-10.57-.11-21.15,.38-31.68-.11-19.01-.88-32.1,6.6-42.63,23.05-64.51,100.65-129.74,200.85-194.74,301.19-9.92,15.34-20.15,30.54-29.73,46.07-9.01,14.62-2.18,26.91,14.7,27.18,10.57,.15,21.11,.23,31.68,0,16.68-.42,30.38-5.27,39.05-21.64,8.05-15.15,18.44-29.08,27.9-43.47,8.36-12.71,20.46-21.79,35.15-22.86,25.88-1.87,51.99-1.95,77.94-.84,17.37,.76,26.37,12.79,26.53,30.61,.11,10.57-.15,21.11,.08,31.68,.27,12.06,6.49,21.49,18.02,24.31,8.7,2.14,18.05,2.1,27.1,2.18,20.84,.15,31.18-10.31,31.22-30.99V31.15c0-19.96-10.42-30.34-30.57-30.54v-.04Zm-45.84,185.54h-.11c0,12.63,.38,25.31-.11,37.94-.57,14.85-6.83,20.8-21.76,21.26-10.19,.31-20.38,.42-30.57-.04-16.57-.8-22.6-11.91-13.82-25.69,16.18-25.46,32.63-50.8,49.43-75.88,2.4-3.59,7.4-5.5,11.22-8.17,1.91,4.58,5.19,9.05,5.46,13.7,.76,12.25,.27,24.58,.27,36.87h0Z"></path><path class="cls-1" d="M572.35,.57c-5.27-.08-10.53-.04-15.84,0-20.42,.11-31.37,10.69-31.79,31.03-.27,13.36-.04,26.72-.04,40.12v74.77c-1.45,.95-2.9,1.91-4.35,2.86-3.05-4.2-5.61-8.89-9.24-12.52-47.1-47.6-119.66-44.16-162.49,7.52-48.67,58.7-50.23,154.7-3.51,214.74,44.7,57.44,121.53,60.84,170.31,7.4,2.25-2.48,3.24-6.11,4.81-9.2l3.51,3.09c.31,1.3,.76,2.6,.84,3.93,1.79,25.61,10.31,33.7,35.57,33.7h8.44c23.59,0,32.75-8.93,32.79-32.25,.04-68.93,0-137.9,0-206.84,0-43.28,.11-86.53-.08-129.81-.08-18.47-10.34-28.36-28.97-28.55h.04Zm-69.51,318.71c-25.99,39.01-78.59,39.5-105.19,.99-24.66-35.69-24.54-97.14,.23-132.71,27.52-39.47,80.77-38.25,106.26,2.56,12.29,19.66,17.29,41.22,16.26,63.48,.8,24.24-4.47,46.03-17.56,65.69h0Z"></path><path class="cls-1" d="M1641.04,272.11c27.44-.04,54.89,0,82.33,0v-.08c28.51,0,56.99,.31,85.5-.11,16.3-.23,25.73-10.08,25.57-25.8-.08-7.33-.76-14.73-2.1-21.95-9.81-52.86-35.27-95.19-88.28-112.67-54.47-17.98-106.19-9.05-149.16,30.96-35.31,32.83-46.8,75.46-44.51,122.68,2.14,44.2,16.72,82.79,52.22,110.69,38.7,30.38,83.67,33.78,130.23,25.46,43.21-7.75,72.52-33.44,90.73-72.67,4.96-10.69,.95-17.18-10.69-17.48-5.99-.19-12.02,.42-17.94-.15-16.18-1.6-28.7,3.89-40.61,15.31-23.78,22.83-52.67,28.17-84.05,18.93-25.31-7.44-40.08-27.86-42.86-57.9q-1.37-15.08,13.63-15.15v-.04Zm-11.91-64.58c7.9-30.27,31.57-47.48,65.04-47.33,31.3,.11,53.89,17.71,61.34,47.71,3.17,12.82-.23,17.44-13.97,17.71-16.53,.31-33.05,.08-49.58,.08h0c-16.53-.04-33.09,.31-49.58-.15-13.86-.42-16.72-4.77-13.24-18.02h0Z"></path><path class="cls-1" d="M1518.4,111.72c-4.92-.11-9.85-.08-14.77,0-23.86,.19-35.8,8.55-42.83,31.03-11.91,38.17-23.44,76.45-35.23,114.66-5.11,16.6-10.5,33.17-15.76,49.73-1.15-.04-2.33-.08-3.51-.11-2.25-6.57-4.69-13.05-6.76-19.66-15.46-49.54-30.73-99.16-46.3-148.67-5.34-16.95-17.52-25.99-35.08-26.76-8.78-.38-17.6-.38-26.37-.08-17.18,.65-23.17,9.31-17.71,25.95,6.22,19.01,12.82,37.86,19.31,56.8,19.85,58.13,39.7,116.22,59.62,174.36,6.45,18.82,20.8,29.01,40.54,29.08h22.18c24.12,0,36.99-9.35,44.66-32.06,13.89-41.18,27.9-82.37,41.87-123.55,11.72-34.54,23.51-69.09,35.08-103.71,5.76-17.25-.84-26.49-18.93-26.95v-.08Z"></path><path class="cls-1" d="M1061.71,.42c-25.15,.8-34.43,9.35-34.43,34.31,0,106.19,.31,212.37-.23,318.56-.15,30.57,1.76,47.14,45.15,44.92,21.76-1.11,31.6-9.89,31.6-31.6V199.93c0-52.41-1.07-104.81,.34-157.18,1.03-38.4-13.89-43.28-42.44-42.37v.04Z"></path><path class="cls-1" d="M1203.36,111.42c-7.33-.46-14.73-.57-22.02,0-16.34,1.34-25.31,11.3-25.34,27.71-.08,38.7,0,77.41,0,116.11s-.04,75.99,0,114.01c0,18.17,10.46,28.51,28.82,28.74,5.27,.08,10.57,0,15.84,0,21.07-.04,31.79-10.65,31.83-31.72,.08-26.37,0-52.79,0-79.16,0-48.21,.04-96.41,0-144.62,0-19.66-9.54-29.89-29.08-31.07h-.04Z"></path><path class="cls-1" d="M1172.02,61.07c6.79,2.25,14.47,1.83,21.76,2.63l.08-.69c3.17,0,6.34,.04,9.47,0,19.31-.38,29.24-11.18,29.16-31.79-.08-18.82-11.18-30.31-29.73-30.61-7.02-.11-14.05-.23-21.07,.04-12.71,.53-23.66,9.77-25.54,21.11-3.28,20.04,2.14,34.73,15.88,39.31h0Z"></path><path class="cls-1" d="M1799.37,66.41c18.32,0,33.21-14.89,33.21-33.21S1817.69,0,1799.37,0s-33.21,14.89-33.21,33.21,14.89,33.21,33.21,33.21Zm0-57.29c13.28,0,24.08,10.8,24.08,24.08,0,6.83-2.86,13.02-7.48,17.41l-8.7-11.95c3.7-2.29,5.73-6.18,5.73-10.99,0-8.02-5.65-13.02-14.73-13.02h-13.44V51.07h7.71v-10.15h6.79l7.4,10.15h8.7c-4.27,3.86-9.89,6.22-16.07,6.22-13.28,0-24.08-10.8-24.08-24.08s10.8-24.08,24.08-24.08h0Zm5.65,19.77c0,1.15,0,4.62-5.84,4.62h-4.77v-9.05h4.77c5.84,0,5.84,3.32,5.84,4.43Z"></path></g></g></g></svg>