<svg width="256" height="256" viewBox="0 0 24 24" fill="none" xmlns="http://www.w3.org/2000/svg">
<path d="M20.051 16.8869C19.7881 17.0247 19.5135 17.148 19.2281 17.2552C18.3702 17.5775 17.4227 17.7602 16.4233 17.7602C12.7264 17.7602 9.50588 15.2171 9.50588 11.9537C9.50588 11.0361 10.0368 10.2407 10.7892 9.82178C7.44572 9.96193 6.58623 13.4468 6.58623 15.4882C6.58623 21.2596 11.9057 21.8453 13.052 21.8453C13.6696 21.8453 14.602 21.6654 15.1637 21.4892C15.198 21.4778 15.2321 21.4663 15.2661 21.4545C17.4348 20.7066 19.2653 19.2352 20.4685 17.328C20.641 17.0544 20.3375 16.7367 20.051 16.8869Z" fill="url(#paint0_linear_11766_2366)"/>
<path d="M10.2588 20.8619C9.56389 20.4312 8.96067 19.8633 8.48255 19.192C7.7427 18.1532 7.30039 16.8755 7.30039 15.4882C7.30039 13.4468 8.25099 11.6386 9.71629 10.4929C10.0491 10.2328 10.4752 9.97036 10.7892 9.82176C11.0329 9.70633 11.4499 9.49851 12.0036 9.50636C12.9218 9.51937 13.6154 9.98746 14.0103 10.519C14.3137 10.9275 14.5008 11.4307 14.507 11.9769C14.5072 11.9605 16.4183 5.75781 8.25313 5.75781C4.82396 5.75781 2 9.01327 2 11.8684C2 13.6795 2.42026 15.1255 2.94646 16.246C4.1184 18.7422 6.29164 20.6741 8.95009 21.5252C9.91281 21.8335 10.9384 22.0015 12.0036 22.0015C13.1084 22.0015 14.1701 21.8198 15.1637 21.4892C14.602 21.6654 14.0064 21.7619 13.3888 21.7619C12.2426 21.7619 11.1742 21.4295 10.2588 20.8619Z" fill="url(#paint1_linear_11766_2366)"/>
<path d="M13.9001 13.6309C13.8369 13.7129 13.6421 13.8261 13.6421 14.0734C13.6421 14.2769 13.7749 14.4732 14.0109 14.638C15.1345 15.422 17.2521 15.3164 17.2578 15.3164C18.132 15.3134 18.9184 15.073 19.6229 14.6611C19.9433 14.4737 20.24 14.2512 20.5074 13.997C21.4251 13.1249 21.9847 11.8959 22.0002 10.5303C22.0201 8.77913 21.3783 7.61489 21.1145 7.09937C19.4589 3.86354 15.8849 2.00134 11.9989 2.00134C6.52112 2.00134 2.07446 6.40343 2.00096 11.8608C2.03809 9.0059 4.87549 6.7005 8.24835 6.7005C8.52183 6.7005 10.0814 6.72717 11.53 7.4875C12.8061 8.15725 13.4752 8.96655 13.9402 9.76937C14.4231 10.603 14.509 11.6558 14.509 12.0756C14.509 12.4954 14.2973 13.1168 13.9001 13.6309Z" fill="url(#paint2_linear_11766_2366)"/>
<defs>
<linearGradient id="paint0_linear_11766_2366" x1="6.58623" y1="15.8336" x2="20.5188" y2="15.8336" gradientUnits="userSpaceOnUse">
<stop stop-color="#094987"/>
<stop offset="0.245021" stop-color="#0C59A4"/>
<stop offset="1" stop-color="#114A8B"/>
</linearGradient>
<linearGradient id="paint1_linear_11766_2366" x1="8" y1="5.99998" x2="5.22878" y2="19.2687" gradientUnits="userSpaceOnUse">
<stop stop-color="#117FBA"/>
<stop offset="0.223416" stop-color="#1797E0"/>
<stop offset="0.947917" stop-color="#0078D4"/>
</linearGradient>
<linearGradient id="paint2_linear_11766_2366" x1="22" y1="10" x2="8" y2="5.50003" gradientUnits="userSpaceOnUse">
<stop stop-color="#48D566"/>
<stop offset="1" stop-color="#35C1F1"/>
</linearGradient>
</defs>
</svg>
