<?xml version="1.0" encoding="UTF-8"?>
<svg version="1.1" xmlns="http://www.w3.org/2000/svg" width="502" height="410">
<path d="M0 0 C1.11165527 0.04640625 2.22331055 0.0928125 3.36865234 0.140625 C64.48675582 2.90551029 126.19731432 13.76501297 184.375 32.875 C185.21281006 33.14900635 186.05062012 33.4230127 186.91381836 33.70532227 C190.8455697 35.05212156 193.68401838 36.45348632 197 39 C188.83906145 39.47610789 181.56735659 38.04727486 173.65625 36.1484375 C171.71182538 35.69710016 169.76739688 35.24577908 167.82279301 34.79521465 C165.77902416 34.32001751 163.73644201 33.8399818 161.69406128 33.3588562 C154.64935691 31.70205313 147.59215996 30.09954232 140.53515625 28.49609375 C139.84380648 28.3388212 139.1524567 28.18154865 138.44015694 28.01951027 C108.56936403 21.23139185 78.63212917 17.21864653 48.16494751 14.21563721 C46.36067413 14.03592455 44.5574962 13.84525612 42.75463867 13.65185547 C32.88836803 12.67837647 22.96729648 12.7561812 13.0625 12.75 C11.60194183 12.74898788 11.60194183 12.74898788 10.11187744 12.74795532 C-38.81410978 12.80159234 -91.5704552 20.69498677 -131 52 C-131.5165918 52.40976074 -132.03318359 52.81952148 -132.56542969 53.24169922 C-155.3831778 71.50266855 -169.98165471 94.7549878 -180 122 C-178.205625 122.0928125 -178.205625 122.0928125 -176.375 122.1875 C-158.60773685 124.2386349 -142.04648278 134.9780555 -127.63964844 144.88525391 C-110.74431174 156.37186906 -94.46149267 160.55639418 -74.2578125 160.50097656 C-71.7384499 160.4999955 -69.22205772 160.54196854 -66.703125 160.5859375 C-55.09834082 160.67305718 -46.75390459 159.18020237 -38.0625 150.8125 C-35.73632979 148.60453808 -33.68220907 146.78813938 -31 145 C-25.62842021 145.1989474 -22.88248197 146.34764304 -19 150 C-17.58935547 152.56738281 -17.58935547 152.56738281 -16.4921875 155.453125 C-16.07936523 156.51466797 -15.66654297 157.57621094 -15.24121094 158.66992188 C-14.62681152 160.31831055 -14.62681152 160.31831055 -14 162 C-12.78421868 165.1842356 -11.56703786 168.36792255 -10.34765625 171.55078125 C-9.5283244 173.69465598 -8.7211317 175.84320704 -7.92578125 177.99609375 C-4.10998305 187.8444872 1.25390719 195.44358577 11 200 C27.04017428 206.46625558 52.05604606 213.56016661 68.90234375 207.05859375 C77.31917219 202.81099504 81.37820683 197.03591159 86 189 C100.43073122 164.1226635 100.43073122 164.1226635 108 155 C108.6909375 154.14664063 109.381875 153.29328125 110.09375 152.4140625 C119.10584522 141.80199385 129.43270935 134.98928864 141.828125 129.04296875 C164.90556859 117.90044954 183.32386002 101.00987603 201.09863281 82.81176758 C207.9214502 75.83693597 215.1752872 69.81715585 223 64 C223.5789502 63.56026855 224.15790039 63.12053711 224.75439453 62.66748047 C233.06845554 56.35826141 241.46536426 51.28632411 251 47 C251.85851562 46.60039063 252.71703125 46.20078125 253.6015625 45.7890625 C256.29933546 44.90152156 258.02133811 44.95840867 260.8125 45.375 C261.99779297 45.54128906 261.99779297 45.54128906 263.20703125 45.7109375 C263.79871094 45.80632813 264.39039063 45.90171875 265 46 C263.81748154 52.90839731 260.49178486 55.9400687 255.3125 60.4375 C249.78977286 65.33578534 244.72349105 70.3198889 240 76 C239.52232178 76.57210205 239.04464355 77.1442041 238.55249023 77.73364258 C231.96415895 85.73536296 226.14416402 93.98183592 221 103 C220.6690332 103.57298828 220.33806641 104.14597656 219.99707031 104.73632812 C191.59888674 154.24971614 190.87580634 214.98460909 205 269 C216.25555329 310.46685834 234.29701648 350.5747203 257.00146484 387.02392578 C259.65570722 391.35285874 261.68593575 394.79671935 262 400 C258.29632189 402.46911874 256.64267105 402.31253324 252.37207031 401.70947266 C248.01861637 400.4073795 245.40449518 397.44845264 242.375 394.1875 C241.69260254 393.47827393 241.01020508 392.76904785 240.30712891 392.03833008 C233.13222963 384.39816148 226.94003402 376.04856845 220.83349609 367.54785156 C217.81998128 363.36022965 214.75091694 359.21367613 211.6875 355.0625 C211.10629395 354.27319092 210.52508789 353.48388184 209.92626953 352.6706543 C196.37558216 331.7515937 196.37558216 331.7515937 177 318 C172.30464173 318.72236281 170.07730525 320.51164676 167 324 C165.08658802 326.84558705 163.35759593 329.79175501 161.625 332.75 C161.10244629 333.63123535 160.57989258 334.5124707 160.04150391 335.42041016 C156.1183489 342.05183011 152.2499053 348.71532049 148.375 355.375 C143.18321901 364.29170352 137.96678137 373.19357898 132.6897583 382.06011963 C131.90574684 383.37962223 131.12407133 384.700516 130.34490967 386.02288818 C120.05685775 403.47157113 120.05685775 403.47157113 115 406 C113.125 406.1328125 113.125 406.1328125 111 406.125 C109.948125 406.12886719 109.948125 406.12886719 108.875 406.1328125 C107 406 107 406 105 405 C107.26737356 395.79460202 111.31177258 387.41764416 115.3125 378.875 C122.05307567 364.46720633 128.51377977 350.11179383 131.9375 334.5 C132.1756543 333.44031006 132.41380859 332.38062012 132.65917969 331.28881836 C134.95389675 320.7639819 136.86905836 310.16774871 138.75 299.5625 C138.89879608 298.73153809 139.04759216 297.90057617 139.20089722 297.04443359 C149.85457369 240.69609222 149.85457369 240.69609222 136.1875 187.4375 C132.32273735 182.84445293 128.50634212 180.35176731 122.4375 179.5 C115.7046977 180.4793167 111.82476438 184.85038951 107.609375 189.83984375 C101.56460013 197.95334011 100.01890558 205.99063219 101 216 C102.54985306 221.22191157 104.9262595 225.94828504 107.4453125 230.76171875 C111.96330561 239.39753987 111.96330561 239.39753987 111 244 C109 246.875 109 246.875 107 249 C104.14469278 247.70493625 102.15979431 246.31887623 99.9375 244.125 C91.9704973 237.20673227 82.17901041 236.32365693 72 236 C70.65483486 238.69033028 70.7187837 240.86670752 70.625 243.875 C70.57601563 244.92429688 70.52703125 245.97359375 70.4765625 247.0546875 C71.91877882 257.92512396 78.33764674 267.49024413 83.875 276.75 C84.6251481 278.01658027 85.37498014 279.28334776 86.12451172 280.55029297 C93.81630544 293.51101152 101.75186506 306.32913864 109.93066406 318.98828125 C110.5594043 319.96410156 111.18814453 320.93992187 111.8359375 321.9453125 C112.40618652 322.82461426 112.97643555 323.70391602 113.56396484 324.60986328 C116.21942015 329.02960273 117.02599302 332.46641205 116.9375 337.6875 C115.78725393 341.75170277 114.5594237 342.81580819 111 345 C105.95943287 347.46060472 100.83016126 347.666384 95.32617188 348.12304688 C90.6366824 348.58574317 87.07996963 349.44617285 83 352 C79.73938353 356.8909247 80.51624849 362.14606437 81.4765625 367.81152344 C82.10079008 370.68079738 82.78327458 373.5274693 83.5 376.375 C83.97258323 378.29854145 84.44148718 380.22299154 84.90625 382.1484375 C85.11572266 382.98552246 85.32519531 383.82260742 85.54101562 384.68505859 C86 387 86 387 86 391 C82.5970516 393.09412209 79.96378615 393.57805215 76 393 C72.63539156 389.49427557 71.09387419 386.10949062 69.59765625 381.52734375 C69.18193359 380.29822266 68.76621094 379.06910156 68.33789062 377.80273438 C67.69623103 375.86694248 67.05993634 373.92960718 66.42993164 371.98999023 C65.81237391 370.10195978 65.17398465 368.22078363 64.53515625 366.33984375 C64.167854 365.21956787 63.80055176 364.09929199 63.42211914 362.94506836 C61.77247109 359.52881009 60.17770645 358.03228937 57 356 C50.35015817 354.98725813 41.79836154 354.65705607 35.87890625 358.30078125 C31.18148265 362.548971 27.62956899 367.8483537 24 373 C23.15267333 374.19294249 22.30501905 375.38565237 21.45703125 376.578125 C21.0405835 377.16440674 20.62413574 377.75068848 20.19506836 378.35473633 C19.7800708 378.93892334 19.36507324 379.52311035 18.9375 380.125 C18.52185791 380.71112061 18.10621582 381.29724121 17.67797852 381.90112305 C-0.12251358 406.87333698 -0.12251358 406.87333698 -8.55859375 409.92578125 C-11.4123448 410.01253528 -12.83659891 409.44732603 -15.3125 408.0625 C-16.00988281 407.68222656 -16.70726562 407.30195313 -17.42578125 406.91015625 C-17.94527344 406.60980469 -18.46476563 406.30945313 -19 406 C-17.67105368 394.64221785 -8.96882307 384.8013076 -2.625 375.625 C3.4033133 366.8381995 9.30609623 358.0067205 15 349 C7.74 348.67 0.48 348.34 -7 348 C-5.87304508 337.8574057 -5.87304508 337.8574057 -3 333.6875 C-2.37222656 332.76453125 -1.74445313 331.8415625 -1.09765625 330.890625 C1.08789672 327.87887603 3.31522184 324.90345087 5.5625 321.9375 C18.44637539 304.8904676 23.4962592 286.25166017 20.73193359 264.93261719 C17.0913839 244.79888406 5.1868347 228.24413956 -7.59375 212.8984375 C-10.39376828 209.52568821 -13.13866428 206.1119636 -15.875 202.6875 C-16.37604248 202.06093506 -16.87708496 201.43437012 -17.39331055 200.78881836 C-21.49538905 195.65021786 -25.5624406 190.48444565 -29.61083984 185.3034668 C-31.69965286 182.56036235 -31.69965286 182.56036235 -34 180 C-56.53164553 177.81000829 -83.20274539 186.23096101 -101.125 199.875 C-106.53396246 204.94938747 -109.77108211 212.6953032 -110.16113281 220.0300293 C-110.64536634 242.7112314 -110.64536634 242.7112314 -107 265 C-106.79600586 265.78342773 -106.59201172 266.56685547 -106.38183594 267.37402344 C-105.6984768 269.94532384 -104.9832232 272.50498826 -104.25 275.0625 C-104.03456543 275.81748779 -103.81913086 276.57247559 -103.59716797 277.3503418 C-98.76706068 293.1408204 -90.70025868 307.92698863 -83.3125 322.625 C-82.82444885 323.59932983 -82.33639771 324.57365967 -81.83355713 325.57751465 C-76.08030736 337.05949315 -70.26127331 348.47797184 -64.01098633 359.69873047 C-60.34117123 366.30076349 -56.88780171 372.99908752 -53.5 379.75 C-52.76015869 381.21614746 -52.76015869 381.21614746 -52.00537109 382.71191406 C-43.07133848 400.65414628 -43.07133848 400.65414628 -44 407 C-44.66 407.99 -45.32 408.98 -46 410 C-54.04603737 408.98007977 -59.23926092 402.30900805 -64.046875 396.25390625 C-66.84007357 392.63798843 -69.55994582 388.96846723 -72.27929688 385.296875 C-74.55317208 382.26160004 -76.89388071 379.28181706 -79.23876953 376.30126953 C-84.43315755 369.698478 -89.4881208 363.0211295 -94.375 356.1875 C-99.27389806 349.33829737 -104.28094201 342.58046773 -109.375 335.875 C-110.02903809 335.01028076 -110.68307617 334.14556152 -111.35693359 333.25463867 C-121.04679767 319.87728667 -121.04679767 319.87728667 -135.6796875 313.51953125 C-148.4189685 312.60465064 -160.69792909 320.23926596 -171 327 C-168.55523168 338.54831353 -165.33483529 349.75863754 -161.73046875 360.99951172 C-160.03556456 366.34379691 -158.5364992 371.41079936 -158 377 C-158.66 377 -159.32 377 -160 377 C-164.80479588 366.13356791 -169.11735187 355.1692519 -173 343.9375 C-173.39759521 342.78975098 -173.79519043 341.64200195 -174.20483398 340.45947266 C-177 332.27173707 -177 332.27173707 -177 330 C-178.18851563 330.50789063 -179.37703125 331.01578125 -180.6015625 331.5390625 C-198.9016723 339.20178971 -217.36144797 344.23605564 -237 347 C-236.81814152 343.09004276 -236.36847317 341.38671441 -233.6328125 338.515625 C-229.03955063 335.08504109 -223.90015742 332.48079073 -218.875 329.75 C-201.12898891 320.11823646 -201.12898891 320.11823646 -187 306 C-185.92565544 301.56788679 -186.09479922 298.4390016 -187.2578125 294.0546875 C-187.55139648 292.91008057 -187.84498047 291.76547363 -188.14746094 290.58618164 C-188.47004883 289.3614917 -188.79263672 288.13680176 -189.125 286.875 C-189.79000111 284.24886059 -190.44038228 281.61926292 -191.0859375 278.98828125 C-191.25001099 278.31991745 -191.41408447 277.65155365 -191.58312988 276.9629364 C-194.30580472 265.7464824 -196.28509063 254.41018572 -198 243 C-198.16516113 241.92524414 -198.33032227 240.85048828 -198.50048828 239.74316406 C-201.16882488 221.45940157 -201.28490392 203.19287317 -201.3125 184.75 C-201.31801376 182.96799698 -201.31801376 182.96799698 -201.32363892 181.1499939 C-201.34600666 167.29838015 -200.95304604 153.72386563 -199 140 C-200.2375 140.33 -201.475 140.66 -202.75 141 C-205.74591845 141.79891159 -207.80107719 142 -211 142 C-211.61490683 134.00621118 -211.61490683 134.00621118 -209.625 130.75 C-199.5 124 -199.5 124 -195 124 C-194.67128906 122.52853516 -194.67128906 122.52853516 -194.3359375 121.02734375 C-185.60640361 83.31877404 -163.24135332 50.54945815 -130.64941406 29.48046875 C-92.42522012 6.01141463 -44.31632791 -1.85375489 0 0 Z M-186 142 C-196.17408236 188.42542436 -191.86421545 233.94186887 -183.62109375 280.33984375 C-183.48779663 281.09691116 -183.35449951 281.85397858 -183.21716309 282.63398743 C-182.34074672 287.4826723 -181.2391704 292.23082665 -180 297 C-163.04569466 281.25116132 -156.39045866 257.84021295 -152 236 C-151.85304687 235.28150879 -151.70609375 234.56301758 -151.5546875 233.82275391 C-146.75829221 209.45170815 -149.55249886 179.28211515 -162.9375 157.9375 C-168.43425714 150.48065892 -174.2238555 145.32941146 -183 142 C-183.99 142 -184.98 142 -186 142 Z " fill="#1E7779" transform="translate(237,0)"/>
<path d="M0 0 C1.11165527 0.04640625 2.22331055 0.0928125 3.36865234 0.140625 C64.48675582 2.90551029 126.19731432 13.76501297 184.375 32.875 C185.21281006 33.14900635 186.05062012 33.4230127 186.91381836 33.70532227 C190.8455697 35.05212156 193.68401838 36.45348632 197 39 C188.83906145 39.47610789 181.56735659 38.04727486 173.65625 36.1484375 C171.71182538 35.69710016 169.76739688 35.24577908 167.82279301 34.79521465 C165.77902416 34.32001751 163.73644201 33.8399818 161.69406128 33.3588562 C154.64935691 31.70205313 147.59215996 30.09954232 140.53515625 28.49609375 C139.84380648 28.3388212 139.1524567 28.18154865 138.44015694 28.01951027 C108.56936403 21.23139185 78.63212917 17.21864653 48.16494751 14.21563721 C46.36067413 14.03592455 44.5574962 13.84525612 42.75463867 13.65185547 C32.88836803 12.67837647 22.96729648 12.7561812 13.0625 12.75 C11.60194183 12.74898788 11.60194183 12.74898788 10.11187744 12.74795532 C-38.81410978 12.80159234 -91.5704552 20.69498677 -131 52 C-131.5165918 52.40976074 -132.03318359 52.81952148 -132.56542969 53.24169922 C-155.49723915 71.59395148 -169.74629542 94.74673255 -180 122 C-184.95 122.33 -189.9 122.66 -195 123 C-189.1424515 98.89280291 -179.3470375 76.85208451 -163 58 C-162.29230469 57.17113281 -161.58460938 56.34226563 -160.85546875 55.48828125 C-128.39018898 18.36073713 -79.07181316 4.21442516 -31.375 0.8125 C-20.89977071 0.14178723 -10.49574192 -0.43903757 0 0 Z " fill="#606365" transform="translate(237,0)"/>
<path d="M0 0 C1.54296875 1.828125 1.54296875 1.828125 3.1875 4.25 C4.01314453 5.43335938 4.01314453 5.43335938 4.85546875 6.640625 C6 9 6 9 5.80078125 10.984375 C5.53652344 11.64953125 5.27226562 12.3146875 5 13 C4.4740625 14.36125 4.4740625 14.36125 3.9375 15.75 C3.628125 16.4925 3.31875 17.235 3 18 C3.64066406 18.4125 4.28132813 18.825 4.94140625 19.25 C14.7391013 25.79153112 21.27932351 32.23186678 24 44 C25.36745707 53.96692934 22.60244504 62.74214697 16.8125 70.875 C12.4367242 76.13724762 6.76712268 79.72007605 0 81 C-10.17365537 81.89810851 -17.23708214 80.19862734 -25.25 73.875 C-29.48210157 69.97300235 -31.96629297 65.34825838 -34 60 C-34 59.34 -34 58.68 -34 58 C-34.53109375 58.44472656 -35.0621875 58.88945313 -35.609375 59.34765625 C-36.31578125 59.91355469 -37.0221875 60.47945312 -37.75 61.0625 C-38.44609375 61.63097656 -39.1421875 62.19945312 -39.859375 62.78515625 C-42 64 -42 64 -44.05859375 63.859375 C-46.23250339 62.89708099 -47.61632065 61.8500083 -49.3125 60.1875 C-49.84488281 59.68605469 -50.37726563 59.18460938 -50.92578125 58.66796875 C-52 57 -52 57 -51.86328125 55.00390625 C-50.85790902 52.67016889 -49.73809981 51.47106978 -47.875 49.75 C-44.63405757 46.73308585 -41.77125898 43.47234244 -38.87353516 40.13183594 C-35.91231159 36.76235403 -32.83134856 33.50932091 -29.75 30.25 C-25.18286801 25.398058 -20.62600216 20.53842522 -16.125 15.625 C-14.83142578 14.21347656 -14.83142578 14.21347656 -13.51171875 12.7734375 C-11.79201491 10.87454212 -10.08691775 8.9623443 -8.39453125 7.0390625 C-7.58371094 6.11867188 -6.77289063 5.19828125 -5.9375 4.25 C-5.22464844 3.43015625 -4.51179688 2.6103125 -3.77734375 1.765625 C-2 0 -2 0 0 0 Z " fill="#1E787A" transform="translate(385,31)"/>
<path d="M0 0 C8.04079085 6.30177613 11.62943112 14.70054087 13.01171875 24.6796875 C13.42213188 34.90380271 10.65140801 41.9601758 5.26171875 50.4296875 C-1.4725855 57.16399175 -8.75993833 60.65765584 -18.30078125 60.9921875 C-28.40247428 60.71618496 -34.58558368 58.02525571 -41.859375 50.93359375 C-48.1952798 44.22567253 -51.00371969 36.33503842 -51.36328125 27.1171875 C-50.88752322 16.01616685 -46.02401572 8.25324579 -38.05078125 0.8671875 C-26.94502836 -8.24202554 -11.89406055 -7.89821703 0 0 Z " fill="#1E787A" transform="translate(161.98828125,88.3203125)"/>
<path d="M0 0 C7.21131275 4.80754184 11.64522753 11.10852233 13.59375 19.58203125 C14.61649597 27.14802699 13.34964857 33.70502143 9.33203125 40.265625 C5.56256309 45.17367151 0.93751626 49.13241328 -5 51 C-13.60856613 52.07183982 -20.93998117 51.25664445 -28 46 C-34.14528856 40.1281247 -36.50211159 32.72993985 -37.375 24.4375 C-36.33876465 14.93867599 -32.35746618 7.3775526 -24.921875 1.32421875 C-17.07116261 -4.08511357 -8.38788076 -4.48207369 0 0 Z " fill="#1E787A" transform="translate(291,155)"/>
<path d="M0 0 C9.27734375 -0.09765625 9.27734375 -0.09765625 12 0 C12.33 0.33 12.66 0.66 13 1 C12.37841952 8.14111207 11.23879161 15.2005385 10.10546875 22.27539062 C4.1449696 60.71759982 9.20421685 99.72998481 16.03352356 137.66992188 C18.202736 149.78613324 18.202736 149.78613324 18.8984375 154.94921875 C18.99560059 155.65780029 19.09276367 156.36638184 19.19287109 157.09643555 C18.92257589 159.76414654 17.80288725 161.06949143 16 163 C15.34 163 14.68 163 14 163 C8.78211682 143.13976035 4.00398897 123.33805322 1 103 C0.83628906 101.92959473 0.67257813 100.85918945 0.50390625 99.75634766 C-2.16673263 81.46743742 -2.28489566 63.19839157 -2.3125 44.75 C-2.31617584 43.56199799 -2.31985168 42.37399597 -2.32363892 41.1499939 C-2.34600666 27.29838015 -1.95304604 13.72386563 0 0 Z " fill="#606365" transform="translate(38,140)"/>
<path d="M0 0 C0.66 0.33 1.32 0.66 2 1 C2.62930504 3.31472103 3.14676462 5.59028946 3.625 7.9375 C5.62174144 17.13283338 8.39744542 26.04450284 11.27001953 34.99975586 C12.96425401 40.34407496 14.4635144 45.41094107 15 51 C14.34 51 13.68 51 13 51 C8.21202724 40.17161474 3.87220921 29.23124265 -0.0625 18.0625 C-0.46847412 16.93150879 -0.87444824 15.80051758 -1.29272461 14.63525391 C-1.66147705 13.57097168 -2.03022949 12.50668945 -2.41015625 11.41015625 C-2.74152588 10.46277588 -3.07289551 9.51539551 -3.41430664 8.53930664 C-4.03638577 5.84224744 -4.11038893 4.52154408 -3 2 C-2.01 1.34 -1.02 0.68 0 0 Z " fill="#606365" transform="translate(64,326)"/>
</svg>
