<svg viewBox="0 0 92 33" fill="none" xmlns="http://www.w3.org/2000/svg">

<path d="M12.2771 5.40066C13.5808 4.11751 14.0667 1.60534 11.8426 0.64253C8.66652 -0.729361 -0.160356 -0.480006 0.00282109 7.24642V17.517V22.4659C-0.0503691 23.3133 0.641104 25.1351 2.71462 25.2576C3.24833 25.2904 4.86206 25.1609 5.412 24.9656C5.42726 24.9598 5.44036 24.9496 5.44955 24.9363C5.45873 24.923 5.46356 24.9072 5.46338 24.8911V13.7935C6.87067 13.5087 9.55903 13.4732 9.55903 13.4732C11.4595 12.8316 11.4423 10.1544 11.152 9.1605C9.37782 8.84015 6.52809 9.0833 5.46338 9.28384C5.46338 7.60403 5.39667 6.7903 5.61394 5.88163C6.04307 4.11308 9.55903 4.38461 12.2771 5.40066Z" fill="#472F92"/>
<path d="M67.3761 13.2318V22.4659C67.3229 23.3134 68.0144 25.1352 70.0879 25.2576C70.6171 25.2887 72.2308 25.1609 72.7835 24.9657C72.7987 24.9599 72.8118 24.9497 72.821 24.9363C72.8302 24.923 72.835 24.9072 72.8349 24.8911V13.2318V3.99776C72.8872 3.1512 72.1966 1.32941 70.1231 1.20695C69.6146 1.17678 68.1082 1.29569 67.4996 1.47316C67.4635 1.48409 67.4319 1.50626 67.4096 1.53633C67.3874 1.56641 67.3756 1.60278 67.3761 1.63999V13.2292V13.2318Z" fill="#472F92"/>
<path d="M13.8417 22.4659C13.7885 23.3133 14.48 25.1351 16.5535 25.2576C17.0827 25.2886 18.6964 25.1608 19.2491 24.9656C19.2643 24.9598 19.2774 24.9496 19.2866 24.9363C19.2958 24.923 19.3006 24.9072 19.3005 24.8911V11.6833C19.3536 10.8359 18.6622 9.01407 16.5886 8.8925C16.0802 8.86232 14.5746 8.98123 13.9652 9.15871C13.9291 9.16964 13.8975 9.1918 13.8752 9.22188C13.853 9.25196 13.8412 9.28833 13.8417 9.32554V22.4659Z" fill="#472F92"/>
<path d="M33.5569 18.2846C32.9403 11.1509 37.8383 8.63431 42.3919 8.62011C51.3712 8.59083 52.5999 20.4098 38.7687 19.4249C39.5016 22.599 45.5572 21.3434 47.784 19.7931C48.2546 19.6156 49.6087 22.6638 48.1103 24.0756C45.9809 26.0891 34.408 28.1212 33.5569 18.2846ZM41.1812 12.6053C37.5751 13.4723 38.0123 16.2569 38.0123 16.2569C38.0123 16.2569 41.9367 16.3838 43.462 15.0146C44.6827 13.932 43.838 11.9673 41.1812 12.608V12.6053Z" fill="#472F92"/>
<path d="M64.3722 5.40066C65.6758 4.11751 66.1645 1.60534 63.9377 0.64253C60.7661 -0.729361 51.9375 -0.480006 52.1024 7.24642V17.517V22.4659C52.0492 23.3133 52.7407 25.1351 54.8142 25.2576C55.3434 25.2886 56.9572 25.1609 57.5098 24.9656C57.5251 24.9598 57.5382 24.9496 57.5473 24.9363C57.5565 24.923 57.5614 24.9072 57.5612 24.8911V13.7935C58.9685 13.5087 61.6568 13.4732 61.6568 13.4732C63.5572 12.8316 63.5401 10.1544 63.2498 9.1605C61.4756 8.84015 58.6259 9.08329 57.5612 9.28384C57.5612 7.60403 57.4936 6.7903 57.7108 5.88162C58.1364 4.11308 61.6595 4.38461 64.3722 5.40066Z" fill="#472F92"/>
<path d="M32.3266 12.324C32.3897 12.1767 33.2381 8.59082 29.9908 8.59082C28.0218 8.59082 22.1574 9.67786 22.225 12.7615V18.0725V22.4632C22.1718 23.3107 22.8633 25.1325 24.9368 25.2549C25.466 25.286 27.0788 25.1582 27.6324 24.963C27.6475 24.9572 27.6605 24.9469 27.6695 24.9336C27.6786 24.9202 27.6832 24.9045 27.6828 24.8885V17.1682V13.435C27.6828 13.435 28.5114 12.7917 32.3266 12.324Z" fill="#472F92"/>
<path d="M80.1825 28.7699C79.6335 29.8436 79.0835 30.9706 78.621 31.81C78.5547 31.931 78.5209 32.0666 78.523 32.2041C78.5252 32.3415 78.5631 32.4761 78.6332 32.595C78.7033 32.7139 78.8033 32.8131 78.9235 32.8831C79.0437 32.953 79.1801 32.9915 79.3197 32.9947C84.1691 33.1171 86.1867 31.1108 87.2217 29.163C87.2616 29.0856 87.2806 28.9995 87.2769 28.9128C87.2732 28.8261 87.2469 28.7418 87.2005 28.668C87.1542 28.5942 87.0893 28.5334 87.0122 28.4914C86.935 28.4494 86.8482 28.4277 86.7601 28.4282L80.7469 28.4424C80.6314 28.4409 80.5177 28.4707 80.4181 28.5284C80.3186 28.5862 80.2371 28.6697 80.1825 28.7699Z" fill="#472F92"/>
<path d="M88.5865 16.1504C87.7832 16.1504 87.2568 16.1895 86.4697 16.2392C86.4026 16.2433 86.3381 16.2661 86.2838 16.3051C86.2295 16.3441 86.1877 16.3976 86.1632 16.4592C85.9306 17.0502 85.6827 17.6829 85.3608 18.4115C85.3386 18.4626 85.3011 18.5058 85.2532 18.5353C85.2054 18.5649 85.1495 18.5794 85.0931 18.5769C85.0367 18.5744 84.9824 18.555 84.9374 18.5213C84.8925 18.4876 84.859 18.4413 84.8416 18.3884C84.0302 15.9836 82.8203 12.994 82.0667 11.7801C81.0056 10.0701 76.2428 9.99998 74.4938 10.2591C74.4634 10.2615 74.434 10.2704 74.4075 10.2852C74.3809 10.3 74.358 10.3204 74.3403 10.3448C74.3227 10.3692 74.3106 10.3972 74.305 10.4267C74.2995 10.4562 74.3005 10.4865 74.3081 10.5156C75.7379 14.3774 77.092 17.4895 78.3505 20.3371C78.8852 21.5483 80.8379 21.6886 83.6813 21.4374C83.7304 21.4337 83.7796 21.4429 83.824 21.4641C83.8683 21.4852 83.9061 21.5176 83.9336 21.5578C83.9611 21.598 83.9773 21.6447 83.9804 21.6931C83.9836 21.7415 83.9737 21.7898 83.9517 21.8332C83.2936 23.1332 82.1875 25.1165 81.45 26.4698C81.4317 26.5031 81.4225 26.5405 81.4234 26.5783C81.4242 26.6161 81.435 26.6531 81.4547 26.6856C81.4745 26.7181 81.5024 26.745 81.5359 26.7636C81.5694 26.7822 81.6072 26.792 81.6456 26.7919L84.4151 26.7981L87.6606 26.807H88.1384C88.2175 26.8073 88.295 26.7852 88.3617 26.7433C88.4283 26.7015 88.4813 26.6416 88.5144 26.5709C89.4709 24.5078 90.148 23.4979 91.4236 20.5731C92.2801 18.6111 92.6569 16.1717 88.5865 16.1504Z" fill="#472F92"/>
</svg>
