<svg version="1.1" id="Uploaded to svgrepo.com" xmlns="http://www.w3.org/2000/svg" width="800" height="800" viewBox="0 0 32 32" xml:space="preserve">
  <style>
    .pictogram_een{fill:#f4d6b0}.pictogram_vijf{fill:#01a59c}.pictogram_zes{fill:#0c6667}
  </style>
  <path class="pictogram_vijf" d="M29 0H16v32h13c1.65 0 3-1.35 3-3V3c0-1.65-1.35-3-3-3"/>
  <path class="pictogram_zes" d="M3 0C1.35 0 0 1.35 0 3v26c0 1.65 1.35 3 3 3h13V0z"/>
  <path class="pictogram_een" d="M21.088 31.188c-.384 0-.768-.146-1.061-.439l-1.414-1.414a1.5 1.5 0 1 1 2.121-2.121l1.414 1.414a1.5 1.5 0 0 1-1.06 2.56m-5.839-5.217h-2a1.5 1.5 0 1 1 0-3h2a1.5 1.5 0 1 1 0 3"/>
  <path class="pictogram_vijf" d="M4.908 4.963 7.816 10H2zM7.434 6h5.816L10.342.963z"/>
  <path class="pictogram_zes" d="M27.092 12.963 30 18h-5.816z"/>
  <path class="pictogram_een" d="M5.997 17.597a1.5 1.5 0 0 0 2.035-.6c.284-.52.607-1.018.961-1.48a1.5 1.5 0 0 0-2.382-1.825 14.5 14.5 0 0 0-1.213 1.869 1.5 1.5 0 0 0 .599 2.036m15.9-10.701q-1.083.064-2.079.185a1.5 1.5 0 0 0 .176 2.989s1.262-.131 2.081-.18a1.5 1.5 0 0 0 1.409-1.586 1.494 1.494 0 0 0-1.587-1.408M13.64 8.569c-.684.268-1.348.571-1.972.902a1.501 1.501 0 0 0 .705 2.825c.486 0 1.101-.441 2.36-.933a1.5 1.5 0 0 0 .851-1.943 1.503 1.503 0 0 0-1.944-.851"/>
  <path d="m8.705 24.5 1.838-1.838a1.559 1.559 0 1 0-2.205-2.205L6.5 22.295l-1.838-1.838c-.225-.225-.506-.338-.795-.397-.495-.101-1.026.013-1.41.397a1.56 1.56 0 0 0 0 2.205L4.295 24.5l-1.838 1.838a1.559 1.559 0 1 0 2.205 2.205L6.5 26.705l1.838 1.838c.305.305.704.457 1.103.457s.798-.152 1.103-.457a1.56 1.56 0 0 0 0-2.205z" style="fill:#f27261"/>
  <path class="pictogram_een" d="m21.152.854-.04 1.999a1.5 1.5 0 0 0 1.469 1.53h.031a1.5 1.5 0 0 0 1.499-1.47l.04-1.999A1.5 1.5 0 0 0 23.856 0H21.44a1.5 1.5 0 0 0-.288.854"/>
</svg>
