<svg xmlns="http://www.w3.org/2000/svg" viewBox="0 0 512 512" xml:space="preserve">
  <path style="fill:#d5dced" d="M348.89 503.706H101.184c-14.658 0-26.54-11.882-26.54-26.54V34.834c0-14.658 11.882-26.54 26.54-26.54H348.89c14.658 0 26.54 11.882 26.54 26.54v442.333c0 14.657-11.882 26.539-26.54 26.539"/>
  <path style="fill:#c7cfe2" d="M375.43 93.111c-11.22-3.342-23.081-5.197-35.387-5.197-68.401 0-123.853 55.451-123.853 123.853S271.642 335.62 340.043 335.62c12.306 0 24.167-1.856 35.387-5.197z"/>
  <path style="fill:#fff" d="M110.03 79.067h230.013v353.866H110.03z"/>
  <path style="fill:#e4eaf8" d="M304.657 362.16h-159.24c-9.772 0-17.693-7.921-17.693-17.693V256c0-9.772 7.921-17.693 17.693-17.693h159.24c9.772 0 17.693 7.921 17.693 17.693v88.467c0 9.772-7.921 17.693-17.693 17.693"/>
  <path style="fill:#d5dced" d="M304.657 238.307h-85.544c10.924 49.982 52.011 88.558 103.237 95.907V256c0-9.772-7.922-17.693-17.693-17.693"/>
  <path style="fill:#00c3ff" d="M323.392 115.836c-41.086 6.809-73.797 40.489-79.651 81.722-5.277 37.17 10.544 70.915 37.133 91.342-7.461 13.638-15.849 23.96-21.731 30.356-2.309 2.511-.046 6.516 3.298 5.84 11.8-2.384 31.266-7.95 48.43-20.478 12.913 4.054 26.976 5.509 41.593 3.685 42.211-5.269 76.957-38.578 83.625-80.591 10.542-66.425-46.202-122.896-112.697-111.876"/>
  <circle style="fill:#87dcff" cx="340.043" cy="211.767" r="70.773"/>
  <path d="M375.43 327.326a8.294 8.294 0 0 0-8.294 8.294v141.546c0 10.061-8.185 18.246-18.246 18.246H101.184c-10.061 0-18.246-8.185-18.246-18.246V34.834c0-10.061 8.185-18.246 18.246-18.246H348.89c10.061 0 18.246 8.185 18.246 18.246v44.233a8.294 8.294 0 0 0 16.588 0V34.834C383.724 15.627 368.097 0 348.89 0H101.184C81.976 0 66.35 15.627 66.35 34.834v442.333c0 19.207 15.627 34.834 34.834 34.834H348.89c19.207 0 34.834-15.627 34.834-34.834V335.62a8.295 8.295 0 0 0-8.294-8.294"/>
  <path d="M242.73 51.974a8.294 8.294 0 0 0 0-16.588h-35.387a8.294 8.294 0 0 0 0 16.588zm-62.391-8.294a8.294 8.294 0 0 0-8.294-8.294h-.088c-4.58 0-8.25 3.713-8.25 8.294s3.758 8.294 8.338 8.294a8.294 8.294 0 0 0 8.294-8.294m27.004 416.346a8.294 8.294 0 0 0 0 16.588h35.387a8.294 8.294 0 0 0 0-16.588zM348.337 79.067a8.294 8.294 0 0 0-8.294-8.294H110.03a8.294 8.294 0 0 0-8.294 8.294v353.866a8.294 8.294 0 0 0 8.294 8.294h230.013a8.294 8.294 0 0 0 8.294-8.294v-88.468a8.294 8.294 0 0 0-16.588 0v80.174H118.324V87.361h221.719a8.294 8.294 0 0 0 8.294-8.294"/>
  <path d="M340.132 166.981a8.294 8.294 0 0 0 0-16.588h-.088c-4.58 0-8.249 3.713-8.249 8.294-.001 4.58 3.756 8.294 8.337 8.294"/>
  <path d="M340.043 106.16c-58.232 0-105.607 47.375-105.607 105.607 0 30.554 12.938 58.982 35.739 79.066-11.441 18.731-23.858 29.525-23.986 29.633a8.295 8.295 0 0 0 6.041 14.577c1.365-.108 32.508-2.768 60.135-21.346a105.6 105.6 0 0 0 27.677 3.678c58.232 0 105.607-47.375 105.607-105.607S398.275 106.16 340.043 106.16m0 194.626a89 89 0 0 1-26.689-4.081 8.3 8.3 0 0 0-7.374 1.214c-10.211 7.453-21.42 12.265-31.044 15.345a165 165 0 0 0 13.214-20.384 8.294 8.294 0 0 0-2.223-10.557c-22.182-17.041-34.903-42.758-34.903-70.556 0-49.086 39.934-89.019 89.019-89.019s89.019 39.934 89.019 89.019-39.933 89.019-89.019 89.019"/>
  <path d="M348.89 202.367a8.294 8.294 0 0 0 0-16.588h-17.693a8.294 8.294 0 0 0 0 16.588h.553v54.186h-.553a8.294 8.294 0 0 0 0 16.588h17.693a8.294 8.294 0 0 0 0-16.588h-.553v-54.186zm-194.627 106.16h61.927a8.294 8.294 0 0 0 0-16.588h-61.927a8.294 8.294 0 0 0 0 16.588m0-35.387h26.54a8.294 8.294 0 0 0 0-16.588h-26.54a8.294 8.294 0 0 0 0 16.588m70.221 62.48a8.294 8.294 0 0 0-8.294-8.294h-61.927a8.294 8.294 0 0 0 0 16.588h61.927a8.295 8.295 0 0 0 8.294-8.294m-70.221 53.633a8.294 8.294 0 0 0 0 16.588h17.693a8.294 8.294 0 0 0 0-16.588zM295.81 405.84a8.294 8.294 0 0 0 0-16.588h-17.693a8.294 8.294 0 0 0 0 16.588zm-79.62 0h17.693a8.294 8.294 0 0 0 0-16.588H216.19a8.294 8.294 0 0 0 0 16.588"/>
</svg>
