<svg xmlns="http://www.w3.org/2000/svg" viewBox="0 0 4800 4800">
  <path fill-rule="evenodd" fill="#91d4f2" d="M4140 4020c0 33.137-26.86 60-60 60h-660c-33.14 0-60-26.863-60-60v-840c0-33.14 26.86-60 60-60h660c33.14 0 60 26.86 60 60z"/>
  <path fill-rule="evenodd" fill="#eb4040" d="M4080 2940c33.14 0 60 26.86 60 60v300h-840c-33.14 0-60-26.86-60-60v-120c0-47.738 18.96-93.52 52.719-127.281A180 180 0 0 1 3420 2940z"/>
  <path fill-rule="evenodd" fill="#fbc4ac" d="M3900 1380v-358.121c0-33.04-26.719-59.867-59.762-60l-240.949-.938c-53.5-.21-101.469-23.75-134.309-60.96-16.511-18.7-42.87-25.243-66.199-16.41-23.34 8.82-38.781 31.167-38.781 56.12V1260a300 300 0 0 0 87.871 212.129A299.98 299.98 0 0 0 3660 1560h180c25.262 0 46.871-15.61 55.7-37.71l.01-.009c2.77-6.883 4.29-14.402 4.29-22.281z"/>
  <path fill-rule="evenodd" fill="#924436" d="m3840 1560-3.09-.078c-31.7-1.613-56.91-27.82-56.91-59.922v-418.352l-181.172-.707c-165.226-.652-298.828-134.77-298.828-300V780c0-33.14 26.86-60 60-60h420c198.82 0 360 161.18 360 360v180a300 300 0 0 1-87.871 212.129A299.98 299.98 0 0 1 3840 1560"/>
  <path fill-rule="evenodd" fill="#ffba4d" d="M3540 2070v450s-227.8 56.95-369.531 92.379c-69.91 17.48-128.27 65.441-158.95 130.652-95.96 203.91-308.238 654.989-394.238 837.758-22.37 47.52-12.52 103.973 24.617 141.11.032.03.051.05.082.081a134.5 134.5 0 0 0 109.489 38.63 134.56 134.56 0 0 0 98.793-61.008C3003.942 3460.532 3300 3000 3300 3000h357.21c240.688 0 442.9-180.98 469.481-420.21C4134.43 2510.11 4140 2460 4140 2460v-623.27a517.6 517.6 0 0 0-86.941-287.14C4034.32 1521.469 4020 1500 4020 1500h-171.57c-119.602 0-233.22 52.262-311.059 143.059C3433.04 1764.78 3300 1920 3300 1920h-370.32a229.72 229.72 0 0 0-162.41 67.27 229.72 229.72 0 0 0-67.27 162.41V2160h720z"/>
  <path fill-rule="evenodd" fill="#fbc4ac" d="M3060 1920h-130.32a229.72 229.72 0 0 0-162.41 67.27 229.72 229.72 0 0 0-67.27 162.41V2160h360z"/>
  <path fill-rule="evenodd" fill="#46505a" d="M3540 2520s-227.8 56.95-369.531 92.379c-69.91 17.48-128.27 65.441-158.95 130.652-95.96 203.91-308.238 654.989-394.238 837.758-22.37 47.52-12.52 103.973 24.617 141.11.032.03.051.05.082.081a134.5 134.5 0 0 0 109.489 38.63 134.56 134.56 0 0 0 98.793-61.008C3003.942 3460.532 3300 3000 3300 3000h357.21c212.052 0 394.231-140.469 452.759-337.512z"/>
  <path fill-rule="evenodd" fill="#df8a57" d="M2520 4080c33.14 0 60-26.863 60-60V2460c0-33.14-26.86-60-60-60h-240c-33.14 0-60 26.86-60 60v1560c0 33.137 26.86 60 60 60z"/>
  <path fill-rule="evenodd" fill="#91d4f2" d="M660 4020c0 33.137 26.863 60 60 60h660c33.14 0 60-26.863 60-60v-840c0-33.14-26.86-60-60-60H720c-33.137 0-60 26.86-60 60z"/>
  <path fill-rule="evenodd" fill="#e4996d" d="M3540 2160H1260v300h2280z"/>
  <path fill-rule="evenodd" fill="#a1bac8" d="M1740 1080v87.89l-153.281 102.188A60.02 60.02 0 0 0 1560 1320a60.02 60.02 0 0 0 26.719 49.922L1740 1472.109V1560c0 99.41 80.59 180 180 180h600c99.41 0 180-80.59 180-180v-480c0-99.41-80.59-180-180-180h-600c-99.41 0-180 80.59-180 180"/>
  <path fill-rule="evenodd" fill="#fbc4ac" d="M900 1380v-358.121c0-33.04 26.719-59.867 59.766-60l240.945-.938c53.5-.21 101.469-23.75 134.309-60.96 16.511-18.7 42.87-25.243 66.199-16.41 23.34 8.82 38.781 31.167 38.781 56.12V1260a300 300 0 0 1-87.871 212.129A299.98 299.98 0 0 1 1140 1560H960c-25.258 0-46.867-15.61-55.703-37.71l-.004-.009C901.52 1515.398 900 1507.88 900 1500z"/>
  <path fill-rule="evenodd" fill="#924436" d="m960 1560 3.09-.078c31.703-1.613 56.91-27.82 56.91-59.922v-418.352l181.18-.707c165.218-.652 298.82-134.77 298.82-300V780c0-33.14-26.86-60-60-60h-420c-198.824 0-360 161.18-360 360v180a300 300 0 0 0 87.867 212.129A300 300 0 0 0 960 1560"/>
  <path fill-rule="evenodd" fill="#e4996d" d="M1800 4080h1200c33.121 0 60-26.887 60-60s-26.879-60-60-60H1800c-33.11 0-60 26.887-60 60s26.89 60 60 60"/>
  <path fill-rule="evenodd" fill="#eb4040" d="M720 2940c-33.137 0-60 26.86-60 60v300h840c33.14 0 60-26.86 60-60v-120c0-47.738-18.96-93.52-52.719-127.281A180 180 0 0 0 1380 2940z"/>
  <path fill-rule="evenodd" fill="#d9e6ee" d="M3060 900c0-99.41-80.59-180-180-180h-600c-99.41 0-180 80.59-180 180v480c0 99.41 80.59 180 180 180h600c99.41 0 180-80.59 180-180v-87.89l153.281-102.188A60.02 60.02 0 0 0 3240 1140a60.02 60.02 0 0 0-26.719-49.922L3060 987.891z"/>
  <path fill-rule="evenodd" fill="#a1bac8" d="M2400 1080h360c33.121 0 60-26.89 60-60s-26.879-60-60-60h-360c-33.11 0-60 26.89-60 60s26.89 60 60 60m0 240h360c33.121 0 60-26.89 60-60s-26.879-60-60-60h-360c-33.11 0-60 26.89-60 60s26.89 60 60 60"/>
  <path fill-rule="evenodd" fill="#36d49b" d="M1260 2070v450s227.8 56.95 369.54 92.379a240 240 0 0 1 158.94 130.652c95.961 203.91 308.239 654.989 394.239 837.758 22.37 47.52 12.52 103.973-24.617 141.11-.032.03-.051.05-.082.081a134.48 134.48 0 0 1-109.489 38.63 134.56 134.56 0 0 1-98.793-61.008C1796.058 3460.532 1500 3000 1500 3000h-357.21c-240.692 0-442.9-180.98-469.481-420.21C665.566 2510.11 660 2460 660 2460v-623.27a517.6 517.6 0 0 1 86.941-287.14C765.684 1521.469 780 1500 780 1500h171.574c119.598 0 233.215 52.262 311.055 143.059C1366.96 1764.78 1500 1920 1500 1920h370.32a229.72 229.72 0 0 1 162.41 67.27 229.72 229.72 0 0 1 67.27 162.41V2160h-720z"/>
  <path fill-rule="evenodd" fill="#fbc4ac" d="M1740 1920h130.32a229.72 229.72 0 0 1 162.41 67.27 229.72 229.72 0 0 1 67.27 162.41V2160h-360z"/>
  <path fill-rule="evenodd" fill="#46505a" d="M1260 2520s227.8 56.95 369.54 92.379a240 240 0 0 1 158.94 130.652c95.961 203.91 308.239 654.989 394.239 837.758 22.37 47.52 12.52 103.973-24.617 141.11-.032.03-.051.05-.082.081a134.48 134.48 0 0 1-109.489 38.63 134.56 134.56 0 0 1-98.793-61.008C1796.058 3460.532 1500 3000 1500 3000h-357.21c-212.052 0-394.227-140.469-452.763-337.512z"/>
</svg>
