<svg xmlns="http://www.w3.org/2000/svg" fill="none" viewBox="-0.3 -0.3 14.6 14.6" height="256" width="256">
  <desc>
    Cyborg Streamline Icon: https://streamlinehq.com
  </desc>
  <path fill="url(#a)" fill-rule="evenodd" d="M5.43 1.57a1.57 1.57 0 1 1 2.32 1.38v1.096a6 6 0 0 1 5.218 5.329h-1.419c-.544 0-1.052.272-1.353.725l-.3.452a.38.38 0 0 1-.313.168H4.416a.38.38 0 0 1-.312-.168l-.3-.452a1.63 1.63 0 0 0-1.354-.725H1.032A6 6 0 0 1 6.25 4.046V2.95a1.57 1.57 0 0 1-.82-1.38ZM1 12.5v-1.875h1.45c.126 0 .243.063.313.167l.3.452c.301.453.81.726 1.353.726h5.167c.545 0 1.053-.273 1.354-.726l.3-.452a.38.38 0 0 1 .312-.167H13V12.5a1.5 1.5 0 0 1-1.5 1.5h-9A1.5 1.5 0 0 1 1 12.5Zm4-3.946a.75.75 0 1 1 0-1.5.75.75 0 0 1 0 1.5Zm4 0a.75.75 0 1 1 0-1.5.75.75 0 0 1 0 1.5Z" clip-rule="evenodd"/>
  <defs>
    <linearGradient id="a" x1="7" x2="7" y1="0" y2="14" gradientUnits="userSpaceOnUse">
      <stop offset="0" stop-color="#00d078"/>
      <stop offset="1" stop-color="#007df0"/>
    </linearGradient>
  </defs>
</svg>
