<svg xmlns="http://www.w3.org/2000/svg" width="512" height="512">
  <path d="M268.688 1.75C270.457 2.855 270.457 2.855 272 4l2.875 2.063C277 8 277 8 279 11c2.353.707 2.353.707 5.145.992l3.208.439 3.46.444C317.617 16.679 342.64 24.145 367 36l2.233 1.085C400.36 52.423 429.688 75.555 451 103l2.422 3.047c13.217 16.736 25.115 35.063 32.828 55.016 2.078 5.136 3.79 7.38 8.727 9.82 5.231 2.888 8.875 7.977 10.96 13.492 1.972 7.194 1.807 13.205-1 20.125-2.242 5.674-1.982 9.586-.937 15.5q.513 3.654 1 7.313l.5 3.488c8.415 65.874-10.836 132.364-50.785 184.977-5.808 7.463-12.16 14.414-18.715 21.222l-1.52 1.587c-15.213 15.799-15.213 15.799-23.62 20.647-2.88 2.735-3.542 6.242-4.61 9.954C401.13 485.6 393.877 502.513 378 511c-6.178 2.06-13.52 2.13-19.437-.75-5.088-3.002-9.123-6.408-12.563-11.25v-2l-2.528.763c-28.145 8.447-28.145 8.447-39.347 10.675l-2.09.42c-2.34.435-4.68.798-7.035 1.142l-3.588.529c-11.679 1.603-23.262 1.83-35.037 1.784l-2.941-.007c-30.522-.109-58.376-6.15-87.434-15.306l-.855 1.844c-3.25 6.121-9.653 10.973-16.145 13.156-9.54 1.132-15.38-.794-23.062-6.125-9.648-8.66-16.492-22.826-19.713-35.245C103.818 461.37 99.77 457.462 92 452a216 216 0 0 1-5.937-5.312l-1.504-1.392C75.362 436.726 66.676 427.988 59 418l-1.276-1.65C50.047 406.36 43.291 395.912 37 385l-1.293-2.232C14.841 346.268 4.782 303.899 4.813 262l.002-3.539c.084-12.137 1.026-24.156 2.904-36.149 1.174-7.763 1.546-13.455-1.746-20.832-2.41-6.144-1.488-13.094.785-19.175 2.976-5.523 7.395-11.147 13.277-13.54 4.362-2.597 5.282-6.039 7.09-10.64C37.045 134.667 51.182 114.029 68 95l2.367-2.703C78.615 82.994 87.276 74.747 97 67l2.29-1.922c33.97-28.25 79.133-47.901 123.167-52.594l2.08-.225c1.829-.183 3.661-.33 5.494-.474C233.846 10.776 234.757 9.162 237 6c2.035-1.547 2.035-1.547 4.063-2.75l2.035-1.234c6.722-3.59 18.765-3.613 25.59-.266" fill="#69c2d9"/>
  <path d="M219.228 70.496c3.544.014 7.089.007 10.633.003q8.91-.002 17.82.034c6.808.027 13.615.029 20.423.017q9.949-.013 19.897.01 4.18.007 8.357 0c41.21-.052 74.347 8.312 104.642 37.44l1.918 1.691C413.813 119.603 420.984 133.778 427 147l1.08 2.22c1.185 3.582 1.204 6.958 1.191 10.688l.016 2.367q.015 2.535.018 5.071.008 4.017.04 8.034c.056 7.611.087 15.223.111 22.835q.025 6.991.085 13.984.018 2.66.018 5.319c0 2.482.018 4.963.04 7.445l-.014 2.206c.066 4.666.951 7.868 3.415 11.831 3.206 2.446 6.028 3.433 10 4-2.331 8.16-6.935 14.326-14 19-7.166 3.593-13.37 4.582-21.321 4.518l-3.286.02c-3.553.018-7.105.007-10.659-.007l-7.447.012a3280 3280 0 0 1-15.563-.022c-6.647-.022-13.293-.01-19.94.015-5.12.014-10.24.01-15.36 0q-3.676-.005-7.353.01c-3.423.01-6.845-.006-10.267-.028l-3.06.024c-5.972-.072-9.083-.79-13.744-4.542-2.52-.583-2.52-.583-5.04-.496l-2.757-.002-2.828.06-2.852-.021c-5.062.047-7.51.223-11.523 3.459h-2l-.937 2.375C272 270 272 270 271 272c-.404 5.252.11 8.569 3 13 3.482 3.7 5.627 5.297 10.75 5.594q2.625-.009 5.25-.094l2.656.008c5.336-.08 10.335-.5 14.344-4.508 2.708-.095 5.391-.126 8.1-.114h2.572c2.819 0 5.638.009 8.457.016l5.847.005q7.712.006 15.423.024 7.862.014 15.724.02 15.438.016 30.877.049c-19.533 19.728-48.318 30.797-75.942 31.134q-3.506.013-7.013.011l-3.886.01q-5.25.013-10.502.012l-6.585.006q-11.524.014-23.048.012-10.68.001-21.362.026-9.216.019-18.432.018-5.482-.002-10.967.013c-36.504.1-36.504.1-52.263-4.867l-2.534-.784C153.18 308.915 145.543 305.328 138 301l-1.85-1.059c-9.084-5.295-16.647-11.613-24.15-18.941l-2.172-1.984C99.108 268.982 91.954 256.264 86 243l-1.529-3.112c-1.702-4-1.921-7.834-1.923-12.14l-.035-2.408a795 795 0 0 1-.052-7.836l-.038-5.505q-.032-5.769-.034-11.537c-.005-4.885-.056-9.769-.12-14.654-.04-3.793-.05-7.586-.05-11.38a411 411 0 0 0-.05-5.394C81.788 143.347 95.682 124.09 113 106c12.069-12.131 26.333-20.401 42-27l2.898-1.242c19.416-7.345 40.889-7.365 61.33-7.262m-21.574 262.229 4.36-.015c3.92-.013 7.839-.014 11.758-.012q4.924 0 9.848-.008 11.623-.016 23.245-.006c7.972.006 15.943-.006 23.915-.027q10.3-.026 20.6-.02c4.091.001 8.183-.001 12.274-.015q5.772-.018 11.544.002 2.107.004 4.216-.009c15.905-.087 27.56 3.9 39.227 14.877 9.978 10.607 13.825 22.893 13.656 37.26-.395 7.746-2.417 15.24-4.235 22.748q-.612 2.61-1.219 5.219-1.263 5.413-2.551 10.82a1907 1907 0 0 0-3.753 16.18l-1.195 5.228-.585 2.556c-2.521 11.015-5.097 22.005-7.921 32.946-.888 3.568-.888 3.568-1.434 7.31-.686 4.202-1.504 6.075-4.404 9.241-8.046 4.218-17.206 6-26 8l-3.291.78c-19.826 4.66-39.004 6.614-59.334 6.532l-2.941-.006c-14.321-.051-28.366-.373-42.434-3.306l-3.043-.634c-6.382-1.372-12.695-2.927-19-4.612-2.838-.724-5.678-1.33-8.547-1.914-11.755-2.629-11.755-2.629-15.7-7.899-1.56-3.368-2.414-6.846-3.183-10.468-.545-2.56-1.196-5.073-1.87-7.602-3.982-15.324-7.057-30.898-10.32-46.387-1.881-8.901-3.848-17.751-6.105-26.565-4.288-16.775-5.496-31.466 3.6-47.06 8.21-11.852 18.859-19.688 33.158-22.44 5.863-.816 11.756-.705 17.664-.694" fill="#fef4f4"/>
  <path d="M500 211h2c13.446 63.377 1.083 131.81-34.2 186.224-9.491 14.314-19.894 27.411-31.8 39.776l-1.52 1.587c-15.213 15.799-15.213 15.799-23.62 20.647-2.88 2.735-3.542 6.242-4.61 9.954C401.13 485.6 393.877 502.513 378 511c-6.178 2.06-13.52 2.13-19.437-.75A72 72 0 0 1 355 508l-2.687-1.812c-2.863-2.709-5.72-5.54-7.313-9.188.49-3.771 1.73-7.232 2.996-10.805 3.46-9.81 5.845-19.663 7.904-29.848.928-4.59 1.892-9.174 2.854-13.757l.574-2.75c1.932-9.192 4.113-18.315 6.377-27.431 5.004-20.175 9.357-38.118-1.83-57.159-7.224-10.567-16.976-17.777-29.436-20.818-4.844-.858-9.733-.741-14.638-.75l-3.64-.031q-4.905-.038-9.81-.056c-3.425-.015-6.851-.042-10.277-.068q-9.717-.068-19.432-.116c-7.379-.039-14.757-.088-22.136-.138Q231.754 333.119 209 333c.697-3.805 1.724-6.801 3.5-10.25l1.344-2.64C215 318 215 318 216 317a58 58 0 0 1 4.1-.138c.883-.005 1.767-.01 2.678-.017l2.964-.003 3.105-.015q3.354-.016 6.71-.026 5.332-.019 10.663-.053c10.112-.062 20.223-.116 30.334-.15a4970 4970 0 0 0 18.541-.1q3.516-.021 7.031-.026c31.523-.048 60.42-5.917 85.874-25.472l2.488-2.738c4.78-4.019 11.637-2.822 17.512-2.762 17.304-.23 29.016-3.343 42.023-15.371 7.123-7.48 13.08-18.611 13.164-29.067.332-4.096 1.137-5.926 4.125-8.75l1.95-1.648c1.861-1.782 2.45-3.104 3.363-5.476C475 222 475 222 477.781 221.328q3.402-.397 6.809-.742c5.21-.895 9.304-3.313 13.41-6.586z" fill="#68c2d9"/>
  <path d="m168.974 142.733 2.344-.014c2.576-.013 5.152-.011 7.728-.01q2.78-.008 5.56-.02c5.025-.018 10.05-.022 15.075-.024q4.716-.001 9.43-.01 16.468-.028 32.935-.026a9541 9541 0 0 0 30.641-.051q13.176-.038 26.352-.036c5.24 0 10.48-.005 15.719-.026q7.398-.029 14.796-.005a685 685 0 0 0 5.408-.015c14.245-.09 25.353 1.698 37.038 10.504l2.625 1.75c8.66 8.204 14.336 19.723 14.668 31.68.13 13.701-3.767 25.278-13.137 35.601-9.373 8.759-20.43 13.293-33.206 13.236l-2.331.014c-2.557.013-5.114.011-7.67.01q-2.764.008-5.527.02c-4.99.018-9.98.022-14.97.024q-4.683.001-9.367.01-16.362.028-32.724.026c-10.144-.002-20.288.02-30.432.051q-13.092.038-26.184.036c-5.204 0-10.409.005-15.613.026q-7.35.029-14.698.005-2.685-.003-5.368.015c-17.094.108-30.002-2.944-42.878-14.879-7.827-8.286-12.33-19.859-12.625-31.187.508-14.673 6.13-25.284 16.437-35.438 8.608-7.575 18.483-11.318 29.974-11.267" fill="#0571b3"/>
  <path d="m194.04 332.805 3.05.008c3.179.011 6.357.036 9.535.062q3.255.016 6.512.027 7.931.034 15.863.098v1l-3.875.688c-12.37 2.792-22.688 10.147-29.621 20.683-9.9 17.307-7.34 34.918-2.484 53.475 7.386 26.703 21.068 44.88 43.98 60.154l.028-3.545c.04-4.369.106-8.737.18-13.105q.042-2.829.063-5.657c.022-2.72.068-5.44.12-8.162l.003-2.526c.142-5.762 1.388-10.177 4.606-15.005 4.857-4.615 8.99-6.48 15.621-6.316 5.24.697 9.106 3.01 12.754 6.753 2.707 4.27 3.877 7.753 3.852 12.812v3.093l-.032 3.303-.008 3.408c-.011 3.587-.037 7.173-.062 10.76q-.016 3.651-.027 7.302-.034 8.943-.098 17.885c27.233-1.181 48.976-7.315 69-27l2.117-2.078C353.4 442.22 359.05 431.279 363 420h1c-.586 6.088-1.517 11.9-2.926 17.848l-.572 2.47q-.901 3.872-1.815 7.745l-1.185 5.107a1171 1171 0 0 1-6.682 27.347c-.872 3.51-.872 3.51-1.414 7.235-.687 4.205-1.503 6.08-4.406 9.248-8.046 4.218-17.206 6-26 8l-3.291.78c-19.826 4.66-39.004 6.614-59.334 6.533l-2.941-.007c-14.321-.051-28.366-.373-42.434-3.306l-3.043-.634c-6.382-1.372-12.695-2.927-19-4.612-2.838-.724-5.678-1.33-8.547-1.914-11.755-2.629-11.755-2.629-15.7-7.899-1.56-3.368-2.414-6.846-3.183-10.468-.545-2.56-1.196-5.073-1.87-7.602-3.982-15.324-7.057-30.898-10.32-46.387-1.881-8.901-3.848-17.751-6.105-26.565-4.288-16.775-5.496-31.466 3.6-47.06 8.299-11.981 18.954-19.66 33.374-22.445 4.615-.684 9.176-.66 13.833-.61" fill="#ebebf0"/>
  <path d="M279 12c60.152 1.203 118.914 34.56 160.04 76.848 4.274 4.492 8.158 9.256 11.96 14.152l2.422 3.047c13.217 16.736 25.115 35.063 32.828 55.016 2.078 5.136 3.79 7.38 8.727 9.82 5.231 2.888 8.875 7.977 10.96 13.492 2.44 8.903 1.497 17.455-2.937 25.625l-3 1-.883 1.863c-1.486 2.842-3.235 3.733-5.992 5.325l-2.617 1.542c-3.867 1.958-6.95 2.396-11.258 2.333l-2.422-.028L475 222l-.562 2c-2.236 4.666-5.793 8.355-9.438 12a135 135 0 0 0-.25 4.25c-1.372 14.556-9.277 26.445-20.14 35.777-3.944 2.981-8.02 5.163-12.61 6.973l-1.826.747c-6.332 2.378-12.062 2.677-18.78 2.638l-3.414.016q-3.645.015-7.292.01c-3.846-.005-7.69.01-11.536.028-8.849.04-17.698.052-26.547.064-8.774.011-17.548.034-26.323.077-3.791.014-7.582.01-11.374.005l-6.948.03-3.2-.018-2.936.024-2.545.003c-2.796.461-4.107 1.604-6.279 3.376-7.478 2.493-18.824 2.913-26.027-.387-4.674-4.012-6.672-7.903-7.348-13.988.593-5.729 2.554-9.035 6.867-12.8 4.77-2.481 8.713-2.414 14.008-2.325.924-.015 1.849-.03 2.8-.047l5.186.03C301 261 301 261 303.482 263c4.423 3.008 9.144 2.56 14.322 2.518l3.264.02c3.556.018 7.11.007 10.666-.007l7.436.012q7.792.008 15.585-.022c6.642-.022 13.283-.01 19.926.015 5.12.014 10.24.01 15.36 0q3.67-.005 7.343.01c3.432.01 6.863-.006 10.295-.028l3.036.024c10.107-.12 17.94-3.321 25.3-10.237 3.183-3.696 5.153-7.813 6.985-12.305l-3.187-.25c-4.178-.822-5.874-1.727-8.813-4.75-2.154-4.16-2.29-8.06-2.275-12.648l-.015-2.284c-.014-2.48-.013-4.962-.01-7.443l-.014-5.189q-.01-5.431-.002-10.864c.006-4.637-.01-9.274-.034-13.91-.015-3.571-.016-7.142-.013-10.712q0-2.565-.015-5.129a716 716 0 0 1 .006-7.173l-.023-2.131c.063-5.949 2.031-8.902 5.77-13.33 4.626-3.736 11.036-2.71 16.625-2.187l3 1c-28.299-49.925-75.2-84.75-129-103l-2.301-.8C309.804 37.775 296.46 35.913 283 34l-.113-2.781C282.51 24.212 281.94 18.393 279 12" fill="#012d4e"/>
  <path d="M268.688 1.75c1.636.984 1.636.984 3.312 2.25l2.5 1.805c5.337 4.686 8.197 11.075 8.879 18.093-.004 3.39-.11 6.725-.379 10.102l3.29-.121C330.417 33.966 376.77 61.549 409 90c.508.445 1.015.89 1.539 1.347 15.555 13.677 28.435 29.163 39.711 46.528l1.16 1.785c2.59 4.086 2.59 4.086 2.59 6.34-1.074-.07-2.148-.14-3.254-.21-9.162-.753-9.162-.753-17.121 3.023-1.809 1.958-3.135 3.952-4.625 6.187l-1.031-2.79c-11.808-31.162-33.995-55.909-64.524-69.831-22.548-9.605-44.44-10.704-68.628-10.714q-3.171-.002-6.341-.01-11.13-.028-22.258-.026c-6.842.002-13.684-.02-20.526-.051q-8.9-.039-17.8-.036c-3.518 0-7.035-.004-10.552-.026-41.392-.237-76.015 8.06-106.34 37.484-12.465 12.423-22.812 29.107-28 46l-1.812-2.312c-3.403-4.32-3.403-4.32-8.188-6.688-2.573-.07-5.116-.094-7.687-.062l-2.127.013q-2.594.02-5.186.049c8.233-22.165 30.162-44.13 48-59l1.538-1.292c29.593-24.75 65.018-42.036 102.775-49.958l2.499-.533c5.491-1.093 10.59-1.374 16.188-1.217l-.14-2.492c-.296-9.128 1.071-15.576 5.89-23.32 8.54-8.302 22.794-11.903 33.938-6.438" fill="#68c2d9"/>
  <path d="m233 12-1.437 3.688C229.535 21.676 229.28 27.724 229 34l-3.96.48C212.984 36.023 201.591 38.375 190 42l-3.82 1.152C132.913 59.947 87.94 96.567 59 144l-1 2 3-1a100 100 0 0 1 5.875-.25l3.117-.078c5.227.57 8.62 3.455 12.008 7.328 1.177 3.532 1.155 6.73 1.161 10.406l.015 2.277q.021 3.73.027 7.462l.017 5.19q.015 5.444.02 10.887c.006 4.644.03 9.287.058 13.93.019 3.576.024 7.15.026 10.725q.004 2.568.024 5.135a731 731 0 0 1 .008 7.194l.028 2.13c-.05 5.898-1.593 9.873-5.759 14.039-6.995 3.136-14.776 2.62-21.937.063C47.743 237.768 41.519 231.447 37 224v-2l-2.125.14c-8.585.327-13.691-1.515-20.375-6.765L12 213v-2l-3-1c-4.401-8.11-5.335-16.629-3.062-25.5 2.18-5.835 6.447-10.422 11.062-14.5l3.035-1.234c4.362-2.598 5.282-6.04 7.09-10.641C37.045 134.667 51.182 114.029 68 95l2.367-2.703C78.615 82.994 87.276 74.747 97 67l2.29-1.922C134.121 36.11 186.76 11.037 233 12" fill="#033051"/>
  <path d="M219.886 70.594c3.607.026 7.215.028 10.822.033 6.789.012 13.577.044 20.366.085 7.746.045 15.492.067 23.239.087 15.896.041 31.791.111 47.687.201v1l-3.568.018q-16.747.086-33.493.218c-5.738.044-11.476.084-17.214.11q-8.325.041-16.65.117-3.158.025-6.314.035c-15.884.052-31.427.795-46.386 6.69l-2.379.91C179.58 86.562 165.84 95.912 153 108l-1.828 1.633c-19.626 18.25-31.966 48.44-33.298 74.87-.997 34.674 8.112 66.657 32.142 92.427L152 279l2.5 2.625L157 284l1.738 1.723c19.744 18.702 47.447 29.313 74.442 29.482l2.988.03q4.853.046 9.707.081l6.759.063q8.868.082 17.735.153 9.06.077 18.12.161 17.755.162 35.511.307v1q-25.792.07-51.585.104-11.978.014-23.957.047-10.451.03-20.902.037-5.524.003-11.048.023c-36.715.141-36.715.141-52.508-4.836l-2.534-.784C153.18 308.915 145.543 305.328 138 301l-1.85-1.059c-9.084-5.295-16.647-11.613-24.15-18.941l-2.172-1.984C99.108 268.982 91.954 256.264 86 243l-1.529-3.112c-1.702-4-1.921-7.834-1.923-12.14l-.035-2.408a795 795 0 0 1-.052-7.836l-.038-5.505q-.032-5.769-.034-11.537c-.005-4.885-.056-9.769-.12-14.654-.04-3.793-.05-7.586-.05-11.38a411 411 0 0 0-.05-5.394C81.788 143.347 95.682 124.09 113 106c12.069-12.131 26.333-20.401 42-27l2.898-1.242c19.663-7.439 41.292-7.335 61.988-7.164" fill="#eaebf0"/>
  <path d="M279 12c60.152 1.203 118.914 34.56 160.04 76.848 4.274 4.492 8.158 9.256 11.96 14.152l2.422 3.047c13.217 16.736 25.115 35.063 32.828 55.016 2.078 5.136 3.79 7.38 8.727 9.82 5.231 2.888 8.875 7.977 10.96 13.492 2.44 8.903 1.497 17.455-2.937 25.625l-3 1-.883 1.863c-1.486 2.842-3.235 3.733-5.992 5.325l-2.617 1.542c-3.685 1.866-6.654 2.4-10.758 2.333L476 222l.485-2.382c.644-4.522.716-8.95.753-13.513l.025-2.869q.02-2.996.032-5.993.017-3.047.062-6.095c.043-2.952.059-5.903.069-8.855l.053-2.719c-.031-9.084-3.53-17.638-10.041-24.133-2.893-2.589-5.411-4.428-8.938-6.129-4.273-2.32-6.124-6.032-8.559-10.117C421.638 92.612 376.035 60.312 325 43l-2.301-.8C309.804 37.775 296.46 35.913 283 34l-.113-2.781C282.51 24.212 281.94 18.393 279 12" fill="#033151"/>
  <path d="M143 364c-.895 5.623-.895 5.623-1.508 7.816-2.389 10.6.11 20.83 2.74 31.1 2.487 9.724 4.616 19.5 6.685 29.32 5.523 30.302 5.523 30.302 15.298 59.31.943 2.948.721 4.529-.215 7.454-4.115 6.043-10.026 10.675-17 13-9.638.871-15.272-.72-23.062-6.125C107.273 489.122 100.884 458.81 99 435c-1.091-20.306.592-41.63 14-58 8.289-8.954 17.62-14.208 30-13" fill="#056099"/>
  <path d="M369 364c9.834-.82 18.09 2.267 25.75 8.5 13.349 13.01 17.453 29.284 17.789 47.325.256 26.768-3.22 53.504-18.539 76.175l-1.68 2.516C387.833 504.76 382.38 509.54 375 512c-7.633.69-13.578.336-20-4l-2.687-1.812c-2.863-2.709-5.72-5.54-7.313-9.188.49-3.771 1.73-7.232 2.996-10.805 3.46-9.81 5.845-19.663 7.904-29.848.928-4.59 1.892-9.174 2.854-13.757l.574-2.75c1.932-9.192 4.113-18.315 6.377-27.431C369.802 395.89 373.45 380.884 369 364" fill="#017bad"/>
  <path d="m282 32 1 2 3.29-.121C330.417 33.966 376.77 61.549 409 90c.508.445 1.015.89 1.539 1.347 15.555 13.677 28.435 29.163 39.711 46.528l1.16 1.785c2.59 4.086 2.59 4.086 2.59 6.34-1.074-.07-2.148-.14-3.254-.21-9.162-.753-9.162-.753-17.121 3.023-1.809 1.958-3.135 3.952-4.625 6.187l-1.031-2.79c-11.808-31.162-33.995-55.909-64.524-69.831-19.358-8.246-38.71-10.644-59.535-10.793q-2.524-.028-5.047-.059c-4.375-.05-8.75-.09-13.124-.128-4.485-.04-8.97-.091-13.456-.141Q259.143 71.115 246 71V53l7.438.25c6.658.08 11.862-.515 17.562-4.25l1.73-1.133c4.77-3.557 7.554-8.064 9.02-13.804z" fill="#68c2d9"/>
  <path d="m446.875 144.688 2.375.068c1.918.058 3.834.148 5.75.244l1 2a79 79 0 0 0 4.125 2.188c9.521 5.198 14.474 12.608 17.875 22.812.105 1.404.158 2.813.177 4.22l.039 2.572.022 2.774.025 2.875q.02 3.018.032 6.035.017 3.067.062 6.136c.043 2.964.059 5.927.069 8.892l.053 2.731c-.036 10.534-3.91 18.062-11.124 25.57-6.332 5.902-13.977 9.938-22.78 10.293-5.121-.353-8.647-1.637-12.575-5.098-2.833-4.595-3.434-8.474-3.388-13.762l-.016-2.284c-.013-2.476-.005-4.95.006-7.427q-.003-2.592-.01-5.184-.005-5.423.017-10.846c.017-4.63.007-9.258-.01-13.887-.012-3.567-.008-7.133 0-10.699q.004-2.56-.008-5.12c-.008-2.387.004-4.772.02-7.158l-.018-2.128c.078-6.034 1.99-9.002 6.04-13.298 3.835-3.03 7.538-2.779 12.242-2.52M57 145a572 572 0 0 1 7.688-.187l2.185-.077c6.005-.082 8.992 1.366 13.377 5.264 3.275 3.742 2.904 7.7 2.911 12.406l.015 2.277q.021 3.73.027 7.462l.017 5.19q.015 5.444.02 10.887c.006 4.644.03 9.287.058 13.93.019 3.576.024 7.15.026 10.725q.004 2.568.024 5.135a731 731 0 0 1 .008 7.194l.028 2.13c-.05 5.898-1.593 9.873-5.759 14.039-6.995 3.136-14.776 2.62-21.937.063-9.102-4.204-16.21-11.842-20.244-20.952-1.784-4.86-1.895-9.407-1.878-14.54l-.015-2.854a788 788 0 0 1 .003-5.945c.008-3.007-.02-6.012-.052-9.018q-.003-2.904.002-5.809l-.034-2.684c.114-10.405 4.002-17.967 11.073-25.437 3.007-2.691 6.07-4.544 9.707-6.262 1.93-.817 1.93-.817 2.75-2.937" fill="#013f69"/>
  <path d="M133 364h10c-.895 5.623-.895 5.623-1.508 7.816-2.389 10.6.11 20.83 2.74 31.1 2.487 9.724 4.616 19.5 6.685 29.32 5.523 30.302 5.523 30.302 15.298 59.31.946 2.957.741 4.522-.215 7.454-2.692 3.71-4.839 6.128-9 8-22.703-18.34-31.529-48.632-34.817-76.668-1.729-22.015.074-41.118 8.817-61.332q1.01-2.495 2-5" fill="#027bad"/>
  <path d="M262.223 415.723c5.195 2.398 8.383 5.324 10.861 10.575 1.014 2.99 1.176 5.346 1.19 8.499l.03 3.459-.003 3.709.013 3.836q.01 4.013.002 8.027c-.006 3.417.01 6.834.034 10.251.018 3.275.015 6.549.013 9.823l.028 3.703c-.04 7.522-.699 12.18-5.641 18.082-4.163 3.501-7.901 5.118-13.312 5.688-6.392-.697-10.304-3.57-14.438-8.375-4.037-5.88-3.45-12.133-3.434-18.992l-.015-3.818q-.011-3.992.003-7.983a848 848 0 0 0-.038-10.174c-.023-3.258-.016-6.517-.012-9.775l-.034-3.663c.057-7.007.726-11.653 4.53-17.595 5.937-5.64 12.24-7.873 20.223-5.277" fill="#68c3da"/>
  <path d="M268.688 1.75c1.636.984 1.636.984 3.312 2.25l2.5 1.797c5.035 4.437 7.965 10.741 8.984 17.34.247 9.634-1.872 17.06-8.511 24.136-6.6 5.777-13.99 7.158-22.547 7.063-7.146-.7-12.415-3.93-17.363-9.023-5.045-6.342-6.683-13.786-6.418-21.793.914-6.483 3.637-12.933 8.355-17.52 8.812-6.274 21.399-9.295 31.688-4.25" fill="#fef4f4"/>
  <path d="m164.52 143.902 3.095.01 3.197.025 3.256.014q3.966.018 7.932.049c-2.841 1.894-5.6 3.245-8.687 4.688-9.771 4.89-15.333 10.617-20.313 20.312l-1.258 2.195c-4.544 9.121-4.172 20.883-1.824 30.606 4.49 12.366 11.489 22.248 23.52 28.012 4.793 2.035 9.444 3.264 14.562 4.187v1c-21.138.615-36.603.649-52.812-14.375-7.827-8.286-12.33-19.859-12.625-31.187.508-14.673 6.13-25.284 16.437-35.438 7.57-6.662 15.327-10.155 25.52-10.098" fill="#066199"/>
  <path d="M321.313 168c5.82 3.257 8.794 7.73 12.062 13.375 1.81 7.604.916 13.608-2.89 20.43-3.598 5.32-8.353 8.285-14.485 10.195-7.103.872-13.188.402-19-4-4.87-4.61-8.525-8.995-9.336-15.832-.103-7.897.675-13.308 6.207-19.14 8.067-7.427 17.122-9.658 27.442-5.028m-107.579 1.441c5.09 3.502 8.34 7.688 10.266 13.559.871 7.343.616 14.004-4 20-5.749 6.177-10.793 8.942-19.25 9.5-6.411-.131-10.852-2.469-15.75-6.5-5.342-5.718-7.567-11.577-7.371-19.309.927-6.72 4.045-12.035 9.371-16.191 8.944-5.885 17.258-6.318 26.734-1.059" fill="#01bdf7"/>
  <path d="m57 145 4 2-.84 1.645-1.097 2.167-1.09 2.145c-1.93 4.054-2.114 7.276-2.15 11.727l-.02 2.046c-.02 2.236-.031 4.472-.041 6.708l-.013 2.323q-.03 6.097-.044 12.196c-.011 4.174-.046 8.349-.085 12.523a1376 1376 0 0 0-.038 9.688 512 512 0 0 1-.035 4.612c-.114 9.963.927 18.168 5.453 27.22-7.973-.598-14.006-5.355-19.395-10.965-4.287-5.435-7.69-12.274-7.782-19.256l-.039-2.57-.022-2.775-.025-2.875q-.02-3.018-.032-6.035a691 691 0 0 0-.062-6.136 805 805 0 0 1-.069-8.892l-.053-2.731c.035-10.483 3.898-18.04 11.022-25.566 3.007-2.691 6.07-4.544 9.707-6.262 1.93-.817 1.93-.817 2.75-2.937m397 0c11.034 6.973 20.406 13.923 24 27 .307 3.287.328 6.56.336 9.86l.02 2.861q.015 2.991.015 5.981c.004 3.024.04 6.047.078 9.071q.009 2.919.012 5.836l.043 2.703c-.074 10.486-3.967 18.001-11.133 25.485-4.94 4.59-9.492 7.687-16.371 8.203l.84-2.047 1.098-2.703 1.09-2.672c1.724-4.57 2.109-8.405 2.149-13.315l.02-2.027q.028-3.311.041-6.623l.013-2.295q.03-6.016.044-12.033c.011-4.124.046-8.248.085-12.372.027-3.188.035-6.375.038-9.562q.008-2.28.035-4.558c.145-10.942.145-10.942-3.593-21.096C452 149 452 149 452 146z" fill="#055f98"/>
  <path d="m223.378 316.76 2.34-.04c8.087-.127 16.175-.183 24.262-.235q5.76-.04 11.518-.143c4.63-.082 9.26-.125 13.892-.14q2.649-.018 5.296-.078c13.845-.3 13.845-.3 17.486 2.614 1.335 2.085 2.128 3.897 2.828 6.262l1.312 2.813C303 330 303 330 303 333h-94c.825-4.127 1.63-6.62 3.5-10.25l1.344-2.64c2.286-4.171 5.152-3.297 9.534-3.35" fill="#047dae"/>
  <path d="m24 164 1 3 11-1-.492 2.375c-.64 4.566-.651 9.02-.64 13.625l-.004 2.89q0 3.016.006 6.032.005 4.602-.007 9.203 0 2.938.004 5.875l-.006 2.766c.017 4.526.217 8.78 1.139 13.234-8.942.66-14.497-1.11-21.5-6.625L12 213v-2l-3-1c-4.401-8.11-5.335-16.629-3.062-25.5 2.517-6.739 7.87-12.917 14.292-16.102 3.077-1.145 3.077-1.145 3.77-4.398m463 0 1.625 1.75c2.313 2.342 2.313 2.342 5.188 4 6.976 4.924 11.604 10.768 13.187 19.25.963 7.418-.418 14.399-4 21l-3 1-.883 1.863c-1.486 2.842-3.235 3.733-5.992 5.325l-2.617 1.542c-3.685 1.866-6.654 2.4-10.758 2.333L476 222l.492-2.375c.64-4.566.651-9.02.64-13.625l.004-2.89q0-3.016-.006-6.032-.006-4.601.007-9.203 0-2.937-.004-5.875l.006-2.766c-.017-4.526-.217-8.78-1.139-13.234l3.813-.062 2.144-.036C484 166 484 166 487 167z" fill="#013f69"/>
  <path d="m246 2-.324 2.02c-1.164 8.95-.167 16.703 4.887 24.355 5 6 11.543 8.658 19.187 9.5 3.883.204 7.448.05 11.25-.875-2.325 7.12-6.44 11.266-12.844 15.105-6.744 3.044-14.953 3.156-21.969 1.051-6.847-3.09-12.123-7.652-15.28-14.543-3.029-8.93-2.894-16.81.96-25.422C234.753 7.61 239.277 2 246 2" fill="#eaebf0"/>
  <path d="M290.5 260.5c.924-.015 1.849-.03 2.8-.047 5.74.033 9.181.68 13.7 4.547 3.937 4.352 4.63 7.915 4.39 13.598-.737 4.535-3.092 7.261-6.452 10.214-6.724 4.121-17.377 3.266-24.938 2.188-4.736-2.17-6.884-5.14-9.5-9.5-1.152-5.762-.79-9.76 2.04-14.824 5.252-6.026 10.47-6.301 17.96-6.176" fill="#076199"/>
  <path d="M263.273 368.922c5.453 3.121 8.72 7.059 10.727 13.078.693 6.812-.68 10.69-5 16-5.188 4.817-9.401 5.354-16.273 5.281-5.07-.523-7.69-3.13-10.977-6.781-3.62-5.172-4.733-9.212-3.75-15.5 2.1-5.469 5.658-9.323 10.762-12.148 4.913-1.87 9.63-1.91 14.511.07" fill="#6bc3da"/>
  <path d="M236.99 265.773q2.588.001 5.174.032l2.75.008c2.903.011 5.807.037 8.711.062q2.949.016 5.898.027 7.239.035 14.477.098l-1.48 2.781c-2.295 4.861-2.003 8.558-.52 13.656l1 2.563c-4.954 1.651-10.098 1.264-15.287 1.295-2.008.017-4.016.061-6.024.105l-3.865.026-3.528.044c-5.226-.745-8.284-3.298-11.671-7.22-2.107-4.214-2.091-6.586-1.625-11.25 2-2 2-2 5.99-2.227" fill="#b9bac0"/>
  <path d="m239 471 1.811.604q2.325.774 4.65 1.54c1.534.517 3.062 1.051 4.578 1.618 7.433 2.712 15.19 3.894 22.961 5.238.446 5.461.39 9.808-2.656 14.496-3.762 4.21-9.11 6.335-14.656 6.754-6.584-.446-10.412-3.38-14.688-8.25-1.73-2.896-2.243-4.968-2.195-8.328l.02-2.422.05-2.5.027-2.547c.024-2.068.06-4.135.098-6.203" fill="#19b0ce"/>
  <path d="m429 233 2 3c3.78 4.429 6.476 5.809 12 7-2.331 8.16-6.935 14.326-14 19-7.208 3.628-13.417 4.568-21.417 4.454l-3.314.002c-3.582-.003-7.164-.034-10.746-.065a4412 4412 0 0 1-27.129-.116c-6.69-.044-13.38-.06-20.07-.08-13.108-.042-26.216-.11-39.324-.195v-1l107-1c8.976-14.743 8.976-14.743 15-31" fill="#79c0d4"/>
  <path d="M246 53h20v18h-20z" fill="#017bad"/>
  <path d="M205 182c2.5 1.625 2.5 1.625 4 4 .563 2.938.563 2.938 0 6-2.062 2.938-2.062 2.938-5 5-3.52 0-5.85-.369-8.937-2.062-1.753-3.197-1.58-6.387-1.063-9.938 2.114-4.229 6.83-3.747 11-3" fill="#0474b5"/>
  <path d="M315 182c2 1 2 1 3 3 .393 3.093.636 5.047 0 8-2.418 2.764-3.967 3.798-7.562 4.5-3.357-.688-4.444-1.722-6.438-4.5-1-3.5-1-3.5-1-7 2.96-5.018 6.724-4.586 12-4" fill="#0473b5"/>
  <path d="m94 69 2 1-31 31c0-3.543.465-3.863 2.816-6.328l1.819-1.926 1.927-1.996c.61-.643 1.219-1.286 1.846-1.95 5.485-5.768 10.989-11.545 17.03-16.737l2.058-1.778z" fill="#1b5978"/>
</svg>
