<svg xmlns="http://www.w3.org/2000/svg" viewBox="14.56 21.91 368.71 370.34">
  <defs>
    <clipPath id="logo-circle">
      <path d="M58.527 86.91c-28.149 34.414-43.98 75.209-43.964 119.778l-.003 2.723c.05 22.964 3.674 44.27 12.44 65.589l1.032 2.534C36.862 298.903 49.269 318.89 66 335c5 5 5 5 6.676 6.852C92.742 363.282 122.178 377.819 150 386l3.266.96c6.796 1.836 13.604 2.79 20.582 3.61C177 391 177 391 180 392c5.306.272 10.625.246 15.938.25l2.34.002c12.163-.017 23.798-.7 35.722-3.252l2.52-.504c26.216-5.292 49.795-15.942 71.48-31.496l1.72-1.224c35.153-25.347 57.036-61.853 68.592-103.026l.735-2.575c3.532-13.117 4.284-26.164 4.214-39.663-.011-2.444 0-4.887.012-7.33C383.316 154.3 363.71 110.869 330 76l-2.04-2.195C321.93 67.465 315.007 62.207 308 57l-1.697-1.274c-16.83-12.454-37.501-22.233-57.803-27.351l-2.355-.617C177.014 9.932 105.428 33.767 58.527 86.91z"/>
    </clipPath>
  </defs>
  <g clip-path="url(#logo-circle)">
    <path fill="#fefefe" d="M29 196c3.525 1.175 3.823 1.97 5.75 5 2.29 3.17 2.86 3.881 6.75 5.063 3.463.053 3.463.053 6.625-.75L51 205l2.18 1.813c3.457 2.68 6.664 3.682 10.82 4.875l2.117.642c7.547 2.257 14.998 3.95 22.883 2.67 2.723-1.59 4.864-3.314 7.16-5.469C98 208 98 208 101 208l-1.5 2.625c-1.609 3.62-2.068 5.478-1.5 9.375 2.04 4.251 3.875 6.113 8.125 7.875 3.635 1.606 3.635 1.606 4.73 3.973q.456 2.083.786 4.191c.498 2.721 1.855 4.672 3.359 6.961l1 3 3 1c.59 1.89.59 1.89.938 4.25.842 4.245 1.742 6.78 5.062 9.75 1.32.475 2.656.91 4 1.313 2.623.841 3.744 1.343 5.406 3.578C137 271.04 137 271.04 137 274c4.01 2.08 7.914 3.734 12.313 4.813 3.796 1.222 6.533 2.829 9.792 5.066 4.797 2.838 10.283 2.596 15.645 1.621 3.91-.602 7.623-.432 11.566-.242 2.785-.067 2.785-.067 5.153-1.797 3.216-1.856 4.846-1.52 8.469-.961 5.037.574 7.719.36 12.062-2.5 3.205-1.603 5.475-2.07 9-1.937 3.916.058 5.975-.365 9-3.063q1.041-2.211 2.031-4.445c2.019-3.701 3.435-5.225 7.489-6.457q2.633-.579 5.292-1.036c.931-.185 1.862-.37 2.82-.562 2.784-.538 5.574-1.02 8.368-1.5q2.276-.456 4.55-.918c7.651-1.413 12.983-1.312 19.848 2.566 3.583 1.862 7.228 2.454 11.192 3.09 3.798 1.988 4.82 5.483 6.41 9.262l1.154 2.59a654 654 0 0 1 3.596 8.285l1.246 2.875 1.176 2.742 1.065 2.48C307 296 307 296 307 298l3.21-.902q5.919-1.662 11.841-3.316l5.116-1.434q3.685-1.035 7.372-2.063l2.292-.647c4.04-1.122 8.011-2.037 12.169-2.638-1.366 4.746-3.424 8.655-6.125 12.75l-1.21 1.854C335.6 310.762 328.481 318.978 321 327l-2.113 2.277C308.984 339.578 297.212 347.684 285 355l-1.84 1.12c-13.188 7.915-27.464 12.554-42.16 16.88l-2.539.78c-12.223 3.628-24.63 3.572-37.274 3.595l-2.532.007c-14.084-.004-27.769-1.047-41.467-4.57l-2.543-.651C133.825 366.614 114.189 356.984 97 344l-2.64-1.965C68.682 322.01 50.59 296.218 39 266l-1.43-3.621C29.634 240.664 28.194 218.864 29 196M200.188 36.625l2.45-.024c11.167-.084 21.456.944 32.362 3.399l4.051.878C281.637 50.358 318.902 77.928 343 114c8.559 13.52 21 33.562 21 50l-2.408.487c-19.43 3.934-19.43 3.934-38.697 8.58-5.7 1.425-11.495 2.426-17.278 3.451-4.369.79-8.608 1.73-12.875 2.962-6.52 1.829-13.108 2.819-19.805 3.77l-3.642.563c-10.274 1.48-18.787 1.499-28.295-2.875l-2.078-.932C232.87 177.173 228.002 173.41 223 169c-5.615-4.377-9.917-6.905-17.062-7.312-4.66-.385-4.66-.385-7.063-3L197 156c-7.585-5.317-15.711-4.389-24.562-4.125q-3.342.085-6.685.142c-2.019.036-4.037.09-6.056.147-8.533-.378-13.965-3.996-20.697-8.789l-2.617-1.793C130.738 137.61 126.337 133.346 122 128q-2.243-2.506-4.5-5a683 683 0 0 1-8-9c-4.893-5.615-9.9-11.128-14.898-16.648C83 84.517 83 84.517 83 82c3.443-3.257 7.253-6.102 11-9l1.768-1.368C115.758 56.289 137.565 46.156 162 40l2.116-.543c11.843-2.866 23.96-2.765 36.071-2.832"/>
    <path fill="#fbfbfc" d="m145 157 3.422.508c4.58.51 9.117.54 13.719.484l2.225-.024c3.075-.036 6.15-.078 9.225-.14 2.266-.042 4.533-.065 6.8-.086l2.09-.056c4.366-.023 6.996.731 10.519 3.314-3.044 1.833-5.943 2.41-9.433 2.937-8.993 1.362-18.466 3.448-24.747 10.516-1.504 2.105-2.89 4.192-4.195 6.422-2.16 3.542-4.614 6.603-7.39 9.68-2.818 3.298-2.45 6.23-2.235 10.445.54 2.812.54 2.812 2 5 6.28 3.243 14.558 3.19 21.305 1.383 5.133-2.407 9.56-6.18 13.984-9.676 2.977-1.875 5.238-2.366 8.711-2.707 2.196 3.45 3.729 6.788 5.125 10.625 3.197 7.834 8.433 13.495 13.988 19.758C218.904 235.727 225.023 249.74 228 263c-.283 3.118-.514 5.232-2.187 7.875-2.585 1.604-4.828 1.198-7.813 1.125-5.022-9.361-9.993-18.751-14.625-28.312l-1.037-2.078c-1.924-4.04-2.712-7.14-2.338-11.61h-7c2.114 11.625 7.356 21.232 12.89 31.512l1.673 3.175 1.503 2.762c1.111 3.035 1.04 4.532-.066 7.551-3.75 2.5-5.559 2.536-10 2-5.404-4.237-8.14-10.216-11.312-16.187l-1.667-3.061C182 250.283 182 250.283 182 248l-5 1c.401 6.236 3.492 10.858 6.563 16.125a682 682 0 0 1 3.066 5.32l1.377 2.36C189 275 189 275 189 279c-6.207 1.339-6.207 1.339-9.488-.062-3.128-2.413-4.713-5.194-6.512-8.625q-1.042-1.89-2.086-3.778a1725 1725 0 0 1-3.328-6.164c-2.458-4.347-2.458-4.347-6.836-6.683L158 253l-1-3 9-3-8-1-.043-2.012c-.244-4.525-.423-7.255-3.144-10.988-2.69-2.176-2.69-2.176-5.938-2.75C146 229 146 229 145.094 227.023a76 76 0 0 1-1.258-4.734c-1.096-3.002-2.276-4.373-4.836-6.289-3.068-.52-3.068-.52-6.375-.312l-3.336.074c-3.15.228-6.185.661-9.289 1.238l-1.32-2.012c-3.501-5.19-6.76-9.149-11.68-12.988v-2c1.504-1.445 1.504-1.445 3.563-3.125 3.524-3 6.552-6.137 9.539-9.664 2.153-2.508 4.398-4.915 6.648-7.336 6.558-7.181 12.852-14.778 18.25-22.875"/>
    <path fill="#fcfcfd" d="M216.125 170.563A84 84 0 0 1 220 174c7.538 6.337 16.13 12.442 25.883 14.654 8.226 2.009 8.226 2.009 10.594 5.562.962 2.903 1.556 5.71 2.066 8.725l.681 3.267c.705 3.444 1.334 6.896 1.964 10.355q.692 3.447 1.4 6.892c1.977 9.836 3.679 19.53 4.412 29.545l-2.37.47-9.567 1.905-3.385.672c-6.244 1.245-12.469 2.544-18.678 3.953l-1.242-3.797-1.633-4.953-.816-2.5-.801-2.422-.73-2.222c-.74-2.143-.74-2.143-1.872-4.189C225 238 225 238 225 235l2-2c.167-2.584.167-2.584 0-5l-3.64-.11c-4.32-.544-6.096-2.03-8.778-5.355l-1.332-1.785-1.379-1.738a229 229 0 0 1-2.647-3.414c-1.106-1.444-2.262-2.85-3.423-4.25-1.682-2.193-2.793-4.127-3.863-6.66l-1-2.336c-.896-2.246-1.704-4.508-2.5-6.79-1.13-3.764-1.13-3.764-4.438-5.562-7.149-1.364-12.19 1.051-18 5l-2.473 1.855c-5.412 4.057-9.591 6.679-16.527 6.145-4.235-1.235-4.235-1.235-6-3-.402-3.155-.336-4.543 1.574-7.14l2.113-2.11c3.484-3.667 5.823-7.115 7.915-11.707 5.11-7.466 15.271-8.364 23.484-10.047 21.516-3.91 21.516-3.91 30.039 1.566"/>
    <path fill="#fafafc" d="M131 146c3.46 1.25 6.147 2.675 9 5-.6 3.213-1.62 5.1-3.695 7.61l-1.66 2.024-1.77 2.116-1.802 2.182c-3.944 4.761-7.935 9.474-12.073 14.068l-2.102 2.379c-23.83 26.82-23.83 26.82-32.175 27.922-9.198.04-17.9-1.223-25.723-6.301 3.56-4.2 7.847-6.117 12.688-8.5C94.414 182.902 114.89 165.79 131 146"/>
    <path fill="#f8f9fa" d="m272 190 .424 2.066c4.203 20.248 9.253 40.188 16.837 59.461.782 2.616.876 4.759.739 7.473a192 192 0 0 1-4.125-.75l-2.32-.422c-3.428-1.111-5.735-2.57-8.555-4.828-1.294-3.126-1.294-3.126-2.078-6.89l-.46-2.098q-.495-2.28-.96-4.565a429 429 0 0 0-1.652-7.625 1498 1498 0 0 1-2.997-13.754q-.918-4.285-1.85-8.568l-1.175-5.484-.558-2.57-.507-2.39-.448-2.088C262 195 262 195 262 191c3.386-1.042 6.474-1.039 10-1"/>
    <path fill="#f7f8fa" d="M149 236c2 1.188 2 1.188 3 3 .15 2.784-.395 4.317-2.25 6.41-4.937 4.45-10.719 8.806-16.75 11.59-2.754-.2-2.754-.2-5-1-2.17-2.892-2.401-5.462-2-9 5.821-7.207 13.554-12.09 23-11"/>
    <path fill="#f8f9fb" d="m131.688 221.875 3.574.055L138 222c1.49 2.98 1.526 4.693 1 8-2.099 2.275-4.572 3.81-7.187 5.438l-2.042 1.388c-3.057 1.978-4.937 3.182-8.634 3.147C119 239 119 239 117 236c-.573-5.161-.573-5.161 0-8 2.313-2.375 2.313-2.375 5-4 3.632-2.421 5.383-2.21 9.688-2.125"/>
    <path fill="#f2f4f7" d="M160 262c3.17 2.909 5.179 5.767 7.188 9.563l1.542 2.878C170 277 170 277 171 280c-7.429.286-7.429.286-11-2l2-2-7-4c.615-3.995 2.706-6.745 5-10M151.063 254.625C153 256 153 256 154.063 258.25c-.094 4.106-2.358 5.794-5.063 8.75-1.279 2.216-1.279 2.216-2 4-2.72-.375-3.842-.842-5.812-2.812C140 266 140 266 140.242 264.094c.874-2.415 1.995-3.865 3.696-5.781l1.59-1.825c1.995-2.017 2.74-2.71 5.535-1.863M106 211h3c1.422 1.61 1.422 1.61 2.75 3.75l1.36 2.11c1.05 2.525.821 3.619-.11 6.14-3.209.357-4.64.237-7.375-1.562C104 219 104 219 104.188 215.313 105 212 105 212 106 211"/>
  </g>
</svg>