<svg clip-rule="evenodd" fill-rule="evenodd" height="512" image-rendering="optimizeQuality" shape-rendering="geometricPrecision" text-rendering="geometricPrecision" viewBox="0 0 512 512" width="512" xmlns="http://www.w3.org/2000/svg">
  <path d="M486 429H26c-12 0-21-9-21-21V21C5 9 14 0 26 0h460c12 0 21 9 21 21v387c0 12-9 21-21 21" fill="#394d5c"/>
  <path d="M486 409c1 0 1 0 1-1V21c0-1 0-1-1-1H26c-1 0-1 0-1 1v387c0 1 0 1 1 1z" fill="#fff"/>
  <path d="M170 469h-3c-3-2-4-6-2-9l21-40c1-3 5-4 8-2 1 1 3 2 3 4h118c0-2 2-3 3-4 3-2 7-1 8 2l21 40c2 3 1 7-2 9h-3c-2 0-4-1-5-3H175c-1 2-3 3-5 3" fill="#7d8d9c"/>
  <path d="M486 429H26c-12 0-21-9-21-21v-52h502v52c0 12-9 21-21 21m-89 83H115c-15 0-28-12-28-27 0-16 13-28 28-28h282c15 0 28 12 28 28 0 15-13 27-28 27" fill="#394d5c"/>
  <path d="M458 399h-13c-4 0-6-3-6-6q0-6 6-6h13c3 0 6 2 6 6 0 3-3 6-6 6m-39 0h-14c-3 0-6-3-6-6 0-4 3-6 6-6h14c3 0 6 2 6 6 0 3-3 6-6 6m-40 0h-13c-4 0-6-3-6-6q0-6 6-6h13q6 0 6 6c0 3-2 6-6 6" fill="#fff"/>
  <path d="M57 118q-6 0-6-6V6c0-3 2-6 6-6 3 0 6 3 6 6v106c0 4-3 6-6 6m31-27c-3 0-6-3-6-6V6c0-3 3-6 6-6s6 3 6 6v79c0 3-3 6-6 6m367 27c-3 0-6-2-6-6V6c0-3 3-6 6-6 4 0 6 3 6 6v106q0 6-6 6m-31-27c-3 0-6-3-6-6V6c0-3 3-6 6-6s6 3 6 6v79c0 3-3 6-6 6" fill="#394d5c"/>
  <path d="M277 190c-1 0-3 0-4-2l-21-21c-3-2-3-6 0-8l40-40c-9-20-4-43 11-59q16.5-15 39-15c6 0 13 1 19 3 2 1 3 3 4 5 0 2 0 4-2 5l-30 30 19 19 30-30c2-1 4-2 6-2 2 1 3 2 4 4 8 20 3 43-12 58-10 10-24 16-38 16-7 0-14-2-21-4l-39 39c-2 2-3 2-5 2M170 324c-6 0-13-1-19-4-2-1-3-2-4-4 0-2 0-4 2-6l30-30-19-19-30 30c-2 2-4 2-6 2s-3-2-4-4c-8-20-3-42 12-57 10-11 24-16 38-16 7 0 14 1 21 4l39-40c2-1 3-2 5-2 1 0 3 1 4 2l21 21c3 3 3 6 0 9l-40 40c9 20 4 43-11 58-11 10-24 16-39 16" fill="#d9e3ed"/>
  <path d="M342 324c-15 0-28-6-39-16-15-15-20-38-11-58L191 149c-7 2-14 4-21 4-14 0-28-6-38-16-15-15-20-38-12-58 1-2 2-3 4-4 2 0 4 1 6 2l30 30 19-19-30-30c-2-1-2-3-2-5 1-2 2-4 4-5 6-2 13-3 19-3q22.5 0 39 15c15 16 20 39 11 59l101 101c7-3 14-4 21-4 14 0 28 5 38 16 15 15 20 37 12 57-1 2-2 4-4 4s-4 0-6-2l-30-30-19 19 30 30c2 2 2 4 2 6-1 2-2 3-4 4-6 3-13 4-19 4" fill="#b8c7d5"/>
</svg>
