<svg xmlns="http://www.w3.org/2000/svg" viewBox="0 0 3265.12 2288.933" xml:space="preserve">
  <defs>
    <clipPath id="a" clipPathUnits="userSpaceOnUse">
      <path d="M0 3301.5h23887.4v11212.8H0Z"/>
    </clipPath>
    <clipPath id="b" clipPathUnits="userSpaceOnUse">
      <path d="M144 3997v8609h24344V3997Z"/>
    </clipPath>
  </defs>
  <path style="fill:#69bbe3;fill-opacity:1;fill-rule:nonzero;stroke:none" d="M2119.64 530.079 579.875 2501.75s-377.563 385.52-315.453 914.8c43.451 372.2 262.153 496.42 348.45 549.7C787.312 4074.47 13855.2 12237.4 13855.2 12237.4s611.7 428.9 1179.5 140.5c567.3-288.4 671.6-810.7 678.8-875.5s509.6-3683.85 509.6-3683.85 76.9-598.2-273.7-1199.7c-350.6-601.82-725.3-783.22-831.3-841.42C15012.3 5719.61 3460.37 57.857 3460.37 57.857S3147.99-81.187 2739.69 71.74c-408.11 152.924-561.84 388.636-620.05 458.338" transform="matrix(.18344 0 0 -.18344 0 2288.933)"/>
  <path style="fill:#3670ba;fill-opacity:1;fill-rule:nonzero;stroke:none" d="M1404.58 1760.72 221.523 3912.76s-305.222 432.78-162.365 935.97c100.593 353.7 332.179 439.82 424.125 478.25C668.988 5404.24 14611.3 11265.5 14611.3 11265.5s660 319.7 1165-48.8c504.6-368.4 523.7-890.9 520.7-954.8-3.2-64.1-83.7-3649.34-83.7-3649.34s-19.1-591.74-453.3-1119.8c-434.2-527.95-825.8-645.02-937.4-684.69-111.7-39.6-12192.72-3714.71-12192.72-3714.71s-324.74-86.11-696.34 126.14c-371.42 212.46-483.49 464.95-528.96 541.22" transform="matrix(.18688 0 0 -.18688 0 2288.933)"/>
  <g clip-path="url(#a)" transform="matrix(.13333 0 0 -.13333 0 2288.933)">
    <path style="fill:#4b8fd0;fill-opacity:1;fill-rule:nonzero;stroke:none" d="m221.242 4940.06-125.41 366.92s-216.294 458.19 1.352 908.68c26.863 55.64 56.186 102.85 86.762 142.96l198.692-1299.3c-48.384-24.64-106.068-61.24-161.396-119.26M7744.81 8234.13c27.3 6.23 55.34 12.64 82.63 18.87-8.93-5.58-16.99-10.62-25.93-16.2zm8498.99 186.13c-243.3 155.5-528 180.1-675 181.04h-10.3c14.8 648.88 27.3 1189.57 28.6 1213.58.2 6.64.3 18.49-.4 34.76 129.2-41.73 257.6-112.08 367.7-226.33 289.4-300.38 343.8-632.34 345.6-825.76v-20.67c-.7-72.55-8.6-122.33-12.3-138.83-2-8.78-18-88.34-43.9-217.79" transform="scale(1.46548)"/>
    <path style="fill:#448cce;fill-opacity:1;fill-rule:nonzero;stroke:none" d="M11433 12070.9c13.1 8.2 24.9 15.6 38 23.8 159.3 36.4 318.3 72.7 477.4 109.1-96.4-40.6-194.1-81.7-290.9-122.3-74.8-3.6-149.8-7.1-224.5-10.6"/>
    <path style="fill:#4188ca;fill-opacity:1;fill-rule:nonzero;stroke:none" d="M1966.04 2355.83h-15.81c-95.29 1.28-363.23 26.04-627.93 245.32-329.22 273.3-396.223 541.53-427.826 624.66l-663.118 1940.1c57.857 60.66 118.179 98.94 168.775 124.71l104.966-686.42c16.501-87.34 35.018-362.99 310.698-690.02 275.895-327.17 610.545-357.99 610.545-357.99s3703-206.01 7114.8-394.89c-3237.47-397.81-6554.57-804.68-6554.57-804.68s-7.21-.58-20.53-.79m6352.32 6265.06c69.08 29.03 138.79 58.33 207.58 87.26C12105 9526.06 15544.8 10312.2 15544.8 10312.2s148.8 42.4 351.7 44.7h33.6c113.7-1.3 241.7-15.9 369.1-57 .8-17 .7-29.4.4-36.3-1.2-25.1-14.4-590.54-29.9-1269.08h-7.9c-53.3-.35-84.9-3.53-84.9-3.53s-3964-186.72-7858.54-370.1" transform="scale(1.40142)"/>
  </g>
  <g clip-path="url(#b)" transform="matrix(.13333 0 0 -.13333 0 2288.933)">
    <path style="fill:#3db4e2;fill-opacity:1;fill-rule:nonzero;stroke:none" d="M13266.6 2661.06c-25.8 0-46.6.6-62.1.74-44.4.46-1960.3 105.83-4240.9 231.97 161.95 79.48 322.97 158.42 483.18 236.97 2264.32 278.5 4165.52 512.93 4209.12 520.32 109.1 18.44 487.7 63.1 971.8 478.32 483.7 415.62 596.4 956.22 596.4 956.22s474.2 2391.67 621.3 3128.15c93-59.37 179.6-138.28 249.7-243.06 159.5-238.6 204-472.19 205.2-654.41v-15.31c-1.2-179.76-43.8-306.55-55.4-333.71-23.1-54.99-1243.4-3170.49-1243.4-3170.49s-206.7-512.14-756.2-835.71c-472.8-277.96-820.2-300-978.7-300M179.435 6202.67l-54.603 357.07s-128.769 477.18 157.864 872.13c201.611 277.81 431.941 279.11 524.856 282.97 89.668 3.94 3359.548 157.83 6747.308 317.34C4107.6 7244.4 652.483 6454.91 561.268 6434.35c-74.589-16.65-241.796-48.01-381.833-231.68" transform="scale(1.50233)"/>
    <path style="fill:#30afe1;fill-opacity:1;fill-rule:nonzero;stroke:none" d="M13466.3 4347.4c-148.7 8.3-298.4 16.5-449 24.9 345.5 105.2 688.8 209.7 1028.6 313.2 49 6 97.6 12 146.3 17.9-240.7-118-482.6-236.6-725.9-356"/>
    <path style="fill:#2ea8df;fill-opacity:1;fill-rule:nonzero;stroke:none" d="M13017.3 4372.3c-344.9 19.1-695.9 38.5-1047.6 58 700.4 86 1398.7 171.8 2076.2 255.2-339.8-103.5-683.1-208-1028.6-313.2"/>
    <path style="fill:#2fabe0;fill-opacity:1;fill-rule:nonzero;stroke:none" d="M9717.78 3220.55c32.6 16.02 65.4 32.11 97.85 48 2347.87 714.99 4365.87 1330.21 4410.27 1345.96 107.2 38.07 482.9 150.44 899.7 657.14 416.7 506.8 435 1074.72 435 1074.72s28.6 1273.32 51.7 2284.66h10.4c147.5-.94 433.1-25.62 677.3-181.65-151.3-757.61-639.2-3217.89-639.2-3217.89s-115.8-556.1-613.4-983.65c-498-427.13-887.5-473.08-999.7-492.04-44.9-7.6-2000.7-248.76-4329.92-535.25" transform="scale(1.46044)"/>
    <path style="fill:#2eabe0;fill-opacity:1;fill-rule:nonzero;stroke:none" d="M14045.9 4685.5c96.6 29.4 193.2 58.8 289.2 88-47.4-23.2-95.3-46.7-142.9-70.1-48.7-5.9-97.3-11.9-146.3-17.9"/>
    <path style="fill:#2fabe0;fill-opacity:1;fill-rule:nonzero;stroke:none" d="m560.75 7414.36-291.18 1904.1c210.383 275.94 461.582 323.05 573.641 348.06C980.246 9697.41 6170.98 10883.5 11349.9 12067c28 1.3 55.1 2.6 83.1 3.9-136-84.9-273.7-171-410.4-256.3C5993.52 9700.53 810.586 7521.95 677.391 7466.53c-29.914-12.5-70.379-28.61-116.641-52.17"/>
    <path style="fill:#2eabe0;fill-opacity:1;fill-rule:nonzero;stroke:none" d="M11022.6 11814.6c136.7 85.3 274.4 171.4 410.4 256.3 74.7 3.5 149.7 7 224.5 10.6-211.4-88.9-422.6-177.7-634.9-266.9"/>
    <path style="fill:#2faae0;fill-opacity:1;fill-rule:nonzero;stroke:none" d="M8557.02 3167.18c-3418.14 189.23-7128.03 395.62-7128.03 395.62s-335.27 30.88-611.678 358.66c-276.193 327.63-294.744 603.8-311.276 691.3l-105.161 687.69c33.072 16.85 62 28.36 83.385 37.3 95.22 39.62 3800.45 1597.07 7395.69 3108.37 151.77 63.81 302.76 127.27 453.88 190.8C12235.6 8820.64 16207 9007.71 16207 9007.71s31.7 3.18 85 3.53h8c-24.1-1055.89-53.9-2385.31-53.9-2385.31s-19.2-592.93-454.2-1122.06c-435.1-529.02-827.5-646.33-939.3-686.08-46.4-16.44-2153.3-658.77-4604.6-1405.26-68.6-20.88-137.7-41.89-206.7-62.91-484.36-59.62-983.57-120.96-1484.28-182.44" transform="scale(1.39882)"/>
  </g>
  <path style="fill:#fff;fill-opacity:1;fill-rule:nonzero;stroke:none" d="M4923.34 10152.1c29.33 59.3 64.01 93.7 137.9 93.7 83.76 0 142.98-59.2 142.98-143V7026.6c0-78.7-54.14-142.7-142.98-142.7-78.67 0-137.9 64-137.9 142.7v2514.14L3725.36 6972.7c-24.53-54.4-64.02-88.8-137.91-88.8-73.88 0-113.64 34.4-138.18 88.8l-1197.7 2568.04V7026.6c0-78.7-59.22-142.7-138.18-142.7-88.56 0-142.98 64-142.98 142.7v3076.2c0 83.8 59.23 143 142.98 143 73.89 0 108.57-34.4 138.18-93.7l1335.88-2854.21z" transform="matrix(.13333 0 0 -.13333 0 2288.933)"/>
  <path style="fill:#fff;fill-opacity:1;fill-rule:nonzero;stroke:none" d="M4965.36 9730.82V7026.6c0-56.1 42.31-100.7 95.88-100.7 69.66 0 100.68 51.1 100.68 100.7v3076.2c0 60.3-40.33 100.8-100.68 100.8-49.91 0-73.32-16.5-100.11-70.5L3587.45 7198.62 2213.22 10134.4c-26.51 52.7-49.91 69.2-99.83 69.2-60.07 0-100.68-40.5-100.68-100.8V7026.6c0-49.6 31.02-100.7 100.68-100.7 54.14 0 95.88 44.6 95.88 100.7v2704.22L3487.63 6990.5c21.15-46.8 48.79-64.6 99.82-64.6 50.77 0 78.68 17.8 99.84 64zm95.88-2889.22c-100.96 0-180.2 81.5-180.2 185v2324.2L3763.44 6955c-34.41-76.2-91.95-113.4-175.99-113.4-84.03 0-141.56 37.2-176.53 113.4L2293.59 9350.8V7026.6c0-103.5-78.96-185-180.2-185-107.17 0-185 77.8-185 185v3076.2c0 107.1 77.83 185.1 185 185.1 103.49 0 146.92-59.2 175.98-116.9l1298.08-2773.28 1297.54 2772.48c29.61 58.5 73.04 117.7 176.25 117.7 107.17 0 185-78 185-185.1V7026.6c0-107.2-77.83-185-185-185m1799.23 2023.86c-502.82 0-838.14-374.51-838.14-872.42 0-497.74 330.24-872.84 838.14-872.84 478.01 0 823.19 399.63 823.19 872.84 0 502.83-340.11 872.42-823.19 872.42M7979.48 7031.7c0-83.8-64.29-147.8-148.05-147.8-83.75 0-147.77 64-147.77 147.8v256.6c-177.67-261.4-463.35-424.1-833.06-424.1-719.69 0-1119.02 527.31-1119.02 1128.84 0 685.29 502.82 1128.89 1128.89 1128.89 635.65 0 1119.01-453.76 1119.01-1133.68z" transform="matrix(.13333 0 0 -.13333 0 2288.933)"/>
  <path style="fill:#fff;fill-opacity:1;fill-rule:nonzero;stroke:none" d="M6860.47 8823.44c-468.7 0-796.11-341.39-796.11-830.11 0-489.29 327.41-830.83 796.11-830.83 437.96 0 781.17 364.95 781.17 830.83 0 480.97-328.83 830.11-781.17 830.11m0-1744.94c-518.06 0-880.44 376.19-880.44 914.83 0 529.76 370.28 914.43 880.44 914.43 501.13 0 865.2-384.67 865.2-914.43 0-512.98-380.14-914.83-865.2-914.83m0 2001.28c-629.73 0-1086.87-457.01-1086.87-1086.45 0-523.69 337-1087.13 1077-1087.13 337 0 620.42 144.1 798.09 405.79l76.98 113.08V7031.7c0-60.4 45.4-105.5 105.76-105.5 60.07 0 105.76 45.1 105.76 105.5v956.27c0 642.85-442.76 1091.81-1076.72 1091.81m-9.87-2257.68c-798.09 0-1161.32 606.65-1161.32 1171.23 0 678.23 492.39 1170.5 1171.19 1170.5 672.88 0 1161.03-494.37 1161.03-1175.86V7031.7c0-106.6-83.47-190.1-190.07-190.1s-189.79 83.5-189.79 190.1v133.1c-194.02-222.3-470.68-342.7-791.04-342.7m2666.71 2240.61c64 0 123.22-54.27 123.22-123.24 0-69.09-59.22-123.37-123.22-123.37h-498.03V7031.7c0-83.8-64.04-147.8-147.77-147.8-83.79 0-147.8 64-147.8 147.8v1784.4H8284.9c-68.81 0-123.24 54.28-123.24 123.37 0 68.97 54.43 123.24 123.24 123.24h438.81v690.24c0 83.75 64.01 147.77 147.8 147.77 83.73 0 147.77-64.02 147.77-147.77v-690.24z" transform="matrix(.13333 0 0 -.13333 0 2288.933)"/>
  <path style="fill:#fff;fill-opacity:1;fill-rule:nonzero;stroke:none" d="M8284.9 9020.56c-45.4 0-81.22-35.53-81.22-81.09 0-45.4 35.82-81.22 81.22-81.22h480.83V7031.7c0-60.4 45.69-105.5 105.78-105.5 60.36 0 105.73 45.1 105.73 105.5v1826.55H9517c43.43 0 81.22 37.79 81.22 81.22 0 43.3-37.79 81.09-81.22 81.09h-539.76v732.39c0 60.07-45.37 105.59-105.73 105.59-60.09 0-105.78-45.52-105.78-105.59v-732.39Zm586.61-2178.96c-106.63 0-190.09 83.5-190.09 190.1v1742.23H8284.9c-92.77 0-165.53 72.76-165.53 165.54 0 92.66 72.76 165.41 165.53 165.41h396.52v648.07c0 106.6 83.46 189.94 190.09 189.94 106.29 0 189.77-83.34 189.77-189.94v-648.07H9517c89.99 0 165.57-75.58 165.57-165.41 0-89.53-75.58-165.54-165.57-165.54h-455.72V7031.7c0-106.6-83.48-190.1-189.77-190.1m3011.89 190.1c0-83.5-64.1-148.1-147.8-148.1-83.8 0-148.1 64.6-148.1 148.1v1094.17c0 443.88-231.8 724.92-690 724.92-419.1 0-739.2-305.85-739.2-788.65V7031.7c0-83.5-64.6-148.1-148.3-148.1-83.77 0-147.81 64.6-147.81 148.1v3066c0 84 64.04 148.2 147.81 148.2 83.7 0 148.3-64.2 148.3-148.2V8698.06c157.7 270.89 443.3 423.62 803.2 423.62 571.9 0 921.9-418.66 921.9-990.45z" transform="matrix(.13333 0 0 -.13333 0 2288.933)"/>
  <path style="fill:#fff;fill-opacity:1;fill-rule:nonzero;stroke:none" d="M10897.5 8892.95c465.3 0 732.3-279.61 732.3-766.8V7031.7c0-60.4 45.5-105.5 105.8-105.5 60.4 0 105.5 45.1 105.5 105.5v1099.25c0 567.55-353.4 948.83-879.6 948.83-343.2 0-615.9-143.26-766.8-402.86l-78.7-135.21V10098c0 60.4-45.7 105.6-106 105.6-60.09 0-105.51-45.2-105.51-105.6V7031.7c0-60.4 45.42-105.5 105.51-105.5 60.3 0 106 45.1 106 105.5v1030.44c0 489.16 321.5 830.81 781.5 830.81m838.1-2051.35c-106.6 0-190.1 83.5-190.1 190.1v1094.45c0 440.1-230.1 682.47-648 682.47-410.6 0-697.5-307.11-697.5-746.48V7031.7c0-106.6-83.4-190.1-190-190.1-106.64 0-189.55 83.5-189.55 190.1V10098c0 106.6 82.91 190.1 189.55 190.1 106.6 0 190-83.5 190-190.1V8833.15c174.6 214.2 440 330.96 761.5 330.96 576.4 0 963.9-415.27 963.9-1033.16V7031.7c0-106.6-83.2-190.1-189.8-190.1m862.4 42.3c-83.8 0-147.8 64-147.8 147.8V10098c0 83.7 64 147.8 147.8 147.8s147.8-64.1 147.8-147.8V7031.7c0-83.8-64-147.8-147.8-147.8" transform="matrix(.13333 0 0 -.13333 0 2288.933)"/>
  <path style="fill:#fff;fill-opacity:1;fill-rule:nonzero;stroke:none" d="M12598 10203.7c-60.4 0-105.8-45.7-105.8-106v-3066c0-60.4 45.4-105.5 105.8-105.5 60.3 0 105.8 45.1 105.8 105.5v3066c0 60.3-45.5 106-105.8 106m0-3362.1c-106.6 0-190.1 83.5-190.1 190.1v3066c0 106.9 83.5 190.4 190.1 190.4s190.1-83.5 190.1-190.4v-3066c0-106.6-83.5-190.1-190.1-190.1m1700.5 2033.86c-433.7 0-749.3-330.52-788.8-734.36h1552.8c-39.5 413.99-340.1 734.36-764 734.36m1035.3-857.87c0-68.81-59.2-123.25-123.3-123.25h-1710.4c14.7-394.53 310.3-778.64 827.7-778.64 276.1 0 493 98.15 670.7 310.79 24.5 29.32 59.2 63.72 113.6 63.72 78.4 0 123-59.21 123-122.95 0-34.97-9.9-59.22-29.6-88.83-167.8-231.83-487.9-414.23-877.7-414.23-704.7 0-1128.6 532.4-1128.6 1129.13 0 601.11 448.7 1128.6 1099.3 1128.6 606.3 0 1035.3-473.21 1035.3-1104.34" transform="matrix(.13333 0 0 -.13333 0 2288.933)"/>
  <path style="fill:#fff;fill-opacity:1;fill-rule:nonzero;stroke:none" d="M13557.4 8182.84h1457.4c-55.8 385.38-344.9 650.47-716.3 650.47-378.2 0-683-270.88-741.1-650.47m1551.3-84.04h-1645.5l4.8 46.24c43.4 447.43 392.8 772.58 830.5 772.58 431.2 0 762.6-317.97 806-772.58zm-810.2 980.83c-593.1 0-1057-477.29-1057-1086.87 0-539.76 373.1-1086.26 1086.6-1086.26 343.2 0 666.4 151.7 843.2 396.46 16.1 23.7 21.8 40.06 21.8 63.74 0 40.61-25.1 81.22-81.3 81.22-33.2 0-56.4-19.46-80.9-48.51-183.6-219.41-413.4-326.01-702.8-326.01-551.3 0-855 412.3-870.3 819.53l-1.6 43.72h1754.3c43.2 0 81 37.78 81 80.94 0 615.34-417.4 1062.04-993 1062.04m29.6-2257.73c-769 0-1170.9 589.36-1170.9 1170.86 0 656.81 501.4 1171.22 1141.3 1171.22 624.4 0 1077.3-482.26 1077.3-1146.39 0-89.69-75.9-165.27-165.3-165.27h-1665.8c33.3-351.95 305.1-694.62 783.4-694.62 266.5 0 469.3 93.94 637.9 295.58 30.8 36.66 75 79.24 145.8 79.24 94.2 0 165.3-71.07 165.3-165.82 0-40.04-10.4-72.76-36.7-111.68-193.4-267.62-542.6-433.12-912.3-433.12" transform="matrix(.13333 0 0 -.13333 0 2288.933)"/>
  <path style="fill:#fff;fill-opacity:1;fill-rule:nonzero;stroke:none" d="M16181 8732.64c62 0 119-52.3 119-118.76 0-66.57-57-118.87-119-118.87h-479.6V6775.6c0-80.75-61.7-142.42-142.4-142.42s-142.7 61.67-142.7 142.42v1719.41h-422.5c-66.6 0-118.7 52.3-118.7 118.87 0 66.46 52.1 118.76 118.7 118.76h422.5v665.1c0 80.7 62 142.39 142.7 142.39s142.4-61.69 142.4-142.39v-665.1z" transform="matrix(.13837 0 0 -.13837 0 2288.933)"/>
  <path style="fill:#fff;fill-opacity:1;fill-rule:nonzero;stroke:none" d="M14956.5 8670.45c-43.9 0-78-34.16-78-77.95 0-43.64 34.1-78.07 78-78.07h462.2V6758.78c0-58.06 43.4-101.41 101.4-101.41s101.7 43.35 101.7 101.41v1755.65h519c41.7 0 78.1 36.33 78.1 78.07 0 41.62-36.4 77.95-78.1 77.95h-519v703.96c0 57.74-43.7 101.49-101.7 101.49s-101.4-43.75-101.4-101.49v-703.96zm563.6-2094.39c-102.2 0-182.4 80.26-182.4 182.72v1674.61h-381.2c-89.1 0-159 69.93-159 159.11 0 89.06 69.9 158.99 159 158.99h381.2v622.92c0 102.46 80.2 182.57 182.4 182.57 102.5 0 182.7-80.11 182.7-182.57v-622.92h438c86.5 0 159.2-72.64 159.2-158.99 0-86.05-72.7-159.11-159.2-159.11h-438V6758.78c0-102.46-80.2-182.72-182.7-182.72" transform="matrix(.13872 0 0 -.13872 0 2288.933)"/>
  <path style="fill:#fff;fill-opacity:1;fill-rule:nonzero;stroke:none" d="M16125.1 6421.73c-78.2 0-137.9 59.71-137.9 137.88v1793.62c0 78.14 59.7 137.87 137.9 137.87 78.1 0 137.8-59.73 137.8-137.87V6559.61c0-78.17-59.7-137.88-137.8-137.88m0 2814.28c96.7 0 174.9-78.14 174.9-174.57 0-96.81-78.2-174.81-174.9-174.81-96.6 0-175 78-175 174.58 0 96.66 78.4 174.8 175 174.8" transform="matrix(.14293 0 0 -.14293 0 2288.933)"/>
  <path style="fill:#fff;fill-opacity:1;fill-rule:nonzero;stroke:none" d="M16086.4 9174.61c-74.5 0-135.2-60.74-135.2-135.13 0-74.41 60.7-135.19 135.2-135.19 74.6 0 135.1 60.78 135.1 135.19 0 74.39-60.5 135.13-135.1 135.13m0-348.53c-117.6 0-213.7 95.67-213.7 213.4 0 117.69 96.1 213.63 213.7 213.63 117.8 0 213.6-95.94 213.6-213.63 0-117.73-95.8-213.4-213.6-213.4m0-394.45c-56.2 0-98.4-42.52-98.4-98.68V6543.88c0-56.21 42.2-98.18 98.4-98.18 56.1 0 98.4 41.97 98.4 98.18v1789.07c0 56.16-42.3 98.68-98.4 98.68m0-2064.66c-99.2 0-176.9 77.71-176.9 176.91v1789.07c0 99.21 77.7 176.77 176.9 176.77s176.8-77.56 176.8-176.77V6543.88c0-99.2-77.6-176.91-176.8-176.91" transform="matrix(.14327 0 0 -.14327 0 2288.933)"/>
  <path style="fill:#fff;fill-opacity:1;fill-rule:nonzero;stroke:none" d="M16275.5 7126.04c16.2-24.36 24.5-44.43 24.5-72.58 0-60.48-52.8-100.85-117.2-100.85-40.2 0-64.6 23.99-84.7 48.36-145.4 173.55-294.5 254.09-532.4 254.09-395.4 0-681.8-318.61-681.8-713.95 0-395.33 286.4-713.79 681.8-713.79 237.9 0 387 80.3 532.4 253.85 20.1 24.22 44.5 48.45 84.7 48.45 64.4 0 117.2-40.37 117.2-100.84 0-28.39-8.3-48.47-24.5-72.71-120.8-181.62-378.9-338.74-709.8-338.74-528.5 0-923.8 395.53-923.8 923.78 0 528.4 395.3 923.83 923.8 923.83 330.9 0 589-157.38 709.8-338.9" transform="matrix(.16293 0 0 -.16293 0 2288.933)"/>
  <path style="fill:#fff;fill-opacity:1;fill-rule:nonzero;stroke:none" d="M15532.9 7414.65c-506 0-887.6-381.47-887.6-887.33 0-505.97 381.6-887.3 887.6-887.3 342.6 0 580.5 173.62 679.8 322.84 13.6 20.27 18.4 33.86 18.4 53.2 0 43.3-41.7 66.1-82.4 66.1-23.8 0-38.7-12.67-58.3-35.7-158-189.08-319.7-265.98-557.5-265.98-407.7 0-714.9 321.02-714.9 746.84 0 425.83 307.2 746.86 714.9 746.86 237.8 0 399.5-76.92 557.5-266 19.6-23.14 34.5-35.92 58.3-35.92 40.7 0 82.4 22.69 82.4 66.32 0 19.12-4.8 32.71-18.4 53.33-99.3 149-337.2 322.74-679.8 322.74m0-1843.71c-545.4 0-956.5 411.27-956.5 956.38 0 545.01 411.1 956.22 956.5 956.22 369.6 0 623.1-182.76 737.1-353.53 21.2-31.78 30-58.5 30-91.43 0-77.14-65.2-135.18-151.3-135.18-60.4 0-94.4 41.12-111.1 60.93-145.3 173.51-286.6 240.98-504.7 240.98-368.3 0-646.1-291.55-646.1-677.99 0-386.67 277.8-678 646.1-678 218.1 0 359.4 67.49 504.7 241.12 16.7 19.81 50.5 60.8 111.1 60.8 86.1 0 151.3-58.48 151.3-135.18 0-33.39-8.8-59.64-30-91.43-114-171.1-367.5-353.69-737.1-353.69" transform="matrix(.16327 0 0 -.16327 0 2288.933)"/>
  <path style="fill:#fff;fill-opacity:1;fill-rule:nonzero;stroke:none" d="M15668.2 5087.39c-241.5 0-456.9 76.48-613.9 208.11-29.3 21.99-43.9 54.8-43.9 84.06 0 47.65 36.5 80.46 84 80.46 36.6 0 62.1-14.63 84.2-32.81 138.6-109.72 321.5-171.8 500.4-171.8 255.6 0 409.3 102.21 409.3 262.93 0 182.89-186.4 237.65-420.1 303.47-486 135.03-639.4 284.9-639.4 515.02 0 284.88 252 423.78 628.3 423.78 164.5 0 339.6-43.89 493.3-127.82 58.2-29.26 98.6-62.17 98.6-109.73 0-47.34-33-83.91-91.5-83.91-29.1 0-54.8 14.52-87.4 32.91-117.3 62.07-270.7 109.63-416.6 109.63-237.6 0-412.7-69.5-412.7-237.55 0-149.86 102.2-226.36 445.3-325.01 361.8-106.18 613.9-201.06 613.9-489.93 0-255.41-226.3-441.81-631.8-441.81" transform="matrix(.1799 0 0 -.1799 0 2288.933)"/>
  <path style="fill:#fff;fill-opacity:1;fill-rule:nonzero;stroke:none" d="M15065.5 5418.46c-31.5 0-52.8-19.82-52.8-49.23 0-17.11 8.3-41.3 31.5-58.83 155.6-130.62 366.1-201.49 593.7-201.49 370.1 0 599.7 156.83 599.7 409.89 0 265.98-233.9 354.44-590.3 458.73-309.6 88.88-467.1 168.15-467.1 354.43 0 172.85 157.5 268.07 443.2 268.07 138.2 0 295-40.98 430.2-112.95l3-1.67c29-15.85 49.6-27.44 69.9-27.44 37.5 0 60 19.72 60 52.57 0 19.3-9.1 45.59-81.1 81.67-146.9 80.32-316.5 124.34-478.4 124.34-378.6 0-596-143.02-596-392.1 0-187.74 104.5-341.9 615.2-483.76 227.6-64.25 442.2-124.54 442.2-332.94 0-181.08-168.5-293.72-439.5-293.72-186.3 0-375.7 65.1-519 178.15-22.3 18.77-40.7 26.28-64.4 26.28m572.4-372.12c-242.2 0-466.9 76.33-632.6 215.26-33.9 25-54.8 65.9-54.8 107.63 0 63.63 49.4 111.4 115 111.4 50 0 83-22.74 103.8-39.85 131.6-104.3 306.9-164.17 479.6-164.17 232.6 0 377.2 88.44 377.2 231.14 0 153.53-150.6 203.6-396.6 272.65-475.6 132.47-660.9 284.97-660.9 544.05 0 288.93 239.9 454.48 658.4 454.48 172.1 0 352.6-46.83 507.2-131.64 52.9-26.29 114.7-66.25 114.7-136.75 0-67.69-50.5-114.94-122.4-114.94-36.6 0-66 16.27-100.2 35.46-128.3 68.22-274.5 106.6-402.9 106.6-142.2 0-380.8-26.71-380.8-205.7 0-117.44 63.1-191.29 422.2-294.56 371.9-108.88 635.2-210.06 635.2-518.6 0-286.87-259.7-472.46-662.1-472.46" transform="matrix(.18025 0 0 -.18025 0 2288.933)"/>
</svg>
