<svg viewBox="0 0 91 69" fill="none" xmlns="http://www.w3.org/2000/svg">
<g clip-path="url(#clip0_4167_8063)">
<path d="M0 16.662C0 11.34 5.31563 7.65626 10.2988 9.52493C10.9729 9.77775 11.5617 10.2164 11.9969 10.79L36.082 42.5383C39.3696 46.872 45.8258 47.044 49.3395 42.8915L72.5231 15.4925C73.2667 14.614 74.1808 13.8956 75.2102 13.3809L78.3477 11.8122C83.998 8.98698 90.6461 13.0958 90.6461 19.4131V59.484C90.6461 64.1775 86.8415 67.9821 82.148 67.9821H8.49807C3.80473 67.9821 0 64.1775 0 59.484V16.662Z" fill="#1ABC9C"/>
<path d="M45.3242 40.8676C45.3242 38.3085 46.4774 35.8857 48.4634 34.2722L76.7903 11.2566C82.3441 6.74425 90.6473 10.6964 90.6473 17.852V59.4843C90.6473 64.1778 86.8427 67.9824 82.1492 67.9824H53.8223C49.1288 67.9824 45.3242 64.1778 45.3242 59.4843V40.8676Z" fill="#66B1E2"/>
<path d="M71.6133 6.90871C75.9773 2.42366 83.0528 2.42366 87.4168 6.90871C91.7806 11.3938 91.7806 18.6655 87.4168 23.1506L53.9866 57.5083C49.6225 61.9933 42.547 61.9933 38.183 57.5083C33.8192 53.0233 33.8192 45.7515 38.183 41.2665L71.6133 6.90871Z" fill="#3F4694"/>
<path d="M3.27689 23.2678C-1.08709 18.7827 -1.08709 11.511 3.27689 7.02592C7.64088 2.54084 14.7163 2.54084 19.0803 7.02592L53.1301 42.0205C57.4941 46.5055 57.4941 53.7773 53.1301 58.2623C48.7661 62.7473 41.6906 62.7473 37.3268 58.2623L3.27689 23.2678Z" fill="#398984"/>
<path d="M45.3194 33.9912L64.8046 53.4764C70.1581 58.8299 66.3665 67.9835 58.7956 67.9835H31.8431C24.2723 67.9835 20.4807 58.8299 25.8342 53.4764L45.3194 33.9912Z" fill="#9EDAE2"/>
<path d="M45.325 33.9912L61.3493 50.0155L55.34 56.0244C49.8089 61.5556 40.8412 61.5556 35.3101 56.0244L29.3008 50.0155L45.325 33.9912Z" fill="#36A6B3"/>
<path d="M0.000543594 15.5781L23.9399 18.6025L10.9442 31.1523L-1.60547 18.1566L0.000543594 15.5781Z" fill="#398984"/>
<path d="M83.6635 6.97955L73.6484 16.9946L83.6635 27.0097L90.6446 19.8273L90.6446 15.5783L83.6635 6.97955Z" fill="#3F4694"/>

</g>
<defs>
<clipPath id="clip0_4167_8063">
<rect width="460" height="76.6174" fill="white"/>
</clipPath>
</defs>
</svg>
