<svg xmlns="http://www.w3.org/2000/svg" data-slug-id="azure-security" viewBox="0 0 48 48" width="64" height="64">
  <path d="M43.627 22.4c0 12.907-15.6 23.307-18.987 25.413a1.23 1.23 0 0 1-1.28 0C19.973 45.707 4.373 35.307 4.373 22.4V6.88a1.227 1.227 0 0 1 1.2-1.227C17.707 5.333 14.907 0 24 0s6.293 5.333 18.427 5.653a1.227 1.227 0 0 1 1.2 1.227z" fill="#0078d4"/>
  <path d="M42 22.533c0 11.84-14.293 21.334-17.413 23.307a1.15 1.15 0 0 1-1.174 0C20.293 43.92 6 34.373 6 22.533V8.293a1.12 1.12 0 0 1 1.093-1.12C18.213 6.88 15.653 2 24 2s5.787 4.88 16.907 5.173A1.12 1.12 0 0 1 42 8.293z" fill="#6bb9f2"/>
  <path d="M24 24V2c8.347 0 5.787 4.88 16.907 5.173A1.147 1.147 0 0 1 42 8.32v14.24q.039.72 0 1.44zm0 0H6.08c1.067 11.147 14.347 20 17.333 21.84.145.092.31.147.48.16H24z" fill="url(#a)"/>
  <path d="M7.093 7.173C18.213 6.88 15.653 2 24 2v22H6.08q-.04-.72 0-1.44V8.32a1.147 1.147 0 0 1 1.013-1.147M41.92 24H24v22a1.04 1.04 0 0 0 .48-.16C27.573 44 40.853 35.147 41.92 24" fill="#50e6ff"/>
  <defs>
    <linearGradient id="a" x1="24.027" y1="2" x2="24.027" y2="46" gradientUnits="userSpaceOnUse">
      <stop stop-color="#5ea0ef"/>
      <stop offset=".18" stop-color="#559cec"/>
      <stop offset=".47" stop-color="#3c91e5"/>
      <stop offset=".84" stop-color="#1380da"/>
      <stop offset="1" stop-color="#0078d4"/>
    </linearGradient>
  </defs>
</svg>
