<svg height="800" width="800" xmlns="http://www.w3.org/2000/svg" viewBox="0 0 512 512" xml:space="preserve">
  <path style="fill:#5b7f81" d="M147.574 491.213h-88.64c-27.602 0-50.181-22.358-50.181-49.679V70.465c0-27.321 22.586-49.679 50.181-49.679h282.543c27.596 0 50.181 22.358 50.181 49.679v371.069c0 27.321-22.579 49.679-50.181 49.679z"/>
  <path style="fill:#415e5c" d="M233.12 447.641h-65.829c-12.032 0-21.786-9.754-21.786-21.786s9.754-21.786 21.786-21.786h65.829c12.032 0 21.786 9.754 21.786 21.786 0 12.031-9.754 21.786-21.786 21.786"/>
  <path style="fill:#b1d7c5" d="M118.504 425.638H77.048V84.028H323.36v341.61z"/>
  <path style="fill:#97baa8" d="M145.515 425.638c.118-11.931 9.858-21.57 21.869-21.57h65.641c12.011 0 21.751 9.638 21.869 21.57z"/>
  <path style="fill:#c13421" d="M464.17 241.433v-18.254H282.257v123.482c0 49.529 40.926 90.053 90.957 90.053 50.027 0 90.957-40.523 90.957-90.053z"/>
  <path style="fill:#ff4328" d="M282.256 346.661V223.179h86.887v123.482c0 32.319-17.433 60.796-43.445 76.688-26.01-15.893-43.442-44.369-43.442-76.688"/>
  <path d="M202.326 275.22c0 4.813-3.919 8.715-8.752 8.715h-56.895c-4.833 0-8.752-3.901-8.752-8.715 0-4.813 3.919-8.715 8.752-8.715h56.895c4.834.001 8.752 3.903 8.752 8.715m21.03-134.942h-86.678c-4.833 0-8.752 3.901-8.752 8.715 0 4.813 3.919 8.714 8.752 8.714h86.678c4.834 0 8.752-3.901 8.752-8.714s-3.919-8.715-8.752-8.715m-86.678 80.542h41.1c4.833 0 8.752-3.901 8.752-8.714s-3.919-8.715-8.752-8.715h-41.1c-4.833 0-8.752 3.901-8.752 8.715 0 4.813 3.918 8.714 8.752 8.714m64.556 196.101h-2.057c-4.834 0-8.752 3.901-8.752 8.714s3.918 8.715 8.752 8.715h2.057c4.834 0 8.752-3.901 8.752-8.715 0-4.813-3.919-8.714-8.752-8.714m244.802-310.532c-16.275 24.926-19.953 67.351.511 90.778a8.75 8.75 0 0 0 6.607 2.995 8.73 8.73 0 0 0 5.74-2.14 8.69 8.69 0 0 0 .86-12.295c-14.622-16.738-11.555-50.678.956-69.838 15.731-24.079 19.209-67-.955-90.089-3.171-3.631-8.699-4.016-12.347-.858a8.685 8.685 0 0 0-.862 12.293c13.134 15.043 12.887 48.649-.51 69.154m-45.631 335.343c-.054 15.884-6.535 30.292-16.991 40.805h119.834c4.833 0 8.752 3.901 8.752 8.715 0 4.813-3.919 8.715-8.752 8.715H58.934C26.438 499.965 0 473.753 0 441.534V70.464c0-32.219 26.438-58.43 58.934-58.43h282.543c32.496 0 58.934 26.212 58.934 58.43v57.67c2.319-7.976 5.632-15.426 9.761-21.746 13.393-20.507 13.64-54.113.51-69.151a8.687 8.687 0 0 1 .862-12.293c3.65-3.158 9.177-2.773 12.347.858 20.158 23.085 16.683 66.005.955 90.088-12.514 19.16-15.581 53.097-.956 69.839a8.69 8.69 0 0 1-.86 12.295 8.74 8.74 0 0 1-5.739 2.14 8.75 8.75 0 0 1-6.608-2.995c-4.606-5.273-7.98-11.513-10.272-18.294v35.553h63.759a8.753 8.753 0 0 1 8.752 8.752v18.254h19.386c10.858 0 19.692 8.796 19.692 19.608v58.014c0 10.812-8.834 19.608-19.692 19.608h-19.386v8.001c0 45.139-30.712 83.308-72.517 95.067m72.517-182.871v62.37h16.996c2.525 0 4.578-.977 4.578-2.178V261.04c0-1.201-2.053-2.178-4.578-2.178h-16.996zm-17.505-26.93H291.009v114.73c0 44.831 36.876 81.302 82.204 81.302s82.206-36.471 82.206-81.302v-114.73zM303.146 416.886c-18.29-17.922-29.641-42.783-29.641-70.225V223.179a8.753 8.753 0 0 1 8.752-8.752h32.352V92.78H85.802v324.106h52.297c3.841-12.475 15.474-21.57 29.193-21.57h65.829c13.719 0 25.352 9.095 29.193 21.57zm-70.026-4.066h-65.829c-7.187 0-13.034 5.848-13.034 13.034s5.848 13.034 13.034 13.034h65.829c7.187 0 13.034-5.848 13.034-13.034s-5.848-13.034-13.034-13.034m149.625 32.193c-3.139.296-6.318.454-9.533.454-16.926 0-32.876-4.207-46.853-11.611a8.7 8.7 0 0 1-2.998.534h-60.926c-3.703 12.696-15.44 22.003-29.315 22.003h-65.829c-13.877 0-25.612-9.307-29.315-22.003H77.049a8.753 8.753 0 0 1-8.752-8.752V84.028a8.753 8.753 0 0 1 8.752-8.752h246.313a8.753 8.753 0 0 1 8.752 8.752v130.399h50.792V70.464c0-22.567-18.585-40.926-41.429-40.926H58.934c-22.844 0-41.429 18.359-41.429 40.926v371.07c0 22.567 18.585 40.927 41.429 40.927h282.543c21.657 0 39.474-16.504 41.268-37.448"/>
</svg>
