<svg width="800" height="800" viewBox="0 0 1024 1024" class="icon" xmlns="http://www.w3.org/2000/svg">
  <path d="M275.354 334.518v581.587l83.74-50.927 83.74 50.927 83.74-50.927 83.73 50.927 83.752-50.927 83.729 50.927 83.729-50.927 83.752 50.927V202.684c0-47.32-38.286-85.686-85.538-85.686h-669.89" fill="#e6e6e6"/>
  <path d="M104.311 549.137h171.043V195.061c0-43.11-34.873-78.052-77.904-78.052h-15.246c-43.02 0-77.904 34.941-77.904 78.052v354.076z" fill="#ccc"/>
  <path d="M382.327 266.024H567.58v250.538H382.327z" fill="#47a7dd"/>
  <path d="M642.094 579.186h214.198v125.258H642.094z" fill="#ffca6c"/>
  <path d="M945.289 635.802a15.59 15.59 0 0 0 15.564-15.6V202.685c0-55.854-45.34-101.285-101.08-101.285H189.838c-55.74 0-101.091 45.443-101.091 101.285v248.57a15.59 15.59 0 0 0 15.564 15.599 15.59 15.59 0 0 0 15.565-15.599v-248.57c0-38.65 31.38-70.087 69.95-70.087s69.951 31.448 69.951 70.087v330.843h-139.89v-25.202a15.59 15.59 0 0 0-15.564-15.599 15.61 15.61 0 0 0-15.576 15.61v40.801a15.59 15.59 0 0 0 15.564 15.599H259.79v351.369a15.588 15.588 0 0 0 23.643 13.334l75.662-46.011 75.662 46.011a15.56 15.56 0 0 0 16.157 0l75.662-46.011 75.662 46.011a15.56 15.56 0 0 0 16.157 0l75.662-46.011 75.662 46.011a15.56 15.56 0 0 0 16.156 0l75.663-46.011 75.65 46.011a15.5 15.5 0 0 0 15.725.25 15.59 15.59 0 0 0 7.919-13.584v-238.82c0-8.613-6.964-15.599-15.565-15.599s-15.565 6.986-15.565 15.599V888.4l-60.097-36.546a15.51 15.51 0 0 0-16.157 0l-75.65 46.012-75.663-46.012a15.51 15.51 0 0 0-16.156 0l-75.663 46.012-75.65-46.012a15.51 15.51 0 0 0-16.157 0l-75.674 46.012-75.662-46.012a15.49 15.49 0 0 0-16.145 0L290.93 888.4V202.684c0-27.182-10.764-51.883-28.217-70.087h597.072c38.57 0 69.939 31.448 69.939 70.087v417.519a15.59 15.59 0 0 0 15.565 15.599"/>
  <path d="M583.134 266.024a15.59 15.59 0 0 0-15.576-15.6H382.316a15.59 15.59 0 0 0-15.565 15.6V516.55a15.59 15.59 0 0 0 15.565 15.61h185.242a15.59 15.59 0 0 0 15.576-15.61zm-31.13 234.928H397.881v-219.34h154.112v219.34zm304.288 62.635H642.094a15.59 15.59 0 0 0-15.577 15.587v125.27a15.59 15.59 0 0 0 15.577 15.599H856.28c8.602 0 15.565-6.975 15.565-15.6V579.175c0-8.601-6.963-15.587-15.553-15.587m-15.577 125.258H657.658v-94.072h183.057zm15.577-438.42H642.094a15.588 15.588 0 0 0 0 31.198H856.28a15.59 15.59 0 0 0 15.565-15.6 15.59 15.59 0 0 0-15.553-15.598m0 250.527H642.094a15.599 15.599 0 1 0 0 31.21H856.28a15.59 15.59 0 0 0 15.565-15.61 15.59 15.59 0 0 0-15.553-15.6m0-62.634h-79.759a15.588 15.588 0 0 0 0 31.197h79.759c8.601 0 15.553-6.986 15.553-15.599a15.59 15.59 0 0 0-15.553-15.598m-214.198 31.197h77.47a15.588 15.588 0 0 0 0-31.197h-77.47a15.588 15.588 0 0 0 0 31.197m214.198-93.82H642.094a15.588 15.588 0 0 0 0 31.197H856.28a15.59 15.59 0 0 0 15.565-15.599c0-8.624-6.963-15.599-15.553-15.599m-473.976 356.68h185.242a15.588 15.588 0 0 0 0-31.186H382.316a15.588 15.588 0 0 0 0 31.186m185.242-93.821h-66.754c-8.601 0-15.565 6.975-15.565 15.599a15.59 15.59 0 0 0 15.565 15.599h66.754a15.588 15.588 0 0 0 0-31.198m-185.242 31.198h61.531a15.59 15.59 0 0 0 15.565-15.599 15.59 15.59 0 0 0-15.565-15.599h-61.53a15.59 15.59 0 0 0-15.566 15.599 15.576 15.576 0 0 0 15.565 15.599m185.242-93.833H382.316a15.588 15.588 0 0 0 0 31.187h185.242a15.588 15.588 0 0 0 0-31.187m288.734-262.86h-13.677a15.59 15.59 0 0 0-15.564 15.598 15.59 15.59 0 0 0 15.564 15.6h13.677c8.601 0 15.553-6.987 15.553-15.6 0-8.624-6.963-15.598-15.553-15.598m-214.198 31.186h143.553a15.59 15.59 0 0 0 15.565-15.599 15.59 15.59 0 0 0-15.565-15.599H642.094a15.588 15.588 0 0 0 0 31.198"/>
</svg>
