<svg width="800" height="800" viewBox="0 0 129 129" style="fill-rule:evenodd;clip-rule:evenodd;stroke-linejoin:round;stroke-miterlimit:2" xml:space="preserve" xmlns="http://www.w3.org/2000/svg">
  <path style="fill:none" d="M0 0h128v128H0z" transform="translate(.126 .75)"/>
  <path d="M10336.8 2163.55c-.7-7.39-.7-17.14-.7-29.98 0-29.42 22.8-53.3 51-53.3s51.1 23.88 51.1 53.3c0 13.95 0 24.25-.9 31.86 6.9 4.31 11.5 11.99 11.5 20.75v2.09h-127.2v-2.09c0-10.23 6.3-18.98 15.2-22.63" style="fill:#f4bb31" transform="translate(.126 .75) translate(-9878.94 -1973.79)scale(.95741)"/>
  <path d="M6194.66 3247.93c-.8 1.19-1.49 2.46-2.06 3.79h-1.89v-2.01c0-9.57 5.74-17.79 13.97-21.42l.06 2.14c-5.67 3.9-9.53 10.24-10.08 17.5m107.54-17.62c6.23 4.2 10.32 11.32 10.32 19.4v2.01h-1.89a23.46 23.46 0 0 0-9.14-10.64c.37-3.1.58-6.67.71-10.77m-97.61-21.08c-.02-3.06-.02-6.35-.02-9.88 0-28.17 21.91-51.04 48.9-51.04 26.98 0 48.89 22.87 48.89 51.04 0 3.54 0 6.83-.01 9.89-.69-27.55-22.33-49.69-48.88-49.69-26.56 0-48.2 22.14-48.88 49.68" style="fill:#f7cc65" transform="translate(.126 .75) translate(-6187.62 -3130.42)"/>
  <path d="M6312 3244.77c.34 1.6.52 3.25.52 4.94v2.01h-121.81v-2.01c0-1.69.18-3.35.52-4.94z" style="fill:#b78c25" transform="translate(.126 .75) translate(-6187.62 -3130.42)"/>
  <path d="M10336.8 2163.55h32.7" style="fill:none" transform="translate(.126 .75) matrix(.68375 0 0 .95741 -7050.11 -1973.79)"/>
  <path d="M10336.8 2165.64h32.7c1.6 0 2.9-.93 2.9-2.09 0-1.15-1.3-2.09-2.9-2.09h-32.7c-1.6 0-3 .94-3 2.09 0 1.16 1.4 2.09 3 2.09" style="fill:#b78c25" transform="translate(.126 .75) matrix(.68375 0 0 .95741 -7050.11 -1973.79)"/>
  <path d="M10375.4 2086.28c2.7-.41 5.4-.6 8.2-.6 8.4 0 16.3 1.71 23.3 4.78v31.32h-31.5z" style="fill:#b78c25" transform="translate(.126 .75) matrix(.95741 0 0 1.17351 -9875.59 -2418.43)"/>
  <path d="M10375.5 2076.7c2.7-.41 5.4-.6 8.1-.6 8.4 0 16.3 1.72 23.3 4.8v9.56c-7-3.07-14.9-4.78-23.3-4.78-2.8 0-5.5.19-8.2.6v-8.96z" style="fill:#b78c25" transform="translate(.126 .75) matrix(.95741 0 0 1.17351 -9875.59 -2418.43)"/>
  <path d="M10406.9 2079.44c0-6.35-5.2-11.5-11.5-11.5h-8.5c-6.3 0-11.5 5.15-11.5 11.5v63.12h31.5z" style="fill:#f4bb31" transform="translate(.126 .75) translate(-9884.64 -1973.17)scale(.95741)"/>
  <path d="M6245.88 3201.25v-53.11c0-5.87 4.6-10.67 10.39-11-.21-.01-.42-.01-.63-.01h-8.05c-6.08 0-11.01 4.93-11.01 11.01v53.11z" style="fill:#f7cc65" transform="translate(.126 .75) translate(-6187.62 -3130.42)"/>
  <path d="M6266.65 3155.77v-7.63c0-2.92-1.16-5.72-3.22-7.79a11.05 11.05 0 0 0-7.79-3.22h-8.05a11.013 11.013 0 0 0-11.01 11.01v7.63a11.013 11.013 0 0 1 11.01-11.01h8.05c2.92 0 5.72 1.16 7.79 3.22 2.06 2.07 3.22 4.87 3.22 7.79" style="fill:#f7cc65" transform="translate(.126 .75) translate(-6187.62 -3130.42)"/>
  <path d="M10437.6 2143.97c0-3.5-2.9-6.49-6.8-7.08-7.2-1.04-13-3.01-17.6-5.82-2.7-1.67-6.3-1.7-9.1-.08-5.1 2.98-10.9 4.95-17.4 5.94-3.9.61-6.7 3.58-6.7 7.06v16.88c0 .01 0 8.91 11.1 17.91 8.1 6.56 17.7 7.55 17.7 7.55s9.5-.99 17.7-7.55c11.1-9.01 11.1-17.91 11.1-17.91z" style="fill:#25b736" transform="translate(.126 .75) matrix(.98435 0 0 1.11375 -10149.3 -2313.73)"/>
  <path d="M10336.8 2163.55h32.7" style="fill:none" transform="translate(.126 .75) matrix(.37234 0 0 .95741 -3798.42 -1973.79)"/>
  <path d="M10336.8 2165.64h32.7c3 0 5.4-.93 5.4-2.09 0-1.15-2.4-2.09-5.4-2.09h-32.7c-3 0-5.4.94-5.4 2.09 0 1.16 2.4 2.09 5.4 2.09" style="fill:#b78c25" transform="translate(.126 .75) matrix(.37234 0 0 .95741 -3798.42 -1973.79)"/>
  <path d="M6284.25 3188.76v62.94c.98-.13 9.78-1.5 17.31-8.39 10.96-10.03 10.96-19.96 10.96-19.96v-18.81c0-3.9-2.8-7.23-6.65-7.89-7.13-1.16-12.88-3.35-17.38-6.48a7.84 7.84 0 0 0-4.24-1.41" style="fill:#1c8928" transform="translate(.126 .75) translate(-6187.62 -3130.42)"/>
  <path d="M10420 2146.52c-1.1 0-2.2-.44-3-1.22-.7-.79-1.2-1.85-1.2-2.96v-4.39c0-2.31-1.9-4.18-4.2-4.18h-3.1c-2.3 0-4.2 1.87-4.2 4.18v4.39c0 1.11-.4 2.17-1.2 2.96-.8.78-1.8 1.22-2.9 1.22h-4.4c-2.3 0-4.2 1.87-4.2 4.18v3.12c0 2.31 1.9 4.18 4.2 4.18h4.4c1.1 0 2.1.44 2.9 1.22s1.2 1.85 1.2 2.95v4.4c0 2.31 1.9 4.18 4.2 4.18h3.1c2.3 0 4.2-1.87 4.2-4.18v-4.4c0-1.1.5-2.17 1.2-2.95.8-.78 1.9-1.22 3-1.22h4.4c2.3 0 4.2-1.87 4.2-4.18v-3.12c0-2.31-1.9-4.18-4.2-4.18z" style="fill:#c8c8c8" transform="translate(.126 .75) translate(-9870.22 -1971.93)scale(.95741)"/>
</svg>
