<?xml version="1.0" encoding="UTF-8" standalone="no"?>
<!-- Created with Inkscape (http://www.inkscape.org/) -->

<svg
   version="1.1"
   id="svg1"
   width="800"
   height="660"
   viewBox="0 0 800 660"
   sodipodi:docname="owna.svg"
   inkscape:version="1.4.3 (0d15f75, 2025-12-25)"
   xmlns:inkscape="http://www.inkscape.org/namespaces/inkscape"
   xmlns:sodipodi="http://sodipodi.sourceforge.net/DTD/sodipodi-0.dtd"
   xmlns="http://www.w3.org/2000/svg"
   xmlns:svg="http://www.w3.org/2000/svg">
  <defs
     id="defs1" />
  <sodipodi:namedview
     id="namedview1"
     pagecolor="#ffffff"
     bordercolor="#000000"
     borderopacity="0.25"
     inkscape:showpageshadow="2"
     inkscape:pageopacity="0.0"
     inkscape:pagecheckerboard="0"
     inkscape:deskcolor="#d1d1d1"
     inkscape:export-bgcolor="#ffffff00"
     inkscape:zoom="2.75"
     inkscape:cx="399.63636"
     inkscape:cy="300.90909"
     inkscape:window-width="3840"
     inkscape:window-height="2054"
     inkscape:window-x="-11"
     inkscape:window-y="-11"
     inkscape:window-maximized="1"
     inkscape:current-layer="g1" />
  <g
     inkscape:groupmode="layer"
     inkscape:label="Image"
     id="g1">
    <path
       style="fill:#e16d8b;fill-opacity:1"
       d="m 582.07849,408.77713 c 2.30894,-1.68567 2.66568,-4.11392 3.30655,-22.50711 0.71131,-20.41484 0.76633,-20.71459 5.59501,-30.48476 10.97306,-22.20248 30.41707,-34.00631 54.22813,-32.92015 20.06185,0.91514 38.3975,13.8398 48.36911,34.09501 4.19688,8.52508 4.40519,9.69657 5.06644,28.49306 0.95911,27.26339 -1.40121,25.47147 32.86949,24.954 29.54467,-0.44611 30.41131,-0.6702 37.07106,-9.58532 2.63968,-3.53364 2.76425,-5.59282 3.13097,-51.75895 C 772.16148,292.88823 772.89586,296 759.19231,296 c -29.75422,0 -53.07461,-17.12193 -59.9736,-44.03287 -9.23596,-36.02681 20.85834,-70.6338 61.42329,-70.6338 10.6657,0 11.70344,-1.8223 11.14516,-19.57146 -0.39888,-12.68156 -0.84145,-14.97202 -3.65525,-18.91724 -6.43805,-9.02675 -8.98357,-9.44923 -57.13191,-9.48201 -46.42839,-0.0316 -46.62659,-0.0672 -37.66667,-6.7686 14.08457,-10.53422 21.53342,-24.09993 22.41543,-40.82255 1.02266,-19.389492 -6.42583,-35.783839 -21.39953,-47.100974 -22.56369,-17.053656 -56.84657,-12.654069 -74.39578,9.54735 -8.07135,10.211023 -11.10595,19.54172 -11.20371,34.448821 -0.0754,11.490252 0.29961,13.471581 4.0374,21.333333 4.77321,10.0396 9.62969,16.16976 17.09343,21.57647 11.09611,8.03798 13.75892,7.75686 -73.47453,7.75686 -75.06344,0 -79.30499,0.12627 -78.37818,2.33334 6.70364,15.96372 8.97984,30.79549 6.24103,40.66666 l -1.38727,5 h 35.16023 c 20.95485,0 38.01487,0.6057 42.22586,1.49917 16.24028,3.44584 31.40204,15.3334 38.77639,30.40262 4.04227,8.26022 4.28923,9.61293 4.28923,23.49375 0,14.34241 -0.13174,14.99563 -5.02118,24.89548 -5.81453,11.77295 -14.35443,20.26867 -26.05587,25.92108 -6.56881,3.17308 -9.60711,3.73855 -22.58961,4.20428 l -15,0.53809 v 56.52277 c 0,54.74499 0.0839,56.60664 2.66666,59.18943 2.50729,2.50729 4.44445,2.66667 32.41183,2.66667 23.56082,0 30.28327,-0.39286 32.33333,-1.88954 z"
       id="path90" />
    <path
       style="fill:#00aaa1;fill-opacity:1"
       d="m 353.33333,409.36484 c 1.59878,-1.00802 2.14234,-5.75175 2.7095,-23.64625 0.66196,-20.88536 0.94479,-22.83195 4.22109,-29.05192 4.62716,-8.78457 13.33869,-17.04545 22.40275,-21.24387 14.62276,-6.77316 35.49638,-3.8161 47.87876,6.78275 12.51508,10.71244 16.12124,21.24894 16.12124,47.10312 0,12.34511 0.5122,18.6702 1.6,19.758 1.10316,1.10316 7.85185,1.6 21.73333,1.6 13.88148,0 20.63017,-0.49684 21.73333,-1.6 1.20235,-1.20235 1.6,-18.39115 1.6,-69.16018 V 272.34632 L 515,271.69582 c 25.67305,-0.77078 30.16179,-2.14724 38.97733,-11.95224 6.67479,-7.42397 8.67102,-12.92496 8.6819,-23.92466 0.0142,-14.3489 -10.55905,-27.73981 -25.08948,-31.77557 -2.95651,-0.82116 -25.94461,-1.36476 -57.90308,-1.36925 -38.72942,-0.005 -53,-0.41605 -53,-1.52499 0,-0.83466 2.45346,-4.17926 5.45214,-7.43244 14.29982,-15.51348 15.56903,-37.31097 3.15123,-54.11963 -18.7552,-25.38693 -57.35289,-21.9715 -72.35965,6.40296 -3.04874,5.76448 -3.52935,8.29061 -3.55147,18.66667 -0.0297,13.94338 2.6096,20.8779 11.38978,29.92527 2.88821,2.97611 5.2513,6.01043 5.2513,6.74292 0,0.86483 -18.8493,1.33181 -53.758,1.33181 -60.46919,0 -63.5608,0.38005 -73.08467,8.98429 -18.45575,16.67366 -13.97937,46.54955 8.45133,56.40526 6.18793,2.71888 9.72465,3.17231 28.68958,3.67818 l 21.63157,0.577 0.36843,67.8935 c 0.31814,58.62613 0.64142,68.06601 2.36843,69.15722 2.60351,1.64505 40.05806,1.64744 42.66666,0.003 z"
       id="path88" />
    <path
       style="fill:#f2b47b;fill-opacity:1"
       d="m 100.79335,407.8626 c 2.17865,-2.40517 2.63482,-5.58228 3.20665,-22.33334 0.63244,-18.52665 0.88581,-19.9919 4.93527,-28.54063 8.9606,-18.91656 27.80852,-32.6347 46.69478,-33.98601 23.65272,-1.69234 45.03313,11.00648 55.55614,32.99738 3.9375,8.22856 4.18084,9.6876 4.81381,28.8629 0.92284,27.95676 -2.0902,25.80377 36.11141,25.80377 32.61498,0 33.5815,-0.19445 35.25738,-7.09324 0.38836,-1.59872 0.53926,-27.20676 0.33533,-56.90676 l -0.37079,-54 L 272,291.94717 c -12.82752,-0.60192 -16.58681,-1.29829 -23.00352,-4.26118 -9.85577,-4.55087 -20.89364,-15.02185 -26.06718,-24.72841 -17.58036,-32.98414 2.94678,-74.22799 39.93016,-80.22909 4.66063,-0.75626 23.47387,-1.3795 41.80721,-1.38498 l 33.33333,-0.01 0.0315,-15.66677 c 0.0281,-13.93578 0.42287,-16.5875 3.57326,-24.0001 l 3.54171,-8.33334 h -79.12195 c -87.11966,0 -84.35744,0.29768 -73.07532,-7.87505 7.23739,-5.24273 14.26885,-14.63251 17.91348,-23.92156 4.072,-10.378282 4.16553,-28.541568 0.19823,-38.495657 -4.19675,-10.529759 -11.95205,-20.146712 -20.92194,-25.944237 -11.10928,-7.180271 -20.0347,-9.541679 -33.41106,-8.8396 -38.6136,2.026697 -62.102502,41.739256 -45.74043,77.333104 3.88041,8.4414 9.00817,14.7573 16.22637,19.98614 10.616,7.69019 10.30157,7.75686 -36.578412,7.75686 -26.697233,0 -43.855423,0.52539 -46.215355,1.41512 -5.91485,2.22998 -11.999292,8.98626 -13.761814,15.28136 -0.898065,3.20758 -1.399859,10.53912 -1.129222,16.49867 0.656997,14.46735 1.343962,15.05968 18.76544,16.18021 11.008271,0.70805 15.236029,1.6072 21.482852,4.56896 11.214515,5.31705 23.881805,17.68041 29.207245,28.50646 4.112336,8.35993 4.348486,9.63877 4.344776,23.52817 -0.004,13.43002 -0.32821,15.34922 -3.791145,22.41284 -5.466937,11.15136 -16.681711,22.69123 -26.978051,27.76011 -7.346943,3.61688 -10.58151,4.33625 -23.328583,5.18823 -11.043392,0.73812 -15.361435,1.55172 -17.015311,3.20602 C 30.23287,299.86343 30,305.09965 30,347.71485 v 47.61848 l 3.130408,5.03505 c 5.743891,9.23866 9.299917,10.17238 38.996275,10.23936 24.898347,0.0562 26.2461,-0.0729 28.666667,-2.74514 z"
       id="path86" />
    <path
       id="path84"
       style="fill:#3c5c6a;fill-opacity:1"
       d="M 667.125 453.64258 C 659.57468 453.92013 655.06323 457.46789 651.32031 465.70117 C 647.77678 473.49587 604.15652 587.44798 599.14648 601.99805 C 595.36926 612.96779 595.8753 617.20403 601.5332 621.96484 C 607.14683 626.6884 614.59015 626.56715 620.01758 621.66602 C 622.75049 619.19812 625.76047 613.6402 629.22266 604.66602 L 634.36719 591.33398 L 668.89844 590.97852 L 703.42773 590.62305 L 708.58398 604.69727 C 714.43116 620.66034 718.41242 625.33398 726.16797 625.33398 C 735.95366 625.33398 742.60772 618.0386 740.84766 609.23828 C 740.39887 606.99433 727.88379 573.24774 713.03711 534.24609 C 682.50803 454.04739 682.81585 454.63023 670.55273 453.7207 C 669.34341 453.63101 668.20362 453.60293 667.125 453.64258 z M 669.35938 506.90234 C 669.4127 506.90378 669.45767 506.93637 669.49219 506.99805 C 670.855 509.43326 688 557.51925 688 558.90625 C 688 559.50787 679.23524 560 668.52344 560 C 653.49641 560 649.19093 559.61993 649.67578 558.33398 C 650.02139 557.41732 654.393 545.08307 659.39062 530.92578 C 664.7384 515.77657 668.43759 506.87757 669.35938 506.90234 z " />
    <path
       style="fill:#3c5c6a;fill-opacity:1"
       d="m 463.90464,623.38265 c 2.07471,-1.07288 4.29492,-3.02288 4.93378,-4.33334 0.63887,-1.31045 1.46158,-25.17478 1.82825,-53.03183 0.57416,-43.62159 0.94416,-50.69869 2.66666,-51.00598 1.29521,-0.23106 15.15622,18.27298 39.33334,52.50882 22.88745,32.40962 38.8811,53.82086 41.33333,55.33433 4.94623,3.05271 12.39114,3.18998 16.51084,0.30443 6.74955,-4.72757 6.82249,-5.63118 6.82249,-84.5158 0,-79.1166 0.0674,-78.3098 -6.95572,-83.22901 -3.8744,-2.71373 -12.95243,-2.66357 -16.88845,0.0933 -6.48148,4.53981 -6.82249,7.52801 -6.82249,59.78292 0,39.29082 -0.33805,48.70949 -1.74824,48.70949 -0.96153,0 -18.04981,-22.95 -37.97395,-51 -19.92414,-28.05 -36.98743,-51.92753 -37.91843,-53.06119 -7.58164,-9.23199 -21.24376,-8.7244 -26.20333,0.97353 -1.04563,2.04462 -1.48939,25.62223 -1.48939,79.13334 v 76.22099 l 4.53334,4.53333 c 5.11325,5.11326 11.40286,6.01379 18.03797,2.58265 z"
       id="path80" />
    <path
       style="fill:#3c5c6a;fill-opacity:1"
       d="m 285.24183,622.99793 c 2.5164,-1.28222 5.65299,-4.44219 6.9704,-7.02234 1.31738,-2.58009 8.61026,-26.58009 16.2064,-53.33333 C 318.02992,528.79178 322.79033,514 324.07308,514 c 1.28196,0 6.13031,15.02323 15.92102,49.33333 7.74275,27.13334 15.08514,51.20243 16.31642,53.48688 6.21627,11.53336 27.48713,11.17381 33.55868,-0.56727 1.7128,-3.31219 25.83074,-126.54536 28.29003,-144.55095 1.07148,-7.84477 -1.20803,-13.80829 -6.28082,-16.43153 -8.89777,-4.60122 -20.01037,-0.48432 -22.49147,8.33244 -0.78374,2.78507 -4.72456,25.16377 -8.75738,49.73043 -4.03282,24.56667 -7.67193,46.31667 -8.08692,48.33334 -1.6689,8.11019 -4.2468,3.36434 -11.22592,-20.66667 -24.24532,-83.48317 -23.59744,-81.47236 -27.26722,-84.62897 -6.32886,-5.44386 -19.38407,-3.26926 -23.1048,3.84855 C 309.68901,462.62174 280,563.0693 280,564.91556 c 0,0.22977 -0.85233,0.41777 -1.89406,0.41777 -2.30672,0 -1.78227,2.54032 -10.7355,-52 -4.03282,-24.56666 -7.97364,-46.94536 -8.75738,-49.73043 -2.39125,-8.49746 -13.02029,-12.76064 -21.8194,-8.75149 -3.45445,1.57395 -7.46116,8.38684 -7.45921,12.68343 0.003,5.56984 26.77979,144.13721 28.6273,148.14095 4.10217,8.88982 17.2682,12.42366 27.28008,7.32214 z"
       id="path78" />
    <path
       id="path76"
       style="display:inline;fill:#3c5c6a;fill-opacity:1"
       d="M 136.21484 453.33398 C 101.06122 453.33398 73.247738 476.85539 63.835938 514.54492 C 59.822198 530.61794 60.711943 555.90044 65.84375 571.61914 C 74.311113 597.55464 94.537105 617.49612 118.17969 623.21875 C 128.59359 625.7394 145.65292 625.79854 155.0625 623.34766 C 186.30797 615.20925 207.58651 588.43739 212.26758 551.375 C 216.10843 520.96515 206.24275 491.13521 186.11914 472.31055 C 172.00519 459.10765 156.82151 453.33398 136.21484 453.33398 z M 135.77344 484 C 148.73885 484 154.27349 486.17758 162.7832 494.625 C 171.54123 503.31891 175.44644 512.30545 177.66211 528.86523 C 181.27548 555.87119 171.34893 582.1062 154.17188 590.94336 C 147.18001 594.5405 130.92881 595.55249 123.66406 592.84375 C 106.67743 586.51011 97.417202 569.73221 96.337891 543.33398 C 94.840847 506.71869 109.93948 484 135.77344 484 z " />
  </g>
</svg>
