<?xml version="1.0" encoding="UTF-8" standalone="no"?>
<svg
   viewBox="0 0 47.331188 45.648261"
   width="1062.1849"
   height="1023.5745"
   version="1.1"
   id="svg3"
   sodipodi:docname="oxford.svg"
   inkscape:version="1.4.3 (0d15f75, 2025-12-25)"
   xmlns:inkscape="http://www.inkscape.org/namespaces/inkscape"
   xmlns:sodipodi="http://sodipodi.sourceforge.net/DTD/sodipodi-0.dtd"
   xmlns:xlink="http://www.w3.org/1999/xlink"
   xmlns="http://www.w3.org/2000/svg"
   xmlns:svg="http://www.w3.org/2000/svg">
  <sodipodi:namedview
     id="namedview3"
     pagecolor="#ffffff"
     bordercolor="#000000"
     borderopacity="0.25"
     inkscape:showpageshadow="2"
     inkscape:pageopacity="0.0"
     inkscape:pagecheckerboard="0"
     inkscape:deskcolor="#d1d1d1"
     inkscape:zoom="1.12"
     inkscape:cx="871.875"
     inkscape:cy="648.66071"
     inkscape:window-width="2560"
     inkscape:window-height="1351"
     inkscape:window-x="2551"
     inkscape:window-y="-9"
     inkscape:window-maximized="1"
     inkscape:current-layer="svg3" />
  <defs
     id="defs1">
    <path
       id="a"
       d="M 0,0 H 107.7 V 26 H 0 Z" />
  </defs>
  <clipPath
     id="b">
    <use
       xlink:href="#a"
       overflow="visible"
       id="use1" />
  </clipPath>
  <path
     d="M 26,13 C 26,9.1 24.4,5.6 21.7,3.2 V 13 c 0,4.8 -3.2,8.9 -8.7,8.9 -5.5,0 -8.7,-4.1 -8.7,-8.9 0,-4.8 3.3,-8.9 8.7,-8.9 1.7,0 3.1,0.4 4.3,1.1 V 0.7 C 16,0.2 14.5,0 13,0 5.4,0 0,5.9 0,13 c 0,7.1 5.4,13 13,13 7.6,0 13,-5.9 13,-13"
     transform="translate(-0.01949083)"
     style="fill:#002255"
     clip-path="url(#b)"
     id="path1" />
  <g
     transform="translate(-0.01949083)"
     id="g2"
     style="fill:#002255">
    <defs
       id="defs2">
      <path
         id="c"
         d="M 0,0 H 107.7 V 26 H 0 Z" />
    </defs>
    <clipPath
       id="d">
      <use
         xlink:href="#c"
         overflow="visible"
         id="use2" />
    </clipPath>
    <path
       d="m 17.3,13 c 0,2.4 -1.6,4.5 -4.3,4.5 -2.7,0 -4.3,-2.1 -4.3,-4.5 0,-2.4 1.6,-4.5 4.3,-4.5 2.7,0 4.3,2.1 4.3,4.5"
       style="fill:#002255"
       clip-path="url(#d)"
       id="path2" />
  </g>
  <path
     d="m 1.1386812,31.80826 c 0,0.8 0.3,1.4 0.8,2 0.5,0.5 1.1,0.8 1.8,0.8 0.8,0 1.4,-0.3 1.9,-0.8 0.5,-0.5 0.8,-1.2 0.8,-1.9 0,-0.8 -0.3,-1.4 -0.8,-1.9 -0.5,-0.5 -1.1,-0.8 -1.9,-0.8 -0.7,0 -1.4,0.3 -1.9,0.8 -0.5,0.4 -0.7,1 -0.7,1.8 m -1.10000001,0 c 0,-1 0.4,-1.9 1.10000001,-2.6 0.7,-0.7 1.6,-1.1 2.7,-1.1 1,0 1.9,0.4 2.6,1.1 0.7,0.7 1.1,1.6 1.1,2.6 0,1 -0.4,1.9 -1.1,2.6 -0.7,0.7 -1.6,1.1 -2.7,1.1 -0.9,0 -1.8,-0.3 -2.5,-1 -0.80000001,-0.6 -1.20000001,-1.6 -1.20000001,-2.7 m 9.70000001,1.2 -1.6,-2.1 h 1.2 l 0.9999998,1.3 1,-1.3 h 1.3 l -1.7,2.1 1.9,2.5 h -1.2 l -1.3,-1.7 -1.3999998,1.7 h -1.3 z m 4.9999998,-1.1 v 3.6 h -1.1 v -3.6 h -0.4 v -1 h 0.4 v -1.8 q 0,-0.9 0.3,-1.2 c 0.3,-0.3 0.7,-0.5 1.2,-0.5 0.2,0 0.4,0.1 0.7,0.2 v 1.1 l -0.1,-0.1 c -0.2,-0.1 -0.4,-0.2 -0.6,-0.2 -0.2,0 -0.3,0.1 -0.4,0.2 -0.1,0.1 -0.1,0.4 -0.1,0.8 v 1.5 h 1.1 v 1 z m 2.5,1.2 c 0,0.5 0.1,0.8 0.4,1.1 0.2,0.3 0.6,0.4 1,0.4 0.4,0 0.7,-0.1 1,-0.4 0.2,-0.3 0.4,-0.6 0.4,-1.1 0,-0.5 -0.1,-0.8 -0.4,-1.1 -0.2,-0.3 -0.6,-0.4 -1,-0.4 -0.4,0 -0.7,0.1 -1,0.4 -0.3,0.4 -0.4,0.7 -0.4,1.1 m -1.1,0 c 0,-0.7 0.2,-1.2 0.7,-1.7 0.5,-0.5 1,-0.7 1.7,-0.7 0.7,0 1.3,0.2 1.7,0.7 0.5,0.5 0.7,1 0.7,1.7 0,0.7 -0.2,1.2 -0.7,1.7 -0.5,0.5 -1.1,0.7 -1.7,0.7 -0.7,0 -1.3,-0.2 -1.7,-0.7 -0.4,-0.4 -0.7,-1 -0.7,-1.7 m 5.8,-2.2 h 1 v 0.4 c 0.2,-0.2 0.4,-0.3 0.5,-0.4 0.2,-0.1 0.3,-0.1 0.5,-0.1 q 0.45,0 0.9,0.3 l -0.5,1 c -0.2,-0.1 -0.4,-0.2 -0.6,-0.2 -0.6,0 -0.9,0.4 -0.9,1.3 v 2.4 h -1 v -4.7 z m 4.2,2.2 c 0,0.4 0.1,0.8 0.3,1.1 0.2,0.3 0.5,0.4 0.9,0.4 0.4,0 0.7,-0.1 0.9,-0.4 0.2,-0.3 0.4,-0.6 0.4,-1.1 0,-0.4 -0.1,-0.8 -0.4,-1.1 -0.2,-0.3 -0.5,-0.4 -0.9,-0.4 -0.4,0 -0.7,0.1 -0.9,0.4 -0.2,0.4 -0.3,0.7 -0.3,1.1 m 2.5,-5.5 h 1 v 7.9 h -1 v -0.5 c -0.4,0.4 -0.9,0.6 -1.4,0.6 -0.6,0 -1.1,-0.2 -1.5,-0.7 -0.4,-0.5 -0.6,-1 -0.6,-1.7 0,-0.7 0.2,-1.2 0.6,-1.7 0.4,-0.5 0.9,-0.7 1.5,-0.7 0.5,0 1,0.2 1.4,0.7 z m -27.3879998,16.84 h 0.5 c 0.5,0 0.9,-0.1 1.2,-0.2 0.3,-0.1 0.6,-0.3 0.9,-0.5 0.5,-0.5 0.8,-1.1 0.8,-1.9 0,-0.8 -0.3,-1.4 -0.8,-1.9 q -0.75,-0.6 -2.1,-0.6 h -0.5 z m -1.10000001,1 v -7.2 H 1.6506812 c 0.7,0 1.3,0.1 1.7,0.2 0.4,0.1 0.9,0.4 1.2,0.7 0.7,0.7 1.1,1.6 1.1,2.7 q 0,1.65 -1.2,2.7 c -0.4,0.3 -0.8,0.6 -1.2,0.7 -0.4,0.1 -1,0.2 -1.7,0.2 z m 6.40000001,-6.4 c 0,-0.2 0.1,-0.3 0.2,-0.5 0.1,-0.1 0.2,-0.2 0.4,-0.2 0.2,0 0.4,0.1 0.5,0.2 0.1,0.1 0.2,0.3 0.2,0.5 0,0.2 -0.1,0.4 -0.2,0.5 -0.1,0.1 -0.3,0.2 -0.5,0.2 -0.2,0 -0.4,-0.1 -0.5,-0.2 -0.1,-0.1 -0.1,-0.3 -0.1,-0.5 m 1.2,1.9 v 4.5 h -1 v -4.5 z m 4.5999998,0.2 v 1.4 c -0.2,-0.3 -0.5,-0.5 -0.6,-0.6 -0.2,-0.1 -0.4,-0.2 -0.7,-0.2 -0.4,0 -0.7,0.1 -1,0.4 -0.2999998,0.3 -0.3999998,0.6 -0.3999998,1 0,0.4 0.1,0.8 0.3999998,1 0.3,0.3 0.6,0.4 1,0.4 0.2,0 0.5,-0.1 0.7,-0.2 0.2,-0.1 0.4,-0.3 0.7,-0.6 v 1.4 c -0.4,0.2 -0.9,0.3 -1.3,0.3 -0.7,0 -1.2999998,-0.2 -1.7999998,-0.7 -0.5,-0.5 -0.7,-1 -0.7,-1.7 0,-0.7 0.2,-1.2 0.7,-1.7 0.5,-0.5 1.0999998,-0.7 1.7999998,-0.7 0.4,0.2 0.8,0.3 1.2,0.5 m 2.3,0.8 v 3.6 h -1.1 v -3.6 h -0.4 v -1 h 0.4 v -1.7 h 1.1 v 1.7 h 0.8 v 1 z m 1.5,-2.9 c 0,-0.2 0.1,-0.3 0.2,-0.5 0.1,-0.1 0.3,-0.2 0.5,-0.2 0.2,0 0.4,0.1 0.5,0.2 0.1,0.1 0.2,0.3 0.2,0.5 0,0.2 -0.1,0.4 -0.2,0.5 -0.1,0.1 -0.3,0.2 -0.5,0.2 -0.2,0 -0.4,-0.1 -0.5,-0.2 -0.1,-0.1 -0.2,-0.3 -0.2,-0.5 m 1.2,1.9 v 4.5 h -1 v -4.5 z m 1.8,2.2 c 0,0.5 0.1,0.8 0.4,1.1 0.2,0.3 0.6,0.4 1,0.4 0.4,0 0.7,-0.1 1,-0.4 0.2,-0.3 0.4,-0.6 0.4,-1.1 0,-0.5 -0.1,-0.8 -0.4,-1.1 -0.2,-0.3 -0.6,-0.4 -1,-0.4 -0.4,0 -0.7,0.1 -1,0.4 -0.2,0.4 -0.4,0.7 -0.4,1.1 m -1,0 c 0,-0.7 0.2,-1.2 0.7,-1.7 0.5,-0.5 1,-0.7 1.7,-0.7 0.7,0 1.3,0.2 1.7,0.7 0.5,0.5 0.7,1 0.7,1.7 0,0.7 -0.2,1.2 -0.7,1.7 -0.5,0.5 -1.1,0.7 -1.7,0.7 -0.7,0 -1.3,-0.2 -1.7,-0.7 -0.5,-0.4 -0.7,-1 -0.7,-1.7 m 5.5,-2.2 h 1.1 v 0.4 c 0.4,-0.4 0.8,-0.5 1.2,-0.5 0.5,0 0.9,0.2 1.2,0.5 0.3,0.3 0.4,0.7 0.4,1.4 v 2.8 h -1.1 v -2.6 c 0,-0.4 -0.1,-0.8 -0.2,-0.9 -0.1,-0.2 -0.3,-0.3 -0.7,-0.3 -0.3,0 -0.6,0.1 -0.7,0.3 -0.1,0.2 -0.2,0.6 -0.2,1.2 v 2.2 h -1.1 z m 5.6,2.2 c 0,0.4 0.1,0.8 0.3,1.1 0.2,0.3 0.5,0.4 0.9,0.4 0.4,0 0.7,-0.1 0.9,-0.4 0.2,-0.3 0.4,-0.6 0.4,-1.1 0,-0.4 -0.1,-0.8 -0.4,-1.1 -0.2,-0.3 -0.6,-0.4 -0.9,-0.4 -0.4,0 -0.7,0.1 -0.9,0.4 -0.2,0.4 -0.3,0.7 -0.3,1.1 m 2.5,-2.2 h 1.1 v 4.5 h -1.1 v -0.5 c -0.4,0.4 -0.9,0.6 -1.4,0.6 -0.6,0 -1.1,-0.2 -1.6,-0.7 -0.4,-0.5 -0.6,-1 -0.6,-1.7 0,-0.7 0.2,-1.2 0.6,-1.7 0.4,-0.5 0.9,-0.7 1.5,-0.7 0.5,0 1,0.2 1.4,0.7 z m 2.1,0 h 1 v 0.4 c 0.2,-0.2 0.4,-0.3 0.5,-0.4 0.2,-0.1 0.3,-0.1 0.5,-0.1 q 0.45,0 0.9,0.3 l -0.5,1 c -0.2,-0.1 -0.4,-0.2 -0.6,-0.2 -0.6,0 -0.9,0.4 -0.9,1.3 v 2.4 h -1 z m 3.3,-1.9 c 0,-0.2 0.1,-0.3 0.2,-0.5 0.1,-0.1 0.3,-0.2 0.5,-0.2 0.2,0 0.4,0.1 0.5,0.2 0.1,0.1 0.2,0.3 0.2,0.5 0,0.2 -0.1,0.4 -0.2,0.5 -0.1,0.1 -0.3,0.2 -0.5,0.2 -0.2,0 -0.4,-0.1 -0.5,-0.2 -0.1,-0.1 -0.2,-0.3 -0.2,-0.5 m 1.2,1.9 v 4.5 h -1.1 v -4.5 z m 4.2,1.6 c -0.1,-0.6 -0.5,-0.8 -1.1,-0.8 -0.1,0 -0.2,0 -0.4,0.1 -0.1,0 -0.2,0.1 -0.3,0.2 -0.1,0.1 -0.2,0.2 -0.2,0.3 -0.1,0.1 -0.1,0.2 -0.1,0.4 z m 1,0.9 h -3.3 c 0,0.4 0.1,0.7 0.4,0.9 0.2,0.2 0.5,0.3 0.8,0.3 0.3,0 0.5,-0.1 0.6,-0.2 0.2,-0.1 0.4,-0.4 0.6,-0.7 l 0.9,0.5 c -0.1,0.2 -0.3,0.4 -0.4,0.6 -0.2,0.2 -0.3,0.3 -0.5,0.4 -0.2,0.1 -0.4,0.2 -0.6,0.2 -0.2,0 -0.4,0.1 -0.7,0.1 -0.7,0 -1.2,-0.2 -1.6,-0.7 -0.4,-0.4 -0.6,-1 -0.6,-1.7 0,-0.7 0.2,-1.3 0.6,-1.7 0.4,-0.4 0.9,-0.7 1.6,-0.7 0.7,0 1.2,0.2 1.6,0.6 q 0.6,0.6 0.6,1.8 z m 3.5,-1.7 -0.9,0.5 c -0.1,-0.3 -0.3,-0.4 -0.5,-0.4 -0.1,0 -0.2,0 -0.2,0.1 -0.1,0.1 -0.1,0.1 -0.1,0.2 0,0.2 0.2,0.3 0.6,0.5 0.6,0.2 0.9,0.5 1.1,0.7 0.2,0.2 0.3,0.5 0.3,0.8 0,0.4 -0.2,0.8 -0.5,1.1 -0.3,0.3 -0.7,0.4 -1.1,0.4 -0.8,0 -1.3,-0.4 -1.6,-1.1 l 0.9,-0.4 c 0.1,0.2 0.2,0.4 0.3,0.4 0.1,0.1 0.3,0.2 0.5,0.2 0.4,0 0.5,-0.2 0.5,-0.5 0,-0.2 -0.1,-0.4 -0.4,-0.5 -0.1,-0.1 -0.2,-0.1 -0.3,-0.2 -0.1,-0.1 -0.2,-0.1 -0.3,-0.2 -0.3,-0.1 -0.5,-0.3 -0.6,-0.4 -0.2,-0.2 -0.2,-0.4 -0.2,-0.7 0,-0.4 0.1,-0.7 0.4,-1 0.3,-0.3 0.6,-0.4 1,-0.4 0.4,0 0.8,0.3 1.1,0.9"
     style="fill:#002255;fill-opacity:1"
     id="path3" />
</svg>
