<svg xmlns="http://www.w3.org/2000/svg" viewBox="0 0 511.999 511.999" xml:space="preserve">
  <path style="fill:#b4e66e" d="m254.131 281.712-78.006-21.274h-71l-78.006 21.274A26.625 26.625 0 0 0 7.5 307.398v183.789h266.25V307.398a26.625 26.625 0 0 0-19.619-25.686"/>
  <path style="fill:#a0d755" d="M7.5 307.398v183.79h53.25V364.413a44.38 44.38 0 0 0-9.347-27.244L14.42 289.62c-4.302 4.772-6.92 11.011-6.92 17.778m266.25 0v183.79H220.5V364.413a44.38 44.38 0 0 1 9.347-27.244l36.982-47.549c4.303 4.772 6.921 11.011 6.921 17.778"/>
  <path style="fill:#fad7a5" d="M96.25 224.94H185v71H96.25z"/>
  <path style="fill:#f0c891" d="M96.25 260.438v.004c13.664 5.7 28.647 8.871 44.375 8.871s30.711-3.172 44.375-8.871v-31.067H96.25z"/>
  <path style="fill:#e6af78" d="m487.763 342.493-60.856-24.342a17.75 17.75 0 0 1-11.158-16.48v-32.358h-71v32.358a17.75 17.75 0 0 1-11.158 16.48l-60.856 24.342A26.62 26.62 0 0 0 256 367.213v35.224a8.874 8.874 0 0 0 8.875 8.875v79.875h230.75v-79.875a8.874 8.874 0 0 0 8.875-8.875v-35.224a26.62 26.62 0 0 0-16.737-24.72"/>
  <path style="fill:#d29b6e" d="M380.25 313.688c12.81 0 25.035-2.378 36.41-6.523-.572-1.749-.91-3.589-.91-5.494v-32.358h-71v32.358c0 1.906-.338 3.745-.91 5.494 11.375 4.144 23.6 6.523 36.41 6.523"/>
  <path style="fill:#ffdc64" d="m487.764 342.493-50.436-20.175c-8.41 13.245-27.395 38.653-57.078 53.494-29.682-14.841-48.668-40.249-57.078-53.494l-50.436 20.175A26.62 26.62 0 0 0 256 367.213v44.099h44.375v79.875h159.75v-79.875H504.5v-44.099a26.62 26.62 0 0 0-16.736-24.72"/>
  <path style="fill:#ffc850" d="M300.375 400.915c0-4.708-1.87-9.222-5.199-12.551l-35.138-35.138c-2.553 4.123-4.038 8.922-4.038 13.988v44.099h44.375zm159.75 0c0-4.708 1.87-9.222 5.199-12.551l35.138-35.138c2.553 4.123 4.038 8.922 4.038 13.988v44.099h-44.375z"/>
  <path style="fill:#c8ff82" d="m87.375 251.563 53.25 44.375-28.618 21.464a8.875 8.875 0 0 1-12.255-1.556l-26.072-32.59a8.875 8.875 0 0 1-.454-10.467zm106.5 0-53.25 44.375 28.618 21.464a8.875 8.875 0 0 0 12.255-1.556l26.072-32.59a8.875 8.875 0 0 0 .454-10.467z"/>
  <path style="fill:#ffe1b4" d="M220.5 127.313v-53.25H60.75v53.25c-9.803 0-17.75 7.947-17.75 17.75s7.947 17.75 17.75 17.75c0 44.114 35.761 79.875 79.875 79.875s79.875-35.761 79.875-79.875c9.803 0 17.75-7.947 17.75-17.75s-7.947-17.75-17.75-17.75"/>
  <path style="fill:#fad7a5" d="M105.125 162.813v-88.75H60.75v53.25c-9.803 0-17.75 7.947-17.75 17.75s7.947 17.75 17.75 17.75c0 44.114 35.761 79.875 79.875 79.875 7.708 0 15.136-1.151 22.188-3.188-33.307-9.624-57.688-40.281-57.688-76.687"/>
  <path style="fill:#d59f63" d="M200.367 118.865c2.592 6.864 9.929 9.973 17.155 8.706a17.3 17.3 0 0 1 2.978-.258c3.25 0 6.255.937 8.875 2.462V74.063c0-13.278-7.376-24.717-18.171-30.805-2.018-12.706-12.931-22.445-26.204-22.445h-71c-34.311 0-62.125 27.814-62.125 62.125v46.837c2.62-1.525 5.625-2.462 8.875-2.462h10.474a8.875 8.875 0 0 0 8.703-7.134l5.43-27.152c1.018-5.088 6.098-8.177 11.095-6.781 23.954 6.691 72.34 9.233 97.422-3.308l5.167 31.003c.286 1.71.734 3.356 1.326 4.924"/>
  <path style="fill:#cd915a" d="M114 20.813c-34.31 0-62.125 27.814-62.125 62.125v46.837c2.62-1.525 5.625-2.462 8.875-2.462h10.474a8.874 8.874 0 0 0 8.703-7.135l5.431-27.152c1.017-5.088 6.097-8.176 11.095-6.78 2.608.728 5.548 1.395 8.672 2.011V74.063c0-29.409 23.841-53.25 53.25-53.25z"/>
  <path style="fill:#785546" d="M422.694 66.118c1.132-3.134 1.931-6.379 1.931-9.805 0-19.606-19.867-35.5-44.375-35.5s-44.375 15.894-44.375 35.5c0 3.542.845 6.894 2.052 10.121-32.915 16.547-55.302 51.569-55.302 90.741v23.388c44.375-17.75 62.125-44.375 62.125-44.375 44.375 35.5 115.375 8.875 115.375 71l2.981-4.472a87.95 87.95 0 0 0 14.769-48.778c0-38.685-22.554-72.019-55.181-87.82"/>
  <path style="fill:#64463c" d="M394.756 57.503c-5.328-.796-10.76-1.275-16.333-1.173-5.415.099-10.669.771-15.815 1.748-.03-.59-.108-1.167-.108-1.765 0-14.459 7.642-27.264 19.416-35.366-.566-.017-1.095-.134-1.666-.134-24.508 0-44.375 15.894-44.375 35.5 0 3.55.717 6.953 1.941 10.179-32.854 16.57-55.191 51.556-55.191 90.683v23.388c44.375-17.75 62.125-44.375 62.125-44.375v-17.75c0-30.169 21.511-55.295 50.027-60.927z"/>
  <path style="fill:#f0c087" d="M460.125 207.188c0-58.759-63.516-38.124-107.944-65.753-4.045-2.516-9.432-1.428-12.064 2.543-6.855 10.343-20.886 27.358-39.174 27.705-10.005.19-18.318 7.609-18.318 17.615v.141c0 9.803 7.947 17.75 17.75 17.75 0 6.101.684 12.043 1.98 17.752 8.072 35.57 39.883 62.123 77.895 62.123s69.823-26.553 77.895-62.123a80 80 0 0 0 1.98-17.753"/>
  <path style="fill:#e6af78" d="M344.75 207.188v-66.554c-1.822.585-3.503 1.638-4.633 3.343-6.856 10.344-20.886 27.358-39.174 27.706-10.005.19-18.318 7.609-18.318 17.615v.141c0 9.803 7.947 17.75 17.75 17.75 0 6.101.684 12.042 1.98 17.752 8.072 35.57 39.882 62.123 77.895 62.123 7.714 0 15.15-1.143 22.207-3.184-33.317-9.617-57.707-40.279-57.707-76.692"/>
  <path d="M140.625 205.813c8.977 0 17.569-4.247 23.575-11.65a7.5 7.5 0 0 0-11.649-9.449c-3.19 3.934-7.425 6.1-11.925 6.1s-8.735-2.166-11.925-6.1a7.5 7.5 0 1 0-11.649 9.449c6.004 7.403 14.596 11.65 23.573 11.65m-35.5-44.375a7.5 7.5 0 0 0 7.5-7.5v-8.875a7.5 7.5 0 0 0-15 0v8.875a7.5 7.5 0 0 0 7.5 7.5m71 0a7.5 7.5 0 0 0 7.5-7.5v-8.875a7.5 7.5 0 0 0-15 0v8.875a7.5 7.5 0 0 0 7.5 7.5M49.708 310.333a7.5 7.5 0 0 0-10.062-3.354 7.5 7.5 0 0 0-3.354 10.062l16.958 33.917v140.229a7.5 7.5 0 0 0 15 0v-142a7.5 7.5 0 0 0-.792-3.354zm191.896-3.354a7.5 7.5 0 0 0-10.062 3.354l-17.75 35.5a7.5 7.5 0 0 0-.792 3.354v142a7.5 7.5 0 0 0 15 0V350.958l16.958-33.917a7.5 7.5 0 0 0-3.354-10.062m162.221-68.442a7.5 7.5 0 0 0-11.649-9.449c-3.19 3.934-7.425 6.1-11.925 6.1s-8.735-2.166-11.925-6.1a7.5 7.5 0 1 0-11.649 9.449c6.005 7.404 14.598 11.65 23.575 11.65s17.567-4.246 23.573-11.65m-59.075-56.599a7.5 7.5 0 0 0-7.5 7.5v8.875a7.5 7.5 0 0 0 15 0v-8.875a7.5 7.5 0 0 0-7.5-7.5m71 23.875a7.5 7.5 0 0 0 7.5-7.5v-8.875a7.5 7.5 0 0 0-15 0v8.875a7.5 7.5 0 0 0 7.5 7.5"/>
  <path d="m490.549 335.529-60.856-24.343a10.2 10.2 0 0 1-6.443-9.517v-18.433a86.6 86.6 0 0 0 11.89-8.065c15.239-12.317 26.006-29.568 30.319-48.573a88 88 0 0 0 2.166-19.412c0-43.685-31.643-49.967-62.243-56.042-19.57-3.885-39.806-7.903-55.947-20.815a7.5 7.5 0 0 0-6.286-1.466 7.51 7.51 0 0 0-5.103 3.959c-.042.083-4.244 8.355-11.351 16.41-6.019 6.822-15.472 14.954-26.321 14.954-3.648 0-7.115.784-10.25 2.183v-12.433c0-49.695 40.43-90.125 90.125-90.125s90.125 40.43 90.125 90.125v17.75a7.5 7.5 0 0 0 15 0v-17.75c0-39.318-21.7-73.657-53.75-91.687.325-1.962.5-3.946.5-5.938 0-23.71-23.271-43-51.875-43s-51.875 19.29-51.875 43c0 1.993.173 3.977.499 5.939-32.049 18.03-53.749 52.369-53.749 91.686v35.5c0 11.398 7.592 21.057 17.985 24.185.32 4.378.965 8.722 1.931 12.977 4.313 19.005 15.081 36.256 30.319 48.573a86.6 86.6 0 0 0 11.89 8.065v18.433c0 4.216-2.529 7.951-6.443 9.517l-60.855 24.342c-13.031 5.212-21.451 17.649-21.451 31.684v44.104a7.5 7.5 0 0 0 7.5 7.5h1.375v72.371a7.5 7.5 0 0 0 15 0v-72.375h20.5v72.375a7.5 7.5 0 0 0 15 0v-97.625a7.5 7.5 0 0 0-15 0v10.25H263.5v-36.6c0-7.866 4.719-14.836 12.022-17.757l47.326-18.93c6.282 10.646 24.113 37.028 54.047 51.995a7.5 7.5 0 0 0 6.708 0c29.934-14.967 47.766-41.349 54.047-51.995l47.327 18.931c7.303 2.921 12.022 9.892 12.022 17.757v36.6h-29.375v-10.25a7.5 7.5 0 0 0-15 0v97.625a7.5 7.5 0 0 0 15 0v-72.375h20.5v72.375a7.5 7.5 0 0 0 15 0v-72.375h1.375a7.5 7.5 0 0 0 7.5-7.5v-44.1c.001-14.034-8.419-26.471-21.45-31.684M380.25 28.313c19.967 0 36.266 12.114 36.847 27.171-11.473-4.308-23.888-6.671-36.847-6.671s-25.375 2.363-36.847 6.671c.581-15.057 16.88-27.171 36.847-27.171M309.668 223.28a73 73 0 0 1-1.793-16.092 7.5 7.5 0 0 0-7.5-7.5c-5.652 0-10.25-4.598-10.25-10.25s4.598-10.25 10.25-10.25c22.743 0 39.239-20.594 46.688-32.116 17.491 11.261 37.496 15.233 55.398 18.788 32.963 6.544 50.164 11.354 50.164 41.329 0 5.433-.604 10.847-1.793 16.092-3.57 15.733-12.492 30.019-25.121 40.227-12.995 10.504-28.715 16.056-45.461 16.056s-32.466-5.552-45.461-16.056c-12.629-10.209-21.55-24.495-25.121-40.228m70.582 144.06c-22.628-12.499-37.183-32.724-43.272-42.492 9.294-3.995 15.272-13.013 15.272-23.178v-11.745c8.97 3.034 18.432 4.638 28 4.638s19.03-1.604 28-4.638v11.745c0 10.165 5.978 19.182 15.272 23.177-6.092 9.773-20.647 29.996-43.272 42.493"/>
  <path d="m219.118 278.503 33.502 10.051c8.152 2.446 13.63 9.808 13.63 18.319a7.5 7.5 0 0 0 15 0c0-15.187-9.773-28.322-24.319-32.686l-48.699-14.609-8.117-12.175a7.5 7.5 0 0 0-5.164-3.262 7.5 7.5 0 0 0-2.452.053v-11.141c19.895-14.732 33.355-37.684 35.266-63.805 10.392-3.128 17.984-12.787 17.984-24.185 0-7.378-3.316-14.371-8.875-19.125V74.063c0-14.222-7.203-27.525-19.008-35.497-3.945-14.828-17.245-25.253-32.866-25.253h-71c-38.392 0-69.625 31.233-69.625 69.625v43c-5.559 4.754-8.875 11.746-8.875 19.125 0 11.398 7.592 21.057 17.984 24.185 1.911 26.121 15.37 49.073 35.266 63.805v11.14a7.4 7.4 0 0 0-2.452-.053 7.5 7.5 0 0 0-5.164 3.262l-8.117 12.175-48.699 14.609C9.773 278.551 0 291.686 0 306.873v184.315a7.5 7.5 0 0 0 15 0V306.873c0-8.511 5.478-15.873 13.63-18.319l33.502-10.051a7.5 7.5 0 0 0 1.636 4.369l30.126 37.658c3.245 4.056 7.977 6.173 12.771 6.173 3.421 0 6.875-1.079 9.84-3.303l16.619-12.464v180.25a7.5 7.5 0 0 0 15 0v-180.25l16.619 12.464a16.35 16.35 0 0 0 9.84 3.303c4.794 0 9.527-2.118 12.771-6.173l30.126-37.658a7.48 7.48 0 0 0 1.638-4.369M68.25 162.813a7.5 7.5 0 0 0-7.5-7.5c-5.652 0-10.25-4.598-10.25-10.25 0-3.638 1.924-6.93 5.147-8.806.166-.097.317-.211.474-.319a10.2 10.2 0 0 1 4.629-1.125h10.474c7.779 0 14.532-5.536 16.057-13.163l5.457-27.282c.076-.381.275-.671.59-.862.248-.15.659-.293 1.209-.132 13.322 3.886 29.259 5.939 46.088 5.939 21.596 0 41.533-3.357 56.139-9.454a7.502 7.502 0 0 0-5.779-13.843c-12.631 5.272-30.987 8.296-50.361 8.296-15.207 0-30.083-1.896-41.887-5.339-4.449-1.297-9.254-.677-13.183 1.704a16.34 16.34 0 0 0-7.526 10.75l-5.457 27.281a1.38 1.38 0 0 1-1.348 1.105H60.75c-.459 0-.917.02-1.375.045v-36.92c0-30.12 24.505-54.625 54.625-54.625h71c9.408 0 17.313 6.78 18.796 16.121a7.5 7.5 0 0 0 3.723 5.357c8.855 4.994 14.355 14.294 14.355 24.272v55.712a7.5 7.5 0 0 0 3.728 6.482c3.223 1.876 5.147 5.168 5.147 8.806 0 5.652-4.598 10.25-10.25 10.25a7.5 7.5 0 0 0-7.5 7.5c0 39.908-32.467 72.375-72.375 72.375S68.25 202.72 68.25 162.813m72.375 87.375a86.8 86.8 0 0 0 36.875-8.182v13.44l-36.875 30.729-36.875-30.729v-13.44a86.8 86.8 0 0 0 36.875 8.182m-33.119 61.213a1.37 1.37 0 0 1-1.898-.241l-26.701-33.376 10.078-15.117 39.553 32.96zm68.136-.241c-.467.584-1.3.689-1.898.241l-21.032-15.773 39.553-32.96 10.078 15.117z"/>
  <path d="M114.089 368.313H114c-4.142 0-7.456 3.358-7.456 7.5s3.402 7.5 7.544 7.5a7.5 7.5 0 0 0 .001-15m0 71H114c-4.142 0-7.456 3.358-7.456 7.5s3.402 7.5 7.544 7.5a7.5 7.5 0 0 0 .001-15m0-35.5H114c-4.142 0-7.456 3.358-7.456 7.5s3.402 7.5 7.544 7.5a7.5 7.5 0 0 0 .001-15"/>
  <g/>
  <g/>
  <g/>
  <g/>
  <g/>
  <g/>
  <g/>
  <g/>
  <g/>
  <g/>
  <g/>
  <g/>
  <g/>
  <g/>
  <g/>
</svg>
