<?xml version="1.0" encoding="UTF-8" standalone="no"?>
<svg
   width="1223.8014"
   height="1366.8787"
   viewBox="0 0 1223.8014 1366.8787"
   version="1.1"
   id="svg116"
   sodipodi:docname="vecteezy_payment-methods-illustration-set-credit-card-for-online_12939068.svg"
   xmlns:inkscape="http://www.inkscape.org/namespaces/inkscape"
   xmlns:sodipodi="http://sodipodi.sourceforge.net/DTD/sodipodi-0.dtd"
   xmlns="http://www.w3.org/2000/svg"
   xmlns:svg="http://www.w3.org/2000/svg">
  <defs
     id="defs116" />
  <sodipodi:namedview
     id="namedview116"
     pagecolor="#ffffff"
     bordercolor="#000000"
     borderopacity="0.25"
     inkscape:showpageshadow="2"
     inkscape:pageopacity="0.0"
     inkscape:pagecheckerboard="0"
     inkscape:deskcolor="#d1d1d1">
    <inkscape:page
       x="0"
       y="0"
       width="1223.8014"
       height="1366.8787"
       id="page2"
       margin="0"
       bleed="0" />
  </sodipodi:namedview>
  <path
     fill-rule="nonzero"
     fill="#eceef4"
     fill-opacity="1"
     d="m 1219.9461,605.88369 c -10.3086,78.9375 -39.3007,175.55855 -128.5586,242.68755 -89.2617,67.1289 -238.76947,104.7617 -324.51947,150.7304 C 681.11413,1045.2704 404.57507,1447.0907 204.39538,1352.5204 -72.932752,1221.5087 -21.534312,694.13369 87.504748,439.8251 121.78991,359.86416 162.35632,222.704 232.79772,140.67666 303.23913,58.64541 391.08288,27.48525 455.67663,18.58681 845.53603,-77.90537 1268.7352,213.71572 1219.9461,605.88369"
     id="path3" />
  <path
     fill-rule="nonzero"
     fill="#2c5aa0"
     fill-opacity="1"
     d="m 862.97743,394.36416 -593.67971,1.1289 c 0,0 -2.54297,506.23438 -2.54297,690.99604 0,35.8555 24.15235,102.168 118.02344,102.168 l 361.20704,-0.074 c 95.4922,-0.016 116.9922,-70.4961 116.9922,-106.918 0,-206.87106 0,-687.30074 0,-687.30074"
     id="path4" />
  <path
     fill-rule="nonzero"
     fill="#2c5aa0"
     fill-opacity="1"
     d="m 862.97743,1048.7547 -593.67971,-1.1289 c 0,0 -2.54297,-506.23039 -2.54297,-690.99211 0,-35.85938 24.15235,-102.16797 118.02344,-102.16797 l 361.20704,0.0703 c 95.4922,0.0195 116.9922,70.5 116.9922,106.91797 0,206.8711 0,687.30071 0,687.30071"
     id="path5" />
  <path
     fill-rule="nonzero"
     fill="#ffffff"
     fill-opacity="1"
     d="m 758.76643,93.74306 c -45.64449,43.30079 -58.05464,-36.83984 -96.81246,-10.27734 -76.26953,52.26953 -80.09765,-14.53906 -119.9375,-9.85156 -30.71875,3.60937 -59.04687,56.55078 -88.1914,28.87109 -47.48438,-45.10156 -59.89453,-3.80078 -90.80469,0.82813 0,0 -1.77344,82.61328 -1.77344,201.46093 0,23.07032 16.83203,20.44141 82.25781,20.44141 l 233.71875,-0.0508 c 66.55473,-0.0117 81.54293,-0.0586 81.54293,-23.48828 0,-133.08203 0,-207.9336 0,-207.9336"
     id="path6" />
  <path
     fill-rule="nonzero"
     fill="#aaccff"
     fill-opacity="1"
     d="m 415.0946,253.97353 125.60156,0.83203 c 4.35547,0.0195 7.80859,-4.26953 7.74219,-9.62109 l -0.0156,-1.14062 c -0.0703,-5.35938 -3.63281,-9.69922 -7.98828,-9.71875 l -125.60156,-0.83204 c -4.35547,-0.0273 -7.80859,4.26172 -7.74219,9.6211 l 0.0156,1.14062 c 0.0703,5.35938 3.63281,9.69141 7.98828,9.71875"
     id="path7" />
  <path
     fill-rule="nonzero"
     fill="#aaccff"
     fill-opacity="1"
     d="m 414.60632,181.88369 44.93359,0.33984 c 4.35547,0.043 7.80859,-4.25781 7.74219,-9.61718 l -0.0156,-1.13282 c -0.0664,-5.35937 -3.6289,-9.6875 -7.98828,-9.73047 l -44.93359,-0.33984 c -4.35547,-0.0273 -7.8086,4.26172 -7.74219,9.62109 l 0.0156,1.14063 c 0.0664,5.35937 3.6289,9.69141 7.98828,9.71875"
     id="path8" />
  <path
     fill-rule="nonzero"
     fill="#aaccff"
     fill-opacity="1"
     d="m 595.4696,255.52431 52.30078,0.33985 c 4.35547,0.0312 7.80859,-4.25781 7.74219,-9.6211 l -0.0156,-1.13671 c -0.0664,-5.35157 -3.6289,-9.69141 -7.98828,-9.72266 l -52.30078,-0.33984 c -4.35547,-0.0274 -7.80859,4.26171 -7.74219,9.62109 l 0.0156,1.12891 c 0.0664,5.35937 3.63281,9.69921 7.98828,9.73046"
     id="path9" />
  <path
     fill-rule="nonzero"
     fill="#aaccff"
     fill-opacity="1"
     d="m 516.66491,181.88369 99.76953,0.33984 c 4.35938,0.0195 7.8086,-4.25781 7.74219,-9.61718 l -0.0156,-1.13282 c -0.0664,-5.35937 -3.6289,-9.70703 -7.98828,-9.73047 l -99.76953,-0.33984 c -4.35547,-0.0195 -7.80859,4.26172 -7.74219,9.62109 l 0.0156,1.14063 c 0.0664,5.35156 3.62891,9.69922 7.98828,9.71875"
     id="path10" />
  <path
     fill-rule="nonzero"
     fill="#ffffff"
     fill-opacity="1"
     d="m 767.59853,396.50478 -406.60549,0.33985 c -8.4336,0.0117 -15.19532,6.46875 -15.16016,14.48047 l 1.01562,220.33593 c 0.0312,8.01563 6.85547,14.45703 15.28907,14.44922 l 406.60936,-0.34375 c 8.4297,-0.004 15.1914,-6.46484 15.1602,-14.47656 L 782.88753,410.954 c -0.031,-8.01953 -6.8515,-14.46094 -15.289,-14.44922"
     id="path11" />
  <path
     fill-rule="nonzero"
     fill="#87aade"
     fill-opacity="1"
     d="m 460.76647,708.55166 -107.7539,0.0898 c -2.23438,0 -4.02735,1.71094 -4.01953,3.83594 l 0.26953,58.3906 c 0.008,2.125 1.8164,3.8321 4.05078,3.8321 l 107.75781,-0.094 c 2.23438,0 4.02734,-1.7109 4.01563,-3.8359 l -0.26954,-58.39066 c -0.008,-2.125 -1.8164,-3.83203 -4.05078,-3.82812"
     id="path12" />
  <path
     fill-rule="nonzero"
     fill="#87aade"
     fill-opacity="1"
     d="m 620.0946,708.55166 -107.75391,0.0898 c -2.23437,0 -4.02734,1.71094 -4.01953,3.83594 l 0.26953,58.3906 c 0.0117,2.125 1.81641,3.8321 4.05469,3.8321 l 107.75391,-0.094 c 2.23437,0 4.02343,-1.7109 4.01562,-3.8359 l -0.26953,-58.39066 c -0.008,-2.125 -1.81641,-3.83203 -4.05078,-3.82812"
     id="path13" />
  <path
     fill-rule="nonzero"
     fill="#87aade"
     fill-opacity="1"
     d="m 779.42663,708.55166 -107.75781,0.0898 c -2.23438,0 -4.02735,1.71094 -4.01563,3.83594 l 0.26563,58.3906 c 0.0117,2.125 1.82031,3.8321 4.05468,3.8321 l 107.75393,-0.094 c 2.2383,0 4.0273,-1.7109 4.0195,-3.8359 l -0.2695,-58.39066 c -0.012,-2.125 -1.8203,-3.83203 -4.0508,-3.82812"
     id="path14" />
  <path
     fill-rule="nonzero"
     fill="#87aade"
     fill-opacity="1"
     d="m 460.76647,823.95404 -107.7539,0.094 c -2.23438,0 -4.02735,1.711 -4.01953,3.836 l 0.26953,58.3906 c 0.008,2.1211 1.8164,3.832 4.05078,3.8281 l 107.75781,-0.09 c 2.23438,0 4.02734,-1.7149 4.01563,-3.836 l -0.26954,-58.3945 c -0.008,-2.1211 -1.8164,-3.832 -4.05078,-3.8281"
     id="path15" />
  <path
     fill-rule="nonzero"
     fill="#87aade"
     fill-opacity="1"
     d="m 620.0946,823.95404 -107.75391,0.094 c -2.23437,0 -4.02734,1.711 -4.01953,3.836 l 0.26953,58.3906 c 0.0117,2.1211 1.81641,3.832 4.05469,3.8281 l 107.75391,-0.09 c 2.23437,0 4.02343,-1.7149 4.01562,-3.836 l -0.26953,-58.3945 c -0.008,-2.1211 -1.81641,-3.832 -4.05078,-3.8281"
     id="path16" />
  <path
     fill-rule="nonzero"
     fill="#87aade"
     fill-opacity="1"
     d="m 779.42663,823.95404 -107.75781,0.094 c -2.23438,0 -4.02735,1.711 -4.01563,3.836 l 0.26563,58.3906 c 0.0117,2.1211 1.82031,3.832 4.05468,3.8281 l 107.75393,-0.09 c 2.2383,0 4.0273,-1.7149 4.0195,-3.836 l -0.2695,-58.3945 c -0.012,-2.1211 -1.8203,-3.832 -4.0508,-3.8281"
     id="path17" />
  <path
     fill-rule="nonzero"
     fill="#87aade"
     fill-opacity="1"
     d="m 460.76647,939.36024 -107.7539,0.09 c -2.23438,0 -4.02735,1.7148 -4.01953,3.8359 l 0.26953,58.39446 c 0.008,2.1211 1.8164,3.8282 4.05078,3.8282 l 107.75781,-0.09 c 2.23438,0 4.02734,-1.7148 4.01563,-3.8398 l -0.26954,-58.39066 c -0.008,-2.125 -1.8164,-3.832 -4.05078,-3.8281"
     id="path18" />
  <path
     fill-rule="nonzero"
     fill="#87aade"
     fill-opacity="1"
     d="m 620.0946,939.36024 -107.75391,0.09 c -2.23437,0 -4.02734,1.7148 -4.01953,3.8359 l 0.26953,58.39446 c 0.0117,2.1211 1.81641,3.8282 4.05469,3.8282 l 107.75391,-0.09 c 2.23437,0 4.02343,-1.7148 4.01562,-3.8398 l -0.26953,-58.39066 c -0.008,-2.125 -1.81641,-3.832 -4.05078,-3.8281"
     id="path19" />
  <path
     fill-rule="nonzero"
     fill="#87aade"
     fill-opacity="1"
     d="m 779.42663,939.36024 -107.75781,0.09 c -2.23438,0 -4.02735,1.7148 -4.01563,3.8359 l 0.26563,58.39446 c 0.0117,2.1211 1.82031,3.8282 4.05468,3.8282 l 107.75393,-0.09 c 2.2383,0 4.0273,-1.7148 4.0195,-3.8398 l -0.2695,-58.39066 c -0.012,-2.125 -1.8203,-3.832 -4.0508,-3.8281"
     id="path20" />
  <path
     fill-rule="nonzero"
     fill="#f7c560"
     fill-opacity="1"
     d="m 460.76647,1054.7626 -107.7539,0.094 c -2.23438,0 -4.02735,1.7109 -4.01953,3.8359 l 0.26953,58.3907 c 0.008,2.125 1.8164,3.832 4.05078,3.8281 l 107.75781,-0.09 c 2.23438,0 4.02734,-1.7149 4.01563,-3.836 l -0.26954,-58.3906 c -0.008,-2.125 -1.8164,-3.832 -4.05078,-3.832"
     id="path21" />
  <path
     fill-rule="nonzero"
     fill="#f7c560"
     fill-opacity="1"
     d="m 620.0946,1054.7626 -107.75391,0.094 c -2.23437,0 -4.02734,1.7109 -4.01953,3.8359 l 0.26953,58.3907 c 0.0117,2.125 1.81641,3.832 4.05469,3.8281 l 107.75391,-0.09 c 2.23437,0 4.02343,-1.7149 4.01562,-3.836 l -0.26953,-58.3906 c -0.008,-2.125 -1.81641,-3.832 -4.05078,-3.832"
     id="path22" />
  <path
     fill-rule="nonzero"
     fill="#87decd"
     fill-opacity="1"
     d="m 779.42663,1054.7626 -107.75781,0.094 c -2.23438,0 -4.02735,1.7109 -4.01563,3.8359 l 0.26563,58.3907 c 0.0117,2.125 1.82031,3.832 4.05468,3.8281 l 107.75393,-0.09 c 2.2383,0 4.0273,-1.7149 4.0195,-3.836 l -0.2695,-58.3906 c -0.012,-2.125 -1.8203,-3.832 -4.0508,-3.832"
     id="path23" />
  <path
     fill-rule="nonzero"
     fill="#f7c560"
     fill-opacity="1"
     d="m 659.55554,440.91494 c -3.75391,0.10937 -7.31641,1.67969 -9.9336,4.37109 L 530.11022,564.80556 480.14538,486.28603 c -2.72266,-2.80078 -6.46484,-4.38281 -10.37109,-4.38281 -12.96875,0.0117 -19.36719,15.78125 -10.06641,24.82031 l 56,88 c 0.0156,0.0195 0.0312,0.0312 0.0508,0.0508 2.32031,3.8125 6.26953,6.33204 10.69922,6.83985 4.42969,0.5 8.84766,-1.0586 11.96484,-4.25 l 131.6367,-131.64065 c 4.27344,-4.14843 5.5586,-10.50781 3.23438,-16 -2.32422,-5.48828 -7.77735,-8.98828 -13.73828,-8.80859"
     id="path24" />
  <path
     fill-rule="nonzero"
     fill="#3771c8"
     fill-opacity="1"
     d="m 354.70788,343.88369 418.12895,0.49219 c 6.3086,0.008 11.3086,-6.17188 11.2109,-13.92969 l -0.02,-1.65234 c -0.1016,-7.75782 -5.2618,-14.07032 -11.5703,-14.07813 l -418.12896,-0.5 c -6.3125,-0.0117 -11.3125,6.16797 -11.21484,13.9375 l 0.0234,1.64063 c 0.0976,7.76953 5.25781,14.08203 11.57031,14.08984"
     id="path25" />
  <path
     fill-rule="nonzero"
     fill="#80b3ff"
     fill-opacity="1"
     d="m 626.411,870.22744 499.8554,0.4414 c 10.3711,0 18.6797,8.2383 18.6407,18.457 l -1.25,280.97656 c -0.039,10.2148 -8.4219,18.4336 -18.7891,18.4258 l -499.86325,-0.4414 c -10.37109,0 -18.68359,-8.2422 -18.63671,-18.461 l 1.24609,-280.97256 c 0.0391,-10.2188 8.42578,-18.4375 18.79687,-18.4258"
     id="path26" />
  <path
     fill-rule="nonzero"
     fill="#2c5aa0"
     fill-opacity="1"
     d="m 1094.4852,913.79774 -47.8867,0.3164 c -6.1524,0.039 -11.1836,5.836 -11.2735,13 l -0.5898,46.1836 c -0.09,7.1641 4.793,12.8945 10.9531,12.8555 l 47.8867,-0.3125 c 6.1524,-0.043 11.1797,-5.8399 11.2735,-13.0039 l 0.5898,-46.1836 c 0.09,-7.1602 -4.7929,-12.8945 -10.9531,-12.8555"
     id="path27" />
  <path
     fill-rule="nonzero"
     fill="#ffffff"
     fill-opacity="1"
     d="m 939.32503,966.57124 -230.58981,0.8867 c -4.6875,0.02 -8.40234,-4.586 -8.32812,-10.3516 l 0.0156,-1.2226 c 0.0742,-5.7657 3.90625,-10.4454 8.59375,-10.461 l 230.58986,-0.8867 c 4.6914,-0.02 8.3984,4.5859 8.332,10.3516 l -0.023,1.2226 c -0.066,5.7656 -3.8985,10.4414 -8.5899,10.461"
     id="path28" />
  <path
     fill-rule="nonzero"
     fill="#ffffff"
     fill-opacity="1"
     d="m 1093.075,1027.6141 -65.8789,0.4336 c -5.5078,0.035 -10.0078,5.2305 -10.0976,11.6445 l -0.012,1.3633 c -0.082,6.4141 4.289,11.5508 9.8007,11.5157 l 65.8789,-0.4336 c 5.5118,-0.035 10.0118,-5.2305 10.0899,-11.6446 l 0.02,-1.3633 c 0.082,-6.414 -4.289,-11.5507 -9.8008,-11.5156"
     id="path29" />
  <path
     fill-rule="nonzero"
     fill="#ffffff"
     fill-opacity="1"
     d="m 969.40713,1028.4266 -65.8789,0.4297 c -5.5118,0.039 -10.0118,5.2305 -10.0899,11.6484 l -0.023,1.3633 c -0.078,6.4141 4.293,11.5508 9.8008,11.5157 l 65.8828,-0.4336 c 5.5078,-0.035 10.0078,-5.2305 10.0976,-11.6446 l 0.012,-1.3633 c 0.078,-6.4179 -4.293,-11.5507 -9.8008,-11.5156"
     id="path30" />
  <path
     fill-rule="nonzero"
     fill="#ffffff"
     fill-opacity="1"
     d="m 845.73523,1029.2352 -65.8789,0.4336 c -5.5078,0.035 -10.0078,5.2305 -10.0899,11.6445 l -0.019,1.3633 c -0.082,6.418 4.2891,11.5508 9.8008,11.5156 l 65.8789,-0.4296 c 5.5117,-0.039 10.0117,-5.2305 10.1016,-11.6485 l 0.01,-1.3633 c 0.09,-6.414 -4.2891,-11.5507 -9.8008,-11.5156"
     id="path31" />
  <path
     fill-rule="nonzero"
     fill="#ffffff"
     fill-opacity="1"
     d="m 722.07116,1030.0477 -65.88281,0.4336 c -5.50781,0.035 -10.01172,5.2305 -10.09375,11.6445 l -0.0195,1.3633 c -0.082,6.4141 4.28906,11.5508 9.80078,11.5156 l 65.88281,-0.4335 c 5.50777,-0.035 10.01957,-5.2305 10.09767,-11.6446 l 0.012,-1.3633 c 0.09,-6.4179 -4.293,-11.5507 -9.79687,-11.5156"
     id="path32" />
  <path
     fill-rule="nonzero"
     fill="#2c5aa0"
     fill-opacity="1"
     d="m 714.65319,1119.9383 c -0.0898,6.8907 -2.99609,13.5196 -8.08203,18.4258 -5.08203,4.9063 -11.92969,7.6875 -19.03516,7.7344 -14.79296,0.098 -26.63671,-11.457 -26.45312,-25.8086 0.18359,-14.3516 12.32031,-26.0625 27.11328,-26.1602 7.10547,-0.043 13.88281,2.6485 18.84375,7.4883 4.96094,4.8399 7.69922,11.4297 7.61328,18.3203"
     id="path33" />
  <path
     fill-rule="nonzero"
     fill="#d5e5ff"
     fill-opacity="1"
     d="m 151.3485,746.98524 -28.90234,-23.34764 19.71094,-19.64454 11.03125,5.97657 -1.83985,37.01561"
     id="path34" />
  <path
     fill-rule="nonzero"
     fill="#d5e5ff"
     fill-opacity="1"
     d="m 39.227408,635.33291 54.97656,128.14843 93.593752,-77.10156 z m 0,0"
     id="path35" />
  <path
     fill-rule="nonzero"
     fill="#d5e5ff"
     fill-opacity="1"
     d="m 123.19616,694.88369 -28.992192,68.59765 93.593752,-77.10156 z m 0,0"
     id="path36" />
  <path
     fill-rule="nonzero"
     fill="#d5e5ff"
     fill-opacity="1"
     d="M 39.231318,635.33291 165.57897,701.59463 151.3485,746.98524 146.02429,720.53213 39.231318,635.33291"
     id="path37" />
  <path
     fill-rule="nonzero"
     fill="#5599ff"
     fill-opacity="1"
     d="m 131.14147,1192.4188 c -0.0547,4.2617 -1.85547,8.3594 -5,11.3945 -3.14453,3.0352 -7.38281,4.7579 -11.77734,4.7852 -9.15234,0.062 -16.476562,-7.0859 -16.367192,-15.9648 0.11328,-8.879 7.625002,-16.1211 16.777352,-16.1836 4.39453,-0.027 8.58593,1.6367 11.65625,4.6328 3.07031,2.9922 4.76171,7.0703 4.71093,11.3359"
     id="path38" />
  <path
     fill-rule="nonzero"
     fill="#5599ff"
     fill-opacity="1"
     d="m 1064.5282,395.15322 c -0.051,4.27344 -1.8516,8.37109 -5,11.40234 -3.1407,3.03907 -7.3828,4.75782 -11.7735,4.78907 -9.1484,0.0586 -16.4765,-7.08985 -16.3672,-15.96875 0.1094,-8.88282 7.6172,-16.1211 16.7774,-16.17969 4.3906,-0.0312 8.582,1.64062 11.6523,4.62891 3.0703,2.98828 4.7696,7.07031 4.711,11.32812"
     id="path88" />
</svg>
