<?xml version="1.0" encoding="UTF-8" standalone="no"?>
<svg
   height="800"
   width="800"
   viewBox="0 0 480 480"
   xml:space="preserve"
   version="1.1"
   id="svg10"
   sodipodi:docname="payment-6.svg"
   inkscape:version="1.4.3 (0d15f75, 2025-12-25)"
   xmlns:inkscape="http://www.inkscape.org/namespaces/inkscape"
   xmlns:sodipodi="http://sodipodi.sourceforge.net/DTD/sodipodi-0.dtd"
   xmlns="http://www.w3.org/2000/svg"
   xmlns:svg="http://www.w3.org/2000/svg"><defs
   id="defs10" /><sodipodi:namedview
   id="namedview10"
   pagecolor="#ffffff"
   bordercolor="#000000"
   borderopacity="0.25"
   inkscape:showpageshadow="2"
   inkscape:pageopacity="0.0"
   inkscape:pagecheckerboard="0"
   inkscape:deskcolor="#d1d1d1"
   inkscape:zoom="2.26875"
   inkscape:cx="400"
   inkscape:cy="400"
   inkscape:window-width="3840"
   inkscape:window-height="2054"
   inkscape:window-x="-11"
   inkscape:window-y="-11"
   inkscape:window-maximized="1"
   inkscape:current-layer="svg10" />
  <path
   style="fill:#f5ba46"
   d="M384 264H40c-17.672 0-32-14.328-32-32V40C8 22.328 22.328 8 40 8h344c17.672 0 32 14.328 32 32v192c0 17.672-14.328 32-32 32"
   id="path1" />
  <path
   d="M384 0H40C17.944 0 0 17.944 0 40v192c0 22.056 17.944 40 40 40h344c22.056 0 40-17.944 40-40V40c0-22.056-17.944-40-40-40M40 16h344c13.232 0 24 10.768 24 24v32H16V40c0-13.232 10.768-24 24-24m344 240H40c-13.232 0-24-10.768-24-24V128h392v104c0 13.232-10.768 24-24 24"
   id="path2" />
  <path
   d="M368 152h-64c-4.424 0-8 3.584-8 8s3.576 8 8 8h64c4.424 0 8-3.584 8-8s-3.576-8-8-8m-112 0h-40c-4.416 0-8 3.584-8 8s3.584 8 8 8h40c4.424 0 8-3.584 8-8s-3.576-8-8-8"
   id="path3" />
  <path
   style="fill:#d84452"
   d="M440 472H96c-17.672 0-32-14.328-32-32V248c0-17.672 14.328-32 32-32h344c17.672 0 32 14.328 32 32v192c0 17.672-14.328 32-32 32"
   id="path4" />
  <path
   d="M440 480H96c-22.056 0-40-17.944-40-40V248c0-22.056 17.944-40 40-40h344c22.056 0 40 17.944 40 40v192c0 22.056-17.944 40-40 40M96 224c-13.232 0-24 10.768-24 24v192c0 13.232 10.768 24 24 24h344c13.232 0 24-10.768 24-24V248c0-13.232-10.768-24-24-24z"
   id="path5" />
  <circle
   style="fill:#5599ff"
   cx="275.6"
   cy="345.2"
   r="61.736"
   id="circle5" />
  <path
   d="M275.6 414.936c-38.456 0-69.736-31.28-69.736-69.736s31.288-69.736 69.736-69.736 69.736 31.28 69.736 69.736-31.28 69.736-69.736 69.736m0-123.472c-29.632 0-53.736 24.104-53.736 53.736s24.104 53.736 53.736 53.736 53.736-24.104 53.736-53.736-24.104-53.736-53.736-53.736"
   id="path6" />
  <circle
   style="fill:#f7c86b"
   cx="371.6"
   cy="345.2"
   r="61.736"
   id="circle6" />
  <path
   d="M371.6 414.936c-38.456 0-69.736-31.28-69.736-69.736s31.28-69.736 69.736-69.736 69.736 31.28 69.736 69.736-31.28 69.736-69.736 69.736m0-123.472c-29.632 0-53.736 24.104-53.736 53.736s24.104 53.736 53.736 53.736 53.736-24.104 53.736-53.736-24.104-53.736-53.736-53.736"
   id="path7" />
  <path
   d="M283.504 366.208a7.99 7.99 0 0 1-7-4.112l-7.896-14.208A7.998 7.998 0 0 1 275.6 336h58.96l-.96-1.112c-2.88-3.344-2.504-8.4.84-11.28 3.328-2.872 8.4-2.52 11.28.84l12.336 14.336c2.04 2.368 2.512 5.712 1.208 8.552S355.128 352 352 352h-62.8l1.288 2.32c2.152 3.856.76 8.728-3.104 10.88a8 8 0 0 1-3.88 1.008"
   id="path8" />
  <path
   style="fill:#f8f8fa"
   d="M176 368c0 8.84-7.16 16-16 16h-40c-8.84 0-16-7.16-16-16v-40c0-8.84 7.16-16 16-16h40c8.84 0 16 7.16 16 16z"
   id="path9" />
  <path
   d="M160 304h-40c-13.232 0-24 10.768-24 24v40c0 13.232 10.768 24 24 24h40c13.232 0 24-10.768 24-24v-40c0-13.232-10.768-24-24-24m8 24v8h-24v-16h16c4.408 0 8 3.592 8 8m-48-8h8v24h-16v-16c0-4.408 3.592-8 8-8m-8 48v-8h16v16h-8c-4.408 0-8-3.592-8-8m48 8h-16v-24h24v16c0 4.408-3.592 8-8 8m8-120h-64c-4.416 0-8-3.584-8-8s3.584-8 8-8h64c4.416 0 8 3.584 8 8s-3.584 8-8 8m48 0h-16c-4.416 0-8-3.584-8-8s3.584-8 8-8h16c4.416 0 8 3.584 8 8s-3.584 8-8 8m160 192h-64c-4.424 0-8-3.584-8-8s3.576-8 8-8h64c4.424 0 8 3.584 8 8s-3.576 8-8 8m48 0h-16c-4.424 0-8-3.584-8-8s3.576-8 8-8h16c4.424 0 8 3.584 8 8s-3.576 8-8 8"
   id="path10" />
</svg>
