<svg xmlns="http://www.w3.org/2000/svg" viewBox="0 0 512 512" xml:space="preserve">
  <path style="fill:#2c3e50" d="M64.736 0v512l76.192-64.224 62.112 50.08 64.096-50.08 61.2 58.336 62.8-58.336L447.264 512V0z"/>
  <path style="fill:#32bea6" d="M244.688 238.672v-20.24c-14.288-.64-28.144-4.48-36.256-9.168l6.4-24.96c8.96 4.896 21.536 9.376 35.408 9.376 12.16 0 20.48-4.688 20.48-13.216 0-8.112-6.832-13.232-22.608-18.56-22.816-7.68-38.4-18.336-38.4-39.024 0-18.768 13.232-33.488 36.048-37.968V64.656h20.896v18.768c14.288.64 23.888 3.616 30.928 7.04l-6.176 24.096c-5.536-2.352-15.344-7.264-30.72-7.264-13.856 0-18.336 5.968-18.336 11.952 0 7.04 7.472 11.52 25.6 18.336 25.376 8.96 35.616 20.688 35.616 39.888 0 18.976-13.44 35.184-37.968 39.456v21.744z"/>
  <path style="fill:#fff" d="M152 298.832h208v16H152zm0 59.296h208v16H152z"/>
</svg>
