<svg height="800" width="800" xmlns="http://www.w3.org/2000/svg" viewBox="0 0 480 480" xml:space="preserve">
  <path style="fill:#f8f8fa" d="M456 472H184c-8.84 0-16-7.16-16-16V64c0-8.84 7.16-16 16-16h272c8.84 0 16 7.16 16 16v392c0 8.84-7.16 16-16 16"/>
  <path d="M456 480H184c-13.232 0-24-10.768-24-24V64c0-13.232 10.768-24 24-24h272c13.232 0 24 10.768 24 24v392c0 13.232-10.768 24-24 24M184 56c-4.408 0-8 3.592-8 8v392c0 4.408 3.592 8 8 8h272c4.408 0 8-3.592 8-8V64c0-4.408-3.592-8-8-8z"/>
  <path style="fill:#d84452" d="M424 96H216V40c0-17.672 14.328-32 32-32h144c17.672 0 32 14.328 32 32z"/>
  <path d="M424 104H216c-4.416 0-8-3.584-8-8V40c0-22.056 17.944-40 40-40h144c22.056 0 40 17.944 40 40v56c0 4.416-3.584 8-8 8M224 88h192V40c0-13.232-10.768-24-24-24H248c-13.232 0-24 10.768-24 24zm137.424 296h-144c-4.416 0-8-3.584-8-8s3.584-8 8-8h144c4.416 0 8 3.584 8 8s-3.584 8-8 8m64.008 0h-24c-4.416 0-8-3.584-8-8s3.584-8 8-8h24c4.416 0 8 3.584 8 8s-3.584 8-8 8m-168 56h-40c-4.416 0-8-3.584-8-8s3.584-8 8-8h40c4.416 0 8 3.584 8 8s-3.584 8-8 8m168 0h-128c-4.416 0-8-3.584-8-8s3.584-8 8-8h128c4.416 0 8 3.584 8 8s-3.584 8-8 8m-64.008-168h-144c-4.416 0-8-3.584-8-8s3.584-8 8-8h144c4.416 0 8 3.584 8 8s-3.584 8-8 8m64.008 0h-24c-4.416 0-8-3.584-8-8s3.584-8 8-8h24c4.416 0 8 3.584 8 8s-3.584 8-8 8m-168 56h-40c-4.416 0-8-3.584-8-8s3.584-8 8-8h40c4.416 0 8 3.584 8 8s-3.584 8-8 8m168 0h-128c-4.416 0-8-3.584-8-8s3.584-8 8-8h128c4.416 0 8 3.584 8 8s-3.584 8-8 8m-64.008-160h-144c-4.416 0-8-3.584-8-8s3.584-8 8-8h144c4.416 0 8 3.584 8 8s-3.584 8-8 8m64.008 0h-24c-4.416 0-8-3.584-8-8s3.584-8 8-8h24c4.416 0 8 3.584 8 8s-3.584 8-8 8m-168 56h-40c-4.416 0-8-3.584-8-8s3.584-8 8-8h40c4.416 0 8 3.584 8 8s-3.584 8-8 8m168 0h-128c-4.416 0-8-3.584-8-8s3.584-8 8-8h128c4.416 0 8 3.584 8 8s-3.584 8-8 8"/>
  <path style="fill:#f5ba46" d="M216 472H40c-17.672 0-32-14.328-32-32V216c0-17.672 14.328-32 32-32h176c17.672 0 32 14.328 32 32v224c0 17.672-14.328 32-32 32"/>
  <path style="fill:#f8f8fa" d="M192 280H64c-8.84 0-16-7.16-16-16v-24c0-8.84 7.16-16 16-16h128c8.84 0 16 7.16 16 16v24c0 8.84-7.16 16-16 16"/>
  <path d="M216 176H40c-22.056 0-40 17.944-40 40v224c0 22.056 17.944 40 40 40h176c22.056 0 40-17.944 40-40V216c0-22.056-17.944-40-40-40m24 264c0 13.232-10.768 24-24 24H40c-13.232 0-24-10.768-24-24V216c0-13.232 10.768-24 24-24h176c13.232 0 24 10.768 24 24z"/>
  <path d="M64 288h128c13.232 0 24-10.768 24-24v-24c0-13.232-10.768-24-24-24H64c-13.232 0-24 10.768-24 24v24c0 13.232 10.768 24 24 24m-8-48c0-4.408 3.592-8 8-8h128c4.408 0 8 3.592 8 8v24c0 4.408-3.592 8-8 8H64c-4.408 0-8-3.592-8-8zm153.432 80h-16c-4.416 0-8 3.584-8 8s3.584 8 8 8h16c4.416 0 8-3.584 8-8s-3.584-8-8-8m0 48h-16c-4.416 0-8 3.584-8 8s3.584 8 8 8h16c4.416 0 8-3.584 8-8s-3.584-8-8-8m0 48h-16c-4.416 0-8 3.584-8 8s3.584 8 8 8h16c4.416 0 8-3.584 8-8s-3.584-8-8-8m-48-96h-16c-4.416 0-8 3.584-8 8s3.584 8 8 8h16c4.416 0 8-3.584 8-8s-3.584-8-8-8m-48 0h-16c-4.416 0-8 3.584-8 8s3.584 8 8 8h16c4.416 0 8-3.584 8-8s-3.584-8-8-8m-48 0h-16c-4.416 0-8 3.584-8 8s3.584 8 8 8h16c4.416 0 8-3.584 8-8s-3.584-8-8-8m96 48h-16c-4.416 0-8 3.584-8 8s3.584 8 8 8h16c4.416 0 8-3.584 8-8s-3.584-8-8-8m-48 0h-16c-4.416 0-8 3.584-8 8s3.584 8 8 8h16c4.416 0 8-3.584 8-8s-3.584-8-8-8m-48 0h-16c-4.416 0-8 3.584-8 8s3.584 8 8 8h16c4.416 0 8-3.584 8-8s-3.584-8-8-8m96 48h-16c-4.416 0-8 3.584-8 8s3.584 8 8 8h16c4.416 0 8-3.584 8-8s-3.584-8-8-8m-48 0h-16c-4.416 0-8 3.584-8 8s3.584 8 8 8h16c4.416 0 8-3.584 8-8s-3.584-8-8-8m-48 0h-16c-4.416 0-8 3.584-8 8s3.584 8 8 8h16c4.416 0 8-3.584 8-8s-3.584-8-8-8M64 40H48V24c0-4.416-3.584-8-8-8s-8 3.584-8 8v16H16c-4.416 0-8 3.584-8 8s3.584 8 8 8h16v16c0 4.416 3.584 8 8 8s8-3.584 8-8V56h16c4.416 0 8-3.584 8-8s-3.584-8-8-8m51.312 80 10.344-10.344c3.128-3.128 3.128-8.184 0-11.312s-8.184-3.128-11.312 0L104 108.688 93.656 98.344c-3.128-3.128-8.184-3.128-11.312 0s-3.128 8.184 0 11.312L92.688 120l-10.344 10.344a7.99 7.99 0 0 0 0 11.312C83.904 143.216 85.952 144 88 144s4.096-.784 5.656-2.344L104 131.312l10.344 10.344c1.56 1.56 3.608 2.344 5.656 2.344s4.096-.784 5.656-2.344a7.99 7.99 0 0 0 0-11.312z"/>
  <circle style="fill:#f8f8fa" cx="324" cy="52" r="20"/>
  <circle style="fill:#f8f8fa" cx="324" cy="52" r="20"/>
  <path d="M324 80c-15.44 0-28-12.56-28-28s12.56-28 28-28 28 12.56 28 28-12.56 28-28 28m0-40c-6.616 0-12 5.384-12 12s5.384 12 12 12 12-5.384 12-12-5.384-12-12-12"/>
</svg>
