<?xml version="1.0" encoding="UTF-8" standalone="no"?>
<svg
   width="1356.7428"
   height="1349.5322"
   viewBox="0 0 1356.7428 1349.5322"
   version="1.1"
   id="svg116"
   sodipodi:docname="vecteezy_payment-methods-illustration-set-credit-card-for-online_12939068.svg"
   xmlns:inkscape="http://www.inkscape.org/namespaces/inkscape"
   xmlns:sodipodi="http://sodipodi.sourceforge.net/DTD/sodipodi-0.dtd"
   xmlns="http://www.w3.org/2000/svg"
   xmlns:svg="http://www.w3.org/2000/svg">
  <defs
     id="defs116" />
  <sodipodi:namedview
     id="namedview116"
     pagecolor="#ffffff"
     bordercolor="#000000"
     borderopacity="0.25"
     inkscape:showpageshadow="2"
     inkscape:pageopacity="0.0"
     inkscape:pagecheckerboard="0"
     inkscape:deskcolor="#d1d1d1">
    <inkscape:page
       x="0"
       y="0"
       width="1356.7428"
       height="1349.5322"
       id="page2"
       margin="0"
       bleed="0" />
  </sodipodi:namedview>
  <path
     fill-rule="nonzero"
     fill="#eceef4"
     fill-opacity="1"
     d="m 575.92931,34.730218 c -71.75,29.25782 -155.4492,80.308602 -196.1602,180.050782 -40.6992,99.73829 -38.4101,248.16797 -60.0703,339.37891 -21.6601,91.21094 -67.2578,125.18359 -119.1172,153.59375 -51.8633,28.41797 -109.960896,51.26953 -150.160096,88.52737 -40.2032,37.2578 -62.4922,88.9219 -43.6211004,161.2539 18.8789004,72.33197 78.9297004,165.33197 158.7108964,204.61327 79.7774,39.2812 179.2969,24.8398 258.207,62.2226 78.9102,37.3828 117.3711,56.0352 177.8203,97.8946 60.461,41.8593 123.0704,36.3632 165.3008,-22.3204 42.2422,-58.6875 83.9492,-100.0117 112.8086,-156 28.8633,-55.9921 64.7227,-56.1015 138.55079,-97.3789 73.832,-41.2773 185.6328,-123.72257 245.1328,-209.67567 59.4883,-85.95708 66.668,-175.42193 58.7383,-237.71099 C 1314.5582,212.53882 933.05041,-108.37915 575.94101,34.730218"
     id="path2" />
  <path
     fill-rule="nonzero"
     fill="#3771c8"
     fill-opacity="1"
     d="m 421.933,427.00572 v 74 c -0.09,7.57032 6.0196,13.75782 13.5977,13.75782 7.5703,0 13.6914,-6.1875 13.6016,-13.75782 v -101.1914 24.87109 c 0.1679,-12.41015 -14.9922,-18.55078 -23.5,-9.51953 -2.4219,2.57031 -3.75,5.98047 -3.6993,9.50781 v -24.85937 27.1914"
     id="path89" />
  <path
     fill-rule="nonzero"
     fill="#3771c8"
     fill-opacity="1"
     d="m 421.933,315.60338 v 73.99219 c -0.09,7.57031 6.0196,13.75781 13.5977,13.75781 7.5703,0 13.6914,-6.1875 13.6016,-13.75781 v -101.19141 24.8711 c 0.1679,-12.39844 -14.9922,-18.55079 -23.5,-9.51954 -2.4219,2.57032 -3.75,5.98829 -3.6993,9.51954 v -24.8711 27.19922"
     id="path90" />
  <path
     fill-rule="nonzero"
     fill="#3771c8"
     fill-opacity="1"
     d="m 979.82367,413.56432 v 84.51172 c -0.094,7.57812 6.0195,13.76953 13.5976,13.76953 7.57033,0 13.69143,-6.19141 13.60163,-13.76953 V 312.38463 c 0.168,-12.41016 -14.99223,-18.55078 -23.50003,-9.53125 -2.4219,2.58203 -3.75,5.99219 -3.6992,9.52344 v 101.1875"
     id="path91" />
  <path
     fill-rule="nonzero"
     fill="#3771c8"
     fill-opacity="1"
     d="m 488.2104,206.96666 h 450.42187 c 30.3906,0 54.8476,28.95703 54.8476,64.9375 v 964.80074 c 0,35.9805 -24.457,64.9454 -54.8476,64.9454 H 488.2104 c -30.3984,0 -54.8594,-28.9649 -54.8594,-64.9454 V 271.90416 c 0,-35.98047 24.461,-64.9375 54.8594,-64.9375"
     id="path92" />
  <path
     fill-rule="nonzero"
     fill="#3771c8"
     fill-opacity="1"
     d="m 504.433,227.1151 h 417.96877 c 28.1992,0 50.8984,27.89844 50.8984,62.55859 v 929.26561 c 0,34.6602 -22.6992,62.5586 -50.8984,62.5586 H 504.433 c -28.2031,0 -50.9023,-27.8984 -50.9023,-62.5586 V 289.67369 c 0,-34.66015 22.6992,-62.55859 50.9023,-62.55859"
     id="path93" />
  <path
     fill-rule="nonzero"
     fill="#ffffff"
     fill-opacity="1"
     d="m 1089.5502,808.662 111.6016,0.094 c 2.3203,0 4.1719,1.7735 4.1602,3.9727 l -0.2813,60.4805 c -0.01,2.1953 -1.8789,3.9648 -4.1875,3.9648 l -111.6016,-0.094 c -2.3203,0 -4.1796,-1.7773 -4.1679,-3.9765 l 0.2773,-60.4766 c 0.012,-2.1992 1.8789,-3.9648 4.1992,-3.9648"
     id="path94" />
  <path
     fill-rule="nonzero"
     fill="#87decd"
     fill-opacity="1"
     d="m 1089.5502,928.1893 111.6016,0.094 c 2.3203,0 4.1719,1.7734 4.1602,3.9726 l -0.2813,60.4766 c -0.01,2.1992 -1.8789,3.9687 -4.1875,3.9687 l -111.6016,-0.098 c -2.3203,0 -4.1796,-1.7735 -4.1679,-3.9727 l 0.2773,-60.4765 c 0.012,-2.1993 1.8789,-3.9688 4.1992,-3.9649"
     id="path95" />
  <path
     fill-rule="nonzero"
     fill="#80b3ff"
     fill-opacity="1"
     d="m 1248.0307,737.06041 -517.707,0.45703 c -10.7422,0.004 -19.3516,8.53516 -19.3008,19.11719 l 1.2891,291.00777 c 0.039,10.5821 8.7304,19.0938 19.4687,19.086 l 517.6992,-0.457 c 10.7422,0 19.3516,-8.5391 19.3008,-19.1211 l -1.2773,-291.00395 c -0.051,-10.58594 -8.7305,-19.09375 -19.4727,-19.08594"
     id="path96" />
  <path
     fill-rule="nonzero"
     fill="#5599ff"
     fill-opacity="1"
     d="m 763.2299,782.18932 49.6016,0.32422 c 6.3789,0.043 11.582,6.04687 11.6797,13.46484 l 0.6093,47.83592 c 0.09,7.418 -4.957,13.3555 -11.3398,13.3125 l -49.5977,-0.3242 c -6.371,-0.043 -11.582,-6.0469 -11.6718,-13.4648 l -0.6094,-47.83208 c -0.1016,-7.41796 4.9609,-13.35937 11.3281,-13.3164"
     id="path97" />
  <path
     fill-rule="nonzero"
     fill="#ffffff"
     fill-opacity="1"
     d="m 767.433,1007.0253 238.8204,0.9179 c 4.8593,0.02 8.707,-4.75 8.6289,-10.7187 l -0.02,-1.2696 c -0.07,-5.9687 -4.039,-10.8164 -8.9023,-10.832 l -238.8203,-0.918 c -4.8594,-0.019 -8.6992,4.7461 -8.6289,10.7188 l 0.019,1.2656 c 0.07,5.9727 4.043,10.8164 8.9023,10.836"
     id="path98" />
  <path
     fill-rule="nonzero"
     fill="#ffffff"
     fill-opacity="1"
     d="m 764.7026,900.0682 68.2304,0.4492 c 5.7071,0.035 10.3672,5.4141 10.4571,12.0625 l 0.012,1.4102 c 0.09,6.6445 -4.4414,11.9648 -10.1484,11.9258 l -68.2305,-0.4453 c -5.7109,-0.039 -10.3711,-5.418 -10.4609,-12.0625 l -0.02,-1.4141 c -0.082,-6.6445 4.4492,-11.9648 10.1602,-11.9258"
     id="path99" />
  <path
     fill-rule="nonzero"
     fill="#ffffff"
     fill-opacity="1"
     d="m 892.7807,900.9081 68.23047,0.4492 c 5.7109,0.035 10.3789,5.418 10.4609,12.0625 l 0.019,1.4101 c 0.082,6.6446 -4.4492,11.9649 -10.1484,11.9258 l -68.24217,-0.4453 c -5.6992,-0.039 -10.3711,-5.418 -10.4492,-12.0625 l -0.02,-1.4101 c -0.09,-6.6485 4.4414,-11.9649 10.1484,-11.9297"
     id="path100" />
  <path
     fill-rule="nonzero"
     fill="#ffffff"
     fill-opacity="1"
     d="m 1020.8705,901.7479 68.2305,0.4492 c 5.711,0.035 10.3711,5.4141 10.4492,12.0625 l 0.024,1.4102 c 0.09,6.6445 -4.4414,11.9648 -10.1524,11.9258 l -68.2304,-0.4453 c -5.711,-0.039 -10.3672,-5.418 -10.461,-12.0625 l -0.019,-1.4102 c -0.078,-6.6484 4.4531,-11.9648 10.1601,-11.9297"
     id="path101" />
  <path
     fill-rule="nonzero"
     fill="#ffffff"
     fill-opacity="1"
     d="m 1148.9526,902.5878 68.2304,0.4492 c 5.7071,0.039 10.379,5.4179 10.4571,12.0625 l 0.023,1.4101 c 0.078,6.6446 -4.4531,11.9649 -10.1523,11.9258 l -68.2383,-0.4453 c -5.6992,-0.039 -10.3711,-5.418 -10.4492,-12.0625 l -0.024,-1.4141 c -0.078,-6.6406 4.4414,-11.9609 10.1524,-11.9257"
     id="path102" />
  <path
     fill-rule="nonzero"
     fill="#5599ff"
     fill-opacity="1"
     d="m 1156.6323,995.6893 c 0.098,7.1406 3.1093,14.0039 8.3711,19.086 5.2695,5.0781 12.3593,7.9609 19.7187,8.0117 15.3203,0.098 27.5899,-11.8672 27.3984,-26.7305 -0.1875,-14.8633 -12.7695,-26.9961 -28.0898,-27.0937 -7.3477,-0.051 -14.3672,2.7382 -19.5078,7.7539 -5.1406,5.0117 -7.9805,11.8359 -7.8906,18.9726"
     id="path103" />
  <path
     fill-rule="nonzero"
     fill="#ffffff"
     fill-opacity="1"
     d="m 1020.8705,901.7479 68.2305,0.4492 c 5.711,0.035 10.3711,5.4141 10.4492,12.0625 l 0.024,1.4102 c 0.09,6.6445 -4.4414,11.9648 -10.1524,11.9258 l -68.2304,-0.4453 c -5.711,-0.039 -10.3672,-5.418 -10.461,-12.0625 l -0.019,-1.4102 c -0.078,-6.6484 4.4531,-11.9648 10.1601,-11.9297"
     id="path104" />
  <path
     fill-rule="nonzero"
     fill="#aaccff"
     fill-opacity="1"
     d="m 1189.9526,585.3651 c -12.4492,-0.0312 -24.9922,3.67969 -34.6211,11.55859 -9.6406,7.8711 -16.0586,20.10157 -15.9688,35.48047 l 0.3008,53.75781 22.957,0.0273 -0.2968,-49.83594 c -0.07,-12.39844 4.6484,-18.1875 11.8281,-24.06641 7.1797,-5.87109 24.4219,-5.76171 31.7109,0.0977 7.2891,5.85938 12.0703,11.53906 12.1485,23.5 l 0.3125,50.48438 22.957,0.0273 -0.3086,-54.63281 c -0.09,-15.01953 -6.6719,-27.02735 -16.3516,-34.8086 -9.6796,-7.78906 -22.207,-11.55078 -34.6679,-11.58984"
     id="path105" />
  <path
     fill-rule="nonzero"
     fill="#3771c8"
     fill-opacity="1"
     d="m 1113.0424,689.72838 c 0,24.07031 -0.012,70.75391 -0.012,70.75391 0.2617,84.46871 152.1602,84.61721 151.9727,2.54687 0,0 -0.211,-23.79687 -0.211,-79.96094 0,-14.35156 -7.75,-21.29296 -16.7617,-21.21484 -23.8789,0.23047 -92.7891,-0.6875 -116.6602,-0.6875 -8.5,0 -18.3281,7.96094 -18.3281,17.62109 v 10.94141"
     id="path106" />
  <path
     fill-rule="nonzero"
     fill="#aaccff"
     fill-opacity="1"
     d="m 1190.101,708.05651 c -8.6875,-0.0234 -15.7695,6.89843 -15.8203,15.46093 -0.019,4.70703 2.1211,9.16407 5.832,12.11328 l -7,32.66797 c -0.031,0.16797 0.1407,0.3125 0.3203,0.3125 l 32.0391,0.0977 c 0.1797,0 0.3516,-0.14453 0.3203,-0.3125 l -5.9804,-32.74609 c 3.7109,-2.92969 5.8906,-7.35547 5.9179,-12.03907 0.051,-8.5625 -6.9492,-15.52734 -15.6289,-15.55468"
     id="path107" />
  <path
     fill-rule="nonzero"
     fill="#ffffff"
     fill-opacity="1"
     d="m 551.3901,465.77526 c 0,89.48046 72.5429,162.01953 162.0312,162.01953 89.4805,0 162.0196,-72.53907 162.0196,-162.01953 0,-89.48829 -72.5391,-162.03125 -162.0196,-162.03125 -89.4883,0 -162.0312,72.54296 -162.0312,162.03125"
     id="path112" />
  <path
     fill-rule="nonzero"
     fill="#f7c560"
     fill-opacity="1"
     d="m 798.7924,393.28697 c -3.3789,0.0977 -6.5898,1.50782 -8.9492,3.9375 L 682.0737,504.98619 637.0229,434.19322 c -2.4492,-2.52734 -5.832,-3.94921 -9.3516,-3.94921 -11.6992,0.0117 -17.4609,14.22265 -9.0781,22.38281 l 50.5,79.34765 c 0.01,0.0117 0.027,0.0195 0.039,0.0391 2.0976,3.42968 5.6601,5.71093 9.6484,6.16015 4,0.46094 7.9805,-0.94922 10.793,-3.82031 L 808.2611,415.65419 c 3.8593,-3.75 5.0195,-9.48047 2.9218,-14.42969 -2.0898,-4.94921 -7.0117,-8.09765 -12.3906,-7.9375"
     id="path113" />
  <path
     fill-rule="nonzero"
     fill="#5599ff"
     fill-opacity="1"
     d="m 247.89801,341.5896 c -0.059,4.25781 -1.8593,8.35937 -5,11.39844 -3.1484,3.03125 -7.3789,4.75 -11.7773,4.78125 -9.1524,0.0586 -16.4805,-7.08985 -16.3711,-15.96094 0.1211,-8.87891 7.6289,-16.12891 16.7812,-16.1875 4.3907,-0.0312 8.5899,1.63672 11.6602,4.6289 3.0703,3 4.7578,7.07032 4.707,11.33985"
     id="path114" />
  <path
     fill-rule="nonzero"
     fill="#5599ff"
     fill-opacity="1"
     d="m 1356.7418,269.64819 c -0.051,4.26172 -1.8516,8.35938 -5,11.40235 -3.1407,3.02734 -7.3828,4.75 -11.7813,4.77734 -9.1523,0.0625 -16.4687,-7.08984 -16.3594,-15.95703 0.1094,-8.88281 7.6172,-16.13281 16.7696,-16.19141 4.3984,-0.0312 8.5898,1.64063 11.6601,4.64063 3.0703,2.98828 4.7578,7.07031 4.711,11.32812"
     id="path115" />
  <path
     fill-rule="nonzero"
     fill="#5599ff"
     fill-opacity="1"
     d="m 292.55041,837.71463 c -0.059,4.2617 -1.8516,8.3633 -5,11.3984 -3.1524,3.0352 -7.3789,4.7578 -11.7813,4.7852 -9.1484,0.059 -16.4804,-7.0899 -16.3594,-15.9649 0.1094,-8.8789 7.6211,-16.125 16.7696,-16.1836 4.4023,-0.031 8.5898,1.6367 11.6601,4.6289 3.0703,2.9961 4.7618,7.0743 4.711,11.336"
     id="path116" />
</svg>
