<?xml version="1.0" encoding="UTF-8" standalone="no"?>
<svg
   width="1382.2856"
   height="1362.0734"
   viewBox="0 0 1382.2856 1362.0734"
   version="1.1"
   id="svg116"
   sodipodi:docname="vecteezy_payment-methods-illustration-set-credit-card-for-online_12939068.svg"
   xmlns:inkscape="http://www.inkscape.org/namespaces/inkscape"
   xmlns:sodipodi="http://sodipodi.sourceforge.net/DTD/sodipodi-0.dtd"
   xmlns="http://www.w3.org/2000/svg"
   xmlns:svg="http://www.w3.org/2000/svg">
  <defs
     id="defs116" />
  <sodipodi:namedview
     id="namedview116"
     pagecolor="#ffffff"
     bordercolor="#000000"
     borderopacity="0.25"
     inkscape:showpageshadow="2"
     inkscape:pageopacity="0.0"
     inkscape:pagecheckerboard="0"
     inkscape:deskcolor="#d1d1d1">
    <inkscape:page
       x="0"
       y="0"
       width="1382.2856"
       height="1362.0734"
       id="page2"
       margin="0"
       bleed="0" />
  </sodipodi:namedview>
  <path
     fill-rule="nonzero"
     fill="#eceef4"
     fill-opacity="1"
     d="m 772.23604,1320.7623 c 8.1367,-4.5 16.2969,-9.4414 24.4375,-14.8476 86.8906,-57.6797 121.3203,-183.8125 186.6211,-271.9688 66.30856,-89.51949 143.39056,-83.35929 208.12106,-135.83589 92.8281,-75.2539 135.9883,-212.48047 151.25,-264.85547 10.3203,-28.79687 18.8477,-57.69922 25.3281,-86.21875 39.961,-175.92187 -8.4882,-330 -88.1679,-422.89062 C 1200.1462,31.254538 1089.2438,-0.43687162 974.30244,0.00453838 c -114.9375,0.44141 -223.3164,25.17968962 -273.539,86.85155962 -50.2305,61.667972 -42.2774,160.277352 -90.7774,196.867192 -48.4922,36.58984 -260.4922,68.68359 -270.7734,76.62109 -39.6875,5.26954 -78.0274,12.92969 -111.2695,25.66016 C 128.41574,424.1061 74.603243,507.58657 42.665743,579.63345 -113.81476,938.29751 182.97434,1337.2545 561.22434,1357.7819 c 54.9414,9.1875 132.3086,6.5 211.0117,-37.0196"
     id="path1" />
  <path
     fill-rule="nonzero"
     fill="#ffffff"
     fill-opacity="1"
     d="m 582.54464,564.64517 -93.2187,93.37109 c -1.9297,1.9375 -2,4.97266 -0.1524,6.80078 l 50.7813,50.32031 c 1.8476,1.83203 4.8906,1.7461 6.8281,-0.1914 l 93.2109,-93.3711 c 1.9297,-1.9375 2,-4.96875 0.1602,-6.80078 l -50.7891,-50.32031 c -1.8515,-1.82813 -4.8906,-1.75 -6.8203,0.19141"
     id="path40" />
  <path
     fill-rule="nonzero"
     fill="#87decd"
     fill-opacity="1"
     d="m 682.45484,664.56313 -93.211,93.37108 c -1.9414,1.9336 -2.0078,4.9688 -0.1601,6.7969 l 50.789,50.3242 c 1.8516,1.8281 4.8907,1.7422 6.8204,-0.1914 l 93.2226,-93.37499 c 1.9297,-1.9336 2,-4.96875 0.1484,-6.79688 l -50.7812,-50.32422 c -1.8477,-1.83203 -4.8867,-1.74219 -6.8281,0.19531"
     id="path41" />
  <path
     fill-rule="nonzero"
     fill="#80b3ff"
     fill-opacity="1"
     d="m 849.15404,275.89517 -416.7891,417.41796 c -8.6523,8.65625 -9.7617,21.42188 -2.4804,28.61719 l 199.9687,197.89849 c 7.2695,7.1992 20.0899,6.0195 28.7305,-2.6407 L 1075.3727,499.77407 c 8.6524,-8.64844 9.7618,-21.41797 2.4805,-28.61719 L 877.88454,273.25454 c -7.2696,-7.19922 -20.0899,-6.01953 -28.7305,2.64063"
     id="path42" />
  <path
     fill-rule="nonzero"
     fill="#37c8ab"
     fill-opacity="1"
     d="m 684.81414,665.6022 c 38.1407,38.14062 99.9688,38.14062 138.1094,0 38.1406,-38.14063 38.1406,-99.97657 0,-138.11719 -38.1406,-38.14063 -99.9687,-38.14063 -138.1094,0 -38.1406,38.14062 -38.1406,99.97656 0,138.11719"
     id="path43" />
  <path
     fill-rule="nonzero"
     fill="#37c8ab"
     fill-opacity="1"
     d="m 872.81414,477.6061 c 13.9883,13.98828 36.6797,13.98828 50.6719,0 14,-14 14,-36.67968 0,-50.67968 -13.9922,-13.99219 -36.6836,-13.99219 -50.6719,0 -14,14 -14,36.67968 0,50.67968"
     id="path44" />
  <path
     fill-rule="nonzero"
     fill="#37c8ab"
     fill-opacity="1"
     d="m 634.92354,715.48501 c 14,13.9922 14,36.6836 0,50.6758 -13.9883,13.9961 -36.6797,13.9961 -50.6679,0 -13.9922,-13.9922 -13.9922,-36.6836 0,-50.6758 13.9882,-13.99219 36.6796,-13.99219 50.6679,0"
     id="path45" />
  <path
     fill-rule="nonzero"
     fill="#ffffff"
     fill-opacity="1"
     d="m 793.74384,584.19595 c 3.9805,3.98047 6.5196,8.57812 7.6211,13.80859 1.1407,5.19922 0.6289,10.66797 -1.5195,16.40625 -1.2813,3.41016 -3.1328,6.75781 -5.5625,10.05078 -0.7969,1.08594 9.4219,8.33594 8.6914,11.03906 -1.2812,4.78516 -6.0508,9.4961 -10.7617,10.75782 -2.8594,0 -9.6875,-9.8125 -10.9102,-8.92969 -4.1367,3 -8.3086,5.05859 -12.5273,6.17187 -4.75,1.22657 -9.5313,1.31641 -14.3399,0.26954 -4.8125,-1.10547 -8.6093,-3.04688 -11.3906,-5.82422 -1.6094,-1.61719 -2.4297,-3.54297 -2.4609,-5.78516 -0.031,-2.30078 0.8203,-4.31641 2.5508,-6.05078 1.4101,-1.40625 3.039,-2.13672 4.8906,-2.19531 1.8789,-0.0899 4.0508,0.40234 6.5,1.47656 2.9297,1.25781 5.5703,2.10937 7.9297,2.55859 2.3906,0.41797 4.9297,0.20703 7.6211,-0.6289 2.6601,-0.86719 5.4297,-2.73438 8.2968,-5.60547 3.9414,-3.94531 6.2305,-8.05078 6.8516,-12.32422 0.6289,-4.33594 -0.4297,-7.875 -3.1797,-10.625 -2.1797,-2.17969 -4.6211,-3.26953 -7.3086,-3.26953 -2.6836,-0.0625 -5.4531,0.60937 -8.2929,2.01953 -2.8086,1.36719 -6.379,3.41797 -10.7071,6.13672 -5.832,3.61328 -11.0703,6.28906 -15.7304,8.02344 -4.6719,1.67187 -9.211,2.17968 -13.6329,1.52343 -4.4179,-0.71875 -8.5273,-2.97265 -12.3281,-6.76953 -3.6094,-3.61719 -5.8398,-7.8164 -6.6797,-12.59375 -0.832,-4.78125 -0.031,-10.70312 1.3008,-14.75 1.3399,-4.05078 4.6094,-7.9414 5.6289,-9.21094 0.1992,-0.24218 -7.6797,-7.80078 -9.5586,-10.32031 -2.9023,-4.1914 9.5664,-14.80859 12.3594,-11.19922 1.7891,2.3086 9.0781,9.25782 9.7305,9.16797 2.2187,-1.30078 3.707,-2.23828 5.5078,-3.08984 3.9414,-1.96875 7.7187,-3.08985 11.3398,-3.35938 3.5899,-0.30078 6.7422,0.0117 9.461,0.94141 2.7187,0.91797 4.9414,2.25 6.6796,3.98828 1.5821,1.58203 2.4493,3.58203 2.6016,6 0.1484,2.35938 -0.6133,4.37891 -2.293,6.05859 -1.5195,1.52344 -3.0586,2.3125 -4.6171,2.3711 -1.5508,0 -3.6602,-0.39844 -6.3204,-1.21094 -3.6718,-1.27734 -7.0312,-1.77734 -10.082,-1.47656 -3.0781,0.26953 -6.4687,2.25781 -10.1797,5.95703 -3.4297,3.44141 -5.4492,6.98047 -6.0508,10.63281 -0.5976,3.57813 0.1719,6.4375 2.293,8.5586 1.3086,1.30859 2.8086,2.08984 4.4805,2.32812 1.6679,0.24219 3.4765,0.0703 5.4179,-0.48828 1.9493,-0.57031 3.75,-1.30078 5.4297,-2.19922 1.6719,-0.90234 4.3594,-2.44922 8.0703,-4.66016 4.5704,-2.83984 8.8711,-5.23046 12.9102,-7.17187 4.0586,-1.98047 7.8906,-3.25781 11.4688,-3.85938 3.621,-0.6289 7.1601,-0.37109 10.6328,0.76172 3.457,1.07813 6.8476,3.27735 10.1679,6.58985"
     id="path46" />
  <path
     fill-rule="nonzero"
     fill="#80b3ff"
     fill-opacity="1"
     d="m 817.90404,244.65688 -416.7891,417.41407 c -8.6523,8.65234 -9.75,21.42187 -2.4804,28.61718 l 199.9804,197.89848 c 7.2696,7.1992 20.0899,6.0195 28.7305,-2.6407 L 1044.1345,468.53579 c 8.6484,-8.66016 9.75,-21.42969 2.4804,-28.62109 L 846.64624,242.01626 c -7.2735,-7.20313 -20.0938,-6.01953 -28.7422,2.64062"
     id="path47" />
  <path
     fill-rule="nonzero"
     fill="#37c8ab"
     fill-opacity="1"
     d="m 653.56414,634.36001 c 38.1407,38.14062 99.9805,38.14062 138.1211,0 38.1407,-38.14453 38.1407,-99.97656 0,-138.11328 -38.1406,-38.14063 -99.9804,-38.14063 -138.1211,0 -38.1406,38.13672 -38.1406,99.96875 0,138.11328"
     id="path48" />
  <path
     fill-rule="nonzero"
     fill="#5599ff"
     fill-opacity="1"
     d="m 841.56414,446.3561 c 14,14 36.6915,14 50.6797,0 13.9922,-13.99218 13.9922,-36.67968 0,-50.67187 -13.9882,-13.98828 -36.6797,-13.98828 -50.6797,0 -13.9882,13.99219 -13.9882,36.67969 0,50.67187"
     id="path49" />
  <path
     fill-rule="nonzero"
     fill="#37c8ab"
     fill-opacity="1"
     d="m 603.68524,684.24282 c 14,13.99219 14,36.67969 0,50.67579 -13.9921,13.9922 -36.6796,13.9922 -50.6718,0 -14,-13.9961 -14,-36.6836 0,-50.67579 13.9922,-13.99609 36.6797,-13.99609 50.6718,0"
     id="path50" />
  <path
     fill-rule="nonzero"
     fill="#ffffff"
     fill-opacity="1"
     d="m 762.50564,552.95376 c 3.9687,3.97266 6.5078,8.58203 7.6171,13.8125 1.1329,5.1875 0.6329,10.66016 -1.5273,16.39844 -1.2695,3.41015 -3.1328,6.76172 -5.5508,10.05078 -0.8086,1.08984 9.418,8.33984 8.6914,11.03906 -1.2812,4.78906 -6.0508,9.5 -10.7617,10.76172 -2.8594,0 -9.6914,-9.8125 -10.9102,-8.92969 -4.1406,3 -8.3203,5.0586 -12.5312,6.17188 -4.75,1.22656 -9.5273,1.3164 -14.3398,0.26953 -4.8204,-1.10547 -8.6094,-3.04688 -11.3907,-5.82813 -1.6093,-1.61328 -2.4375,-3.53906 -2.4687,-5.78515 -0.031,-2.30078 0.832,-4.32032 2.5625,-6.05078 1.3984,-1.39844 3.0273,-2.14063 4.8867,-2.1875 1.8828,-0.0899 4.043,0.39843 6.5,1.46875 2.9219,1.26171 5.5703,2.10937 7.9297,2.55859 2.3906,0.42187 4.9336,0.21094 7.6211,-0.62891 2.6601,-0.87109 5.4219,-2.73047 8.289,-5.60156 3.9532,-3.94922 6.2305,-8.05859 6.8633,-12.32812 0.6289,-4.33204 -0.4336,-7.8711 -3.1836,-10.6211 -2.1797,-2.17969 -4.6172,-3.26953 -7.3086,-3.26953 -2.6914,-0.0586 -5.4492,0.60938 -8.289,2.01172 -2.8086,1.37891 -6.3789,3.41797 -10.711,6.14062 -5.8281,3.61719 -11.0781,6.28907 -15.7382,8.02735 -4.6602,1.67187 -9.2032,2.17969 -13.6329,1.51953 -4.4179,-0.71875 -8.5273,-2.96875 -12.3203,-6.76953 -3.6172,-3.60938 -5.8398,-7.8086 -6.6797,-12.58985 -0.8398,-4.78125 -0.039,-10.69921 1.3008,-14.75 1.3321,-4.05078 4.6094,-7.94921 5.6289,-9.21093 0.2032,-0.25 -7.6797,-7.8086 -9.5664,-10.32813 -2.8906,-4.17969 9.5664,-14.80859 12.3672,-11.1914 1.793,2.3125 9.0703,9.26171 9.7305,9.16015 2.2187,-1.28906 3.7109,-2.23047 5.5117,-3.07812 3.9375,-1.98047 7.7187,-3.10157 11.3398,-3.3711 3.5782,-0.30078 6.7383,0.0195 9.461,0.94141 2.7187,0.92969 4.9375,2.25781 6.6679,3.98828 1.5899,1.58984 2.461,3.58984 2.6016,6.01172 0.1484,2.35937 -0.6133,4.37891 -2.2812,6.04687 -1.5313,1.53125 -3.0586,2.32032 -4.6211,2.38282 -1.5508,0 -3.6602,-0.41016 -6.3203,-1.21094 -3.668,-1.28906 -7.0391,-1.78125 -10.0782,-1.48047 -3.082,0.26953 -6.4687,2.25 -10.1797,5.96094 -3.4414,3.4414 -5.4492,6.98047 -6.0507,10.62109 -0.6016,3.58985 0.1601,6.4375 2.2812,8.57031 1.3203,1.3086 2.8086,2.08985 4.4883,2.32813 1.6719,0.23828 3.4805,0.0703 5.4219,-0.5 1.9375,-0.55859 3.75,-1.30078 5.4297,-2.19141 1.6679,-0.89843 4.3593,-2.44922 8.0585,-4.66797 4.5821,-2.83203 8.879,-5.21875 12.9102,-7.17187 4.0703,-1.96875 7.8906,-3.25 11.4805,-3.84766 3.6093,-0.63281 7.1601,-0.38281 10.6211,0.75782 3.4687,1.08203 6.8593,3.26953 10.1797,6.58984"
     id="path51" />
  <path
     fill-rule="nonzero"
     fill="#80b3ff"
     fill-opacity="1"
     d="m 612.59544,192.83657 -294.5508,511.06641 c -6.1094,10.59765 -3.8789,23.21484 5.0078,28.28513 l 244.3828,139.3985 c 8.8907,5.0703 20.961,0.6132 27.0704,-9.9883 l 294.5585,-511.06252 c 6.1094,-10.60156 3.8711,-23.22266 -5.0195,-28.28906 L 639.66574,182.8561 c -8.8828,-5.08203 -20.9609,-0.62109 -27.0703,9.98047"
     id="path52" />
  <path
     fill-rule="nonzero"
     fill="#5599ff"
     fill-opacity="1"
     d="m 554.72434,611.79751 c 46.7109,26.96875 106.4414,10.96484 133.4102,-35.74219 26.9687,-46.71875 10.9609,-106.44922 -35.75,-133.42187 -46.711,-26.95703 -106.4414,-10.95703 -133.4102,35.75 -26.9687,46.71093 -10.9687,106.4414 35.75,133.41406"
     id="path53" />
  <path
     fill-rule="nonzero"
     fill="#5599ff"
     fill-opacity="1"
     d="m 687.65404,381.5436 c 17.1406,9.90235 39.0586,4.01953 48.9492,-13.10937 9.9024,-17.14063 4.0195,-39.0586 -13.1172,-48.94922 -17.1328,-9.89844 -39.0508,-4.03125 -48.9414,13.10937 -9.8984,17.14063 -4.0312,39.0625 13.1094,48.94922"
     id="path54" />
  <path
     fill-rule="nonzero"
     fill="#37c8ab"
     fill-opacity="1"
     d="m 519.44314,672.89126 c 17.1406,9.89453 23.0117,31.80859 13.121,48.94922 -9.8984,17.13673 -31.8085,23.00783 -48.9492,13.11323 -17.1406,-9.89448 -23.0117,-31.80854 -13.1093,-48.94526 9.8906,-17.14063 31.7968,-23.01172 48.9375,-13.11719"
     id="path55" />
  <path
     fill-rule="nonzero"
     fill="#ffffff"
     fill-opacity="1"
     d="m 638.87274,504.97329 c 4.8711,2.8125 8.5118,6.60156 10.9297,11.36328 2.4532,4.72656 3.3711,10.13672 2.7813,16.23828 -0.3594,3.62891 -1.2813,7.33985 -2.7696,11.14844 -0.4882,1.26172 11.2618,5.61328 11.2618,8.41016 0,4.96093 -3.4024,10.74218 -7.6211,13.17968 -2.7617,0.74219 -11.9024,-6.96875 -12.8516,-5.79687 -3.2187,3.96875 -6.7187,7.03906 -10.5,9.19922 -4.2695,2.41797 -8.8672,3.73828 -13.7891,3.98047 -4.9296,0.16797 -9.1015,-0.72266 -12.5,-2.69141 -1.9804,-1.14062 -3.2695,-2.78906 -3.8789,-4.94141 -0.6211,-2.21875 -0.3203,-4.38671 0.8985,-6.50781 1,-1.71875 2.3789,-2.85156 4.1523,-3.39062 1.7969,-0.57032 4.0196,-0.66016 6.6602,-0.25 3.1562,0.44922 5.9297,0.58984 8.3281,0.41015 2.4219,-0.21093 4.8203,-1.07031 7.1992,-2.57031 2.3399,-1.53125 4.5313,-4.05078 6.5625,-7.55859 2.7891,-4.83203 3.9297,-9.39063 3.4297,-13.67969 -0.5117,-4.35156 -2.4531,-7.5 -5.8203,-9.44141 -2.6719,-1.55078 -5.3125,-1.96875 -7.9102,-1.26953 -2.6093,0.64063 -5.1093,2 -7.4804,4.08985 -2.3594,2.05859 -5.2813,4.96093 -8.7617,8.71093 -4.6993,5 -9.0704,8.9375 -13.1172,11.82032 -4.0703,2.82031 -8.3321,4.48828 -12.7735,5 -4.457,0.44921 -9.0078,-0.67188 -13.6562,-3.35157 -4.4336,-2.55859 -7.6719,-6.03906 -9.711,-10.4414 -2.0507,-4.39844 -2.8007,-10.32032 -2.5625,-14.57813 0.2422,-4.26172 2.3907,-8.87109 3.0508,-10.35156 0.1289,-0.28906 -9.4375,-5.54688 -11.9101,-7.5 -3.8789,-3.28906 5.4101,-16.77734 9.0507,-14.01953 2.3204,1.78125 11.1602,6.60156 11.7618,6.33984 1.8086,-1.82031 3.0078,-3.11719 4.5273,-4.41015 3.3008,-2.91797 6.6602,-4.98829 10.082,-6.17969 3.3907,-1.21875 6.5079,-1.73047 9.3789,-1.53906 2.8711,0.1914 5.3594,0.89843 7.4805,2.1289 1.9414,1.1211 3.3008,2.82031 4.0703,5.1211 0.7578,2.25 0.5391,4.39062 -0.6406,6.4414 -1.0781,1.86719 -2.3594,3.02735 -3.8516,3.48828 -1.5,0.39844 -3.6367,0.5586 -6.4101,0.46875 -3.8867,-0.28906 -7.2578,0.10157 -10.1289,1.17969 -2.8985,1.0625 -5.668,3.85156 -8.2891,8.39063 -2.4297,4.21093 -3.4609,8.15234 -3.0898,11.83203 0.3476,3.61718 1.8203,6.17968 4.4179,7.67968 1.6133,0.92969 3.2618,1.28907 4.9414,1.08985 1.6719,-0.19922 3.379,-0.83203 5.1094,-1.87891 1.7305,-1.05078 3.2813,-2.23047 4.6719,-3.53125 1.3789,-1.30078 3.5781,-3.49219 6.5898,-6.58984 3.6797,-3.92188 7.2188,-7.35156 10.6094,-10.26953 3.4102,-2.94922 6.7813,-5.19141 10.0899,-6.69141 3.3281,-1.53906 6.8086,-2.21094 10.4492,-2.00781 3.6289,0.13672 7.4804,1.3789 11.539,3.72656"
     id="path56" />
  <path
     fill-rule="nonzero"
     fill="#aaccff"
     fill-opacity="1"
     d="m 954.54464,662.82876 -717.4492,1.14844 c 0,0 -2.5898,217.54301 -2.5898,405.5078 0,36.4766 24.5703,103.9375 120.0703,103.9375 l 480.9375,-0.074 c 97.1523,-0.016 119.0312,-71.7188 119.0312,-108.7695 0,-210.45709 0,-401.75004 0,-401.75004"
     id="path57" />
  <path
     fill-rule="nonzero"
     fill="#2c5aa0"
     fill-opacity="1"
     d="m 954.54464,1031.0983 -717.4492,-1.1485 c 0,0 -2.5898,-217.54289 -2.5898,-405.50776 0,-36.47656 24.5703,-103.9375 120.0703,-103.9375 l 480.9375,0.0703 c 97.1523,0.0195 119.0312,71.71875 119.0312,108.77344 0,210.45702 0,401.75002 0,401.75002"
     id="path58" />
  <path
     fill-rule="nonzero"
     fill="#ffffff"
     fill-opacity="1"
     d="m 801.23604,743.83661 148.6289,-0.4102 c 59.17966,-0.1641 58.68746,133.5899 0.711,133.0391 l -148.6407,-1.4063 c -59.5,-0.5664 -56.5625,-131.0703 -0.6992,-131.2226"
     id="path59" />
  <path
     fill-rule="nonzero"
     fill="#aaccff"
     fill-opacity="1"
     d="m 856.39624,809.09831 c -0.1016,8.4375 -3.6602,16.5547 -9.8906,22.5625 -6.2227,6.0039 -14.6094,9.4101 -23.3125,9.4687 -18.1094,0.1172 -32.6094,-14.0312 -32.3907,-31.6015 0.2305,-17.5703 15.0938,-31.9102 33.2032,-32.0274 8.6992,-0.059 17,3.2383 23.0781,9.1641 6.0703,5.9258 9.4219,13.9961 9.3125,22.4336"
     id="path60" />
  <path
     fill-rule="nonzero"
     fill="#5599ff"
     fill-opacity="1"
     d="m 1304.6227,641.75063 c -0.047,4.26172 -1.8476,8.36329 -5,11.39844 -3.1367,3.03516 -7.3789,4.75391 -11.7695,4.78516 -9.1601,0.0586 -16.4805,-7.08985 -16.3672,-15.96875 0.1094,-8.875 7.6172,-16.1211 16.7696,-16.1836 4.3984,-0.0273 8.5898,1.63672 11.6601,4.63282 3.0703,2.99609 4.7695,7.07031 4.707,11.33593"
     id="path82" />
  <path
     fill-rule="nonzero"
     fill="#5599ff"
     fill-opacity="1"
     d="m 942.28294,43.633448 c -0.059,4.26172 -1.8477,8.36328 -5,11.40234 -3.1484,3.02734 -7.3789,4.75 -11.7773,4.77734 -9.1524,0.0625 -16.4805,-7.08984 -16.3594,-15.95703 0.1094,-8.88281 7.6172,-16.13281 16.7695,-16.1914 4.3984,-0.0312 8.5899,1.64062 11.6602,4.6289 3.0703,3 4.7578,7.08203 4.707,11.33985"
     id="path83" />
  <path
     fill-rule="nonzero"
     fill="#5599ff"
     fill-opacity="1"
     d="m 125.76344,892.41081 c -0.051,4.2656 -1.8477,8.3633 -5,11.3984 -3.1407,3.0352 -7.3789,4.7578 -11.7696,4.7852 -9.148397,0.062 -16.480397,-7.086 -16.371097,-15.9649 0.1133,-8.8789 7.632897,-16.125 16.781297,-16.1836 4.3906,-0.027 8.582,1.6368 11.6484,4.6329 3.0703,2.9921 4.7735,7.0703 4.711,11.332"
     id="path87" />
</svg>
