<svg height="256" width="256" viewBox="0 0 48 48" fill="none" xmlns="http://www.w3.org/2000/svg">
<g clip-path="url(#clip0_3984_10999)">
<path d="M45 6H32C30.8954 6 30 6.89543 30 8V40C30 41.1046 30.8954 42 32 42H45C46.1046 42 47 41.1046 47 40V8C47 6.89543 46.1046 6 45 6Z" fill="#038387"/>
<mask id="mask0_3984_10999" style="mask-type:alpha" maskUnits="userSpaceOnUse" x="30" y="6" width="17" height="36">
<path d="M45 6H32C30.8954 6 30 6.89543 30 8V40C30 41.1046 30.8954 42 32 42H45C46.1046 42 47 41.1046 47 40V8C47 6.89543 46.1046 6 45 6Z" fill="#038387"/>
</mask>
<g mask="url(#mask0_3984_10999)">
<g filter="url(#filter0_dd_3984_10999)">
<path d="M37 3H24C22.8954 3 22 4.04467 22 5.33333V42.6667C22 43.9553 22.8954 45 24 45H37C38.1046 45 39 43.9553 39 42.6667V5.33333C39 4.04467 38.1046 3 37 3Z" fill="#038387"/>
</g>
</g>
<path d="M11 33V43.2C11 44.19 11.81 45 12.8 45H37.2C38.19 45 39 44.19 39 43.2V33H11Z" fill="#038387"/>
<path d="M37 3H13C11.9 3 11 3.9 11 5V25H39V5C39 3.9 38.1 3 37 3Z" fill="#37C6D0"/>
<path d="M39 24H11V34H39V24Z" fill="#1A9BA1"/>
<mask id="mask1_3984_10999" style="mask-type:alpha" maskUnits="userSpaceOnUse" x="11" y="3" width="36" height="42">
<path fill-rule="evenodd" clip-rule="evenodd" d="M37 3H13C11.9 3 11 3.9 11 5V24V25V33V34V43.2C11 44.19 11.81 45 12.8 45H37.2C38.19 45 39 44.19 39 43.2V42H45C46.1046 42 47 41.1046 47 40V8C47 6.89543 46.1046 6 45 6H39V5C39 3.9 38.1 3 37 3Z" fill="#1A9BA1"/>
</mask>
<g mask="url(#mask1_3984_10999)">
<g filter="url(#filter1_dd_3984_10999)">
<path d="M22 12H2C0.89543 12 0 12.8954 0 14V34C0 35.1046 0.89543 36 2 36H22C23.1046 36 24 35.1046 24 34V14C24 12.8954 23.1046 12 22 12Z" fill="url(#paint0_linear_3984_10999)"/>
</g>
</g>
<path d="M22 12H2C0.89543 12 0 12.8954 0 14V34C0 35.1046 0.89543 36 2 36H22C23.1046 36 24 35.1046 24 34V14C24 12.8954 23.1046 12 22 12Z" fill="url(#paint1_linear_3984_10999)"/>
<path d="M12.19 17.5C13.74 17.5 14.93 17.85 15.75 18.54C16.57 19.24 16.98 20.24 16.98 21.56C16.98 22.41 16.78 23.16 16.37 23.82C15.96 24.48 15.38 24.99 14.63 25.36C13.88 25.73 13.01 25.91 12.02 25.91H9.55002V30.51H7.02002V17.51H12.19V17.5ZM9.56001 23.92H11.74C12.59 23.92 13.23 23.73 13.67 23.34C14.1 22.96 14.32 22.4 14.32 21.66C14.32 20.23 13.49 19.51 11.82 19.51H9.56001V23.92Z" fill="white"/>
</g>
<defs>
<filter id="filter0_dd_3984_10999" x="21" y="2" width="21" height="46" filterUnits="userSpaceOnUse" color-interpolation-filters="sRGB">
<feFlood flood-opacity="0" result="BackgroundImageFix"/>
<feColorMatrix in="SourceAlpha" type="matrix" values="0 0 0 0 0 0 0 0 0 0 0 0 0 0 0 0 0 0 127 0" result="hardAlpha"/>
<feOffset dx="1" dy="1"/>
<feGaussianBlur stdDeviation="1"/>
<feColorMatrix type="matrix" values="0 0 0 0 0 0 0 0 0 0 0 0 0 0 0 0 0 0 0.32 0"/>
<feBlend mode="normal" in2="BackgroundImageFix" result="effect1_dropShadow_3984_10999"/>
<feColorMatrix in="SourceAlpha" type="matrix" values="0 0 0 0 0 0 0 0 0 0 0 0 0 0 0 0 0 0 127 0" result="hardAlpha"/>
<feOffset dx="0.2" dy="0.2"/>
<feGaussianBlur stdDeviation="0.1"/>
<feColorMatrix type="matrix" values="0 0 0 0 0 0 0 0 0 0 0 0 0 0 0 0 0 0 0.24 0"/>
<feBlend mode="normal" in2="effect1_dropShadow_3984_10999" result="effect2_dropShadow_3984_10999"/>
<feBlend mode="normal" in="SourceGraphic" in2="effect2_dropShadow_3984_10999" result="shape"/>
</filter>
<filter id="filter1_dd_3984_10999" x="-3" y="11" width="30" height="30" filterUnits="userSpaceOnUse" color-interpolation-filters="sRGB">
<feFlood flood-opacity="0" result="BackgroundImageFix"/>
<feColorMatrix in="SourceAlpha" type="matrix" values="0 0 0 0 0 0 0 0 0 0 0 0 0 0 0 0 0 0 127 0" result="hardAlpha"/>
<feOffset dy="0.2"/>
<feGaussianBlur stdDeviation="0.2"/>
<feColorMatrix type="matrix" values="0 0 0 0 0 0 0 0 0 0 0 0 0 0 0 0 0 0 0.24 0"/>
<feBlend mode="multiply" in2="BackgroundImageFix" result="effect1_dropShadow_3984_10999"/>
<feColorMatrix in="SourceAlpha" type="matrix" values="0 0 0 0 0 0 0 0 0 0 0 0 0 0 0 0 0 0 127 0" result="hardAlpha"/>
<feOffset dy="2"/>
<feGaussianBlur stdDeviation="1.5"/>
<feColorMatrix type="matrix" values="0 0 0 0 0 0 0 0 0 0 0 0 0 0 0 0 0 0 0.48 0"/>
<feBlend mode="multiply" in2="effect1_dropShadow_3984_10999" result="effect2_dropShadow_3984_10999"/>
<feBlend mode="normal" in="SourceGraphic" in2="effect2_dropShadow_3984_10999" result="shape"/>
</filter>
<linearGradient id="paint0_linear_3984_10999" x1="4.17" y1="10.44" x2="19.83" y2="37.56" gradientUnits="userSpaceOnUse">
<stop stop-color="#058F92"/>
<stop offset="0.5" stop-color="#038489"/>
<stop offset="1" stop-color="#026D71"/>
</linearGradient>
<linearGradient id="paint1_linear_3984_10999" x1="4.17" y1="10.44" x2="19.83" y2="37.56" gradientUnits="userSpaceOnUse">
<stop stop-color="#058F92"/>
<stop offset="0.5" stop-color="#038489"/>
<stop offset="1" stop-color="#026D71"/>
</linearGradient>
<clipPath id="clip0_3984_10999">
<rect width="48" height="48" fill="white"/>
</clipPath>
</defs>
</svg>
