<svg viewBox="0 0 186.17 122.036" xmlns:xlink="http://www.w3.org/1999/xlink" xmlns="http://www.w3.org/2000/svg">
  <symbol id="a" viewBox="0 0 205.87 52.19" transform="translate(.025 -21.69)">
    <g opacity=".2" fill="#666">
      <path d="M18.58 25.93a14.4 14.4 0 0 0 5-2.61c2.8-2.37 4.21-5.87 4.21-10.4a11.78 11.78 0 0 0-4.16-9.57C20.93 1.13 17.13 0 12.34 0H1.13A1.14 1.14 0 0 0 0 1.13v38.24a1.13 1.13 0 0 0 1.13 1.13h7.08a1.13 1.13 0 0 0 1.13-1.13V27.76L17.74 40a1.12 1.12 0 0 0 .93.49H27a1.13 1.13 0 0 0 .91-1.8zm-.17-12.3a4.06 4.06 0 0 1-1.49 3.48 8.54 8.54 0 0 1-5.11 1.23H9.34V8.86h2.47a8.56 8.56 0 0 1 5.11 1.24 4.14 4.14 0 0 1 1.49 3.53"/>
      <path d="M43.64 8.59a15.37 15.37 0 0 0-11.39 4.83 16.1 16.1 0 0 0-4.7 11.64 16 16 0 0 0 4.7 11.62 15.46 15.46 0 0 0 11.39 4.79 16.17 16.17 0 0 0 9.51-2.91 15.62 15.62 0 0 0 6-8.75 1.16 1.16 0 0 0-.05-.8 1.15 1.15 0 0 0 .44-.72 19 19 0 0 0 .27-3.22 16.12 16.12 0 0 0-4.7-11.65 15.42 15.42 0 0 0-11.47-4.83m3.6 23.46a6.85 6.85 0 0 1-3.43.86 6.45 6.45 0 0 1-5-2.2 8.4 8.4 0 0 1-1.07-1.47h11.87a5.3 5.3 0 0 1-2.37 2.81m-3.61-14.89a6.28 6.28 0 0 1 4.91 2.23 7.3 7.3 0 0 1 1.33 2.09H37.4a8.3 8.3 0 0 1 1.33-2.09 6.23 6.23 0 0 1 4.9-2.23m48.94-7.6h-6.33a1.14 1.14 0 0 0-1.13 1.13v.65a14.07 14.07 0 0 0-8.58-2.75 14.4 14.4 0 0 0-10.92 4.85 16.54 16.54 0 0 0-4.46 11.62 16.48 16.48 0 0 0 4.46 11.6 14.45 14.45 0 0 0 10.9 4.81 14.4 14.4 0 0 0 8.6-2.75v.65a1.13 1.13 0 0 0 1.13 1.13h6.33a1.13 1.13 0 0 0 1.14-1.13V10.69a1.14 1.14 0 0 0-1.14-1.13M85 25a8 8 0 0 1-2.13 5.7 7.14 7.14 0 0 1-10.39 0 8 8 0 0 1-2.11-5.67 8 8 0 0 1 2.12-5.72 7.12 7.12 0 0 1 10.39 0A7.94 7.94 0 0 1 85 25m41.94-25h-6.87a1.14 1.14 0 0 0-1.14 1.13v9.58a13.86 13.86 0 0 0-7.39-2.12 15.12 15.12 0 0 0-11.26 4.83 16.2 16.2 0 0 0-4.63 11.64 16.43 16.43 0 0 0 4.45 11.59 14.35 14.35 0 0 0 10.9 4.82 14.13 14.13 0 0 0 8.53-2.72v.62a1.12 1.12 0 0 0 1.13 1.13h6.32a1.13 1.13 0 0 0 1.14-1.13V1.13A1.14 1.14 0 0 0 126.94 0m-9.72 30.73A6.74 6.74 0 0 1 112 33a6.61 6.61 0 0 1-5.12-2.24 8 8 0 0 1-2.09-5.67 8.08 8.08 0 0 1 2.1-5.72 7 7 0 0 1 10.3 0 8 8 0 0 1 2.1 5.7 8 8 0 0 1-2.07 5.66M138.74 0h-6.88a1.13 1.13 0 0 0-1.13 1.13v6.3a1.1 1.1 0 0 0 .35.82 1.13 1.13 0 0 0-.35.83v30.29a1.12 1.12 0 0 0 1.13 1.13h6.88a1.12 1.12 0 0 0 1.13-1.13V9.08a1.13 1.13 0 0 0-.35-.83 1.1 1.1 0 0 0 .35-.82v-6.3A1.13 1.13 0 0 0 138.74 0m19.97 8.59a11.73 11.73 0 0 0-6.84 2.11 1.13 1.13 0 0 0-1.13-1.13h-6.4a1.14 1.14 0 0 0-1.14 1.13v28.67a1.13 1.13 0 0 0 1.14 1.13h6.88a1.12 1.12 0 0 0 1.13-1.13v-15.1c0-2.51.43-4.37 1.28-5.55a4 4 0 0 1 3.55-1.59 3.81 3.81 0 0 1 3.34 1.57 9.2 9.2 0 0 1 1.25 5.3v15.37a1.13 1.13 0 0 0 1.14 1.13h6.88a1.12 1.12 0 0 0 1.13-1.13V22.48c0-4.17-1.1-7.55-3.27-10a11.25 11.25 0 0 0-8.94-3.89m46.03.97h-6.67a1.13 1.13 0 0 0-1.13 1.13v.67a13.83 13.83 0 0 0-8.5-2.77h-.08a14.26 14.26 0 0 0-10.84 4.85 16.57 16.57 0 0 0-4.44 11.62 16.5 16.5 0 0 0 4.44 11.59 15 15 0 0 0 5.34 3.78h-8a1.12 1.12 0 0 0-.91.46 1.14 1.14 0 0 0-.18 1 13.6 13.6 0 0 0 5.64 7.51 17 17 0 0 0 9.59 2.79 15.93 15.93 0 0 0 12.24-5c3-3.32 4.6-7.75 4.6-13.16V10.69a1.14 1.14 0 0 0-1.1-1.13m-10.16 21.17a6.65 6.65 0 0 1-5.13 2.27 6.56 6.56 0 0 1-5.09-2.24 8 8 0 0 1-2.1-5.67 8.08 8.08 0 0 1 2.1-5.72 6.95 6.95 0 0 1 10.23 0 8 8 0 0 1 2.09 5.7 8 8 0 0 1-2.1 5.66m-6.24 10.74a14.3 14.3 0 0 0 8.17-2.47 7.8 7.8 0 0 1-1.46 2.25 7.43 7.43 0 0 1-5.77 2.38 7.8 7.8 0 0 1-3.45-.75 4.05 4.05 0 0 1-2-1.82 1.3 1.3 0 0 0-.28-.36 14.6 14.6 0 0 0 4.79.77"/>
    </g>
    <path d="M.65.22h11.26q6.84 0 10.61 3.1a10.68 10.68 0 0 1 3.76 8.73q0 6.35-3.83 9.59a14.25 14.25 0 0 1-6.18 2.81l10.39 14.18h-8.39L7.75 23.29v15.34H.65zm7.1 18.43h3.62a9.6 9.6 0 0 0 5.82-1.47 5.18 5.18 0 0 0 1.95-4.41 5.24 5.24 0 0 0-1.95-4.45 9.53 9.53 0 0 0-5.82-1.49H7.75Zm35.61 20.96a14.36 14.36 0 0 1-10.63-4.48 14.92 14.92 0 0 1-4.4-10.88 15 15 0 0 1 4.39-10.9 14.84 14.84 0 0 1 21.29 0 15.08 15.08 0 0 1 4.4 10.91 19 19 0 0 1-.25 3H35.69a8.94 8.94 0 0 0 2 3.39 7.63 7.63 0 0 0 5.88 2.58 8 8 0 0 0 4-1 6.58 6.58 0 0 0 3-3.58h7.3c-1.23 3.95-3 6.38-5.55 8.19a15 15 0 0 1-8.96 2.77m7.81-17.82a8.6 8.6 0 0 0-2.05-4 7.66 7.66 0 0 0-11.55 0 9.7 9.7 0 0 0-2.08 4zm25.21 17.82a13.36 13.36 0 0 1-10.11-4.48 15.35 15.35 0 0 1-4.18-10.88 15.45 15.45 0 0 1 4.18-10.9 13.32 13.32 0 0 1 10.14-4.5A13 13 0 0 1 86.16 13V9.82h6.36v28.81h-6.36V35.5a13.38 13.38 0 0 1-9.78 4.11m1.14-24.5a7.92 7.92 0 0 0-6.06 2.63A9.22 9.22 0 0 0 69 24.25a9.15 9.15 0 0 0 2.43 6.48 8.31 8.31 0 0 0 12.11 0 9.14 9.14 0 0 0 2.46-6.5 9.18 9.18 0 0 0-2.43-6.5 7.91 7.91 0 0 0-6.05-2.62M111 39.61a13.3 13.3 0 0 1-10.08-4.48 15.4 15.4 0 0 1-4.17-10.88 15.13 15.13 0 0 1 4.34-10.9 14 14 0 0 1 10.49-4.5 12.65 12.65 0 0 1 8.57 3.27V.22h6.91v38.41h-6.36v-3.1a13.13 13.13 0 0 1-9.7 4.08m1.11-24.5a7.82 7.82 0 0 0-6 2.63 9.2 9.2 0 0 0-2.42 6.51 9.2 9.2 0 0 0 2.4 6.48 7.83 7.83 0 0 0 6 2.62 7.9 7.9 0 0 0 6-2.62 9.18 9.18 0 0 0 2.43-6.5 9.17 9.17 0 0 0-2.42-6.5 7.84 7.84 0 0 0-5.99-2.62M132 .22h6.91v6.32H132Zm0 8h6.91v30.41H132Zm12.54 1.6H151v2.47a10.8 10.8 0 0 1 8-3.44 10.19 10.19 0 0 1 8.12 3.46q3 3.46 3 9.35v17h-6.92V23.21a10.2 10.2 0 0 0-1.48-6 4.94 4.94 0 0 0-4.28-2.06 5.15 5.15 0 0 0-4.44 2.07q-1.5 2.09-1.5 6.24v15.17h-6.91zm45.16 34.23a8.64 8.64 0 0 0 6.63-2.76 9.72 9.72 0 0 0 2.5-6.09 13.55 13.55 0 0 1-10.08 4.41 13.23 13.23 0 0 1-10-4.48 15.46 15.46 0 0 1-4.15-10.88 15.56 15.56 0 0 1 4.15-10.9 13.2 13.2 0 0 1 10.06-4.5 12.85 12.85 0 0 1 9.72 4.15V9.82h6.69v23.41q0 7.77-4.31 12.46a14.9 14.9 0 0 1-11.47 4.69 15.93 15.93 0 0 1-9.06-2.6 12.55 12.55 0 0 1-5.21-6.94h8.05a5.27 5.27 0 0 0 2.49 2.34 8.9 8.9 0 0 0 3.99.87m.19-28.94a7.78 7.78 0 0 0-6 2.63 9.25 9.25 0 0 0-2.41 6.51 9.18 9.18 0 0 0 2.41 6.48 8.11 8.11 0 0 0 11.94 0 9.17 9.17 0 0 0 2.42-6.5 9.24 9.24 0 0 0-2.4-6.5 7.79 7.79 0 0 0-5.96-2.62" fill="#fff"/>
  </symbol>
  <symbol id="b" viewBox="0 0 188.05 77.6" transform="translate(.025 -21.69)">
    <path d="M187.9 45.77a48 48 0 0 0-1.13-6.88 52 52 0 0 0-1.72-5.73 54 54 0 0 0-3.12-7l-.43-.83 2.83-3.49-.77-1.7C178.29 8.66 170.4 2.07 161.9 2.07h-.43c-7 .18-13.5 4.91-18.27 13.31l-.55 1 1 5.22.22 1.15a7.5 7.5 0 0 0-.8.89c-4.3-10.35-12-20-22.61-20.49h-.79c-7.37 0-17 5.14-23.88 19C90.41 10.93 81.1 0 69.23 0c-.54 0-1.09 0-1.63.07C58.76.84 51 7.94 46.17 19.46 41.94 12.47 36.27 8.3 30 7.75c-.49 0-1-.06-1.45-.06-12.28 0-21.39 13.16-25.47 24.43A53 53 0 0 0 1.31 38a50 50 0 0 0-1.16 7.07C-1.33 62 8.07 73.83 24.09 75.23c1 .09 2 .13 3 .13 8.45 0 15.56-3.43 20.18-9.58a26.4 26.4 0 0 0 4.86 5.4A28.9 28.9 0 0 0 71 77.6c1.11 0 2.25 0 3.39-.15 8.76-.76 16-4.24 20.83-10 .09-.11.18-.21.26-.32 4.86 6.39 12.43 10.07 21.78 10.48h1.66c7.72 0 14.44-2.42 19.44-7a25.5 25.5 0 0 0 3.75-4.33c4.49 5.9 11.26 9.08 19.52 9.08.95 0 1.93 0 2.9-.13 15.63-1.37 24.81-12.93 23.37-29.46" fill="#fff"/>
    <path d="M50 42.71C47.92 23.2 40 14 33.1 11.35 11.41 3-16.07 64.06 21.29 71.82 40.91 75.89 51.34 61 50 42.71" fill="#33afe5"/>
    <path d="M98.69 43.27a53.4 53.4 0 0 0-1.27-7.71 60 60 0 0 0-1.94-6.47c-5-13.73-15.43-27.1-27.62-26S47.69 19.11 45.18 33.48a58.2 58.2 0 0 0-.7 14.52c.81 9.21 4 16.23 9.55 20.87 5.18 4.35 12.13 6.28 20.08 5.58s14.45-3.8 18.8-9c4.64-5.36 6.61-13.77 5.78-22.18" fill="#afca10"/>
    <path d="M143.29 34.24c-3-13.62-11.24-27.6-22.93-28.11s-21.14 12.69-25.31 26a59 59 0 0 0-1.58 6.26 52 52 0 0 0-.89 7.41c-.74 17 8.76 28.07 24.79 28.77 7.62.33 14.17-1.8 18.94-6.18 5.09-4.66 7.59-11.52 8.25-20.32a55.8 55.8 0 0 0-1.27-13.83" fill="#ca378c"/>
    <path d="M184.91 46a49.5 49.5 0 0 0-5.55-18.32l-6.55-6.25S169 26 167.76 27.58c-1.42-1.8-5.81-7.41-5.81-7.41-1.23 1.41-5.2 6.28-6.53 7.9-1.35-1.53-5.89-6.34-5.89-6.34l-6.28 5C122 83.62 189.18 84.45 184.91 46" fill="#ffcb00"/>
    <path d="M27.42 55.94A12 12 0 0 1 20 53.43a15.9 15.9 0 0 1-4.89-7.28 14.3 14.3 0 0 1-.79-4.7 13.34 13.34 0 0 1 2.09-7.35 11.84 11.84 0 0 1 6.23-4.84 12.2 12.2 0 0 1 4-.67 12.54 12.54 0 0 1 7.64 2.63 12.3 12.3 0 0 1 4.55 6 5.5 5.5 0 0 1 .33 1.82A3.14 3.14 0 0 1 37.64 42a4.37 4.37 0 0 1 2.07 1.13 4 4 0 0 1 1.33 3c0 1.74-1 3.57-3.09 5.45A16.5 16.5 0 0 1 32 55.14a14.1 14.1 0 0 1-4.58.8m-1.75-9.58a3.78 3.78 0 0 0 2.23.64 5.2 5.2 0 0 0 1.79-.34 7.8 7.8 0 0 0 2.86-2.19c.27-.29.52-.56.76-.8zm-.31-9.06a2.72 2.72 0 0 0-1.88 1.94l4.65-1.6a2.6 2.6 0 0 0-1.62-.53 3.7 3.7 0 0 0-1.11.18z" fill="#474341"/>
    <path d="M27.42 54.44a10.55 10.55 0 0 1-6.54-2.2 14.37 14.37 0 0 1-4.38-6.58 12.8 12.8 0 0 1-.71-4.21 11.9 11.9 0 0 1 1.85-6.54 10.4 10.4 0 0 1 5.45-4.23 10.9 10.9 0 0 1 3.5-.59 11.07 11.07 0 0 1 6.74 2.33 10.9 10.9 0 0 1 4 5.31 4 4 0 0 1 .25 1.34c0 1-.27 1.58-1.8 2.11l-12.03 4.27a.49.49 0 0 0-.31.33.5.5 0 0 0 .08.44l.27.36a4.9 4.9 0 0 0 4.08 1.9H28a6.5 6.5 0 0 0 2.21-.43 9 9 0 0 0 3.47-2.59 7.6 7.6 0 0 1 2.26-2 2.2 2.2 0 0 1 .72-.12 2.8 2.8 0 0 1 2 .83 2.46 2.46 0 0 1 .86 1.89c0 1.3-.87 2.76-2.6 4.34a15 15 0 0 1-5.38 3.3 12.8 12.8 0 0 1-4.12.74m-.91-18.83a5.1 5.1 0 0 0-1.56.25 4.3 4.3 0 0 0-3.09 4.34v.48a.49.49 0 0 0 .5.5.5.5 0 0 0 .17 0l7.54-2.6a.5.5 0 0 0 .32-.33.52.52 0 0 0-.09-.45l-.3-.39a4.31 4.31 0 0 0-3.49-1.8" fill="#fff"/>
    <path d="M161.62 60.42a14.6 14.6 0 0 1-5.65-1c-2.39-1-3.62-2.48-3.62-4.54a5.5 5.5 0 0 1 .81-2.89 4.2 4.2 0 0 1 2.84-2.1 6.3 6.3 0 0 1 1.36-.16 10.3 10.3 0 0 1 2.76.51 9.5 9.5 0 0 0 2.35.44 4.8 4.8 0 0 0 1.43-.29 25 25 0 0 0-2.46-.42 21 21 0 0 1-6.39-1.57 8 8 0 0 1-4.71-5.65 9.06 9.06 0 0 1 3.6-9.76A13.26 13.26 0 0 1 162 30.4a12.1 12.1 0 0 1 5.39 1.11 4.92 4.92 0 0 1 2 7.89 4.06 4.06 0 0 1-3.14 1.45 13.3 13.3 0 0 1-2.51-.37 12.6 12.6 0 0 0-2.31-.33 3.3 3.3 0 0 0-.94.11 21 21 0 0 0 2.53.41 23.2 23.2 0 0 1 6.38 1.56 8.13 8.13 0 0 1 4.72 5.66 9.09 9.09 0 0 1-2.31 8.49 13.06 13.06 0 0 1-6.73 3.69 15.5 15.5 0 0 1-3.46.35" fill="#474341"/>
    <path d="M161.62 58.92a13 13 0 0 1-5.07-.93c-1.84-.73-2.7-1.73-2.7-3.15a4.1 4.1 0 0 1 .59-2.12 2.69 2.69 0 0 1 1.87-1.36 5 5 0 0 1 1.05-.13 9 9 0 0 1 2.35.45 10.8 10.8 0 0 0 2.76.5 5 5 0 0 0 1.26-.17 2.63 2.63 0 0 0 1.75-1 1.43 1.43 0 0 0 .16-1.11c-.17-.7-.78-1-4-1.43a19.4 19.4 0 0 1-5.95-1.47 6.47 6.47 0 0 1-3.89-4.63 7.56 7.56 0 0 1 3-8.21 11.73 11.73 0 0 1 7.2-2.3 10.7 10.7 0 0 1 4.74 1c1.61.75 2.36 1.77 2.36 3.22a3.38 3.38 0 0 1-.87 2.33 2.57 2.57 0 0 1-2 .94 11.3 11.3 0 0 1-2.19-.33 13.4 13.4 0 0 0-2.63-.37 3.48 3.48 0 0 0-2.1.53 1.39 1.39 0 0 0-.6 1.16 1.6 1.6 0 0 0 0 .37c.15.7.75 1.06 4.07 1.45a21.4 21.4 0 0 1 5.94 1.44 6.66 6.66 0 0 1 3.88 4.62 8 8 0 0 1 .22 1.8 7.6 7.6 0 0 1-2.17 5.34 11.56 11.56 0 0 1-6 3.25 14 14 0 0 1-3.03.31" fill="#fff"/>
    <path d="M71.54 64.9a20.2 20.2 0 0 1-6.34-.9c-2.87-.91-4.33-2.48-4.33-4.66a5.83 5.83 0 0 1 1-3.19 4.23 4.23 0 0 1 2.68-2 7 7 0 0 1 .92-.14 13.33 13.33 0 0 1-6.16-5.06 19.53 19.53 0 0 1-3.6-11.45 16.35 16.35 0 0 1 2.61-9.2 12.66 12.66 0 0 1 7.91-5.49 11 11 0 0 1 2.45-.27 10.5 10.5 0 0 1 4.12.79 5.35 5.35 0 0 1 3.64-2.58 5.7 5.7 0 0 1 1.33-.17 5.2 5.2 0 0 1 3.55 1.34 6.28 6.28 0 0 1 2 3.42l4.79 20.73a18 18 0 0 1 .53 4.23 13 13 0 0 1-3.47 9.19 17.7 17.7 0 0 1-9.3 5 18.2 18.2 0 0 1-4.33.41m5.31-12.15a12.7 12.7 0 0 1-4.09 1.67l-.64.11A9 9 0 0 0 74 54.3a4.56 4.56 0 0 0 2.85-1.55m-6.54-19.91a2.77 2.77 0 0 0-2.5 1.33 5.16 5.16 0 0 0-.92 3.11 6.7 6.7 0 0 0 .24 1.77c1.06 4.71 3.39 4.71 4.15 4.71a3.11 3.11 0 0 0 2.64-1.27 4.8 4.8 0 0 0 .89-3 7.3 7.3 0 0 0-.24-1.83 7.55 7.55 0 0 0-1.69-3.55 3.35 3.35 0 0 0-2.57-1.27" fill="#474341"/>
    <path d="M71.54 63.4a18.6 18.6 0 0 1-5.86-.83c-3-.93-3.31-2.29-3.31-3.23a4.5 4.5 0 0 1 .76-2.34 2.76 2.76 0 0 1 1.75-1.34 5.4 5.4 0 0 1 1.25-.14 20 20 0 0 1 2.61.28 23 23 0 0 0 3.16.2 11 11 0 0 0 2.49-.27c3.73-.84 4.54-3.17 4.57-5v-1a.52.52 0 0 0-.33-.48h-.17a.53.53 0 0 0-.39.18l-.61.73A9 9 0 0 1 72.42 53a15 15 0 0 1-2.77.28c-3.64 0-6.71-1.74-9.12-5.16a18.1 18.1 0 0 1-3.32-10.59 14.84 14.84 0 0 1 2.37-8.37 11.15 11.15 0 0 1 7-4.86 9.8 9.8 0 0 1 2.1-.3 8.7 8.7 0 0 1 4 .92l.33.17a.5.5 0 0 0 .24.06.49.49 0 0 0 .46-.32l.14-.35a3.72 3.72 0 0 1 2.89-2.31 4 4 0 0 1 1-.13 3.72 3.72 0 0 1 2.56 1 4.68 4.68 0 0 1 1.47 2.61L86.6 46.4a16.2 16.2 0 0 1 .49 3.89A11.55 11.55 0 0 1 84 58.46 16.3 16.3 0 0 1 75.49 63a16.7 16.7 0 0 1-3.95.4m-1.23-32.06a4.27 4.27 0 0 0-3.76 2 6.64 6.64 0 0 0-1.16 3.93 8.4 8.4 0 0 0 .29 2.15c.87 3.87 2.76 5.83 5.6 5.83a4.57 4.57 0 0 0 3.83-1.86 6.3 6.3 0 0 0 1.2-3.92 9.3 9.3 0 0 0-.28-2.2 9.06 9.06 0 0 0-2-4.18 4.84 4.84 0 0 0-3.72-1.75" fill="#fff"/>
    <path d="M117.52 64.39h-1.28a18.2 18.2 0 0 1-4.24-.79 20.2 20.2 0 0 1-5.86-2.6c-2.51-1.65-3.5-3.56-2.9-5.67a6 6 0 0 1 1.83-2.8 4.33 4.33 0 0 1 2.9-1.2h.23a6 6 0 0 1 .92.11 13.36 13.36 0 0 1-4.56-6.55 19.62 19.62 0 0 1-.34-12 16.4 16.4 0 0 1 5-8.15 12.6 12.6 0 0 1 8.45-3.15h.65a11 11 0 0 1 2.44.4 10.4 10.4 0 0 1 3.75 1.89 5.22 5.22 0 0 1 3.87-1.5h.34a5.5 5.5 0 0 1 1.32.19 5.26 5.26 0 0 1 3.06 2.26 6.22 6.22 0 0 1 .94 3.82L133 50a18 18 0 0 1-.65 4.22 13 13 0 0 1-5.84 7.9 17.16 17.16 0 0 1-9 2.32zm-2.15-10.62a9.6 9.6 0 0 0 1.92.3h.48a4.18 4.18 0 0 0 2.65-.74 11.9 11.9 0 0 1-3.62.51h-.77zm3.27-21.52a2.74 2.74 0 0 0-1.86.74 5.2 5.2 0 0 0-1.72 2.74 7 7 0 0 0-.26 1.77c-.26 4.83 2 5.47 2.72 5.67a3.7 3.7 0 0 0 1 .15 3.07 3.07 0 0 0 1.88-.65 4.9 4.9 0 0 0 1.68-2.67 7.5 7.5 0 0 0 .27-1.82 7.7 7.7 0 0 0-.66-3.88 3.35 3.35 0 0 0-2.13-1.91 3.4 3.4 0 0 0-.92-.14" fill="#474341"/>
    <path d="M117.52 62.89h-1.2a16.7 16.7 0 0 1-3.91-.7 18.4 18.4 0 0 1-5.41-2.43c-2.6-1.71-2.56-3.11-2.31-4a4.46 4.46 0 0 1 1.39-2.09 2.83 2.83 0 0 1 1.9-.82h.14a4.7 4.7 0 0 1 1.24.21 19 19 0 0 1 2.44 1 23 23 0 0 0 3 1.14 11.5 11.5 0 0 0 2.47.41h.54c2.72 0 4.52-1.23 5.22-3.57l.27-.91a.51.51 0 0 0-.18-.55.53.53 0 0 0-.3-.09.5.5 0 0 0-.28.08l-.78.54a8.63 8.63 0 0 1-4.92 1.27h-.7a14 14 0 0 1-2.75-.49c-3.5-1-6-3.49-7.37-7.45a18.13 18.13 0 0 1-.32-11.1 14.86 14.86 0 0 1 4.56-7.42 11.14 11.14 0 0 1 7.47-2.79h.59a9 9 0 0 1 2.09.35 8.6 8.6 0 0 1 3.65 2l.27.26a.56.56 0 0 0 .35.13.48.48 0 0 0 .35-.19l.23-.3a3.63 3.63 0 0 1 3.14-1.45h.27a4 4 0 0 1 1 .15 3.74 3.74 0 0 1 2.21 1.62 4.78 4.78 0 0 1 .7 2.92l-1 21.29a16.5 16.5 0 0 1-.59 3.88 11.58 11.58 0 0 1-5.17 7 15.77 15.77 0 0 1-8.26 2.1zm1.12-32.14a4.2 4.2 0 0 0-2.84 1.11 6.58 6.58 0 0 0-2.19 3.47 8.5 8.5 0 0 0-.31 2.15c-.26 4.93 1.93 6.6 3.81 7.14a5.5 5.5 0 0 0 1.42.2 4.58 4.58 0 0 0 2.78-1 6.32 6.32 0 0 0 2.22-3.46 9 9 0 0 0 .32-2.19 9.06 9.06 0 0 0-.81-4.58 4.83 4.83 0 0 0-3.07-2.7 5.2 5.2 0 0 0-1.33-.14" fill="#fff"/>
    <path d="M180.83 20.59c-8.71-19.42-25.18-22-35-4.52l.82 4.07s5.42-3.16 7-4l3 5.09 6-6.25 4.28 6 3.72-4.89c2.66 2 3.33 3 8.32 6.79z" fill="#ffcb00"/>
  </symbol>
  <use height="52.19" transform="matrix(.88 0 0 .88 2.493 19.087)" width="205.87" xlink:href="#a" style="fill:#474341;fill-opacity:1"/>
  <use height="77.6" transform="matrix(.99 0 0 .99 -.023 66.675)" width="188.05" xlink:href="#b"/>
</svg>
