<svg xmlns="http://www.w3.org/2000/svg" xmlns:xlink="http://www.w3.org/1999/xlink" id="Layer_1" x="0px" y="0px" viewBox="0 0 800 470.8" style="enable-background:new 0 0 800 470.8;" xml:space="preserve"><style type="text/css">	.st0{fill:#0066B0;}</style><g>	<path class="st0" d="M384,107.8c66.8-21.9,91.5-23.4,124.4-23.4l17,0h115V35.7c0-19.6-16.1-35.7-35.7-35.7H205.4   c-19.6,0-35.7,16.1-35.7,35.7v127.6c4.7,4.6,8.3,10.5,10.9,16C219.1,165.3,323.5,127.6,384,107.8z"></path>	<path class="st0" d="M637.9,128.3c-7.6,0-30.7,0-54.6,6.4c-54.7,14.6-71.9,33.8-87.1,50.7c-13.4,15-26,29.1-57.5,36.5   c-6.5,1.5-12.8,2.3-18.8,2.3c-31.6,0-47.6-20.4-52.9-29.1l-1.5-2.5l-11.4-6.7h22.5l1.5,2.4c4.3,6.9,16.8,22.9,41.8,22.9   c5,0,10.3-0.7,15.8-1.9c27.5-6.5,38.3-18.5,50.8-32.4c16.4-18.3,35-39.1,93.5-54.7c25.6-6.8,50-6.8,58-6.8h153.9   c0,0-2.5-15.3-100-15.3c-91,0-124.8,0-166.4,0c-42.4,0-61.1-2-136.5,22.7c-75.4,24.7-217.8,76.7-217.8,76.7s-4.6-19.5-14.3-26.7   c-9.7-7.2-15.6-5.9-7.8,4.5c7.8,10.4-3.9,31.9-27.3,44.2c-23.4,12.3-29.5,11.6-39.2,20.1c0,0-15,3.8-43.1,2.4   c-28.1-1.4-35.5-2.6-37.9-1c-2.4,1.6,14.6,12.6,40.1,16.4c18.1,2.7,28,3.4,33.6,5.7c36,12.1,52,55.7,163.3,55.7   c17.9,0,35.2-1.1,52.3-3.2c-6.8,10.5-15.6,24.3-24.6,39c-1.8,0-3.6,0.1-5.3,0.1c-36.7,0-66.8-6.5-91.1-16v94.4   c0,19.6,16.1,35.7,35.7,35.7h399.4c19.6,0,35.7-16.1,35.7-35.7V228.5c-44.1,19.7-99.2,44.1-133.6,59.1   c5.7,15.1,14.9,41.3,17.9,62.6c4.6,31.9,1.3,65.6-11.7,39c-11.2-22.9-44.9-68.8-54.1-81.3c-37.3,15.3-90.8,35.7-146.5,44.4   c-11.2,13.6-22.9,27.3-33.8,39.2c-38.3,41.8-45.9,36-45.9,36c0.9-1,1.9-2,3-3.1c0.4-0.4,0.8-0.8,1.1-1.2c0.7-0.7,1.4-1.5,2.1-2.3   c0.5-0.5,1-1.1,1.5-1.6c0.7-0.7,1.4-1.5,2.1-2.3c0.6-0.6,1.1-1.2,1.7-1.9c0.7-0.8,1.4-1.5,2.1-2.3c0.6-0.7,1.2-1.4,1.9-2.1   c0.7-0.8,1.4-1.6,2-2.4c0.7-0.8,1.4-1.6,2.1-2.4c0.6-0.7,1.2-1.5,1.9-2.2c0.8-0.9,1.6-1.8,2.4-2.8c0.5-0.6,1-1.2,1.5-1.8   c4.8-5.7,9.8-11.8,14.7-18c0.2-0.2,0.4-0.5,0.6-0.7c1.2-1.5,2.3-2.9,3.5-4.4c0.3-0.3,0.6-0.7,0.8-1c1.1-1.4,2.3-2.9,3.4-4.3   c0.3-0.3,0.5-0.7,0.8-1c1.1-1.5,2.3-2.9,3.4-4.4c0.2-0.3,0.4-0.6,0.7-0.9c1.2-1.5,2.3-3,3.5-4.5c0.1-0.1,0.2-0.3,0.3-0.4   c3.8-5.1,7.5-10,10.9-14.6c1.1-1.5,2.2-3.1,3.3-4.6c0.6-0.8,1.1-1.5,1.7-2.3c0.6-0.8,1.1-1.5,1.7-2.3c0.7-1,1.4-1.9,2.1-2.8   c0.4-0.5,0.8-1.1,1.2-1.6c0.8-1.1,1.6-2.2,2.4-3.3c0.2-0.3,0.5-0.7,0.7-1c0.9-1.2,1.8-2.4,2.7-3.6c0.1-0.2,0.3-0.4,0.4-0.5   c3-4.1,6-7.9,8.6-11.4c0.8-1,1.5-2,2.2-2.9c0.2-0.3,0.4-0.6,0.6-0.8c0.7-0.9,1.3-1.7,1.9-2.5c0.1-0.2,0.3-0.4,0.4-0.6c0,0,0,0,0,0   c0.8-1,1.6-2,2.3-3c0,0,0,0,0,0c0.1-0.2,0.3-0.4,0.4-0.5c0.3-0.4,0.5-0.7,0.8-1c0.4-0.5,0.7-1,1.1-1.4c0.5-0.6,0.9-1.2,1.4-1.7   c0.1-0.2,0.2-0.3,0.4-0.5c0.3-0.4,0.6-0.8,0.9-1.2c0.2-0.3,0.5-0.6,0.7-0.9c0,0,0,0,0.1-0.1c0.8-1.1,1.5-1.9,1.9-2.5l24.7-6.8   c0,0-6.1,8.2-15.7,20.6c70.1-20.1,134.5-60.3,198.9-120.9c41.3-38.9,101.9-38.9,127.3-38.9c20.1,0,90.1,0,116.8,0   c1.6-1.9,3-3.7,4-5.6c2.7-4.7,3.6-8.6,3.5-11.9H637.9z M422.4,142.4c16.7-6.2,33.9-1,38.5,11.4c4.4,11.8-4.1,26-19.2,32.7   c7.8-5,12-12.8,9.6-19.2c-2.9-8-14.9-11-26.6-6.6c-11.8,4.3-18.9,14.4-15.9,22.4c0.7,1.8,1.8,3.3,3.3,4.5   c-5.4-2.4-9.5-6.3-11.4-11.5C396,163.7,405.8,148.6,422.4,142.4z"></path></g></svg>