<svg xmlns="http://www.w3.org/2000/svg" width="400" height="400" viewBox="0 0 129 129" fill="none">
  <path d="M64.4.184C28.834.184 0 28.815 0 64.264c0 35.45 28.834 64.401 64.4 64.401s64.3-28.834 64.3-64.4S99.866.183 64.4.183m0 111.615c-26.174 0-47.534-21.461-47.534-47.535S38.226 16.95 64.4 16.95c26.175 0 47.316 21.141 47.316 47.315 0 26.175-21.141 47.535-47.315 47.535" fill="#ef373c"/>
  <path d="M48.274 34.89c-7.474 0-13.348 6.195-13.348 13.568S40.8 61.705 48.274 61.705c7.473 0 13.449-5.976 13.449-13.247 0-7.272-6.093-13.567-13.45-13.567m32.036-.001c-7.255 0-13.348 6.195-13.348 13.568s6.093 13.247 13.348 13.247 13.348-5.976 13.348-13.247c0-7.272-5.874-13.567-13.348-13.567M48.274 67.043c-7.474 0-13.348 5.874-13.348 13.348S40.8 93.739 48.274 93.739c7.473 0 13.449-5.975 13.449-13.348s-6.093-13.348-13.45-13.348m32.036 0c-7.255 0-13.348 5.874-13.348 13.348s6.093 13.348 13.348 13.348 13.348-5.975 13.348-13.348-5.874-13.348-13.348-13.348" fill="#ef373c"/>
</svg>
