<svg xmlns="http://www.w3.org/2000/svg" width="64" height="64" viewBox="0 0 48 48" fill="none">
  <path fill-rule="evenodd" clip-rule="evenodd" d="M35.153 19.79C34.595 14.216 30.76 9.6 24 9.6s-10.591 4.58-11.152 10.19h-.171c-4.35 0-7.877 3.629-7.877 8.105S8.327 36 12.677 36H21.6v-7.2a4.8 4.8 0 0 1 4.8-4.8h15.832c-1.339-2.509-3.93-4.21-6.909-4.21z" fill="#0078d4"/>
  <path d="M24 28.8a2.4 2.4 0 0 1 2.4-2.4h16.8a2.4 2.4 0 0 1 2.4 2.4v9.6a2.4 2.4 0 0 1-2.4 2.4h-4.8v2.4h1.2a1.2 1.2 0 0 1 0 2.4H30a1.2 1.2 0 1 1 0-2.4h1.2v-2.4h-4.8a2.4 2.4 0 0 1-2.4-2.4z" fill="#8dc8e8"/>
</svg>
