<svg xmlns="http://www.w3.org/2000/svg" viewBox="0 0 512 512" xml:space="preserve">
  <path d="M358.4 512H153.6c-21.6 0-40-17.6-40-40V40c0-21.6 17.6-40 40-40h204.8c21.6 0 40 17.6 40 40v432.8c0 21.6-18.4 39.2-40 39.2"/>
  <path style="fill:#ccc" d="M132.8 40.8H380v404H132.8zm160-16h-50.4c-2.4 0-4-1.6-4-4s1.6-4.8 4-4.8h50.4c2.4 0 4 1.6 4 4s-1.6 4.8-4 4.8"/>
  <circle style="fill:#ccc" cx="219.2" cy="20" r="4"/>
  <path style="fill:#ccc" d="M256 497.6c-10.4 0-19.2-8.8-19.2-19.2s8.8-19.2 19.2-19.2 19.2 8.8 19.2 19.2-8.8 19.2-19.2 19.2m0-35.2c-8.8 0-15.2 7.2-15.2 15.2s7.2 15.2 15.2 15.2 15.2-7.2 15.2-15.2-6.4-15.2-15.2-15.2"/>
  <ellipse style="fill:#bcbcbc" cx="256" cy="373.6" rx="64.8" ry="8.8"/>
  <path style="fill:#e21b1b" d="m256 373.6-11.2-15.2c-8.8-11.2-82.4-109.6-82.4-159.2 0-59.2 36.8-96.8 93.6-96.8s93.6 38.4 93.6 96.8c0 48.8-73.6 148-82.4 159.2z"/>
  <circle style="fill:#fff" cx="256" cy="200" r="30.4"/>
</svg>
