<svg version="1.0" xmlns="http://www.w3.org/2000/svg" width="682.667" height="682.667" viewBox="0 0 512 512">
  <path d="M250.5 96.4c-2.2.8-9.8 3.2-17 5.4-7.1 2.2-22 6.8-33 10.2s-35 10.8-53.3 16.5c-18.3 5.6-33.4 10.4-33.7 10.6-2.3 2.3-3.3 52.3-1.4 73.4 4.3 50.5 18.2 94.1 40.6 127.7 12.3 18.4 24 31.1 41.3 44.9 13 10.4 39.6 24.8 55.3 29.9l6.9 2.2 6.6-2.2c10.7-3.5 34.1-15.3 44.8-22.6 24.8-16.7 41.6-34.7 57.6-61.4 23.1-38.7 35.8-91.9 35.8-150.1 0-14.5-1.6-40.8-2.5-41.7-.2-.2-12-4-26.2-8.4-21.8-6.7-68.8-21.2-106.2-32.9-10.5-3.3-10.2-3.2-15.6-1.5m28.5 96.7c9.4 2.4 16.4 5.2 17.5 6.9.6 1-5.8 20.5-7.4 22.2-.4.4-3.4-.4-6.8-1.7-8.2-3.4-19.2-5-27.6-4.1-5.6.6-7.5 1.3-10.3 3.8-3 2.6-3.4 3.6-3.4 7.9 0 4.2.5 5.2 3.4 8.1 2.1 2.1 6.8 4.6 12.3 6.7 4.8 1.8 13.8 5.6 20 8.3 17.7 7.9 24.4 15.8 26.6 31.4 2.4 17.7-4.7 32.5-19.1 39.8-11.4 5.8-37.8 7.5-55.5 3.6-9.6-2.1-20.7-6.6-20.6-8.4 0-.6 1.7-5.8 3.8-11.6 2.5-6.9 4.3-10.4 5.2-10.3.8.1 4.6 1.4 8.6 2.8 13.3 4.7 33.1 5.7 40.1 2.1 9-4.7 9.5-15.5 1-22-3.1-2.3-7.8-4.4-26.6-11.6-22.1-8.6-31.5-21.2-29.9-40 1.4-17.2 13.1-30 31.5-34.4 9.1-2.3 27.3-2 37.2.5" fill="#545ae5"/>
</svg>
