<svg height="512" viewBox="0 0 256 256" width="512" xmlns="http://www.w3.org/2000/svg">
  <path d="M157.889 137.715H98.11c-19.196 0-32.822-18.706-26.935-36.977l9.933-30.829h93.784l9.933 30.829c5.886 18.271-7.74 36.977-26.936 36.977" fill="#7c3108"/>
  <path d="M199.31 188.18v29.7c0 5.53-4.48 10-10 10H66.69c-5.52 0-10-4.47-10-10v-29.7c0-22.09 17.91-40 40-40h62.62c22.09 0 40 17.91 40 40" fill="#f79219"/>
  <path d="M166.474 148.823c7.893 7.307 12.834 17.756 12.834 29.359v29.7c0 5.523-4.477 10-10 10H56.692c0 5.523 4.477 10 10 10h122.616c5.523 0 10-4.477 10-10v-29.7c0-19.644-14.162-35.981-32.834-39.359" fill="#ef7816"/>
  <path d="M116.508 126.744v28.443c0 2.2.632 4.355 1.82 6.207 4.522 7.048 14.823 7.048 19.345 0a11.5 11.5 0 0 0 1.82-6.207v-28.442h-22.985z" fill="#fcc4ae"/>
  <path d="M116.508 135.638c3.612 1.208 7.473 1.872 11.492 1.872s7.881-.664 11.493-1.873v-8.893h-22.985z" fill="#f2ad97"/>
  <circle cx="91.844" cy="96.866" fill="#ffd2c0" r="11.646"/>
  <circle cx="91.844" cy="96.866" fill="#f2ad97" r="6.692"/>
  <circle cx="164.156" cy="96.866" fill="#ffd2c0" r="11.646"/>
  <circle cx="164.156" cy="96.866" fill="#f2ad97" r="6.692"/>
  <path d="M164.22 77.49v18.8c.121 20.132-16.752 36.391-36.22 36.22-19.468.17-36.341-16.087-36.22-36.22v-18.8c0-20 16.22-36.22 36.22-36.22 20.004-.006 36.214 16.224 36.22 36.22" fill="#ffd2c0"/>
  <path d="M91.78 77.489v9.666c14.114-9.422 23.143-25.497 23.087-43.122l-.002-.308c-13.51 5.26-23.085 18.394-23.085 33.764" fill="#f2ad97"/>
  <path d="M150.988 49.501a36.07 36.07 0 0 1 8.231 22.988V91.29c0 20.003-16.216 36.219-36.219 36.219a36.07 36.07 0 0 1-22.988-8.231c6.643 8.078 16.713 13.231 27.988 13.231 20.003 0 36.219-16.216 36.219-36.219V77.489c0-11.275-5.153-21.345-13.231-27.988" fill="#fcc4ae"/>
  <path d="M114.867 34.034c.061 19.232-10.695 36.619-27.07 45.529-3.464 1.885-7.717-.828-7.37-4.757 1.177-13.345 7.108-25.559 16.431-34.162a47.3 47.3 0 0 1 17.86-10.424c.096 1.26.149 2.528.149 3.814" fill="#7c3108"/>
  <path d="M172.631 76.39c-30.362 15.674-68.533-2.216-75.774-35.746 5.009-4.639 10.994-8.222 17.746-10.387 28.227-9.163 56.357 12.318 60.643 41.029a4.95 4.95 0 0 1-2.615 5.104" fill="#8c3f0a"/>
  <path d="M175.245 71.286c-4.286-28.71-32.416-50.192-60.643-41.029-6.752 2.165-12.737 5.748-17.746 10.387q.28 1.295.62 2.558a47 47 0 0 1 7.125-2.945c27.671-8.983 55.249 11.484 60.362 39.341a52 52 0 0 0 7.666-3.208 4.94 4.94 0 0 0 2.616-5.104" fill="#7c3108"/>
  <path d="M175.245 71.286c-4.286-28.71-32.416-50.192-60.643-41.029-6.752 2.165-12.737 5.748-17.746 10.387q.09.414.185.825a47.2 47.2 0 0 1 12.561-6.212c28.227-9.163 56.357 12.318 60.643 41.029.063.42.068.839.024 1.249q1.189-.54 2.362-1.145a4.95 4.95 0 0 0 2.614-5.104" fill="#6d2e03"/>
  <circle cx="110.979" cy="91.546" fill="#995222" r="4.388"/>
  <circle cx="145.021" cy="91.546" fill="#995222" r="4.388"/>
  <path d="M148.979 78.13c-7.46 0-14.66-1.63-21.41-4.85a50.1 50.1 0 0 1-16.88-13.13 2.015 2.015 0 0 1 .261-2.82c.819-.68 2.149-.55 2.819.26 8.71 10.51 21.54 16.54 35.2 16.54 2.6 0 5.18-.22 7.68-.67a2.01 2.01 0 0 1 2.32 1.62 2 2 0 0 1-1.62 2.32c-2.74.49-5.549.73-8.37.73M107.68 54.3c-.71 0-1.37-.38-1.729-.99 0-.01 0-.01-.011-.01-.26-.47-.33-1-.189-1.52.14-.52.47-.95.939-1.21.931-.53 2.2-.18 2.73.74v.01c.26.46.33 1 .189 1.51-.14.52-.47.95-.939 1.21-.3.17-.64.26-.99.26" fill="#995222"/>
  <path d="m153.85 148.18-14.321-6.46v6.211L128 165.897l-11.529-17.967v-6.211l-14.312 6.46 18.335 49.766c2.571 6.979 12.441 6.979 15.013.001z" fill="#d1d3d4"/>
  <path d="m102.16 148.18 10.793 29.276a1.74 1.74 0 0 0 2.862.628L128 165.897l-11.529-17.967v-6.21zm51.69 0-10.802 29.276a1.74 1.74 0 0 1-2.862.628L128 165.897l11.529-17.967v-6.21z" fill="#f1f2f2"/>
  <path d="M91.78 83.195h5.197v3H91.78zm33.963 4.828-2.121-2.121c1.175-1.175 2.736-1.822 4.396-1.822s3.222.647 4.396 1.822l-2.121 2.121c-1.218-1.217-3.333-1.217-4.55 0" fill="#ef7816"/>
  <path d="M115.712 103.896h-9.466c-5.938 0-10.768-4.83-10.768-10.767v-8.435c0-3.033 2.468-5.5 5.5-5.5h20c3.032 0 5.5 2.467 5.5 5.5v8.435c.001 5.937-4.83 10.767-10.766 10.767m-14.733-21.701a2.503 2.503 0 0 0-2.5 2.5v8.435c0 4.283 3.484 7.767 7.768 7.767h9.466c4.282 0 7.767-3.484 7.767-7.767v-8.435c0-1.378-1.121-2.5-2.5-2.5z" fill="#f79219"/>
  <path d="M159.021 83.195h5.197v3h-5.197z" fill="#ef7816"/>
  <path d="M149.754 103.896h-9.466c-5.937 0-10.767-4.83-10.767-10.767v-8.435c0-3.033 2.468-5.5 5.5-5.5h20c3.032 0 5.5 2.467 5.5 5.5v8.435c0 5.937-4.83 10.767-10.767 10.767m-14.733-21.701a2.503 2.503 0 0 0-2.5 2.5v8.435c0 4.283 3.484 7.767 7.767 7.767h9.466c4.283 0 7.768-3.484 7.768-7.767v-8.435c0-1.378-1.121-2.5-2.5-2.5z" fill="#f79219"/>
  <path d="M134.44 109.715c.996 0 1.751.93 1.521 1.9a8.187 8.187 0 0 1-15.922 0c-.23-.969.524-1.9 1.521-1.9z" fill="#e59076"/>
  <g/>
  <g/>
  <g/>
  <g/>
  <g/>
  <g/>
  <g/>
  <g/>
  <g/>
  <g/>
</svg>
