<svg height="512" viewBox="0 0 512 512" width="512" xmlns="http://www.w3.org/2000/svg">
  <path d="M407.012 504H104.988v-80.421c0-64.319 52.141-116.459 116.459-116.459h69.106c64.319 0 116.459 52.141 116.459 116.459z" fill="#86dcff"/>
  <path d="M104.988 486h302.025v18H104.988z" fill="#56caed"/>
  <path d="m256 414.56 86.533-95.216c-15.648-7.818-33.298-12.225-51.98-12.225h-69.106c-18.682 0-36.332 4.406-51.98 12.224z" fill="#e4eef9"/>
  <path d="M181.213 314.269a116 116 0 0 0-11.746 5.075L256 414.56l86.533-95.216a116 116 0 0 0-11.746-5.075L259.7 392.488a5 5 0 0 1-7.4 0z" fill="#d5e0f2"/>
  <path d="M161.479 212.599v-37.882a32 32 0 0 0-3.259-.167c-17.406 0-31.517 14.111-31.517 31.517s14.111 31.517 31.517 31.517a31.6 31.6 0 0 0 6.426-.658 94.6 94.6 0 0 1-3.167-24.327m192.301-38.05q-1.652.001-3.259.167v37.882a94.6 94.6 0 0 1-3.167 24.327 31.6 31.6 0 0 0 6.426.658c17.406 0 31.517-14.111 31.517-31.517s-14.111-31.517-31.517-31.517" fill="#ffc4ad"/>
  <path d="M158.22 219.584c-14.278 0-26.332-9.497-30.206-22.517a31.5 31.5 0 0 0-1.311 9c0 17.406 14.111 31.517 31.517 31.517a31.6 31.6 0 0 0 6.426-.658 94.5 94.5 0 0 1-2.919-17.542c-1.152.128-2.321.2-3.507.2m195.56 0c-1.186 0-2.355-.071-3.507-.199a94.5 94.5 0 0 1-2.918 17.542 31.6 31.6 0 0 0 6.426.658c17.406 0 31.517-14.111 31.517-31.517 0-3.128-.463-6.147-1.311-9-3.875 13.018-15.929 22.516-30.207 22.516" fill="#ffb69f"/>
  <path d="M161.479 77.674v134.925c0 52.202 42.319 94.521 94.521 94.521s94.521-42.318 94.521-94.521V77.674z" fill="#ffe0cc"/>
  <path d="M256 289.12c-52.202 0-94.521-42.318-94.521-94.521v18c0 52.202 42.319 94.521 94.521 94.521s94.521-42.318 94.521-94.521v-18c0 52.202-42.319 94.521-94.521 94.521" fill="#ffceb3"/>
  <path d="M350.51 147.095c-18.732-10.735-36.099-41.959-36.099-41.959-18.067 34.458-57.299 38.169-57.299 38.169 3.613-17.494-9.808-33.928-9.808-33.928-31.617 36.645-72.677 39.425-83.294 39.161a17.8 17.8 0 0 1-4.76-.777c-24.742-7.573-47.856-37.878-47.856-37.878 35.815 1.109 47.73-22.116 47.73-22.116-36.596 1.107-39.1-36.647-39.1-36.647 55.186 7.195 66.228-25.436 114.895-39.81s83.125 22.748 83.125 22.748 49.323-4.762 53.555 45.52c4.044 48.058-21.089 67.517-21.089 67.517" fill="#2d4456"/>
  <path d="M347.022 126.858c-11.917-8.434-22.853-24.03-28.53-32.965-1.872-2.947-6.073-3.065-8.211-.305-20.435 26.387-62.976 15.789-62.976 15.789s13.421 16.434 9.808 33.928c0 0 39.231-3.711 57.299-38.169 0 0 17.367 31.224 36.099 41.959 0 0 24.734-19.178 21.161-66.436-2.075 25.399-12.748 39.794-18.097 45.516-1.714 1.831-4.507 2.131-6.553.683m-98.661-23.407c.678-4.69-4.996-7.588-8.406-4.297-30.329 29.273-66.134 31.629-75.945 31.384a17.8 17.8 0 0 1-4.76-.777c-12.012-3.677-23.632-12.71-32.418-21.034-4.566.879-9.69 1.333-15.438 1.155 0 0 23.114 30.305 47.856 37.878 1.547.474 3.145.737 4.76.777 10.618.265 51.677-2.516 83.294-39.161.464-2.242.808-4.206 1.057-5.925" fill="#253847"/>
  <path d="M273.52 340.974h-35.04l-7.643-33.854h50.326z" fill="#e6485d"/>
  <path d="m256 414.56 25.772-28.359-8.252-45.228h-35.04l-8.252 45.228z" fill="#ff5876"/>
  <path d="m281.772 386.201-2.735-14.99-19.337 21.277a5 5 0 0 1-7.4 0l-19.337-21.277-2.735 14.99L256 414.56z" fill="#e6485d"/>
  <path d="M169.467 319.344a116.7 116.7 0 0 0-26.278 17.988L244.9 449.248c5.952 6.549 16.25 6.549 22.201 0l101.711-111.916a116.7 116.7 0 0 0-26.278-17.988L256 414.56z" fill="#ffcf4d"/>
  <path d="M267.101 431.249c-5.952 6.549-16.25 6.549-22.201 0l-92.322-101.585a117 117 0 0 0-9.389 7.669L244.9 449.249c5.952 6.549 16.25 6.549 22.201 0l101.711-111.916a117 117 0 0 0-9.389-7.669z" fill="#ffb629"/>
  <path d="M307.393 300.861c21.199-12.383 37.564-32.175 45.514-55.802.352.009.704.027 1.056.027 21.554 0 39.09-17.536 39.09-39.09 0-20.118-15.279-36.73-34.841-38.855V150.19c7.172-7.223 24.637-29.412 21.09-71.552-1.438-17.09-7.749-30.412-18.759-39.597-14.114-11.775-31.87-13.029-39.427-13.011-9.321-8.71-42.93-35.781-88.365-22.363-8.786 2.596-17.188 5.987-25.683 10.368a7.514 7.514 0 1 0 6.887 13.357c7.644-3.942 15.185-6.989 23.052-9.312 43.537-12.861 74.366 19.332 75.644 20.696a7.57 7.57 0 0 0 6.204 2.37c.186-.019 18.973-1.559 32.149 9.511 7.755 6.515 12.237 16.354 13.321 29.243 2.721 32.335-8.474 50.18-14.563 57.339-14.983-11.636-28.53-35.748-28.677-36.013-2.622-5.143-10.703-5.055-13.221.163-10.992 20.965-31.191 29.292-42.743 32.449-1.24-16.068-11.486-28.817-12.014-29.463-2.781-3.58-8.639-3.659-11.509-.156-31.659 36.693-72.973 36.738-77.572 36.631a10.3 10.3 0 0 1-2.758-.452c-13.076-4.003-26.035-15.496-34.501-24.295 28.068-4.837 38.368-24.237 38.86-25.196 2.689-4.851-1.393-11.285-6.912-10.94-12.182.377-20.802-4.117-26.332-13.714-1.385-2.403-2.403-4.852-3.148-7.088 26.947 1.332 43.469-7.084 59.235-16.663a7.513 7.513 0 0 0 2.52-10.323 7.513 7.513 0 0 0-10.323-2.52c-15.914 9.67-31.407 17.372-59.926 13.652-4.543-.708-8.887 3.37-8.469 7.948.03.455.808 11.27 6.777 21.943 4.276 7.648 11.777 16.304 24.622 19.993-8.468 6.327-19.329 9.333-32.314 8.929-6.125-.387-10.088 7.311-6.207 12.067.966 1.268 23.122 30.016 48.638 39.519v13.433c-19.562 2.125-34.841 18.737-34.841 38.855 0 21.554 17.536 39.09 39.09 39.09.352 0 .704-.018 1.056-.027 7.949 23.627 24.314 43.419 45.514 55.802-60.573 8.216-107.415 60.264-107.415 123.054v15.61a7.514 7.514 0 1 0 15.028 0v-15.61c0-29.3 11.606-55.938 30.458-75.566l96.64 106.337c8.48 9.747 24.885 9.747 33.364 0l31.585-34.754a7.514 7.514 0 0 0-.507-10.614 7.513 7.513 0 0 0-10.614.507l-31.585 34.754c-2.822 3.259-8.3 3.259-11.121 0l-96.636-106.333a109.5 109.5 0 0 1 13.899-9.353l82.738 91.04c2.826 3.251 8.296 3.25 11.121 0l82.738-91.04a110 110 0 0 1 13.899 9.353l-44.827 49.326a7.514 7.514 0 1 0 11.121 10.107l44.83-49.329c18.853 19.628 30.458 46.266 30.458 75.566v73.057H355.04v-58.633a7.514 7.514 0 1 0-15.028 0v58.633H171.989v-58.633a7.514 7.514 0 1 0-15.028 0v58.633H112.22v-27.391a7.514 7.514 0 1 0-15.028 0v34.905a7.514 7.514 0 0 0 7.514 7.514h302.589a7.514 7.514 0 0 0 7.514-7.514v-80.571c-.001-62.793-46.843-114.841-107.416-123.057m-39.847 32.78h-23.092l-4.264-18.889h31.62zm110.478-127.645c0 12.331-9.325 22.52-21.293 23.898a102.4 102.4 0 0 0 1.48-17.353v-30.224c11.248 2.014 19.813 11.861 19.813 23.679m-244.048 0c0-11.817 8.566-21.665 19.813-23.679v30.224c0 5.914.511 11.711 1.48 17.353-11.968-1.379-21.293-11.567-21.293-23.898m34.84 6.545v-56.769c13.328-.687 47.859-5.381 77.288-34.389 2.658 5.316 5.186 12.789 3.652 20.214a7.52 7.52 0 0 0 1.763 6.535 7.54 7.54 0 0 0 6.303 2.466c1.588-.15 35.383-3.68 56.597-31.594 6.438 9.703 17.022 23.79 28.764 32.007v61.53c0 48.073-39.111 87.183-87.184 87.183s-87.183-39.11-87.183-87.183m52.566 102.211h3.401l5.996 26.562-5.264 28.85-43.635-48.013c12.257-4.774 25.578-7.399 39.502-7.399M256 403.706l-17.761-19.544 6.476-35.494h22.571l6.476 35.494zm30.484-33.542-5.264-28.85 5.996-26.562h3.401c13.924 0 27.245 2.625 39.501 7.399z"/>
  <path d="M256 260.779c26.662 0 34.723-18.737 35.074-19.588l.003-.006c2.124-4.773-1.652-10.532-6.913-10.414a7.5 7.5 0 0 0-6.929 4.631c-.379.803-5.247 10.377-21.235 10.377-15.983 0-20.853-9.57-21.235-10.377a7.5 7.5 0 0 0-6.929-4.631c-5.261-.118-9.036 5.642-6.912 10.414l.003.006c.35.851 8.411 19.588 35.073 19.588m-45.801-84.73a7.5 7.5 0 0 0-7.5 7.5v21.19a7.5 7.5 0 0 0 15 0v-21.19a7.5 7.5 0 0 0-7.5-7.5m91.602 36.191a7.5 7.5 0 0 0 7.5-7.5v-21.19a7.5 7.5 0 0 0-15 0v21.19a7.5 7.5 0 0 0 7.5 7.5"/>
</svg>
