<svg height="514.502" viewBox="0 0 192.999 514.502" width="192.999" xmlns="http://www.w3.org/2000/svg">
  <g transform="rotate(134.99 167.92 220.957)"/>
  <path d="m128.614 96.463-19.091 10.052-24.514.004-20.705-10.045L79.386 5.883a7.034 7.034 0 0 1 6.937-5.88L106.56 0a7.034 7.034 0 0 1 6.94 5.877z" fill="#f24141"/>
  <path d="M79.385 5.883 64.303 96.475l20.705 10.045-.002-10.048L101.066.003 86.323.006a7.03 7.03 0 0 0-6.937 5.877" fill="#d83939"/>
  <path d="m160.776 138.703-128.621.022-.007-35.17a7.034 7.034 0 0 1 7.034-7.036l114.552-.02a7.034 7.034 0 0 1 7.036 7.034z" fill="#a3262c"/>
  <path d="m79.376 96.513-40.195.007a7.034 7.034 0 0 0-7.033 7.036l.006 35.17 40.195-.007-.006-35.17a7.034 7.034 0 0 1 7.033-7.036" fill="#822029"/>
  <path d="m182.645 514.473-172.228.03c-5.718.001-10.353-4.632-10.354-10.35l-.01-53.96 10.045-22.103-.037-215.378-10.052-19.76-.01-53.96c0-5.717 4.633-10.353 10.35-10.354l172.229-.029c5.717 0 10.353 4.633 10.354 10.35l.009 53.96-10.045 19.764.037 215.378 10.053 22.1.01 53.96c0 5.716-4.633 10.351-10.35 10.352" fill="#f24141"/>
  <path d="m192.957 192.894.044 257.204L.1 450.132.054 192.928Z" fill="#ffe02f"/>
  <path d="M51.76 138.984c-.002-5.718 4.632-10.353 10.35-10.354l-51.76.01c-5.718 0-10.352 4.635-10.351 10.353l.01 53.96 51.76-.01zM.053 450.194l.01 53.96c0 5.717 4.636 10.35 10.353 10.35l51.76-.01c-5.717.002-10.352-4.632-10.353-10.35l-.01-53.959z" fill="#d83939"/>
  <path d="m51.803 192.91.044 257.204-51.752.01L.05 192.92z" fill="#fbc700"/>
  <path d="M96.493 297.228a7.764 7.764 0 0 1-7.765-7.763l-.005-27.837a7.764 7.764 0 0 1 15.528-.003l.005 27.838a7.763 7.763 0 0 1-7.763 7.765m16.08.058a7.765 7.765 0 0 1-5.084-13.635l16.075-13.912a7.765 7.765 0 0 1 10.162 11.742l-16.075 13.912a7.74 7.74 0 0 1-5.077 1.893m-32.947.006a7.73 7.73 0 0 1-5.077-1.892l-16.08-13.907a7.765 7.765 0 0 1 10.157-11.745l16.08 13.907a7.765 7.765 0 0 1-5.08 13.637" fill="#07b27b"/>
  <path d="m110.17 385.864-27.323.005c-26.621.005-48.205-21.572-48.21-48.193s21.572-48.205 48.193-48.21l27.323-.004c26.621-.005 48.205 21.571 48.21 48.193s-21.572 48.205-48.193 48.21" fill="#f24141"/>
  <path d="M76.045 337.669c-.004-24.228 17.87-44.284 41.15-47.697a48.5 48.5 0 0 0-7.042-.51l-27.323.004c-26.62.005-48.197 21.59-48.193 48.21s21.589 48.198 48.21 48.193l27.323-.005a48.6 48.6 0 0 0 7.042-.513c-23.282-3.404-41.162-23.454-41.167-47.682" fill="#d83939"/>
</svg>
