<svg width="256" height="256" viewBox="0 0 48 48" fill="none" xmlns="http://www.w3.org/2000/svg">
<path d="M22 37C22 43.0751 17.0751 48 11 48C4.92487 48 0 43.0751 0 37C0 30.9249 4.92487 26 11 26C17.0751 26 22 30.9249 22 37Z" fill="url(#paint0_linear_7601_167457)"/>
<path d="M10.1382 13.935L1.25586 31.8954C2.62949 30.1309 4.77376 28.9958 7.18312 28.9958C10.209 28.9958 12.729 30.7991 14.025 33.4496C15.7734 37.0255 17.4819 40.3994 19.2114 43.8854C20.3807 46.3195 22.8691 48 25.75 48.0001H41.5L38.2323 46.6363L22.3679 15.922C20.6485 13.8325 18.0425 12.5 15.1252 12.5C13.2925 12.5 11.5826 13.0259 10.1382 13.935Z" fill="url(#paint1_linear_7601_167457)"/>
<path d="M32.1204 5.37991L46.0725 33.1586C46.6321 34.2422 47.2078 35.7484 47.2078 35.7484C47.6733 36.9567 47.9575 38.3129 47.999 39.7498C47.999 40.0832 47.9992 40.4166 47.9992 40.75C47.9992 44.7541 45.0331 48 41.3742 48C38.827 48 36.6155 46.4268 35.5068 44.1198L22.9848 19.4119C21.5227 16.3507 18.692 14 15.0956 14C12.4813 14 10.1442 15.1868 8.59375 17.0511L14.3781 5.38021C16.0466 2.18278 19.3931 0 23.2493 0C27.1055 0 30.4519 2.18264 32.1204 5.37991Z" fill="url(#paint2_linear_7601_167457)"/>
<defs>
<linearGradient id="paint0_linear_7601_167457" x1="-4.48215" y1="43.562" x2="17.6176" y2="37.1717" gradientUnits="userSpaceOnUse">
<stop offset="0.141549" stop-color="#9B52AA"/>
<stop offset="0.9988" stop-color="#4F2757"/>
</linearGradient>
<linearGradient id="paint1_linear_7601_167457" x1="27.5312" y1="40.7024" x2="11.7529" y2="16.7114" gradientUnits="userSpaceOnUse">
<stop stop-color="#B75CC9"/>
<stop offset="1" stop-color="#E8AAF4"/>
</linearGradient>
<linearGradient id="paint2_linear_7601_167457" x1="19.237" y1="7.625" x2="40.4817" y2="49.2573" gradientUnits="userSpaceOnUse">
<stop stop-color="#CB6ADE"/>
<stop offset="0.435975" stop-color="#8D479B"/>
<stop offset="1" stop-color="#4F2757"/>
</linearGradient>
</defs>
</svg>
