<?xml version="1.0" encoding="UTF-8"?> <svg xmlns="http://www.w3.org/2000/svg" xmlns:xlink="http://www.w3.org/1999/xlink" width="500px" height="165px" viewBox="0 0 500 165" version="1.1"><!-- Generator: Sketch 58 (84663) - https://sketch.com --><title>Vivi_Logo_clr</title><desc>Created with Sketch.</desc><g id="Page-1" stroke="none" stroke-width="1" fill="none" fill-rule="evenodd"><g id="Vivi" transform="translate(-606.000000, -142.000000)"><g id="Vivi_Logo_clr" transform="translate(606.000000, 142.000000)"><path d="M137.36364,111.296938 L104.915904,84.7049945 L103.788187,83.8218613 L1.60283581,0.221796622 C1.22995304,-0.0838209871 0.691700217,-0.0720458778 0.331086831,0.24748777 C-0.0295265553,0.568091882 -0.105276704,1.10385936 0.151847041,1.51170632 L102.855713,164.540771 C103.03602,164.82605 103.347556,165 103.684164,165 C103.684164,165 103.68523,165 103.686297,165 C104.021305,165 104.333908,164.828726 104.514215,164.544517 L137.570086,112.590059 C137.838412,112.168296 137.749326,111.61219 137.36364,111.296938" id="Fill-1" fill="#007EFF"></path><path d="M152.757195,85.5436435 C152.938378,85.8274685 153.251427,85.998935 153.589671,86 C153.589671,86 153.590743,86 153.591815,86 C153.928986,86 154.242036,85.829066 154.423219,85.547371 L208.427476,1.50855185 C208.689065,1.1022508 208.613483,0.568148636 208.25219,0.248645844 C207.888752,-0.0719219563 207.347348,-0.0841695633 206.971581,0.221488107 L136.091061,57.7367831 C135.704573,58.0504283 135.615054,58.6005056 135.880932,59.0195868 L152.757195,85.5436435" id="Fill-2" fill="#007EFF"></path><path d="M270.853052,100.471218 L270.852521,100.473372 C268.931835,105.49925 267.272022,110.548815 265.666404,115.431497 C265.249325,116.700348 264.832778,117.968123 264.411981,119.233206 C262.511485,113.590398 260.289015,107.098638 257.863585,100.471218 L243.420453,63 L227.54491,63 L255.870641,133 L272.577684,133 L300.399202,63 L285.296715,63 L270.853052,100.471218" id="Fill-3" fill="#1D1E1C"></path><polyline id="Fill-4" fill="#1D1E1C" points="306.387226 75.8979243 336.688638 75.8979243 336.688638 133 352.295409 133 352.295409 63 306.387226 63 306.387226 75.8979243"></polyline><path d="M416.562482,100.471218 L416.561951,100.473372 C414.642313,105.496559 412.982489,110.543432 411.37739,115.42396 C410.959246,116.695503 410.542164,117.965431 410.120832,119.232129 C408.219791,113.589321 405.997305,107.098638 403.571857,100.471218 L389.129152,63 L373.253493,63 L401.57943,133 L418.286064,133 L446.107784,63 L431.004656,63 L416.562482,100.471218" id="Fill-5" fill="#1D1E1C"></path><polyline id="Fill-6" fill="#1D1E1C" points="452.095808 75.8979243 482.397403 75.8979243 482.397403 133 498.003992 133 498.003992 63 452.095808 63 452.095808 75.8979243"></polyline><path d="M343.315473,30 C336.953215,30 332.335329,34.4271148 332.335329,40.5259156 C332.335329,46.6927775 336.850852,51 343.315473,51 C349.777994,51 354.291417,46.6927775 354.291417,40.5259156 C354.291417,34.4271148 349.675106,30 343.315473,30" id="Fill-7" fill="#1D1E1C"></path><path d="M489.023793,30 C482.661688,30 478.043912,34.4271148 478.043912,40.5259156 C478.043912,46.6927775 482.558802,51 489.023793,51 C495.486685,51 500,46.6927775 500,40.5259156 C500,34.4271148 495.384324,30 489.023793,30" id="Fill-8" fill="#1D1E1C"></path></g></g></g></svg> 